<svg xmlns="http://www.w3.org/2000/svg" xmlns:xlink="http://www.w3.org/1999/xlink" width="600" height="400" viewBox="0 0 2400 1600">
<defs>
  <clipPath id="clip990">
    <rect x="0" y="0" width="2400" height="1600"></rect>
  </clipPath>
</defs>
<path clip-path="url(#clip990)" d="M0 1600 L2400 1600 L2400 0 L0 0  Z" fill="#ffffff" fill-rule="evenodd" fill-opacity="1"></path>
<defs>
  <clipPath id="clip991">
    <rect x="480" y="0" width="1681" height="1600"></rect>
  </clipPath>
</defs>
<path clip-path="url(#clip990)" d="M185.927 1486.45 L1167.42 1486.45 L1167.42 47.2441 L185.927 47.2441  Z" fill="#ffffff" fill-rule="evenodd" fill-opacity="1"></path>
<defs>
  <clipPath id="clip992">
    <rect x="185" y="47" width="982" height="1440"></rect>
  </clipPath>
</defs>
<polyline clip-path="url(#clip992)" style="stroke:#000000; stroke-linecap:round; stroke-linejoin:round; stroke-width:2; stroke-opacity:0.1; fill:none" points="213.705,1486.45 213.705,47.2441 "></polyline>
<polyline clip-path="url(#clip992)" style="stroke:#000000; stroke-linecap:round; stroke-linejoin:round; stroke-width:2; stroke-opacity:0.1; fill:none" points="445.189,1486.45 445.189,47.2441 "></polyline>
<polyline clip-path="url(#clip992)" style="stroke:#000000; stroke-linecap:round; stroke-linejoin:round; stroke-width:2; stroke-opacity:0.1; fill:none" points="676.673,1486.45 676.673,47.2441 "></polyline>
<polyline clip-path="url(#clip992)" style="stroke:#000000; stroke-linecap:round; stroke-linejoin:round; stroke-width:2; stroke-opacity:0.1; fill:none" points="908.158,1486.45 908.158,47.2441 "></polyline>
<polyline clip-path="url(#clip992)" style="stroke:#000000; stroke-linecap:round; stroke-linejoin:round; stroke-width:2; stroke-opacity:0.1; fill:none" points="1139.64,1486.45 1139.64,47.2441 "></polyline>
<polyline clip-path="url(#clip990)" style="stroke:#000000; stroke-linecap:round; stroke-linejoin:round; stroke-width:4; stroke-opacity:1; fill:none" points="185.927,1486.45 1167.42,1486.45 "></polyline>
<polyline clip-path="url(#clip990)" style="stroke:#000000; stroke-linecap:round; stroke-linejoin:round; stroke-width:4; stroke-opacity:1; fill:none" points="213.705,1486.45 213.705,1467.55 "></polyline>
<polyline clip-path="url(#clip990)" style="stroke:#000000; stroke-linecap:round; stroke-linejoin:round; stroke-width:4; stroke-opacity:1; fill:none" points="445.189,1486.45 445.189,1467.55 "></polyline>
<polyline clip-path="url(#clip990)" style="stroke:#000000; stroke-linecap:round; stroke-linejoin:round; stroke-width:4; stroke-opacity:1; fill:none" points="676.673,1486.45 676.673,1467.55 "></polyline>
<polyline clip-path="url(#clip990)" style="stroke:#000000; stroke-linecap:round; stroke-linejoin:round; stroke-width:4; stroke-opacity:1; fill:none" points="908.158,1486.45 908.158,1467.55 "></polyline>
<polyline clip-path="url(#clip990)" style="stroke:#000000; stroke-linecap:round; stroke-linejoin:round; stroke-width:4; stroke-opacity:1; fill:none" points="1139.64,1486.45 1139.64,1467.55 "></polyline>
<path clip-path="url(#clip990)" d="M165.777 1544.91 L173.416 1544.91 L173.416 1518.55 L165.106 1520.21 L165.106 1515.95 L173.369 1514.29 L178.045 1514.29 L178.045 1544.91 L185.684 1544.91 L185.684 1548.85 L165.777 1548.85 L165.777 1544.91 Z" fill="#000000" fill-rule="evenodd" fill-opacity="1"></path><path clip-path="url(#clip990)" d="M195.129 1542.97 L200.013 1542.97 L200.013 1548.85 L195.129 1548.85 L195.129 1542.97 Z" fill="#000000" fill-rule="evenodd" fill-opacity="1"></path><path clip-path="url(#clip990)" d="M220.198 1517.37 Q216.587 1517.37 214.758 1520.93 Q212.953 1524.47 212.953 1531.6 Q212.953 1538.71 214.758 1542.27 Q216.587 1545.82 220.198 1545.82 Q223.832 1545.82 225.638 1542.27 Q227.466 1538.71 227.466 1531.6 Q227.466 1524.47 225.638 1520.93 Q223.832 1517.37 220.198 1517.37 M220.198 1513.66 Q226.008 1513.66 229.064 1518.27 Q232.142 1522.85 232.142 1531.6 Q232.142 1540.33 229.064 1544.94 Q226.008 1549.52 220.198 1549.52 Q214.388 1549.52 211.309 1544.94 Q208.254 1540.33 208.254 1531.6 Q208.254 1522.85 211.309 1518.27 Q214.388 1513.66 220.198 1513.66 Z" fill="#000000" fill-rule="evenodd" fill-opacity="1"></path><path clip-path="url(#clip990)" d="M250.36 1517.37 Q246.749 1517.37 244.92 1520.93 Q243.114 1524.47 243.114 1531.6 Q243.114 1538.71 244.92 1542.27 Q246.749 1545.82 250.36 1545.82 Q253.994 1545.82 255.8 1542.27 Q257.628 1538.71 257.628 1531.6 Q257.628 1524.47 255.8 1520.93 Q253.994 1517.37 250.36 1517.37 M250.36 1513.66 Q256.17 1513.66 259.225 1518.27 Q262.304 1522.85 262.304 1531.6 Q262.304 1540.33 259.225 1544.94 Q256.17 1549.52 250.36 1549.52 Q244.55 1549.52 241.471 1544.94 Q238.415 1540.33 238.415 1531.6 Q238.415 1522.85 241.471 1518.27 Q244.55 1513.66 250.36 1513.66 Z" fill="#000000" fill-rule="evenodd" fill-opacity="1"></path><path clip-path="url(#clip990)" d="M397.759 1544.91 L405.398 1544.91 L405.398 1518.55 L397.088 1520.21 L397.088 1515.95 L405.351 1514.29 L410.027 1514.29 L410.027 1544.91 L417.666 1544.91 L417.666 1548.85 L397.759 1548.85 L397.759 1544.91 Z" fill="#000000" fill-rule="evenodd" fill-opacity="1"></path><path clip-path="url(#clip990)" d="M427.111 1542.97 L431.995 1542.97 L431.995 1548.85 L427.111 1548.85 L427.111 1542.97 Z" fill="#000000" fill-rule="evenodd" fill-opacity="1"></path><path clip-path="url(#clip990)" d="M446.208 1544.91 L462.527 1544.91 L462.527 1548.85 L440.583 1548.85 L440.583 1544.91 Q443.245 1542.16 447.828 1537.53 Q452.435 1532.88 453.615 1531.53 Q455.86 1529.01 456.74 1527.27 Q457.643 1525.51 457.643 1523.82 Q457.643 1521.07 455.698 1519.33 Q453.777 1517.6 450.675 1517.6 Q448.476 1517.6 446.023 1518.36 Q443.592 1519.13 440.814 1520.68 L440.814 1515.95 Q443.638 1514.82 446.092 1514.24 Q448.546 1513.66 450.583 1513.66 Q455.953 1513.66 459.147 1516.35 Q462.342 1519.03 462.342 1523.52 Q462.342 1525.65 461.532 1527.57 Q460.745 1529.47 458.638 1532.07 Q458.059 1532.74 454.958 1535.95 Q451.856 1539.15 446.208 1544.91 Z" fill="#000000" fill-rule="evenodd" fill-opacity="1"></path><path clip-path="url(#clip990)" d="M472.388 1514.29 L490.744 1514.29 L490.744 1518.22 L476.671 1518.22 L476.671 1526.7 Q477.689 1526.35 478.708 1526.19 Q479.726 1526 480.745 1526 Q486.532 1526 489.911 1529.17 Q493.291 1532.34 493.291 1537.76 Q493.291 1543.34 489.819 1546.44 Q486.346 1549.52 480.027 1549.52 Q477.851 1549.52 475.583 1549.15 Q473.337 1548.78 470.93 1548.04 L470.93 1543.34 Q473.013 1544.47 475.235 1545.03 Q477.458 1545.58 479.934 1545.58 Q483.939 1545.58 486.277 1543.48 Q488.615 1541.37 488.615 1537.76 Q488.615 1534.15 486.277 1532.04 Q483.939 1529.94 479.934 1529.94 Q478.059 1529.94 476.184 1530.35 Q474.333 1530.77 472.388 1531.65 L472.388 1514.29 Z" fill="#000000" fill-rule="evenodd" fill-opacity="1"></path><path clip-path="url(#clip990)" d="M628.745 1544.91 L636.384 1544.91 L636.384 1518.55 L628.074 1520.21 L628.074 1515.95 L636.338 1514.29 L641.014 1514.29 L641.014 1544.91 L648.653 1544.91 L648.653 1548.85 L628.745 1548.85 L628.745 1544.91 Z" fill="#000000" fill-rule="evenodd" fill-opacity="1"></path><path clip-path="url(#clip990)" d="M658.097 1542.97 L662.981 1542.97 L662.981 1548.85 L658.097 1548.85 L658.097 1542.97 Z" fill="#000000" fill-rule="evenodd" fill-opacity="1"></path><path clip-path="url(#clip990)" d="M673.213 1514.29 L691.569 1514.29 L691.569 1518.22 L677.495 1518.22 L677.495 1526.7 Q678.514 1526.35 679.532 1526.19 Q680.551 1526 681.569 1526 Q687.356 1526 690.736 1529.17 Q694.116 1532.34 694.116 1537.76 Q694.116 1543.34 690.643 1546.44 Q687.171 1549.52 680.852 1549.52 Q678.676 1549.52 676.407 1549.15 Q674.162 1548.78 671.755 1548.04 L671.755 1543.34 Q673.838 1544.47 676.06 1545.03 Q678.282 1545.58 680.759 1545.58 Q684.764 1545.58 687.102 1543.48 Q689.44 1541.37 689.44 1537.76 Q689.44 1534.15 687.102 1532.04 Q684.764 1529.94 680.759 1529.94 Q678.884 1529.94 677.009 1530.35 Q675.157 1530.77 673.213 1531.65 L673.213 1514.29 Z" fill="#000000" fill-rule="evenodd" fill-opacity="1"></path><path clip-path="url(#clip990)" d="M713.328 1517.37 Q709.717 1517.37 707.889 1520.93 Q706.083 1524.47 706.083 1531.6 Q706.083 1538.71 707.889 1542.27 Q709.717 1545.82 713.328 1545.82 Q716.963 1545.82 718.768 1542.27 Q720.597 1538.71 720.597 1531.6 Q720.597 1524.47 718.768 1520.93 Q716.963 1517.37 713.328 1517.37 M713.328 1513.66 Q719.139 1513.66 722.194 1518.27 Q725.273 1522.85 725.273 1531.6 Q725.273 1540.33 722.194 1544.94 Q719.139 1549.52 713.328 1549.52 Q707.518 1549.52 704.44 1544.94 Q701.384 1540.33 701.384 1531.6 Q701.384 1522.85 704.44 1518.27 Q707.518 1513.66 713.328 1513.66 Z" fill="#000000" fill-rule="evenodd" fill-opacity="1"></path><path clip-path="url(#clip990)" d="M860.727 1544.91 L868.366 1544.91 L868.366 1518.55 L860.056 1520.21 L860.056 1515.95 L868.32 1514.29 L872.996 1514.29 L872.996 1544.91 L880.635 1544.91 L880.635 1548.85 L860.727 1548.85 L860.727 1544.91 Z" fill="#000000" fill-rule="evenodd" fill-opacity="1"></path><path clip-path="url(#clip990)" d="M890.079 1542.97 L894.963 1542.97 L894.963 1548.85 L890.079 1548.85 L890.079 1542.97 Z" fill="#000000" fill-rule="evenodd" fill-opacity="1"></path><path clip-path="url(#clip990)" d="M903.968 1514.29 L926.19 1514.29 L926.19 1516.28 L913.644 1548.85 L908.76 1548.85 L920.565 1518.22 L903.968 1518.22 L903.968 1514.29 Z" fill="#000000" fill-rule="evenodd" fill-opacity="1"></path><path clip-path="url(#clip990)" d="M935.357 1514.29 L953.713 1514.29 L953.713 1518.22 L939.639 1518.22 L939.639 1526.7 Q940.658 1526.35 941.676 1526.19 Q942.695 1526 943.713 1526 Q949.5 1526 952.88 1529.17 Q956.259 1532.34 956.259 1537.76 Q956.259 1543.34 952.787 1546.44 Q949.315 1549.52 942.996 1549.52 Q940.82 1549.52 938.551 1549.15 Q936.306 1548.78 933.898 1548.04 L933.898 1543.34 Q935.982 1544.47 938.204 1545.03 Q940.426 1545.58 942.903 1545.58 Q946.908 1545.58 949.246 1543.48 Q951.583 1541.37 951.583 1537.76 Q951.583 1534.15 949.246 1532.04 Q946.908 1529.94 942.903 1529.94 Q941.028 1529.94 939.153 1530.35 Q937.301 1530.77 935.357 1531.65 L935.357 1514.29 Z" fill="#000000" fill-rule="evenodd" fill-opacity="1"></path><path clip-path="url(#clip990)" d="M1095.8 1544.91 L1112.12 1544.91 L1112.12 1548.85 L1090.17 1548.85 L1090.17 1544.91 Q1092.84 1542.16 1097.42 1537.53 Q1102.03 1532.88 1103.21 1531.53 Q1105.45 1529.01 1106.33 1527.27 Q1107.23 1525.51 1107.23 1523.82 Q1107.23 1521.07 1105.29 1519.33 Q1103.37 1517.6 1100.27 1517.6 Q1098.07 1517.6 1095.61 1518.36 Q1093.18 1519.13 1090.41 1520.68 L1090.41 1515.95 Q1093.23 1514.82 1095.68 1514.24 Q1098.14 1513.66 1100.17 1513.66 Q1105.55 1513.66 1108.74 1516.35 Q1111.93 1519.03 1111.93 1523.52 Q1111.93 1525.65 1111.12 1527.57 Q1110.34 1529.47 1108.23 1532.07 Q1107.65 1532.74 1104.55 1535.95 Q1101.45 1539.15 1095.8 1544.91 Z" fill="#000000" fill-rule="evenodd" fill-opacity="1"></path><path clip-path="url(#clip990)" d="M1121.93 1542.97 L1126.82 1542.97 L1126.82 1548.85 L1121.93 1548.85 L1121.93 1542.97 Z" fill="#000000" fill-rule="evenodd" fill-opacity="1"></path><path clip-path="url(#clip990)" d="M1147 1517.37 Q1143.39 1517.37 1141.56 1520.93 Q1139.76 1524.47 1139.76 1531.6 Q1139.76 1538.71 1141.56 1542.27 Q1143.39 1545.82 1147 1545.82 Q1150.64 1545.82 1152.44 1542.27 Q1154.27 1538.71 1154.27 1531.6 Q1154.27 1524.47 1152.44 1520.93 Q1150.64 1517.37 1147 1517.37 M1147 1513.66 Q1152.81 1513.66 1155.87 1518.27 Q1158.95 1522.85 1158.95 1531.6 Q1158.95 1540.33 1155.87 1544.94 Q1152.81 1549.52 1147 1549.52 Q1141.19 1549.52 1138.11 1544.94 Q1135.06 1540.33 1135.06 1531.6 Q1135.06 1522.85 1138.11 1518.27 Q1141.19 1513.66 1147 1513.66 Z" fill="#000000" fill-rule="evenodd" fill-opacity="1"></path><path clip-path="url(#clip990)" d="M1177.17 1517.37 Q1173.55 1517.37 1171.73 1520.93 Q1169.92 1524.47 1169.92 1531.6 Q1169.92 1538.71 1171.73 1542.27 Q1173.55 1545.82 1177.17 1545.82 Q1180.8 1545.82 1182.6 1542.27 Q1184.43 1538.71 1184.43 1531.6 Q1184.43 1524.47 1182.6 1520.93 Q1180.8 1517.37 1177.17 1517.37 M1177.17 1513.66 Q1182.98 1513.66 1186.03 1518.27 Q1189.11 1522.85 1189.11 1531.6 Q1189.11 1540.33 1186.03 1544.94 Q1182.98 1549.52 1177.17 1549.52 Q1171.35 1549.52 1168.28 1544.94 Q1165.22 1540.33 1165.22 1531.6 Q1165.22 1522.85 1168.28 1518.27 Q1171.35 1513.66 1177.17 1513.66 Z" fill="#000000" fill-rule="evenodd" fill-opacity="1"></path><polyline clip-path="url(#clip992)" style="stroke:#000000; stroke-linecap:round; stroke-linejoin:round; stroke-width:2; stroke-opacity:0.1; fill:none" points="185.927,1445.72 1167.42,1445.72 "></polyline>
<polyline clip-path="url(#clip992)" style="stroke:#000000; stroke-linecap:round; stroke-linejoin:round; stroke-width:2; stroke-opacity:0.1; fill:none" points="185.927,1106.28 1167.42,1106.28 "></polyline>
<polyline clip-path="url(#clip992)" style="stroke:#000000; stroke-linecap:round; stroke-linejoin:round; stroke-width:2; stroke-opacity:0.1; fill:none" points="185.927,766.846 1167.42,766.846 "></polyline>
<polyline clip-path="url(#clip992)" style="stroke:#000000; stroke-linecap:round; stroke-linejoin:round; stroke-width:2; stroke-opacity:0.1; fill:none" points="185.927,427.411 1167.42,427.411 "></polyline>
<polyline clip-path="url(#clip992)" style="stroke:#000000; stroke-linecap:round; stroke-linejoin:round; stroke-width:2; stroke-opacity:0.1; fill:none" points="185.927,87.9763 1167.42,87.9763 "></polyline>
<polyline clip-path="url(#clip990)" style="stroke:#000000; stroke-linecap:round; stroke-linejoin:round; stroke-width:4; stroke-opacity:1; fill:none" points="185.927,1486.45 185.927,47.2441 "></polyline>
<polyline clip-path="url(#clip990)" style="stroke:#000000; stroke-linecap:round; stroke-linejoin:round; stroke-width:4; stroke-opacity:1; fill:none" points="185.927,1445.72 204.824,1445.72 "></polyline>
<polyline clip-path="url(#clip990)" style="stroke:#000000; stroke-linecap:round; stroke-linejoin:round; stroke-width:4; stroke-opacity:1; fill:none" points="185.927,1106.28 204.824,1106.28 "></polyline>
<polyline clip-path="url(#clip990)" style="stroke:#000000; stroke-linecap:round; stroke-linejoin:round; stroke-width:4; stroke-opacity:1; fill:none" points="185.927,766.846 204.824,766.846 "></polyline>
<polyline clip-path="url(#clip990)" style="stroke:#000000; stroke-linecap:round; stroke-linejoin:round; stroke-width:4; stroke-opacity:1; fill:none" points="185.927,427.411 204.824,427.411 "></polyline>
<polyline clip-path="url(#clip990)" style="stroke:#000000; stroke-linecap:round; stroke-linejoin:round; stroke-width:4; stroke-opacity:1; fill:none" points="185.927,87.9763 204.824,87.9763 "></polyline>
<path clip-path="url(#clip990)" d="M53.3995 1459.06 L61.0384 1459.06 L61.0384 1432.69 L52.7282 1434.36 L52.7282 1430.1 L60.9921 1428.44 L65.668 1428.44 L65.668 1459.06 L73.3068 1459.06 L73.3068 1463 L53.3995 1463 L53.3995 1459.06 Z" fill="#000000" fill-rule="evenodd" fill-opacity="1"></path><path clip-path="url(#clip990)" d="M82.7512 1457.12 L87.6354 1457.12 L87.6354 1463 L82.7512 1463 L82.7512 1457.12 Z" fill="#000000" fill-rule="evenodd" fill-opacity="1"></path><path clip-path="url(#clip990)" d="M107.821 1431.51 Q104.209 1431.51 102.381 1435.08 Q100.575 1438.62 100.575 1445.75 Q100.575 1452.86 102.381 1456.42 Q104.209 1459.96 107.821 1459.96 Q111.455 1459.96 113.26 1456.42 Q115.089 1452.86 115.089 1445.75 Q115.089 1438.62 113.26 1435.08 Q111.455 1431.51 107.821 1431.51 M107.821 1427.81 Q113.631 1427.81 116.686 1432.42 Q119.765 1437 119.765 1445.75 Q119.765 1454.48 116.686 1459.08 Q113.631 1463.67 107.821 1463.67 Q102.01 1463.67 98.9317 1459.08 Q95.8761 1454.48 95.8761 1445.75 Q95.8761 1437 98.9317 1432.42 Q102.01 1427.81 107.821 1427.81 Z" fill="#000000" fill-rule="evenodd" fill-opacity="1"></path><path clip-path="url(#clip990)" d="M137.982 1431.51 Q134.371 1431.51 132.543 1435.08 Q130.737 1438.62 130.737 1445.75 Q130.737 1452.86 132.543 1456.42 Q134.371 1459.96 137.982 1459.96 Q141.617 1459.96 143.422 1456.42 Q145.251 1452.86 145.251 1445.75 Q145.251 1438.62 143.422 1435.08 Q141.617 1431.51 137.982 1431.51 M137.982 1427.81 Q143.793 1427.81 146.848 1432.42 Q149.927 1437 149.927 1445.75 Q149.927 1454.48 146.848 1459.08 Q143.793 1463.67 137.982 1463.67 Q132.172 1463.67 129.094 1459.08 Q126.038 1454.48 126.038 1445.75 Q126.038 1437 129.094 1432.42 Q132.172 1427.81 137.982 1427.81 Z" fill="#000000" fill-rule="evenodd" fill-opacity="1"></path><path clip-path="url(#clip990)" d="M54.3949 1119.63 L62.0337 1119.63 L62.0337 1093.26 L53.7236 1094.93 L53.7236 1090.67 L61.9874 1089 L66.6633 1089 L66.6633 1119.63 L74.3022 1119.63 L74.3022 1123.56 L54.3949 1123.56 L54.3949 1119.63 Z" fill="#000000" fill-rule="evenodd" fill-opacity="1"></path><path clip-path="url(#clip990)" d="M83.7466 1117.68 L88.6308 1117.68 L88.6308 1123.56 L83.7466 1123.56 L83.7466 1117.68 Z" fill="#000000" fill-rule="evenodd" fill-opacity="1"></path><path clip-path="url(#clip990)" d="M102.844 1119.63 L119.163 1119.63 L119.163 1123.56 L97.2187 1123.56 L97.2187 1119.63 Q99.8808 1116.87 104.464 1112.24 Q109.071 1107.59 110.251 1106.25 Q112.496 1103.72 113.376 1101.99 Q114.279 1100.23 114.279 1098.54 Q114.279 1095.78 112.334 1094.05 Q110.413 1092.31 107.311 1092.31 Q105.112 1092.31 102.659 1093.07 Q100.228 1093.84 97.4502 1095.39 L97.4502 1090.67 Q100.274 1089.53 102.728 1088.95 Q105.182 1088.38 107.219 1088.38 Q112.589 1088.38 115.783 1091.06 Q118.978 1093.75 118.978 1098.24 Q118.978 1100.37 118.168 1102.29 Q117.381 1104.19 115.274 1106.78 Q114.695 1107.45 111.594 1110.67 Q108.492 1113.86 102.844 1119.63 Z" fill="#000000" fill-rule="evenodd" fill-opacity="1"></path><path clip-path="url(#clip990)" d="M129.024 1089 L147.38 1089 L147.38 1092.94 L133.306 1092.94 L133.306 1101.41 Q134.325 1101.06 135.344 1100.9 Q136.362 1100.71 137.381 1100.71 Q143.168 1100.71 146.547 1103.89 Q149.927 1107.06 149.927 1112.47 Q149.927 1118.05 146.455 1121.15 Q142.982 1124.23 136.663 1124.23 Q134.487 1124.23 132.219 1123.86 Q129.973 1123.49 127.566 1122.75 L127.566 1118.05 Q129.649 1119.19 131.871 1119.74 Q134.094 1120.3 136.57 1120.3 Q140.575 1120.3 142.913 1118.19 Q145.251 1116.08 145.251 1112.47 Q145.251 1108.86 142.913 1106.76 Q140.575 1104.65 136.57 1104.65 Q134.695 1104.65 132.82 1105.07 Q130.969 1105.48 129.024 1106.36 L129.024 1089 Z" fill="#000000" fill-rule="evenodd" fill-opacity="1"></path><path clip-path="url(#clip990)" d="M53.3995 780.191 L61.0384 780.191 L61.0384 753.825 L52.7282 755.492 L52.7282 751.233 L60.9921 749.566 L65.668 749.566 L65.668 780.191 L73.3068 780.191 L73.3068 784.126 L53.3995 784.126 L53.3995 780.191 Z" fill="#000000" fill-rule="evenodd" fill-opacity="1"></path><path clip-path="url(#clip990)" d="M82.7512 778.246 L87.6354 778.246 L87.6354 784.126 L82.7512 784.126 L82.7512 778.246 Z" fill="#000000" fill-rule="evenodd" fill-opacity="1"></path><path clip-path="url(#clip990)" d="M97.8669 749.566 L116.223 749.566 L116.223 753.501 L102.149 753.501 L102.149 761.973 Q103.168 761.626 104.186 761.464 Q105.205 761.279 106.223 761.279 Q112.01 761.279 115.39 764.45 Q118.77 767.621 118.77 773.038 Q118.77 778.617 115.297 781.719 Q111.825 784.797 105.506 784.797 Q103.33 784.797 101.061 784.427 Q98.8159 784.057 96.4085 783.316 L96.4085 778.617 Q98.4919 779.751 100.714 780.307 Q102.936 780.862 105.413 780.862 Q109.418 780.862 111.756 778.756 Q114.094 776.649 114.094 773.038 Q114.094 769.427 111.756 767.321 Q109.418 765.214 105.413 765.214 Q103.538 765.214 101.663 765.631 Q99.8113 766.047 97.8669 766.927 L97.8669 749.566 Z" fill="#000000" fill-rule="evenodd" fill-opacity="1"></path><path clip-path="url(#clip990)" d="M137.982 752.645 Q134.371 752.645 132.543 756.209 Q130.737 759.751 130.737 766.881 Q130.737 773.987 132.543 777.552 Q134.371 781.094 137.982 781.094 Q141.617 781.094 143.422 777.552 Q145.251 773.987 145.251 766.881 Q145.251 759.751 143.422 756.209 Q141.617 752.645 137.982 752.645 M137.982 748.941 Q143.793 748.941 146.848 753.547 Q149.927 758.131 149.927 766.881 Q149.927 775.608 146.848 780.214 Q143.793 784.797 137.982 784.797 Q132.172 784.797 129.094 780.214 Q126.038 775.608 126.038 766.881 Q126.038 758.131 129.094 753.547 Q132.172 748.941 137.982 748.941 Z" fill="#000000" fill-rule="evenodd" fill-opacity="1"></path><path clip-path="url(#clip990)" d="M54.3949 440.756 L62.0337 440.756 L62.0337 414.39 L53.7236 416.057 L53.7236 411.798 L61.9874 410.131 L66.6633 410.131 L66.6633 440.756 L74.3022 440.756 L74.3022 444.691 L54.3949 444.691 L54.3949 440.756 Z" fill="#000000" fill-rule="evenodd" fill-opacity="1"></path><path clip-path="url(#clip990)" d="M83.7466 438.812 L88.6308 438.812 L88.6308 444.691 L83.7466 444.691 L83.7466 438.812 Z" fill="#000000" fill-rule="evenodd" fill-opacity="1"></path><path clip-path="url(#clip990)" d="M97.6354 410.131 L119.857 410.131 L119.857 412.122 L107.311 444.691 L102.427 444.691 L114.233 414.066 L97.6354 414.066 L97.6354 410.131 Z" fill="#000000" fill-rule="evenodd" fill-opacity="1"></path><path clip-path="url(#clip990)" d="M129.024 410.131 L147.38 410.131 L147.38 414.066 L133.306 414.066 L133.306 422.538 Q134.325 422.191 135.344 422.029 Q136.362 421.844 137.381 421.844 Q143.168 421.844 146.547 425.015 Q149.927 428.187 149.927 433.603 Q149.927 439.182 146.455 442.284 Q142.982 445.362 136.663 445.362 Q134.487 445.362 132.219 444.992 Q129.973 444.622 127.566 443.881 L127.566 439.182 Q129.649 440.316 131.871 440.872 Q134.094 441.427 136.57 441.427 Q140.575 441.427 142.913 439.321 Q145.251 437.214 145.251 433.603 Q145.251 429.992 142.913 427.886 Q140.575 425.779 136.57 425.779 Q134.695 425.779 132.82 426.196 Q130.969 426.613 129.024 427.492 L129.024 410.131 Z" fill="#000000" fill-rule="evenodd" fill-opacity="1"></path><path clip-path="url(#clip990)" d="M56.6171 101.321 L72.9365 101.321 L72.9365 105.256 L50.9921 105.256 L50.9921 101.321 Q53.6541 98.5665 58.2375 93.9369 Q62.8439 89.2841 64.0245 87.9416 Q66.2698 85.4184 67.1494 83.6823 Q68.0522 81.9231 68.0522 80.2333 Q68.0522 77.4786 66.1078 75.7425 Q64.1865 74.0064 61.0847 74.0064 Q58.8856 74.0064 56.4319 74.7703 Q54.0014 75.5342 51.2236 77.0851 L51.2236 72.3629 Q54.0477 71.2287 56.5014 70.65 Q58.955 70.0713 60.9921 70.0713 Q66.3624 70.0713 69.5568 72.7565 Q72.7513 75.4416 72.7513 79.9323 Q72.7513 82.062 71.9411 83.9832 Q71.1541 85.8814 69.0476 88.474 Q68.4689 89.1453 65.367 92.3628 Q62.2652 95.5573 56.6171 101.321 Z" fill="#000000" fill-rule="evenodd" fill-opacity="1"></path><path clip-path="url(#clip990)" d="M82.7512 99.3767 L87.6354 99.3767 L87.6354 105.256 L82.7512 105.256 L82.7512 99.3767 Z" fill="#000000" fill-rule="evenodd" fill-opacity="1"></path><path clip-path="url(#clip990)" d="M107.821 73.775 Q104.209 73.775 102.381 77.3398 Q100.575 80.8814 100.575 88.011 Q100.575 95.1174 102.381 98.6822 Q104.209 102.224 107.821 102.224 Q111.455 102.224 113.26 98.6822 Q115.089 95.1174 115.089 88.011 Q115.089 80.8814 113.26 77.3398 Q111.455 73.775 107.821 73.775 M107.821 70.0713 Q113.631 70.0713 116.686 74.6777 Q119.765 79.261 119.765 88.011 Q119.765 96.7378 116.686 101.344 Q113.631 105.928 107.821 105.928 Q102.01 105.928 98.9317 101.344 Q95.8761 96.7378 95.8761 88.011 Q95.8761 79.261 98.9317 74.6777 Q102.01 70.0713 107.821 70.0713 Z" fill="#000000" fill-rule="evenodd" fill-opacity="1"></path><path clip-path="url(#clip990)" d="M137.982 73.775 Q134.371 73.775 132.543 77.3398 Q130.737 80.8814 130.737 88.011 Q130.737 95.1174 132.543 98.6822 Q134.371 102.224 137.982 102.224 Q141.617 102.224 143.422 98.6822 Q145.251 95.1174 145.251 88.011 Q145.251 80.8814 143.422 77.3398 Q141.617 73.775 137.982 73.775 M137.982 70.0713 Q143.793 70.0713 146.848 74.6777 Q149.927 79.261 149.927 88.011 Q149.927 96.7378 146.848 101.344 Q143.793 105.928 137.982 105.928 Q132.172 105.928 129.094 101.344 Q126.038 96.7378 126.038 88.011 Q126.038 79.261 129.094 74.6777 Q132.172 70.0713 137.982 70.0713 Z" fill="#000000" fill-rule="evenodd" fill-opacity="1"></path><polyline clip-path="url(#clip992)" style="stroke:#009af9; stroke-linecap:round; stroke-linejoin:round; stroke-width:4; stroke-opacity:1; fill:none" points="213.705,1445.72 1139.64,87.9763 "></polyline>
<path clip-path="url(#clip990)" d="M218.643 198.898 L369.223 198.898 L369.223 95.2176 L218.643 95.2176  Z" fill="#ffffff" fill-rule="evenodd" fill-opacity="1"></path>
<polyline clip-path="url(#clip990)" style="stroke:#000000; stroke-linecap:round; stroke-linejoin:round; stroke-width:4; stroke-opacity:1; fill:none" points="218.643,198.898 369.223,198.898 369.223,95.2176 218.643,95.2176 218.643,198.898 "></polyline>
<polyline clip-path="url(#clip990)" style="stroke:#009af9; stroke-linecap:round; stroke-linejoin:round; stroke-width:4; stroke-opacity:1; fill:none" points="229.549,147.058 294.982,147.058 "></polyline>
<path clip-path="url(#clip990)" d="M319.73 166.745 Q317.924 171.375 316.211 172.787 Q314.498 174.199 311.628 174.199 L308.225 174.199 L308.225 170.634 L310.725 170.634 Q312.484 170.634 313.456 169.8 Q314.429 168.967 315.609 165.865 L316.373 163.921 L305.887 138.412 L310.401 138.412 L318.503 158.689 L326.605 138.412 L331.118 138.412 L319.73 166.745 Z" fill="#000000" fill-rule="evenodd" fill-opacity="1"></path><path clip-path="url(#clip990)" d="M338.41 160.402 L346.049 160.402 L346.049 134.037 L337.739 135.703 L337.739 131.444 L346.003 129.778 L350.679 129.778 L350.679 160.402 L358.317 160.402 L358.317 164.338 L338.41 164.338 L338.41 160.402 Z" fill="#000000" fill-rule="evenodd" fill-opacity="1"></path><path clip-path="url(#clip990)" d="M-566.633 2088.57 L-566.633 2105.13 L-546.893 2105.13 L-546.893 2112.58 L-566.633 2112.58 L-566.633 2144.25 Q-566.633 2151.38 -564.706 2153.41 Q-562.727 2155.44 -556.737 2155.44 L-546.893 2155.44 L-546.893 2163.47 L-556.737 2163.47 Q-567.831 2163.47 -572.05 2159.35 Q-576.268 2155.18 -576.268 2144.25 L-576.268 2112.58 L-583.3 2112.58 L-583.3 2105.13 L-576.268 2105.13 L-576.268 2088.57 L-566.633 2088.57 Z" fill="#ff0000" fill-rule="evenodd" fill-opacity="1"></path><path clip-path="url(#clip990)" d="M-484.394 2131.9 L-484.394 2136.59 L-528.456 2136.59 Q-527.831 2146.49 -522.519 2151.69 Q-517.154 2156.85 -507.623 2156.85 Q-502.102 2156.85 -496.946 2155.5 Q-491.738 2154.14 -486.633 2151.43 L-486.633 2160.5 Q-491.79 2162.68 -497.206 2163.83 Q-502.623 2164.98 -508.196 2164.98 Q-522.154 2164.98 -530.331 2156.85 Q-538.456 2148.73 -538.456 2134.87 Q-538.456 2120.55 -530.748 2112.16 Q-522.987 2103.73 -509.862 2103.73 Q-498.092 2103.73 -491.269 2111.33 Q-484.394 2118.88 -484.394 2131.9 M-493.977 2129.09 Q-494.081 2121.23 -498.404 2116.54 Q-502.675 2111.85 -509.758 2111.85 Q-517.779 2111.85 -522.623 2116.38 Q-527.414 2120.91 -528.144 2129.14 L-493.977 2129.09 Z" fill="#ff0000" fill-rule="evenodd" fill-opacity="1"></path><path clip-path="url(#clip990)" d="M-422.05 2105.13 L-443.144 2133.52 L-420.957 2163.47 L-432.259 2163.47 L-449.238 2140.55 L-466.217 2163.47 L-477.519 2163.47 L-454.863 2132.94 L-475.592 2105.13 L-464.29 2105.13 L-448.821 2125.91 L-433.352 2105.13 L-422.05 2105.13 Z" fill="#ff0000" fill-rule="evenodd" fill-opacity="1"></path><path clip-path="url(#clip990)" d="M-397.936 2088.57 L-397.936 2105.13 L-378.196 2105.13 L-378.196 2112.58 L-397.936 2112.58 L-397.936 2144.25 Q-397.936 2151.38 -396.009 2153.41 Q-394.03 2155.44 -388.04 2155.44 L-378.196 2155.44 L-378.196 2163.47 L-388.04 2163.47 Q-399.134 2163.47 -403.353 2159.35 Q-407.571 2155.18 -407.571 2144.25 L-407.571 2112.58 L-414.603 2112.58 L-414.603 2105.13 L-407.571 2105.13 L-407.571 2088.57 L-397.936 2088.57 Z" fill="#ff0000" fill-rule="evenodd" fill-opacity="1"></path><path clip-path="url(#clip990)" d="M-355.643 2105.13 L-346.06 2105.13 L-334.081 2150.65 L-322.154 2105.13 L-310.852 2105.13 L-298.873 2150.65 L-286.946 2105.13 L-277.362 2105.13 L-292.623 2163.47 L-303.925 2163.47 L-316.477 2115.65 L-329.081 2163.47 L-340.383 2163.47 L-355.643 2105.13 Z" fill="#000000" fill-rule="evenodd" fill-opacity="1"></path><path clip-path="url(#clip990)" d="M-262.831 2105.13 L-253.248 2105.13 L-253.248 2163.47 L-262.831 2163.47 L-262.831 2105.13 M-262.831 2082.42 L-253.248 2082.42 L-253.248 2094.56 L-262.831 2094.56 L-262.831 2082.42 Z" fill="#000000" fill-rule="evenodd" fill-opacity="1"></path><path clip-path="url(#clip990)" d="M-223.717 2088.57 L-223.717 2105.13 L-203.977 2105.13 L-203.977 2112.58 L-223.717 2112.58 L-223.717 2144.25 Q-223.717 2151.38 -221.79 2153.41 Q-219.811 2155.44 -213.821 2155.44 L-203.977 2155.44 L-203.977 2163.47 L-213.821 2163.47 Q-224.915 2163.47 -229.134 2159.35 Q-233.352 2155.18 -233.352 2144.25 L-233.352 2112.58 L-240.384 2112.58 L-240.384 2105.13 L-233.352 2105.13 L-233.352 2088.57 L-223.717 2088.57 Z" fill="#000000" fill-rule="evenodd" fill-opacity="1"></path><path clip-path="url(#clip990)" d="M-142.884 2128.26 L-142.884 2163.47 L-152.467 2163.47 L-152.467 2128.57 Q-152.467 2120.29 -155.696 2116.17 Q-158.926 2112.06 -165.384 2112.06 Q-173.144 2112.06 -177.623 2117.01 Q-182.103 2121.96 -182.103 2130.5 L-182.103 2163.47 L-191.738 2163.47 L-191.738 2082.42 L-182.103 2082.42 L-182.103 2114.19 Q-178.665 2108.93 -174.03 2106.33 Q-169.342 2103.73 -163.249 2103.73 Q-153.196 2103.73 -148.04 2109.98 Q-142.884 2116.17 -142.884 2128.26 Z" fill="#000000" fill-rule="evenodd" fill-opacity="1"></path><path clip-path="url(#clip990)" d="M-100.019 2107.37 L-100.019 2116.33 Q-104.081 2114.09 -108.196 2113 Q-112.258 2111.85 -116.425 2111.85 Q-125.748 2111.85 -130.904 2117.79 Q-136.06 2123.67 -136.06 2134.35 Q-136.06 2145.03 -130.904 2150.97 Q-125.748 2156.85 -116.425 2156.85 Q-112.258 2156.85 -108.196 2155.76 Q-104.081 2154.61 -100.019 2152.37 L-100.019 2161.23 Q-104.029 2163.1 -108.352 2164.04 Q-112.623 2164.98 -117.466 2164.98 Q-130.643 2164.98 -138.404 2156.69 Q-146.164 2148.41 -146.164 2134.35 Q-146.164 2120.08 -138.352 2111.9 Q-130.487 2103.73 -116.841 2103.73 Q-112.414 2103.73 -108.196 2104.66 Q-103.977 2105.55 -100.019 2107.37 Z" fill="#ffa500" fill-rule="evenodd" fill-opacity="1"></path><path clip-path="url(#clip990)" d="M-60.7479 2111.85 Q-68.4562 2111.85 -72.9354 2117.89 Q-77.4145 2123.88 -77.4145 2134.35 Q-77.4145 2144.82 -72.9874 2150.86 Q-68.5083 2156.85 -60.7479 2156.85 Q-53.0917 2156.85 -48.6126 2150.81 Q-44.1334 2144.77 -44.1334 2134.35 Q-44.1334 2123.99 -48.6126 2117.94 Q-53.0917 2111.85 -60.7479 2111.85 M-60.7479 2103.73 Q-48.248 2103.73 -41.1126 2111.85 Q-33.9772 2119.98 -33.9772 2134.35 Q-33.9772 2148.67 -41.1126 2156.85 Q-48.248 2164.98 -60.7479 2164.98 Q-73.2999 2164.98 -80.4353 2156.85 Q-87.5186 2148.67 -87.5186 2134.35 Q-87.5186 2119.98 -80.4353 2111.85 Q-73.2999 2103.73 -60.7479 2103.73 Z" fill="#ffa500" fill-rule="evenodd" fill-opacity="1"></path><path clip-path="url(#clip990)" d="M-18.0919 2082.42 L-8.50861 2082.42 L-8.50861 2163.47 L-18.0919 2163.47 L-18.0919 2082.42 Z" fill="#ffa500" fill-rule="evenodd" fill-opacity="1"></path><path clip-path="url(#clip990)" d="M34.1474 2111.85 Q26.4391 2111.85 21.96 2117.89 Q17.4808 2123.88 17.4808 2134.35 Q17.4808 2144.82 21.9079 2150.86 Q26.387 2156.85 34.1474 2156.85 Q41.8036 2156.85 46.2828 2150.81 Q50.7619 2144.77 50.7619 2134.35 Q50.7619 2123.99 46.2828 2117.94 Q41.8036 2111.85 34.1474 2111.85 M34.1474 2103.73 Q46.6473 2103.73 53.7827 2111.85 Q60.9181 2119.98 60.9181 2134.35 Q60.9181 2148.67 53.7827 2156.85 Q46.6473 2164.98 34.1474 2164.98 Q21.5954 2164.98 14.46 2156.85 Q7.37672 2148.67 7.37672 2134.35 Q7.37672 2119.98 14.46 2111.85 Q21.5954 2103.73 34.1474 2103.73 Z" fill="#ffa500" fill-rule="evenodd" fill-opacity="1"></path><path clip-path="url(#clip990)" d="M110.605 2114.09 Q108.991 2113.15 107.064 2112.74 Q105.189 2112.27 102.897 2112.27 Q94.7721 2112.27 90.3971 2117.58 Q86.0742 2122.84 86.0742 2132.74 L86.0742 2163.47 L76.4388 2163.47 L76.4388 2105.13 L86.0742 2105.13 L86.0742 2114.19 Q89.095 2108.88 93.9388 2106.33 Q98.7825 2103.73 105.71 2103.73 Q106.699 2103.73 107.897 2103.88 Q109.095 2103.99 110.553 2104.25 L110.605 2114.09 Z" fill="#ffa500" fill-rule="evenodd" fill-opacity="1"></path><path clip-path="url(#clip990)" d="M1371.26 1486.45 L2352.76 1486.45 L2352.76 47.2441 L1371.26 47.2441  Z" fill="#ffffff" fill-rule="evenodd" fill-opacity="1"></path>
<defs>
  <clipPath id="clip993">
    <rect x="1371" y="47" width="982" height="1440"></rect>
  </clipPath>
</defs>
<polyline clip-path="url(#clip993)" style="stroke:#000000; stroke-linecap:round; stroke-linejoin:round; stroke-width:2; stroke-opacity:0.1; fill:none" points="1371.26,1486.45 1371.26,47.2441 "></polyline>
<polyline clip-path="url(#clip993)" style="stroke:#000000; stroke-linecap:round; stroke-linejoin:round; stroke-width:2; stroke-opacity:0.1; fill:none" points="1567.56,1486.45 1567.56,47.2441 "></polyline>
<polyline clip-path="url(#clip993)" style="stroke:#000000; stroke-linecap:round; stroke-linejoin:round; stroke-width:2; stroke-opacity:0.1; fill:none" points="1763.86,1486.45 1763.86,47.2441 "></polyline>
<polyline clip-path="url(#clip993)" style="stroke:#000000; stroke-linecap:round; stroke-linejoin:round; stroke-width:2; stroke-opacity:0.1; fill:none" points="1960.16,1486.45 1960.16,47.2441 "></polyline>
<polyline clip-path="url(#clip993)" style="stroke:#000000; stroke-linecap:round; stroke-linejoin:round; stroke-width:2; stroke-opacity:0.1; fill:none" points="2156.46,1486.45 2156.46,47.2441 "></polyline>
<polyline clip-path="url(#clip993)" style="stroke:#000000; stroke-linecap:round; stroke-linejoin:round; stroke-width:2; stroke-opacity:0.1; fill:none" points="2352.76,1486.45 2352.76,47.2441 "></polyline>
<polyline clip-path="url(#clip990)" style="stroke:#000000; stroke-linecap:round; stroke-linejoin:round; stroke-width:4; stroke-opacity:1; fill:none" points="1371.26,1486.45 2352.76,1486.45 "></polyline>
<polyline clip-path="url(#clip990)" style="stroke:#000000; stroke-linecap:round; stroke-linejoin:round; stroke-width:4; stroke-opacity:1; fill:none" points="1371.26,1486.45 1371.26,1467.55 "></polyline>
<polyline clip-path="url(#clip990)" style="stroke:#000000; stroke-linecap:round; stroke-linejoin:round; stroke-width:4; stroke-opacity:1; fill:none" points="1567.56,1486.45 1567.56,1467.55 "></polyline>
<polyline clip-path="url(#clip990)" style="stroke:#000000; stroke-linecap:round; stroke-linejoin:round; stroke-width:4; stroke-opacity:1; fill:none" points="1763.86,1486.45 1763.86,1467.55 "></polyline>
<polyline clip-path="url(#clip990)" style="stroke:#000000; stroke-linecap:round; stroke-linejoin:round; stroke-width:4; stroke-opacity:1; fill:none" points="1960.16,1486.45 1960.16,1467.55 "></polyline>
<polyline clip-path="url(#clip990)" style="stroke:#000000; stroke-linecap:round; stroke-linejoin:round; stroke-width:4; stroke-opacity:1; fill:none" points="2156.46,1486.45 2156.46,1467.55 "></polyline>
<polyline clip-path="url(#clip990)" style="stroke:#000000; stroke-linecap:round; stroke-linejoin:round; stroke-width:4; stroke-opacity:1; fill:none" points="2352.76,1486.45 2352.76,1467.55 "></polyline>
<path clip-path="url(#clip990)" d="M1348.65 1517.37 Q1345.04 1517.37 1343.21 1520.93 Q1341.4 1524.47 1341.4 1531.6 Q1341.4 1538.71 1343.21 1542.27 Q1345.04 1545.82 1348.65 1545.82 Q1352.28 1545.82 1354.09 1542.27 Q1355.92 1538.71 1355.92 1531.6 Q1355.92 1524.47 1354.09 1520.93 Q1352.28 1517.37 1348.65 1517.37 M1348.65 1513.66 Q1354.46 1513.66 1357.51 1518.27 Q1360.59 1522.85 1360.59 1531.6 Q1360.59 1540.33 1357.51 1544.94 Q1354.46 1549.52 1348.65 1549.52 Q1342.84 1549.52 1339.76 1544.94 Q1336.7 1540.33 1336.7 1531.6 Q1336.7 1522.85 1339.76 1518.27 Q1342.84 1513.66 1348.65 1513.66 Z" fill="#000000" fill-rule="evenodd" fill-opacity="1"></path><path clip-path="url(#clip990)" d="M1368.81 1542.97 L1373.69 1542.97 L1373.69 1548.85 L1368.81 1548.85 L1368.81 1542.97 Z" fill="#000000" fill-rule="evenodd" fill-opacity="1"></path><path clip-path="url(#clip990)" d="M1393.88 1517.37 Q1390.27 1517.37 1388.44 1520.93 Q1386.63 1524.47 1386.63 1531.6 Q1386.63 1538.71 1388.44 1542.27 Q1390.27 1545.82 1393.88 1545.82 Q1397.51 1545.82 1399.32 1542.27 Q1401.15 1538.71 1401.15 1531.6 Q1401.15 1524.47 1399.32 1520.93 Q1397.51 1517.37 1393.88 1517.37 M1393.88 1513.66 Q1399.69 1513.66 1402.74 1518.27 Q1405.82 1522.85 1405.82 1531.6 Q1405.82 1540.33 1402.74 1544.94 Q1399.69 1549.52 1393.88 1549.52 Q1388.07 1549.52 1384.99 1544.94 Q1381.93 1540.33 1381.93 1531.6 Q1381.93 1522.85 1384.99 1518.27 Q1388.07 1513.66 1393.88 1513.66 Z" fill="#000000" fill-rule="evenodd" fill-opacity="1"></path><path clip-path="url(#clip990)" d="M1545.74 1517.37 Q1542.13 1517.37 1540.3 1520.93 Q1538.5 1524.47 1538.5 1531.6 Q1538.5 1538.71 1540.3 1542.27 Q1542.13 1545.82 1545.74 1545.82 Q1549.38 1545.82 1551.18 1542.27 Q1553.01 1538.71 1553.01 1531.6 Q1553.01 1524.47 1551.18 1520.93 Q1549.38 1517.37 1545.74 1517.37 M1545.74 1513.66 Q1551.55 1513.66 1554.61 1518.27 Q1557.69 1522.85 1557.69 1531.6 Q1557.69 1540.33 1554.61 1544.94 Q1551.55 1549.52 1545.74 1549.52 Q1539.93 1549.52 1536.86 1544.94 Q1533.8 1540.33 1533.8 1531.6 Q1533.8 1522.85 1536.86 1518.27 Q1539.93 1513.66 1545.74 1513.66 Z" fill="#000000" fill-rule="evenodd" fill-opacity="1"></path><path clip-path="url(#clip990)" d="M1565.91 1542.97 L1570.79 1542.97 L1570.79 1548.85 L1565.91 1548.85 L1565.91 1542.97 Z" fill="#000000" fill-rule="evenodd" fill-opacity="1"></path><path clip-path="url(#clip990)" d="M1585 1544.91 L1601.32 1544.91 L1601.32 1548.85 L1579.38 1548.85 L1579.38 1544.91 Q1582.04 1542.16 1586.62 1537.53 Q1591.23 1532.88 1592.41 1531.53 Q1594.66 1529.01 1595.54 1527.27 Q1596.44 1525.51 1596.44 1523.82 Q1596.44 1521.07 1594.49 1519.33 Q1592.57 1517.6 1589.47 1517.6 Q1587.27 1517.6 1584.82 1518.36 Q1582.39 1519.13 1579.61 1520.68 L1579.61 1515.95 Q1582.43 1514.82 1584.89 1514.24 Q1587.34 1513.66 1589.38 1513.66 Q1594.75 1513.66 1597.94 1516.35 Q1601.14 1519.03 1601.14 1523.52 Q1601.14 1525.65 1600.33 1527.57 Q1599.54 1529.47 1597.43 1532.07 Q1596.86 1532.74 1593.75 1535.95 Q1590.65 1539.15 1585 1544.91 Z" fill="#000000" fill-rule="evenodd" fill-opacity="1"></path><path clip-path="url(#clip990)" d="M1741 1517.37 Q1737.39 1517.37 1735.56 1520.93 Q1733.76 1524.47 1733.76 1531.6 Q1733.76 1538.71 1735.56 1542.27 Q1737.39 1545.82 1741 1545.82 Q1744.64 1545.82 1746.44 1542.27 Q1748.27 1538.71 1748.27 1531.6 Q1748.27 1524.47 1746.44 1520.93 Q1744.64 1517.37 1741 1517.37 M1741 1513.66 Q1746.81 1513.66 1749.87 1518.27 Q1752.95 1522.85 1752.95 1531.6 Q1752.95 1540.33 1749.87 1544.94 Q1746.81 1549.52 1741 1549.52 Q1735.19 1549.52 1732.11 1544.94 Q1729.06 1540.33 1729.06 1531.6 Q1729.06 1522.85 1732.11 1518.27 Q1735.19 1513.66 1741 1513.66 Z" fill="#000000" fill-rule="evenodd" fill-opacity="1"></path><path clip-path="url(#clip990)" d="M1761.16 1542.97 L1766.05 1542.97 L1766.05 1548.85 L1761.16 1548.85 L1761.16 1542.97 Z" fill="#000000" fill-rule="evenodd" fill-opacity="1"></path><path clip-path="url(#clip990)" d="M1789.08 1518.36 L1777.27 1536.81 L1789.08 1536.81 L1789.08 1518.36 M1787.85 1514.29 L1793.73 1514.29 L1793.73 1536.81 L1798.66 1536.81 L1798.66 1540.7 L1793.73 1540.7 L1793.73 1548.85 L1789.08 1548.85 L1789.08 1540.7 L1773.48 1540.7 L1773.48 1536.19 L1787.85 1514.29 Z" fill="#000000" fill-rule="evenodd" fill-opacity="1"></path><path clip-path="url(#clip990)" d="M1937.46 1517.37 Q1933.85 1517.37 1932.02 1520.93 Q1930.22 1524.47 1930.22 1531.6 Q1930.22 1538.71 1932.02 1542.27 Q1933.85 1545.82 1937.46 1545.82 Q1941.1 1545.82 1942.9 1542.27 Q1944.73 1538.71 1944.73 1531.6 Q1944.73 1524.47 1942.9 1520.93 Q1941.1 1517.37 1937.46 1517.37 M1937.46 1513.66 Q1943.27 1513.66 1946.33 1518.27 Q1949.41 1522.85 1949.41 1531.6 Q1949.41 1540.33 1946.33 1544.94 Q1943.27 1549.52 1937.46 1549.52 Q1931.65 1549.52 1928.57 1544.94 Q1925.52 1540.33 1925.52 1531.6 Q1925.52 1522.85 1928.57 1518.27 Q1931.65 1513.66 1937.46 1513.66 Z" fill="#000000" fill-rule="evenodd" fill-opacity="1"></path><path clip-path="url(#clip990)" d="M1957.62 1542.97 L1962.51 1542.97 L1962.51 1548.85 L1957.62 1548.85 L1957.62 1542.97 Z" fill="#000000" fill-rule="evenodd" fill-opacity="1"></path><path clip-path="url(#clip990)" d="M1983.27 1529.7 Q1980.12 1529.7 1978.27 1531.86 Q1976.44 1534.01 1976.44 1537.76 Q1976.44 1541.49 1978.27 1543.66 Q1980.12 1545.82 1983.27 1545.82 Q1986.42 1545.82 1988.25 1543.66 Q1990.1 1541.49 1990.1 1537.76 Q1990.1 1534.01 1988.25 1531.86 Q1986.42 1529.7 1983.27 1529.7 M1992.55 1515.05 L1992.55 1519.31 Q1990.79 1518.48 1988.99 1518.04 Q1987.21 1517.6 1985.45 1517.6 Q1980.82 1517.6 1978.36 1520.72 Q1975.93 1523.85 1975.59 1530.17 Q1976.95 1528.15 1979.01 1527.09 Q1981.07 1526 1983.55 1526 Q1988.76 1526 1991.77 1529.17 Q1994.8 1532.32 1994.8 1537.76 Q1994.8 1543.08 1991.65 1546.3 Q1988.5 1549.52 1983.27 1549.52 Q1977.28 1549.52 1974.11 1544.94 Q1970.93 1540.33 1970.93 1531.6 Q1970.93 1523.41 1974.82 1518.55 Q1978.71 1513.66 1985.26 1513.66 Q1987.02 1513.66 1988.8 1514.01 Q1990.61 1514.36 1992.55 1515.05 Z" fill="#000000" fill-rule="evenodd" fill-opacity="1"></path><path clip-path="url(#clip990)" d="M2133.89 1517.37 Q2130.28 1517.37 2128.45 1520.93 Q2126.64 1524.47 2126.64 1531.6 Q2126.64 1538.71 2128.45 1542.27 Q2130.28 1545.82 2133.89 1545.82 Q2137.52 1545.82 2139.33 1542.27 Q2141.16 1538.71 2141.16 1531.6 Q2141.16 1524.47 2139.33 1520.93 Q2137.52 1517.37 2133.89 1517.37 M2133.89 1513.66 Q2139.7 1513.66 2142.75 1518.27 Q2145.83 1522.85 2145.83 1531.6 Q2145.83 1540.33 2142.75 1544.94 Q2139.7 1549.52 2133.89 1549.52 Q2128.08 1549.52 2125 1544.94 Q2121.94 1540.33 2121.94 1531.6 Q2121.94 1522.85 2125 1518.27 Q2128.08 1513.66 2133.89 1513.66 Z" fill="#000000" fill-rule="evenodd" fill-opacity="1"></path><path clip-path="url(#clip990)" d="M2154.05 1542.97 L2158.93 1542.97 L2158.93 1548.85 L2154.05 1548.85 L2154.05 1542.97 Z" fill="#000000" fill-rule="evenodd" fill-opacity="1"></path><path clip-path="url(#clip990)" d="M2179.12 1532.44 Q2175.79 1532.44 2173.86 1534.22 Q2171.97 1536 2171.97 1539.13 Q2171.97 1542.25 2173.86 1544.03 Q2175.79 1545.82 2179.12 1545.82 Q2182.45 1545.82 2184.37 1544.03 Q2186.3 1542.23 2186.3 1539.13 Q2186.3 1536 2184.37 1534.22 Q2182.48 1532.44 2179.12 1532.44 M2174.44 1530.45 Q2171.43 1529.7 2169.74 1527.64 Q2168.08 1525.58 2168.08 1522.62 Q2168.08 1518.48 2171.02 1516.07 Q2173.98 1513.66 2179.12 1513.66 Q2184.28 1513.66 2187.22 1516.07 Q2190.16 1518.48 2190.16 1522.62 Q2190.16 1525.58 2188.47 1527.64 Q2186.8 1529.7 2183.82 1530.45 Q2187.2 1531.23 2189.07 1533.52 Q2190.97 1535.82 2190.97 1539.13 Q2190.97 1544.15 2187.89 1546.83 Q2184.84 1549.52 2179.12 1549.52 Q2173.4 1549.52 2170.32 1546.83 Q2167.27 1544.15 2167.27 1539.13 Q2167.27 1535.82 2169.17 1533.52 Q2171.06 1531.23 2174.44 1530.45 M2172.73 1523.06 Q2172.73 1525.75 2174.4 1527.25 Q2176.09 1528.76 2179.12 1528.76 Q2182.13 1528.76 2183.82 1527.25 Q2185.53 1525.75 2185.53 1523.06 Q2185.53 1520.38 2183.82 1518.87 Q2182.13 1517.37 2179.12 1517.37 Q2176.09 1517.37 2174.4 1518.87 Q2172.73 1520.38 2172.73 1523.06 Z" fill="#000000" fill-rule="evenodd" fill-opacity="1"></path><path clip-path="url(#clip990)" d="M2319.91 1544.91 L2327.55 1544.91 L2327.55 1518.55 L2319.24 1520.21 L2319.24 1515.95 L2327.5 1514.29 L2332.18 1514.29 L2332.18 1544.91 L2339.82 1544.91 L2339.82 1548.85 L2319.91 1548.85 L2319.91 1544.91 Z" fill="#000000" fill-rule="evenodd" fill-opacity="1"></path><path clip-path="url(#clip990)" d="M2349.26 1542.97 L2354.14 1542.97 L2354.14 1548.85 L2349.26 1548.85 L2349.26 1542.97 Z" fill="#000000" fill-rule="evenodd" fill-opacity="1"></path><path clip-path="url(#clip990)" d="M2374.33 1517.37 Q2370.72 1517.37 2368.89 1520.93 Q2367.08 1524.47 2367.08 1531.6 Q2367.08 1538.71 2368.89 1542.27 Q2370.72 1545.82 2374.33 1545.82 Q2377.96 1545.82 2379.77 1542.27 Q2381.6 1538.71 2381.6 1531.6 Q2381.6 1524.47 2379.77 1520.93 Q2377.96 1517.37 2374.33 1517.37 M2374.33 1513.66 Q2380.14 1513.66 2383.2 1518.27 Q2386.27 1522.85 2386.27 1531.6 Q2386.27 1540.33 2383.2 1544.94 Q2380.14 1549.52 2374.33 1549.52 Q2368.52 1549.52 2365.44 1544.94 Q2362.39 1540.33 2362.39 1531.6 Q2362.39 1522.85 2365.44 1518.27 Q2368.52 1513.66 2374.33 1513.66 Z" fill="#000000" fill-rule="evenodd" fill-opacity="1"></path><polyline clip-path="url(#clip993)" style="stroke:#000000; stroke-linecap:round; stroke-linejoin:round; stroke-width:2; stroke-opacity:0.1; fill:none" points="1371.26,1486.45 2352.76,1486.45 "></polyline>
<polyline clip-path="url(#clip993)" style="stroke:#000000; stroke-linecap:round; stroke-linejoin:round; stroke-width:2; stroke-opacity:0.1; fill:none" points="1371.26,1198.61 2352.76,1198.61 "></polyline>
<polyline clip-path="url(#clip993)" style="stroke:#000000; stroke-linecap:round; stroke-linejoin:round; stroke-width:2; stroke-opacity:0.1; fill:none" points="1371.26,910.766 2352.76,910.766 "></polyline>
<polyline clip-path="url(#clip993)" style="stroke:#000000; stroke-linecap:round; stroke-linejoin:round; stroke-width:2; stroke-opacity:0.1; fill:none" points="1371.26,622.926 2352.76,622.926 "></polyline>
<polyline clip-path="url(#clip993)" style="stroke:#000000; stroke-linecap:round; stroke-linejoin:round; stroke-width:2; stroke-opacity:0.1; fill:none" points="1371.26,335.085 2352.76,335.085 "></polyline>
<polyline clip-path="url(#clip993)" style="stroke:#000000; stroke-linecap:round; stroke-linejoin:round; stroke-width:2; stroke-opacity:0.1; fill:none" points="1371.26,47.2441 2352.76,47.2441 "></polyline>
<polyline clip-path="url(#clip990)" style="stroke:#000000; stroke-linecap:round; stroke-linejoin:round; stroke-width:4; stroke-opacity:1; fill:none" points="1371.26,1486.45 1371.26,47.2441 "></polyline>
<polyline clip-path="url(#clip990)" style="stroke:#000000; stroke-linecap:round; stroke-linejoin:round; stroke-width:4; stroke-opacity:1; fill:none" points="1371.26,1486.45 1390.16,1486.45 "></polyline>
<polyline clip-path="url(#clip990)" style="stroke:#000000; stroke-linecap:round; stroke-linejoin:round; stroke-width:4; stroke-opacity:1; fill:none" points="1371.26,1198.61 1390.16,1198.61 "></polyline>
<polyline clip-path="url(#clip990)" style="stroke:#000000; stroke-linecap:round; stroke-linejoin:round; stroke-width:4; stroke-opacity:1; fill:none" points="1371.26,910.766 1390.16,910.766 "></polyline>
<polyline clip-path="url(#clip990)" style="stroke:#000000; stroke-linecap:round; stroke-linejoin:round; stroke-width:4; stroke-opacity:1; fill:none" points="1371.26,622.926 1390.16,622.926 "></polyline>
<polyline clip-path="url(#clip990)" style="stroke:#000000; stroke-linecap:round; stroke-linejoin:round; stroke-width:4; stroke-opacity:1; fill:none" points="1371.26,335.085 1390.16,335.085 "></polyline>
<polyline clip-path="url(#clip990)" style="stroke:#000000; stroke-linecap:round; stroke-linejoin:round; stroke-width:4; stroke-opacity:1; fill:none" points="1371.26,47.2441 1390.16,47.2441 "></polyline>
<path clip-path="url(#clip990)" d="M1278.09 1472.25 Q1274.48 1472.25 1272.65 1475.81 Q1270.84 1479.35 1270.84 1486.48 Q1270.84 1493.59 1272.65 1497.15 Q1274.48 1500.7 1278.09 1500.7 Q1281.72 1500.7 1283.53 1497.15 Q1285.36 1493.59 1285.36 1486.48 Q1285.36 1479.35 1283.53 1475.81 Q1281.72 1472.25 1278.09 1472.25 M1278.09 1468.54 Q1283.9 1468.54 1286.95 1473.15 Q1290.03 1477.73 1290.03 1486.48 Q1290.03 1495.21 1286.95 1499.82 Q1283.9 1504.4 1278.09 1504.4 Q1272.28 1504.4 1269.2 1499.82 Q1266.14 1495.21 1266.14 1486.48 Q1266.14 1477.73 1269.2 1473.15 Q1272.28 1468.54 1278.09 1468.54 Z" fill="#000000" fill-rule="evenodd" fill-opacity="1"></path><path clip-path="url(#clip990)" d="M1298.25 1497.85 L1303.13 1497.85 L1303.13 1503.73 L1298.25 1503.73 L1298.25 1497.85 Z" fill="#000000" fill-rule="evenodd" fill-opacity="1"></path><path clip-path="url(#clip990)" d="M1323.32 1472.25 Q1319.71 1472.25 1317.88 1475.81 Q1316.07 1479.35 1316.07 1486.48 Q1316.07 1493.59 1317.88 1497.15 Q1319.71 1500.7 1323.32 1500.7 Q1326.95 1500.7 1328.76 1497.15 Q1330.59 1493.59 1330.59 1486.48 Q1330.59 1479.35 1328.76 1475.81 Q1326.95 1472.25 1323.32 1472.25 M1323.32 1468.54 Q1329.13 1468.54 1332.18 1473.15 Q1335.26 1477.73 1335.26 1486.48 Q1335.26 1495.21 1332.18 1499.82 Q1329.13 1504.4 1323.32 1504.4 Q1317.51 1504.4 1314.43 1499.82 Q1311.37 1495.21 1311.37 1486.48 Q1311.37 1477.73 1314.43 1473.15 Q1317.51 1468.54 1323.32 1468.54 Z" fill="#000000" fill-rule="evenodd" fill-opacity="1"></path><path clip-path="url(#clip990)" d="M1279.68 1184.41 Q1276.07 1184.41 1274.24 1187.97 Q1272.44 1191.51 1272.44 1198.64 Q1272.44 1205.75 1274.24 1209.31 Q1276.07 1212.85 1279.68 1212.85 Q1283.32 1212.85 1285.12 1209.31 Q1286.95 1205.75 1286.95 1198.64 Q1286.95 1191.51 1285.12 1187.97 Q1283.32 1184.41 1279.68 1184.41 M1279.68 1180.7 Q1285.49 1180.7 1288.55 1185.31 Q1291.63 1189.89 1291.63 1198.64 Q1291.63 1207.37 1288.55 1211.98 Q1285.49 1216.56 1279.68 1216.56 Q1273.87 1216.56 1270.8 1211.98 Q1267.74 1207.37 1267.74 1198.64 Q1267.74 1189.89 1270.8 1185.31 Q1273.87 1180.7 1279.68 1180.7 Z" fill="#000000" fill-rule="evenodd" fill-opacity="1"></path><path clip-path="url(#clip990)" d="M1299.85 1210.01 L1304.73 1210.01 L1304.73 1215.89 L1299.85 1215.89 L1299.85 1210.01 Z" fill="#000000" fill-rule="evenodd" fill-opacity="1"></path><path clip-path="url(#clip990)" d="M1318.94 1211.95 L1335.26 1211.95 L1335.26 1215.89 L1313.32 1215.89 L1313.32 1211.95 Q1315.98 1209.2 1320.56 1204.57 Q1325.17 1199.91 1326.35 1198.57 Q1328.6 1196.05 1329.48 1194.31 Q1330.38 1192.55 1330.38 1190.86 Q1330.38 1188.11 1328.43 1186.37 Q1326.51 1184.64 1323.41 1184.64 Q1321.21 1184.64 1318.76 1185.4 Q1316.33 1186.17 1313.55 1187.72 L1313.55 1182.99 Q1316.37 1181.86 1318.83 1181.28 Q1321.28 1180.7 1323.32 1180.7 Q1328.69 1180.7 1331.88 1183.39 Q1335.08 1186.07 1335.08 1190.56 Q1335.08 1192.69 1334.27 1194.61 Q1333.48 1196.51 1331.37 1199.1 Q1330.79 1199.78 1327.69 1202.99 Q1324.59 1206.19 1318.94 1211.95 Z" fill="#000000" fill-rule="evenodd" fill-opacity="1"></path><path clip-path="url(#clip990)" d="M1277.6 896.565 Q1273.99 896.565 1272.16 900.13 Q1270.36 903.671 1270.36 910.801 Q1270.36 917.908 1272.16 921.472 Q1273.99 925.014 1277.6 925.014 Q1281.24 925.014 1283.04 921.472 Q1284.87 917.908 1284.87 910.801 Q1284.87 903.671 1283.04 900.13 Q1281.24 896.565 1277.6 896.565 M1277.6 892.861 Q1283.41 892.861 1286.47 897.468 Q1289.55 902.051 1289.55 910.801 Q1289.55 919.528 1286.47 924.134 Q1283.41 928.718 1277.6 928.718 Q1271.79 928.718 1268.71 924.134 Q1265.66 919.528 1265.66 910.801 Q1265.66 902.051 1268.71 897.468 Q1271.79 892.861 1277.6 892.861 Z" fill="#000000" fill-rule="evenodd" fill-opacity="1"></path><path clip-path="url(#clip990)" d="M1297.76 922.167 L1302.65 922.167 L1302.65 928.046 L1297.76 928.046 L1297.76 922.167 Z" fill="#000000" fill-rule="evenodd" fill-opacity="1"></path><path clip-path="url(#clip990)" d="M1325.68 897.56 L1313.87 916.009 L1325.68 916.009 L1325.68 897.56 M1324.45 893.486 L1330.33 893.486 L1330.33 916.009 L1335.26 916.009 L1335.26 919.898 L1330.33 919.898 L1330.33 928.046 L1325.68 928.046 L1325.68 919.898 L1310.08 919.898 L1310.08 915.384 L1324.45 893.486 Z" fill="#000000" fill-rule="evenodd" fill-opacity="1"></path><path clip-path="url(#clip990)" d="M1277.92 608.724 Q1274.31 608.724 1272.49 612.289 Q1270.68 615.831 1270.68 622.96 Q1270.68 630.067 1272.49 633.632 Q1274.31 637.173 1277.92 637.173 Q1281.56 637.173 1283.36 633.632 Q1285.19 630.067 1285.19 622.96 Q1285.19 615.831 1283.36 612.289 Q1281.56 608.724 1277.92 608.724 M1277.92 605.021 Q1283.74 605.021 1286.79 609.627 Q1289.87 614.21 1289.87 622.96 Q1289.87 631.687 1286.79 636.294 Q1283.74 640.877 1277.92 640.877 Q1272.11 640.877 1269.04 636.294 Q1265.98 631.687 1265.98 622.96 Q1265.98 614.21 1269.04 609.627 Q1272.11 605.021 1277.92 605.021 Z" fill="#000000" fill-rule="evenodd" fill-opacity="1"></path><path clip-path="url(#clip990)" d="M1298.09 634.326 L1302.97 634.326 L1302.97 640.206 L1298.09 640.206 L1298.09 634.326 Z" fill="#000000" fill-rule="evenodd" fill-opacity="1"></path><path clip-path="url(#clip990)" d="M1323.73 621.062 Q1320.59 621.062 1318.73 623.215 Q1316.91 625.368 1316.91 629.118 Q1316.91 632.845 1318.73 635.02 Q1320.59 637.173 1323.73 637.173 Q1326.88 637.173 1328.71 635.02 Q1330.56 632.845 1330.56 629.118 Q1330.56 625.368 1328.71 623.215 Q1326.88 621.062 1323.73 621.062 M1333.02 606.409 L1333.02 610.669 Q1331.26 609.835 1329.45 609.396 Q1327.67 608.956 1325.91 608.956 Q1321.28 608.956 1318.83 612.081 Q1316.4 615.206 1316.05 621.525 Q1317.42 619.511 1319.48 618.446 Q1321.54 617.359 1324.01 617.359 Q1329.22 617.359 1332.23 620.53 Q1335.26 623.678 1335.26 629.118 Q1335.26 634.442 1332.11 637.659 Q1328.97 640.877 1323.73 640.877 Q1317.74 640.877 1314.57 636.294 Q1311.4 631.687 1311.4 622.96 Q1311.4 614.766 1315.29 609.905 Q1319.17 605.021 1325.73 605.021 Q1327.48 605.021 1329.27 605.368 Q1331.07 605.715 1333.02 606.409 Z" fill="#000000" fill-rule="evenodd" fill-opacity="1"></path><path clip-path="url(#clip990)" d="M1278.18 320.884 Q1274.57 320.884 1272.74 324.448 Q1270.93 327.99 1270.93 335.12 Q1270.93 342.226 1272.74 345.791 Q1274.57 349.332 1278.18 349.332 Q1281.81 349.332 1283.62 345.791 Q1285.45 342.226 1285.45 335.12 Q1285.45 327.99 1283.62 324.448 Q1281.81 320.884 1278.18 320.884 M1278.18 317.18 Q1283.99 317.18 1287.05 321.786 Q1290.12 326.37 1290.12 335.12 Q1290.12 343.846 1287.05 348.453 Q1283.99 353.036 1278.18 353.036 Q1272.37 353.036 1269.29 348.453 Q1266.24 343.846 1266.24 335.12 Q1266.24 326.37 1269.29 321.786 Q1272.37 317.18 1278.18 317.18 Z" fill="#000000" fill-rule="evenodd" fill-opacity="1"></path><path clip-path="url(#clip990)" d="M1298.34 346.485 L1303.23 346.485 L1303.23 352.365 L1298.34 352.365 L1298.34 346.485 Z" fill="#000000" fill-rule="evenodd" fill-opacity="1"></path><path clip-path="url(#clip990)" d="M1323.41 335.953 Q1320.08 335.953 1318.16 337.735 Q1316.26 339.518 1316.26 342.643 Q1316.26 345.768 1318.16 347.55 Q1320.08 349.332 1323.41 349.332 Q1326.74 349.332 1328.67 347.55 Q1330.59 345.745 1330.59 342.643 Q1330.59 339.518 1328.67 337.735 Q1326.77 335.953 1323.41 335.953 M1318.73 333.962 Q1315.73 333.221 1314.04 331.161 Q1312.37 329.101 1312.37 326.138 Q1312.37 321.995 1315.31 319.587 Q1318.27 317.18 1323.41 317.18 Q1328.57 317.18 1331.51 319.587 Q1334.45 321.995 1334.45 326.138 Q1334.45 329.101 1332.76 331.161 Q1331.1 333.221 1328.11 333.962 Q1331.49 334.749 1333.36 337.041 Q1335.26 339.333 1335.26 342.643 Q1335.26 347.666 1332.18 350.351 Q1329.13 353.036 1323.41 353.036 Q1317.69 353.036 1314.61 350.351 Q1311.56 347.666 1311.56 342.643 Q1311.56 339.333 1313.46 337.041 Q1315.36 334.749 1318.73 333.962 M1317.02 326.578 Q1317.02 329.263 1318.69 330.768 Q1320.38 332.272 1323.41 332.272 Q1326.42 332.272 1328.11 330.768 Q1329.82 329.263 1329.82 326.578 Q1329.82 323.893 1328.11 322.388 Q1326.42 320.884 1323.41 320.884 Q1320.38 320.884 1318.69 322.388 Q1317.02 323.893 1317.02 326.578 Z" fill="#000000" fill-rule="evenodd" fill-opacity="1"></path><path clip-path="url(#clip990)" d="M1268.9 60.5889 L1276.54 60.5889 L1276.54 34.2233 L1268.23 35.89 L1268.23 31.6308 L1276.49 29.9641 L1281.17 29.9641 L1281.17 60.5889 L1288.8 60.5889 L1288.8 64.5241 L1268.9 64.5241 L1268.9 60.5889 Z" fill="#000000" fill-rule="evenodd" fill-opacity="1"></path><path clip-path="url(#clip990)" d="M1298.25 58.6445 L1303.13 58.6445 L1303.13 64.5241 L1298.25 64.5241 L1298.25 58.6445 Z" fill="#000000" fill-rule="evenodd" fill-opacity="1"></path><path clip-path="url(#clip990)" d="M1323.32 33.0428 Q1319.71 33.0428 1317.88 36.6076 Q1316.07 40.1492 1316.07 47.2788 Q1316.07 54.3853 1317.88 57.9501 Q1319.71 61.4917 1323.32 61.4917 Q1326.95 61.4917 1328.76 57.9501 Q1330.59 54.3853 1330.59 47.2788 Q1330.59 40.1492 1328.76 36.6076 Q1326.95 33.0428 1323.32 33.0428 M1323.32 29.3391 Q1329.13 29.3391 1332.18 33.9456 Q1335.26 38.5289 1335.26 47.2788 Q1335.26 56.0056 1332.18 60.6121 Q1329.13 65.1954 1323.32 65.1954 Q1317.51 65.1954 1314.43 60.6121 Q1311.37 56.0056 1311.37 47.2788 Q1311.37 38.5289 1314.43 33.9456 Q1317.51 29.3391 1323.32 29.3391 Z" fill="#000000" fill-rule="evenodd" fill-opacity="1"></path><path clip-path="url(#clip990)" d="M1530.75 730.831 L1530.75 747.393 L1550.49 747.393 L1550.49 754.841 L1530.75 754.841 L1530.75 786.507 Q1530.75 793.643 1532.68 795.674 Q1534.66 797.705 1540.65 797.705 L1550.49 797.705 L1550.49 805.726 L1540.65 805.726 Q1529.55 805.726 1525.33 801.611 Q1521.12 797.445 1521.12 786.507 L1521.12 754.841 L1514.08 754.841 L1514.08 747.393 L1521.12 747.393 L1521.12 730.831 L1530.75 730.831 Z" fill="#ff0000" fill-rule="evenodd" fill-opacity="1"></path><path clip-path="url(#clip990)" d="M1612.99 774.164 L1612.99 778.851 L1568.93 778.851 Q1569.55 788.747 1574.87 793.955 Q1580.23 799.111 1589.76 799.111 Q1595.28 799.111 1600.44 797.757 Q1605.65 796.403 1610.75 793.695 L1610.75 802.757 Q1605.59 804.945 1600.18 806.091 Q1594.76 807.236 1589.19 807.236 Q1575.23 807.236 1567.05 799.111 Q1558.93 790.986 1558.93 777.132 Q1558.93 762.81 1566.64 754.424 Q1574.4 745.987 1587.52 745.987 Q1599.29 745.987 1606.12 753.591 Q1612.99 761.143 1612.99 774.164 M1603.41 771.351 Q1603.3 763.487 1598.98 758.799 Q1594.71 754.112 1587.63 754.112 Q1579.6 754.112 1574.76 758.643 Q1569.97 763.174 1569.24 771.403 L1603.41 771.351 Z" fill="#ff0000" fill-rule="evenodd" fill-opacity="1"></path><path clip-path="url(#clip990)" d="M1675.33 747.393 L1654.24 775.778 L1676.43 805.726 L1665.13 805.726 L1648.15 782.809 L1631.17 805.726 L1619.87 805.726 L1642.52 775.205 L1621.79 747.393 L1633.09 747.393 L1648.56 768.174 L1664.03 747.393 L1675.33 747.393 Z" fill="#ff0000" fill-rule="evenodd" fill-opacity="1"></path><path clip-path="url(#clip990)" d="M1699.45 730.831 L1699.45 747.393 L1719.19 747.393 L1719.19 754.841 L1699.45 754.841 L1699.45 786.507 Q1699.45 793.643 1701.37 795.674 Q1703.35 797.705 1709.34 797.705 L1719.19 797.705 L1719.19 805.726 L1709.34 805.726 Q1698.25 805.726 1694.03 801.611 Q1689.81 797.445 1689.81 786.507 L1689.81 754.841 L1682.78 754.841 L1682.78 747.393 L1689.81 747.393 L1689.81 730.831 L1699.45 730.831 Z" fill="#ff0000" fill-rule="evenodd" fill-opacity="1"></path><path clip-path="url(#clip990)" d="M1755.63 747.393 L1765.21 747.393 L1777.19 792.914 L1789.12 747.393 L1800.42 747.393 L1812.4 792.914 L1824.33 747.393 L1833.91 747.393 L1818.65 805.726 L1807.35 805.726 L1794.8 757.914 L1782.19 805.726 L1770.89 805.726 L1755.63 747.393 Z" fill="#000000" fill-rule="evenodd" fill-opacity="1"></path><path clip-path="url(#clip990)" d="M1848.44 747.393 L1858.02 747.393 L1858.02 805.726 L1848.44 805.726 L1848.44 747.393 M1848.44 724.685 L1858.02 724.685 L1858.02 736.82 L1848.44 736.82 L1848.44 724.685 Z" fill="#000000" fill-rule="evenodd" fill-opacity="1"></path><path clip-path="url(#clip990)" d="M1887.56 730.831 L1887.56 747.393 L1907.3 747.393 L1907.3 754.841 L1887.56 754.841 L1887.56 786.507 Q1887.56 793.643 1889.48 795.674 Q1891.46 797.705 1897.45 797.705 L1907.3 797.705 L1907.3 805.726 L1897.45 805.726 Q1886.36 805.726 1882.14 801.611 Q1877.92 797.445 1877.92 786.507 L1877.92 754.841 L1870.89 754.841 L1870.89 747.393 L1877.92 747.393 L1877.92 730.831 L1887.56 730.831 Z" fill="#000000" fill-rule="evenodd" fill-opacity="1"></path><path clip-path="url(#clip990)" d="M1968.39 770.518 L1968.39 805.726 L1958.81 805.726 L1958.81 770.83 Q1958.81 762.549 1955.58 758.435 Q1952.35 754.32 1945.89 754.32 Q1938.13 754.32 1933.65 759.268 Q1929.17 764.216 1929.17 772.757 L1929.17 805.726 L1919.53 805.726 L1919.53 724.685 L1929.17 724.685 L1929.17 756.455 Q1932.61 751.195 1937.24 748.591 Q1941.93 745.987 1948.02 745.987 Q1958.08 745.987 1963.23 752.237 Q1968.39 758.435 1968.39 770.518 Z" fill="#000000" fill-rule="evenodd" fill-opacity="1"></path><path clip-path="url(#clip990)" d="M2025.14 749.633 L2025.14 758.591 Q2021.08 756.351 2016.97 755.258 Q2012.9 754.112 2008.74 754.112 Q1999.41 754.112 1994.26 760.049 Q1989.1 765.935 1989.1 776.612 Q1989.1 787.289 1994.26 793.226 Q1999.41 799.111 2008.74 799.111 Q2012.9 799.111 2016.97 798.018 Q2021.08 796.872 2025.14 794.632 L2025.14 803.486 Q2021.13 805.361 2016.81 806.299 Q2012.54 807.236 2007.7 807.236 Q1994.52 807.236 1986.76 798.955 Q1979 790.674 1979 776.612 Q1979 762.341 1986.81 754.164 Q1994.67 745.987 2008.32 745.987 Q2012.75 745.987 2016.97 746.924 Q2021.19 747.81 2025.14 749.633 Z" fill="#ffa500" fill-rule="evenodd" fill-opacity="1"></path><path clip-path="url(#clip990)" d="M2064.41 754.112 Q2056.71 754.112 2052.23 760.153 Q2047.75 766.143 2047.75 776.612 Q2047.75 787.08 2052.17 793.122 Q2056.65 799.111 2064.41 799.111 Q2072.07 799.111 2076.55 793.07 Q2081.03 787.028 2081.03 776.612 Q2081.03 766.247 2076.55 760.205 Q2072.07 754.112 2064.41 754.112 M2064.41 745.987 Q2076.91 745.987 2084.05 754.112 Q2091.18 762.237 2091.18 776.612 Q2091.18 790.934 2084.05 799.111 Q2076.91 807.236 2064.41 807.236 Q2051.86 807.236 2044.73 799.111 Q2037.64 790.934 2037.64 776.612 Q2037.64 762.237 2044.73 754.112 Q2051.86 745.987 2064.41 745.987 Z" fill="#ffa500" fill-rule="evenodd" fill-opacity="1"></path><path clip-path="url(#clip990)" d="M2107.07 724.685 L2116.65 724.685 L2116.65 805.726 L2107.07 805.726 L2107.07 724.685 Z" fill="#ffa500" fill-rule="evenodd" fill-opacity="1"></path><path clip-path="url(#clip990)" d="M2159.31 754.112 Q2151.6 754.112 2147.12 760.153 Q2142.64 766.143 2142.64 776.612 Q2142.64 787.08 2147.07 793.122 Q2151.55 799.111 2159.31 799.111 Q2166.97 799.111 2171.44 793.07 Q2175.92 787.028 2175.92 776.612 Q2175.92 766.247 2171.44 760.205 Q2166.97 754.112 2159.31 754.112 M2159.31 745.987 Q2171.81 745.987 2178.94 754.112 Q2186.08 762.237 2186.08 776.612 Q2186.08 790.934 2178.94 799.111 Q2171.81 807.236 2159.31 807.236 Q2146.76 807.236 2139.62 799.111 Q2132.54 790.934 2132.54 776.612 Q2132.54 762.237 2139.62 754.112 Q2146.76 745.987 2159.31 745.987 Z" fill="#ffa500" fill-rule="evenodd" fill-opacity="1"></path><path clip-path="url(#clip990)" d="M2235.77 756.351 Q2234.15 755.414 2232.23 754.997 Q2230.35 754.528 2228.06 754.528 Q2219.93 754.528 2215.56 759.841 Q2211.24 765.101 2211.24 774.997 L2211.24 805.726 L2201.6 805.726 L2201.6 747.393 L2211.24 747.393 L2211.24 756.455 Q2214.26 751.143 2219.1 748.591 Q2223.94 745.987 2230.87 745.987 Q2231.86 745.987 2233.06 746.143 Q2234.26 746.247 2235.72 746.508 L2235.77 756.351 Z" fill="#ffa500" fill-rule="evenodd" fill-opacity="1"></path></svg>