<?xml version="1.0" encoding="utf-8" standalone="no"?>
<!DOCTYPE svg PUBLIC "-//W3C//DTD SVG 1.1//EN"
  "http://www.w3.org/Graphics/SVG/1.1/DTD/svg11.dtd">
<svg xmlns:xlink="http://www.w3.org/1999/xlink" width="216pt" height="180pt" viewBox="0 0 216 180" xmlns="http://www.w3.org/2000/svg" version="1.1">
 <metadata>
  <rdf:RDF xmlns:dc="http://purl.org/dc/elements/1.1/" xmlns:cc="http://creativecommons.org/ns#" xmlns:rdf="http://www.w3.org/1999/02/22-rdf-syntax-ns#">
   <cc:Work>
    <dc:type rdf:resource="http://purl.org/dc/dcmitype/StillImage"/>
    <dc:date>2023-05-18T19:41:23.106007</dc:date>
    <dc:format>image/svg+xml</dc:format>
    <dc:creator>
     <cc:Agent>
      <dc:title>Matplotlib v3.6.3, https://matplotlib.org/</dc:title>
     </cc:Agent>
    </dc:creator>
   </cc:Work>
  </rdf:RDF>
 </metadata>
 <defs>
  <style type="text/css">*{stroke-linejoin: round; stroke-linecap: butt}</style>
 </defs>
 <g id="figure_1">
  <g id="patch_1">
   <path d="M 0 180 
L 216 180 
L 216 0 
L 0 0 
z
" style="fill: #ffffff"/>
  </g>
  <g id="axes_1">
   <g id="patch_2">
    <path d="M 39.25031 148.065354 
L 213.165354 148.065354 
L 213.165354 20.354646 
L 39.25031 20.354646 
z
" style="fill: #ffffff"/>
   </g>
   <g id="PathCollection_1">
    <defs>
     <path id="m15921c9ba0" d="M 0 0 
C 0 0 0 0 0 0 
C 0 0 0 0 0 0 
C 0 0 0 0 0 0 
C 0 0 0 0 0 0 
C 0 0 0 0 0 0 
C 0 0 0 0 0 0 
C 0 0 0 0 0 0 
C 0 0 0 0 0 0 
z
" style="stroke: #ffffff; stroke-width: 0.7"/>
    </defs>
    <g clip-path="url(#p6f92d6c3b9)">
     <use xlink:href="#m15921c9ba0" x="39.25031" y="148.065354" style="fill: #ffffff; fill-opacity: 0; stroke: #ffffff; stroke-width: 0.7"/>
    </g>
   </g>
   <g id="matplotlib.axis_1">
    <g id="xtick_1">
     <g id="line2d_1">
      <defs>
       <path id="maa3ce0a67e" d="M 0 0 
L 0 -2.5 
" style="stroke: #000000; stroke-width: 0.5"/>
      </defs>
      <g>
       <use xlink:href="#maa3ce0a67e" x="39.25031" y="148.065354" style="stroke: #000000; stroke-width: 0.5"/>
      </g>
     </g>
     <g id="line2d_2">
      <defs>
       <path id="m81ffb6c1fd" d="M 0 0 
L 0 2.5 
" style="stroke: #000000; stroke-width: 0.5"/>
      </defs>
      <g>
       <use xlink:href="#m81ffb6c1fd" x="39.25031" y="20.354646" style="stroke: #000000; stroke-width: 0.5"/>
      </g>
     </g>
     <g id="text_1">
      <!-- $0.0$ -->
      <g transform="translate(32.05031 158.403948) scale(0.09 -0.09)">
       <defs>
        <path id="DejaVuSans-30" d="M 2034 4250 
Q 1547 4250 1301 3770 
Q 1056 3291 1056 2328 
Q 1056 1369 1301 889 
Q 1547 409 2034 409 
Q 2525 409 2770 889 
Q 3016 1369 3016 2328 
Q 3016 3291 2770 3770 
Q 2525 4250 2034 4250 
z
M 2034 4750 
Q 2819 4750 3233 4129 
Q 3647 3509 3647 2328 
Q 3647 1150 3233 529 
Q 2819 -91 2034 -91 
Q 1250 -91 836 529 
Q 422 1150 422 2328 
Q 422 3509 836 4129 
Q 1250 4750 2034 4750 
z
" transform="scale(0.015625)"/>
        <path id="DejaVuSans-2e" d="M 684 794 
L 1344 794 
L 1344 0 
L 684 0 
L 684 794 
z
" transform="scale(0.015625)"/>
       </defs>
       <use xlink:href="#DejaVuSans-30" transform="translate(0 0.78125)"/>
       <use xlink:href="#DejaVuSans-2e" transform="translate(63.623047 0.78125)"/>
       <use xlink:href="#DejaVuSans-30" transform="translate(95.410156 0.78125)"/>
      </g>
     </g>
    </g>
    <g id="xtick_2">
     <g id="line2d_3">
      <g>
       <use xlink:href="#maa3ce0a67e" x="66.00647" y="148.065354" style="stroke: #000000; stroke-width: 0.5"/>
      </g>
     </g>
     <g id="line2d_4">
      <g>
       <use xlink:href="#m81ffb6c1fd" x="66.00647" y="20.354646" style="stroke: #000000; stroke-width: 0.5"/>
      </g>
     </g>
     <g id="text_2">
      <!-- $0.2$ -->
      <g transform="translate(59.07647 158.403948) scale(0.09 -0.09)">
       <defs>
        <path id="DejaVuSans-32" d="M 1228 531 
L 3431 531 
L 3431 0 
L 469 0 
L 469 531 
Q 828 903 1448 1529 
Q 2069 2156 2228 2338 
Q 2531 2678 2651 2914 
Q 2772 3150 2772 3378 
Q 2772 3750 2511 3984 
Q 2250 4219 1831 4219 
Q 1534 4219 1204 4116 
Q 875 4013 500 3803 
L 500 4441 
Q 881 4594 1212 4672 
Q 1544 4750 1819 4750 
Q 2544 4750 2975 4387 
Q 3406 4025 3406 3419 
Q 3406 3131 3298 2873 
Q 3191 2616 2906 2266 
Q 2828 2175 2409 1742 
Q 1991 1309 1228 531 
z
" transform="scale(0.015625)"/>
       </defs>
       <use xlink:href="#DejaVuSans-30" transform="translate(0 0.78125)"/>
       <use xlink:href="#DejaVuSans-2e" transform="translate(63.623047 0.78125)"/>
       <use xlink:href="#DejaVuSans-32" transform="translate(89.910156 0.78125)"/>
      </g>
     </g>
    </g>
    <g id="xtick_3">
     <g id="line2d_5">
      <g>
       <use xlink:href="#maa3ce0a67e" x="92.762631" y="148.065354" style="stroke: #000000; stroke-width: 0.5"/>
      </g>
     </g>
     <g id="line2d_6">
      <g>
       <use xlink:href="#m81ffb6c1fd" x="92.762631" y="20.354646" style="stroke: #000000; stroke-width: 0.5"/>
      </g>
     </g>
     <g id="text_3">
      <!-- $0.4$ -->
      <g transform="translate(85.562631 158.403948) scale(0.09 -0.09)">
       <defs>
        <path id="DejaVuSans-34" d="M 2419 4116 
L 825 1625 
L 2419 1625 
L 2419 4116 
z
M 2253 4666 
L 3047 4666 
L 3047 1625 
L 3713 1625 
L 3713 1100 
L 3047 1100 
L 3047 0 
L 2419 0 
L 2419 1100 
L 313 1100 
L 313 1709 
L 2253 4666 
z
" transform="scale(0.015625)"/>
       </defs>
       <use xlink:href="#DejaVuSans-30" transform="translate(0 0.78125)"/>
       <use xlink:href="#DejaVuSans-2e" transform="translate(63.623047 0.78125)"/>
       <use xlink:href="#DejaVuSans-34" transform="translate(95.410156 0.78125)"/>
      </g>
     </g>
    </g>
    <g id="xtick_4">
     <g id="line2d_7">
      <g>
       <use xlink:href="#maa3ce0a67e" x="119.518792" y="148.065354" style="stroke: #000000; stroke-width: 0.5"/>
      </g>
     </g>
     <g id="line2d_8">
      <g>
       <use xlink:href="#m81ffb6c1fd" x="119.518792" y="20.354646" style="stroke: #000000; stroke-width: 0.5"/>
      </g>
     </g>
     <g id="text_4">
      <!-- $0.6$ -->
      <g transform="translate(112.318792 158.403948) scale(0.09 -0.09)">
       <defs>
        <path id="DejaVuSans-36" d="M 2113 2584 
Q 1688 2584 1439 2293 
Q 1191 2003 1191 1497 
Q 1191 994 1439 701 
Q 1688 409 2113 409 
Q 2538 409 2786 701 
Q 3034 994 3034 1497 
Q 3034 2003 2786 2293 
Q 2538 2584 2113 2584 
z
M 3366 4563 
L 3366 3988 
Q 3128 4100 2886 4159 
Q 2644 4219 2406 4219 
Q 1781 4219 1451 3797 
Q 1122 3375 1075 2522 
Q 1259 2794 1537 2939 
Q 1816 3084 2150 3084 
Q 2853 3084 3261 2657 
Q 3669 2231 3669 1497 
Q 3669 778 3244 343 
Q 2819 -91 2113 -91 
Q 1303 -91 875 529 
Q 447 1150 447 2328 
Q 447 3434 972 4092 
Q 1497 4750 2381 4750 
Q 2619 4750 2861 4703 
Q 3103 4656 3366 4563 
z
" transform="scale(0.015625)"/>
       </defs>
       <use xlink:href="#DejaVuSans-30" transform="translate(0 0.78125)"/>
       <use xlink:href="#DejaVuSans-2e" transform="translate(63.623047 0.78125)"/>
       <use xlink:href="#DejaVuSans-36" transform="translate(95.410156 0.78125)"/>
      </g>
     </g>
    </g>
    <g id="xtick_5">
     <g id="line2d_9">
      <g>
       <use xlink:href="#maa3ce0a67e" x="146.274953" y="148.065354" style="stroke: #000000; stroke-width: 0.5"/>
      </g>
     </g>
     <g id="line2d_10">
      <g>
       <use xlink:href="#m81ffb6c1fd" x="146.274953" y="20.354646" style="stroke: #000000; stroke-width: 0.5"/>
      </g>
     </g>
     <g id="text_5">
      <!-- $0.8$ -->
      <g transform="translate(139.209953 158.403948) scale(0.09 -0.09)">
       <defs>
        <path id="DejaVuSans-38" d="M 2034 2216 
Q 1584 2216 1326 1975 
Q 1069 1734 1069 1313 
Q 1069 891 1326 650 
Q 1584 409 2034 409 
Q 2484 409 2743 651 
Q 3003 894 3003 1313 
Q 3003 1734 2745 1975 
Q 2488 2216 2034 2216 
z
M 1403 2484 
Q 997 2584 770 2862 
Q 544 3141 544 3541 
Q 544 4100 942 4425 
Q 1341 4750 2034 4750 
Q 2731 4750 3128 4425 
Q 3525 4100 3525 3541 
Q 3525 3141 3298 2862 
Q 3072 2584 2669 2484 
Q 3125 2378 3379 2068 
Q 3634 1759 3634 1313 
Q 3634 634 3220 271 
Q 2806 -91 2034 -91 
Q 1263 -91 848 271 
Q 434 634 434 1313 
Q 434 1759 690 2068 
Q 947 2378 1403 2484 
z
M 1172 3481 
Q 1172 3119 1398 2916 
Q 1625 2713 2034 2713 
Q 2441 2713 2670 2916 
Q 2900 3119 2900 3481 
Q 2900 3844 2670 4047 
Q 2441 4250 2034 4250 
Q 1625 4250 1398 4047 
Q 1172 3844 1172 3481 
z
" transform="scale(0.015625)"/>
       </defs>
       <use xlink:href="#DejaVuSans-30" transform="translate(0 0.78125)"/>
       <use xlink:href="#DejaVuSans-2e" transform="translate(63.623047 0.78125)"/>
       <use xlink:href="#DejaVuSans-38" transform="translate(92.785156 0.78125)"/>
      </g>
     </g>
    </g>
    <g id="xtick_6">
     <g id="line2d_11">
      <g>
       <use xlink:href="#maa3ce0a67e" x="173.031113" y="148.065354" style="stroke: #000000; stroke-width: 0.5"/>
      </g>
     </g>
     <g id="line2d_12">
      <g>
       <use xlink:href="#m81ffb6c1fd" x="173.031113" y="20.354646" style="stroke: #000000; stroke-width: 0.5"/>
      </g>
     </g>
     <g id="text_6">
      <!-- $1.0$ -->
      <g transform="translate(165.831113 158.403948) scale(0.09 -0.09)">
       <defs>
        <path id="DejaVuSans-31" d="M 794 531 
L 1825 531 
L 1825 4091 
L 703 3866 
L 703 4441 
L 1819 4666 
L 2450 4666 
L 2450 531 
L 3481 531 
L 3481 0 
L 794 0 
L 794 531 
z
" transform="scale(0.015625)"/>
       </defs>
       <use xlink:href="#DejaVuSans-31" transform="translate(0 0.78125)"/>
       <use xlink:href="#DejaVuSans-2e" transform="translate(63.623047 0.78125)"/>
       <use xlink:href="#DejaVuSans-30" transform="translate(95.410156 0.78125)"/>
      </g>
     </g>
    </g>
    <g id="xtick_7">
     <g id="line2d_13">
      <g>
       <use xlink:href="#maa3ce0a67e" x="199.787274" y="148.065354" style="stroke: #000000; stroke-width: 0.5"/>
      </g>
     </g>
     <g id="line2d_14">
      <g>
       <use xlink:href="#m81ffb6c1fd" x="199.787274" y="20.354646" style="stroke: #000000; stroke-width: 0.5"/>
      </g>
     </g>
     <g id="text_7">
      <!-- $1.2$ -->
      <g transform="translate(192.857274 158.403948) scale(0.09 -0.09)">
       <use xlink:href="#DejaVuSans-31" transform="translate(0 0.78125)"/>
       <use xlink:href="#DejaVuSans-2e" transform="translate(63.623047 0.78125)"/>
       <use xlink:href="#DejaVuSans-32" transform="translate(89.910156 0.78125)"/>
      </g>
     </g>
    </g>
    <g id="text_8">
     <!-- $k/N$ -->
     <g transform="translate(116.187832 173.393792) scale(0.12 -0.12)">
      <defs>
       <path id="DejaVuSans-Oblique-6b" d="M 1172 4863 
L 1747 4863 
L 1197 2028 
L 3169 3500 
L 3916 3500 
L 1716 1825 
L 3322 0 
L 2625 0 
L 1131 1709 
L 800 0 
L 225 0 
L 1172 4863 
z
" transform="scale(0.015625)"/>
       <path id="DejaVuSans-2f" d="M 1625 4666 
L 2156 4666 
L 531 -594 
L 0 -594 
L 1625 4666 
z
" transform="scale(0.015625)"/>
       <path id="DejaVuSans-Oblique-4e" d="M 1081 4666 
L 1931 4666 
L 3219 666 
L 4000 4666 
L 4616 4666 
L 3706 0 
L 2853 0 
L 1569 4025 
L 788 0 
L 172 0 
L 1081 4666 
z
" transform="scale(0.015625)"/>
      </defs>
      <use xlink:href="#DejaVuSans-Oblique-6b" transform="translate(0 0.015625)"/>
      <use xlink:href="#DejaVuSans-2f" transform="translate(57.910156 0.015625)"/>
      <use xlink:href="#DejaVuSans-Oblique-4e" transform="translate(91.601562 0.015625)"/>
     </g>
    </g>
   </g>
   <g id="matplotlib.axis_2">
    <g id="ytick_1">
     <g id="line2d_15">
      <defs>
       <path id="m62729647dc" d="M 0 0 
L 2.5 0 
" style="stroke: #000000; stroke-width: 0.5"/>
      </defs>
      <g>
       <use xlink:href="#m62729647dc" x="39.25031" y="148.065354" style="stroke: #000000; stroke-width: 0.5"/>
      </g>
     </g>
     <g id="line2d_16">
      <defs>
       <path id="m6189bff233" d="M 0 0 
L -2.5 0 
" style="stroke: #000000; stroke-width: 0.5"/>
      </defs>
      <g>
       <use xlink:href="#m6189bff233" x="213.165354" y="148.065354" style="stroke: #000000; stroke-width: 0.5"/>
      </g>
     </g>
     <g id="text_9">
      <!-- $0.0$ -->
      <g transform="translate(21.35031 151.484651) scale(0.09 -0.09)">
       <use xlink:href="#DejaVuSans-30" transform="translate(0 0.78125)"/>
       <use xlink:href="#DejaVuSans-2e" transform="translate(63.623047 0.78125)"/>
       <use xlink:href="#DejaVuSans-30" transform="translate(95.410156 0.78125)"/>
      </g>
     </g>
    </g>
    <g id="ytick_2">
     <g id="line2d_17">
      <g>
       <use xlink:href="#m62729647dc" x="39.25031" y="116.138711" style="stroke: #000000; stroke-width: 0.5"/>
      </g>
     </g>
     <g id="line2d_18">
      <g>
       <use xlink:href="#m6189bff233" x="213.165354" y="116.138711" style="stroke: #000000; stroke-width: 0.5"/>
      </g>
     </g>
     <g id="text_10">
      <!-- $0.1$ -->
      <g transform="translate(21.35031 119.558008) scale(0.09 -0.09)">
       <use xlink:href="#DejaVuSans-30" transform="translate(0 0.78125)"/>
       <use xlink:href="#DejaVuSans-2e" transform="translate(63.623047 0.78125)"/>
       <use xlink:href="#DejaVuSans-31" transform="translate(95.410156 0.78125)"/>
      </g>
     </g>
    </g>
    <g id="ytick_3">
     <g id="line2d_19">
      <g>
       <use xlink:href="#m62729647dc" x="39.25031" y="84.212068" style="stroke: #000000; stroke-width: 0.5"/>
      </g>
     </g>
     <g id="line2d_20">
      <g>
       <use xlink:href="#m6189bff233" x="213.165354" y="84.212068" style="stroke: #000000; stroke-width: 0.5"/>
      </g>
     </g>
     <g id="text_11">
      <!-- $0.2$ -->
      <g transform="translate(21.89031 87.631365) scale(0.09 -0.09)">
       <use xlink:href="#DejaVuSans-30" transform="translate(0 0.78125)"/>
       <use xlink:href="#DejaVuSans-2e" transform="translate(63.623047 0.78125)"/>
       <use xlink:href="#DejaVuSans-32" transform="translate(89.910156 0.78125)"/>
      </g>
     </g>
    </g>
    <g id="ytick_4">
     <g id="line2d_21">
      <g>
       <use xlink:href="#m62729647dc" x="39.25031" y="52.285425" style="stroke: #000000; stroke-width: 0.5"/>
      </g>
     </g>
     <g id="line2d_22">
      <g>
       <use xlink:href="#m6189bff233" x="213.165354" y="52.285425" style="stroke: #000000; stroke-width: 0.5"/>
      </g>
     </g>
     <g id="text_12">
      <!-- $0.3$ -->
      <g transform="translate(21.35031 55.704722) scale(0.09 -0.09)">
       <defs>
        <path id="DejaVuSans-33" d="M 2597 2516 
Q 3050 2419 3304 2112 
Q 3559 1806 3559 1356 
Q 3559 666 3084 287 
Q 2609 -91 1734 -91 
Q 1441 -91 1130 -33 
Q 819 25 488 141 
L 488 750 
Q 750 597 1062 519 
Q 1375 441 1716 441 
Q 2309 441 2620 675 
Q 2931 909 2931 1356 
Q 2931 1769 2642 2001 
Q 2353 2234 1838 2234 
L 1294 2234 
L 1294 2753 
L 1863 2753 
Q 2328 2753 2575 2939 
Q 2822 3125 2822 3475 
Q 2822 3834 2567 4026 
Q 2313 4219 1838 4219 
Q 1578 4219 1281 4162 
Q 984 4106 628 3988 
L 628 4550 
Q 988 4650 1302 4700 
Q 1616 4750 1894 4750 
Q 2613 4750 3031 4423 
Q 3450 4097 3450 3541 
Q 3450 3153 3228 2886 
Q 3006 2619 2597 2516 
z
" transform="scale(0.015625)"/>
       </defs>
       <use xlink:href="#DejaVuSans-30" transform="translate(0 0.78125)"/>
       <use xlink:href="#DejaVuSans-2e" transform="translate(63.623047 0.78125)"/>
       <use xlink:href="#DejaVuSans-33" transform="translate(95.410156 0.78125)"/>
      </g>
     </g>
    </g>
    <g id="ytick_5">
     <g id="line2d_23">
      <g>
       <use xlink:href="#m62729647dc" x="39.25031" y="20.358782" style="stroke: #000000; stroke-width: 0.5"/>
      </g>
     </g>
     <g id="line2d_24">
      <g>
       <use xlink:href="#m6189bff233" x="213.165354" y="20.358782" style="stroke: #000000; stroke-width: 0.5"/>
      </g>
     </g>
     <g id="text_13">
      <!-- $0.4$ -->
      <g transform="translate(21.35031 23.778079) scale(0.09 -0.09)">
       <use xlink:href="#DejaVuSans-30" transform="translate(0 0.78125)"/>
       <use xlink:href="#DejaVuSans-2e" transform="translate(63.623047 0.78125)"/>
       <use xlink:href="#DejaVuSans-34" transform="translate(95.410156 0.78125)"/>
      </g>
     </g>
    </g>
    <g id="text_14">
     <!-- $\langle σ \rangle$ -->
     <g transform="translate(14.854685 92.73) rotate(-90) scale(0.12 -0.12)">
      <defs>
       <path id="DejaVuSans-27e8" d="M 572 2006 
L 1453 4856 
L 1984 4856 
L 1103 2006 
L 1984 -844 
L 1453 -844 
L 572 2006 
z
" transform="scale(0.015625)"/>
       <path id="DejaVuSans-Oblique-3c3" d="M 2219 3044 
Q 1744 3044 1422 2700 
Q 1081 2341 969 1747 
Q 844 1119 1044 756 
Q 1241 397 1706 397 
Q 2166 397 2503 759 
Q 2844 1122 2966 1747 
Q 3075 2319 2881 2700 
Q 2700 3044 2219 3044 
z
M 2309 3503 
L 4219 3500 
L 4106 2925 
L 3463 2925 
Q 3706 2438 3575 1747 
Q 3406 888 2884 400 
Q 2359 -91 1609 -91 
Q 856 -91 525 400 
Q 194 888 363 1747 
Q 528 2609 1050 3097 
Q 1484 3503 2309 3503 
z
" transform="scale(0.015625)"/>
       <path id="DejaVuSans-27e9" d="M 1925 2006 
L 1044 -844 
L 513 -844 
L 1394 2006 
L 513 4856 
L 1044 4856 
L 1925 2006 
z
" transform="scale(0.015625)"/>
      </defs>
      <use xlink:href="#DejaVuSans-27e8" transform="translate(0 0.125)"/>
      <use xlink:href="#DejaVuSans-Oblique-3c3" transform="translate(39.013672 0.125)"/>
      <use xlink:href="#DejaVuSans-27e9" transform="translate(102.392578 0.125)"/>
     </g>
    </g>
   </g>
   <g id="line2d_25">
    <path d="M 39.258475 20.35491 
L 39.593254 20.354646 
L 39.732064 76.046977 
L 39.98519 95.861592 
L 40.319968 105.964817 
L 40.793558 112.987983 
L 41.381461 117.932231 
L 42.271483 122.325993 
L 43.047189 124.816178 
L 43.969872 126.914088 
L 45.790741 129.664397 
L 48.109695 131.915998 
L 50.755263 133.611109 
L 51.800425 134.14185 
L 53.123209 134.719796 
L 55.72795 135.650689 
L 56.911923 136.00581 
L 57.916259 136.283402 
L 58.479667 136.427262 
L 63.133907 137.424486 
L 65.477357 137.809996 
L 66.636834 137.989241 
L 69.208914 138.362266 
L 84.069818 139.853177 
L 100.326995 141.07396 
L 102.760264 141.268117 
L 104.238189 141.384451 
L 107.006237 141.592227 
L 116.347377 142.325688 
L 118.486694 142.498119 
L 122.087605 142.768367 
L 130.457071 143.378907 
L 144.280978 144.454462 
L 148.543282 144.842416 
L 156.341174 145.612428 
L 165.192394 146.586058 
L 172.100265 147.649197 
L 173.031113 147.89781 
L 173.031113 147.89781 
" clip-path="url(#p6f92d6c3b9)" style="fill: none; stroke-dasharray: 3.7,1.6; stroke-dashoffset: 0; stroke: #009afa"/>
   </g>
   <g id="patch_3">
    <path d="M 39.25031 148.065354 
L 39.25031 20.354646 
" style="fill: none; stroke: #000000; stroke-linejoin: miter; stroke-linecap: square"/>
   </g>
   <g id="patch_4">
    <path d="M 213.165354 148.065354 
L 213.165354 20.354646 
" style="fill: none; stroke: #000000; stroke-linejoin: miter; stroke-linecap: square"/>
   </g>
   <g id="patch_5">
    <path d="M 39.25031 148.065354 
L 213.165354 148.065354 
" style="fill: none; stroke: #000000; stroke-linejoin: miter; stroke-linecap: square"/>
   </g>
   <g id="patch_6">
    <path d="M 39.25031 20.354646 
L 213.165354 20.354646 
" style="fill: none; stroke: #000000; stroke-linejoin: miter; stroke-linecap: square"/>
   </g>
   <g id="line2d_26">
    <path d="M 39.258475 74.623622 
L 39.593254 74.426683 
L 39.61775 74.463489 
L 39.732064 74.675786 
L 40.009686 75.969991 
L 40.49144 80.404881 
L 41.071179 87.34822 
L 42.549104 103.472596 
L 43.912714 111.782538 
L 45.088522 115.781218 
L 46.158181 118.220517 
L 46.50929 118.903787 
L 47.554453 120.488286 
L 48.542458 121.742786 
L 50.126532 123.416699 
L 52.510809 125.267504 
L 54.821598 126.687135 
L 55.066558 126.816006 
L 55.60547 127.067277 
L 56.070894 127.282627 
L 57.736622 128.018696 
L 58.112227 128.180692 
L 64.219896 130.147979 
L 65.19157 130.412469 
L 65.673325 130.539932 
L 66.408205 130.704618 
L 67.445202 130.953753 
L 67.935122 131.076692 
L 72.132103 131.907697 
L 73.111943 132.084472 
L 77.325254 132.836062 
L 81.211952 133.41827 
L 83.204293 133.691546 
L 83.718709 133.767456 
L 86.576575 134.159074 
L 87.866698 134.336652 
L 92.071844 134.911892 
L 93.165999 135.038709 
L 93.672249 135.108609 
L 94.480617 135.197584 
L 99.46147 135.849252 
L 100.392318 135.963255 
L 101.478307 136.106329 
L 105.626296 136.646589 
L 106.932749 136.792292 
L 107.561479 136.868209 
L 109.096562 137.078459 
L 109.986583 137.181466 
L 110.933762 137.308696 
L 119.450203 138.410928 
L 119.956454 138.481281 
L 121.115931 138.625163 
L 122.920469 138.839399 
L 125.01896 139.108831 
L 136.066654 140.57624 
L 137.756878 140.81678 
L 138.361113 140.891821 
L 157.647627 143.918458 
L 158.880592 144.146667 
L 160.538155 144.462126 
L 169.021935 146.425224 
L 171.35722 147.153687 
L 172.998452 147.824531 
L 173.031113 147.841887 
L 173.031113 147.841887 
" clip-path="url(#p6f92d6c3b9)" style="fill: none; stroke: #e36f47"/>
   </g>
   <g id="text_15">
    <!-- CLS -->
    <g transform="translate(112.030488 14.354646) scale(0.15 -0.15)">
     <defs>
      <path id="DejaVuSans-43" d="M 4122 4306 
L 4122 3641 
Q 3803 3938 3442 4084 
Q 3081 4231 2675 4231 
Q 1875 4231 1450 3742 
Q 1025 3253 1025 2328 
Q 1025 1406 1450 917 
Q 1875 428 2675 428 
Q 3081 428 3442 575 
Q 3803 722 4122 1019 
L 4122 359 
Q 3791 134 3420 21 
Q 3050 -91 2638 -91 
Q 1578 -91 968 557 
Q 359 1206 359 2328 
Q 359 3453 968 4101 
Q 1578 4750 2638 4750 
Q 3056 4750 3426 4639 
Q 3797 4528 4122 4306 
z
" transform="scale(0.015625)"/>
      <path id="DejaVuSans-4c" d="M 628 4666 
L 1259 4666 
L 1259 531 
L 3531 531 
L 3531 0 
L 628 0 
L 628 4666 
z
" transform="scale(0.015625)"/>
      <path id="DejaVuSans-53" d="M 3425 4513 
L 3425 3897 
Q 3066 4069 2747 4153 
Q 2428 4238 2131 4238 
Q 1616 4238 1336 4038 
Q 1056 3838 1056 3469 
Q 1056 3159 1242 3001 
Q 1428 2844 1947 2747 
L 2328 2669 
Q 3034 2534 3370 2195 
Q 3706 1856 3706 1288 
Q 3706 609 3251 259 
Q 2797 -91 1919 -91 
Q 1588 -91 1214 -16 
Q 841 59 441 206 
L 441 856 
Q 825 641 1194 531 
Q 1563 422 1919 422 
Q 2459 422 2753 634 
Q 3047 847 3047 1241 
Q 3047 1584 2836 1778 
Q 2625 1972 2144 2069 
L 1759 2144 
Q 1053 2284 737 2584 
Q 422 2884 422 3419 
Q 422 4038 858 4394 
Q 1294 4750 2059 4750 
Q 2388 4750 2728 4690 
Q 3069 4631 3425 4513 
z
" transform="scale(0.015625)"/>
     </defs>
     <use xlink:href="#DejaVuSans-43"/>
     <use xlink:href="#DejaVuSans-4c" x="69.824219"/>
     <use xlink:href="#DejaVuSans-53" x="125.537109"/>
    </g>
   </g>
   <g id="line2d_27">
    <path d="M 39.258475 84.200454 
L 40.124 83.488145 
L 41.201824 83.05843 
L 42.304144 83.471424 
L 42.606261 83.877996 
L 42.704245 84.060899 
L 43.545274 85.968985 
L 44.002533 87.52772 
L 44.663925 90.387309 
L 45.366144 94.198915 
L 45.864229 97.135668 
L 46.713423 102.264344 
L 46.933887 103.49539 
L 48.215845 109.499636 
L 49.416148 113.33988 
L 49.881572 114.542379 
L 50.249012 115.304653 
L 51.408489 117.374843 
L 51.824921 117.969658 
L 52.625124 118.952676 
L 52.910911 119.248146 
L 53.50698 119.876825 
L 54.225529 120.500676 
L 55.352345 121.338176 
L 55.776942 121.651971 
L 56.283193 122.03086 
L 56.993577 122.486552 
L 57.165049 122.57872 
L 59.435011 123.86268 
L 59.810616 124.014495 
L 60.463843 124.296996 
L 60.798622 124.438842 
L 63.174733 125.345711 
L 63.72181 125.507849 
L 65.240562 126.010112 
L 66.097922 126.261771 
L 66.408205 126.382653 
L 66.808306 126.515432 
L 75.112449 128.45194 
L 75.447228 128.53165 
L 75.961644 128.635022 
L 77.382411 128.880898 
L 78.427574 129.110756 
L 78.901163 129.200157 
L 79.636043 129.349774 
L 82.673547 129.855308 
L 83.155301 129.936317 
L 83.547237 130.005578 
L 84.706714 130.216519 
L 85.408933 130.343545 
L 89.164986 130.962209 
L 89.556922 131.022205 
L 99.95139 132.596655 
L 100.588286 132.680724 
L 101.274173 132.795304 
L 104.311677 133.211161 
L 104.752605 133.259853 
L 106.140712 133.482205 
L 107.969746 133.742411 
L 108.598477 133.83816 
L 110.011079 134.046201 
L 110.868439 134.180772 
L 111.905436 134.316684 
L 113.367031 134.558029 
L 113.85695 134.636526 
L 114.526508 134.739727 
L 116.79647 135.083067 
L 117.523185 135.208474 
L 141.904867 139.374977 
L 144.305474 139.848089 
L 160.799446 143.575245 
L 161.918096 143.887822 
L 165.837456 145.072888 
L 167.413365 145.587381 
L 173.031113 147.82891 
L 173.031113 147.82891 
" clip-path="url(#p6f92d6c3b9)" style="fill: none; stroke: #3ea44e"/>
   </g>
   <g id="line2d_28">
    <path d="M 39.258475 100.16184 
L 41.830555 96.951015 
L 45.88056 92.3038 
L 48.297498 89.853871 
L 49.742762 88.725142 
L 50.436815 88.330936 
L 50.616452 88.27907 
L 51.277844 88.176925 
L 52.03722 88.30094 
L 52.323007 88.46474 
L 52.478148 88.60102 
L 52.714943 88.872209 
L 53.915246 91.088902 
L 54.176537 91.770147 
L 54.576638 92.937735 
L 55.352345 95.713377 
L 55.785108 97.433089 
L 56.144382 98.85659 
L 56.993577 102.129819 
L 57.671299 104.638192 
L 58.316361 106.745543 
L 59.059406 108.765901 
L 59.76979 110.271862 
L 60.25971 111.167439 
L 60.667976 111.756708 
L 61.190557 112.43659 
L 61.549832 112.813126 
L 61.664147 112.927665 
L 62.333704 113.647335 
L 62.586829 113.897893 
L 63.035923 114.310774 
L 63.501347 114.647685 
L 63.738141 114.844622 
L 64.350541 115.310365 
L 65.224232 115.899761 
L 65.697821 116.187543 
L 67.322722 117.079128 
L 69.029276 117.871062 
L 69.339559 117.994073 
L 69.625346 118.134535 
L 69.788652 118.177878 
L 71.748332 118.864584 
L 72.009623 118.956329 
L 72.270913 119.04018 
L 72.932305 119.27742 
L 73.642689 119.491885 
L 77.766182 120.581922 
L 78.370417 120.736145 
L 79.244107 120.939759 
L 79.668704 121.047917 
L 81.326267 121.42366 
L 81.726368 121.517115 
L 82.191792 121.65378 
L 84.36377 122.128229 
L 84.649557 122.173358 
L 88.91186 123.078662 
L 89.320127 123.151734 
L 90.651076 123.40945 
L 91.026682 123.485054 
L 93.19866 123.924576 
L 93.492612 123.976656 
L 94.039689 124.079002 
L 105.560973 126.192658 
L 105.977405 126.272065 
L 106.72045 126.409607 
L 107.022567 126.443757 
L 107.683959 126.554063 
L 108.443335 126.68515 
L 108.745452 126.746936 
L 109.300695 126.844398 
L 110.051906 126.957739 
L 113.375196 127.575974 
L 114.338705 127.766363 
L 114.624492 127.827067 
L 115.016428 127.903501 
L 115.473686 127.988972 
L 116.339211 128.14951 
L 117.384374 128.375677 
L 117.890625 128.474519 
L 119.188912 128.738959 
L 119.442038 128.796562 
L 119.891131 128.874994 
L 121.434379 129.213078 
L 125.884485 130.162561 
L 126.954143 130.379152 
L 129.240436 130.881046 
L 129.983482 131.080563 
L 130.31826 131.160718 
L 130.816346 131.288421 
L 145.628258 135.262983 
L 146.65709 135.59847 
L 147.628765 135.924283 
L 148.780076 136.304004 
L 153.222017 137.84588 
L 153.89974 138.104448 
L 154.471313 138.322093 
L 155.565468 138.741473 
L 161.730293 141.395628 
L 166.784634 143.909646 
L 168.793306 145.052327 
L 170.00994 145.78336 
L 172.892303 147.687622 
L 173.031113 147.789555 
L 173.031113 147.789555 
" clip-path="url(#p6f92d6c3b9)" style="fill: none; stroke: #c371d2"/>
   </g>
   <g id="line2d_29">
    <path d="M 39.258475 116.123226 
L 42.606261 110.737825 
L 45.986709 105.654248 
L 48.811914 101.688896 
L 52.396495 97.067598 
L 56.275027 92.620023 
L 58.193881 90.746702 
L 59.875939 89.59974 
L 60.692472 89.344924 
L 61.696808 89.52584 
L 62.219389 89.846111 
L 63.631992 91.927511 
L 64.889453 94.889585 
L 65.54268 96.718029 
L 66.302055 98.986481 
L 67.183911 101.19599 
L 67.812642 102.602635 
L 67.967783 102.932148 
L 68.416877 103.882511 
L 68.890466 104.799414 
L 69.698834 105.926917 
L 70.646012 107.215668 
L 71.095105 107.725502 
L 72.18926 108.767389 
L 73.520209 109.80151 
L 74.51638 110.409426 
L 75.0063 110.700339 
L 75.643196 111.077541 
L 76.623035 111.54088 
L 76.916987 111.669438 
L 77.121121 111.773263 
L 77.758017 112.066959 
L 78.149953 112.233347 
L 81.726368 113.569964 
L 82.420421 113.775673 
L 82.616389 113.824296 
L 83.939173 114.22299 
L 84.175968 114.291455 
L 85.498752 114.66748 
L 85.735546 114.736044 
L 86.070325 114.801082 
L 92.300473 116.286209 
L 92.537268 116.338978 
L 92.749567 116.394181 
L 94.064185 116.67415 
L 94.799065 116.813511 
L 95.305316 116.932259 
L 95.950377 117.048801 
L 96.227998 117.106041 
L 96.693422 117.238285 
L 97.460963 117.339377 
L 97.689593 117.391443 
L 98.506126 117.57219 
L 98.97155 117.645956 
L 100.416814 117.940599 
L 101.021048 118.055556 
L 101.943731 118.245032 
L 111.195052 120.072596 
L 111.529831 120.166676 
L 113.522172 120.63188 
L 113.799793 120.678709 
L 114.355036 120.819103 
L 116.624998 121.311211 
L 116.869958 121.3755 
L 117.931451 121.633912 
L 119.205243 121.922582 
L 119.61351 122.032524 
L 119.956454 122.080837 
L 120.462704 122.221956 
L 121.418048 122.470276 
L 122.103936 122.619717 
L 124.145269 123.150675 
L 124.578032 123.278842 
L 124.945472 123.380765 
L 125.3864 123.494762 
L 125.819162 123.60066 
L 126.186602 123.701909 
L 126.717349 123.839224 
L 127.664527 124.128004 
L 129.224106 124.575672 
L 129.56705 124.669692 
L 131.061306 125.158797 
L 131.469572 125.268474 
L 132.065641 125.457206 
L 132.326932 125.559688 
L 132.702537 125.67367 
L 133.233284 125.836752 
L 133.666047 125.970751 
L 134.180462 126.153221 
L 135.201129 126.497497 
L 135.519577 126.609139 
L 135.927844 126.732215 
L 137.266958 127.189769 
L 138.083491 127.489386 
L 138.548915 127.64105 
L 139.185811 127.865727 
L 139.839038 128.128259 
L 140.304462 128.297717 
L 140.598414 128.415294 
L 141.447608 128.764731 
L 141.774221 128.890289 
L 142.852045 129.306464 
L 144.762733 130.108618 
L 151.931895 133.434929 
L 153.222017 134.088338 
L 154.095708 134.560748 
L 155.255185 135.19802 
L 156.284017 135.784719 
L 157.149542 136.268822 
L 164.400357 140.863471 
L 165.290378 141.491026 
L 169.01377 144.270971 
L 173.031113 147.732559 
L 173.031113 147.732559 
" clip-path="url(#p6f92d6c3b9)" style="fill: none; stroke: #ac8e18"/>
   </g>
   <g id="line2d_30">
    <path d="M 39.258475 148.045997 
L 43.390133 138.493634 
L 48.771087 126.983259 
L 52.878249 118.945928 
L 55.278857 114.552921 
L 58.757288 108.591651 
L 63.09308 101.874133 
L 66.212237 97.559536 
L 67.902461 95.413718 
L 70.695004 92.209576 
L 73.601862 89.475718 
L 74.859324 88.681256 
L 76.361745 88.297513 
L 76.761846 88.297119 
L 76.949649 88.322252 
L 77.741686 88.537931 
L 78.901163 89.264696 
L 79.252272 89.56277 
L 83.130805 93.823066 
L 83.947338 94.356833 
L 84.069818 94.443513 
L 85.686554 95.263017 
L 86.053994 95.410767 
L 86.372442 95.549905 
L 86.535749 95.607797 
L 86.723551 95.649136 
L 87.074661 95.812708 
L 87.507423 96.059339 
L 88.234138 96.310899 
L 88.454602 96.392941 
L 88.838372 96.485509 
L 89.042506 96.51482 
L 89.328292 96.605138 
L 89.899866 96.767388 
L 90.095834 96.808011 
L 91.998356 97.388959 
L 92.235151 97.501741 
L 92.921039 97.604951 
L 93.133337 97.663349 
L 93.508943 97.817454 
L 93.655918 97.835918 
L 95.476788 98.329329 
L 95.819732 98.434826 
L 96.130014 98.521412 
L 96.301486 98.546301 
L 98.342819 99.018349 
L 98.530622 99.078335 
L 98.767416 99.098186 
L 99.077699 99.147535 
L 99.469635 99.245273 
L 100.057539 99.402082 
L 100.343326 99.446084 
L 101.110867 99.65464 
L 101.331331 99.68626 
L 106.818434 101.201045 
L 107.022567 101.261362 
L 107.300189 101.313155 
L 107.504322 101.360394 
L 107.651298 101.430418 
L 108.386178 101.629896 
L 108.565815 101.679547 
L 109.472167 101.944346 
L 109.717127 102.037666 
L 110.207047 102.223053 
L 110.51733 102.293472 
L 110.794951 102.385756 
L 111.170556 102.522883 
L 111.946263 102.7502 
L 112.134065 102.812082 
L 112.501505 102.950823 
L 113.064913 103.190421 
L 113.391527 103.311091 
L 113.914108 103.486399 
L 114.787798 103.883337 
L 115.212396 104.078096 
L 115.481852 104.168925 
L 116.706651 104.616375 
L 116.976107 104.742673 
L 117.155745 104.835525 
L 117.343547 104.903135 
L 118.102923 105.254644 
L 118.927622 105.543501 
L 119.654336 105.870743 
L 120.683168 106.379501 
L 120.936294 106.522502 
L 123.287909 107.719123 
L 123.565531 107.875083 
L 125.492549 108.878107 
L 131.583887 112.648725 
L 140.729059 119.359942 
L 141.749725 120.171486 
L 142.819384 121.023296 
L 143.676744 121.697168 
L 147.767575 124.914273 
L 149.35165 126.083836 
L 150.070199 126.617735 
L 152.691271 128.541916 
L 154.724438 130.090808 
L 156.782102 131.722867 
L 164.122736 138.151489 
L 165.470016 139.439959 
L 167.748143 141.711423 
L 172.410548 146.872573 
L 173.031113 147.637848 
L 173.031113 147.637848 
" clip-path="url(#p6f92d6c3b9)" style="fill: none; stroke-dasharray: 1,1.65; stroke-dashoffset: 0; stroke: #00aaae"/>
   </g>
   <g id="PathCollection_2">
    <defs>
     <path id="m89a4be91d9" d="M -2 2 
L 2 -2 
M -2 -2 
L 2 2 
" style="stroke: #009afa; stroke-width: 0.7"/>
    </defs>
    <g clip-path="url(#p6f92d6c3b9)">
     <use xlink:href="#m89a4be91d9" x="101.540557" y="141.173682" style="fill: #009afa; stroke: #009afa; stroke-width: 0.7"/>
    </g>
   </g>
   <g id="PathCollection_3">
    <defs>
     <path id="m6c786c604f" d="M -2 2 
L 2 -2 
M -2 -2 
L 2 2 
" style="stroke: #e36f47; stroke-width: 0.7"/>
    </defs>
    <g clip-path="url(#p6f92d6c3b9)">
     <use xlink:href="#m6c786c604f" x="85.714774" y="134.036283" style="fill: #e36f47; stroke: #e36f47; stroke-width: 0.7"/>
    </g>
   </g>
   <g id="PathCollection_4">
    <defs>
     <path id="me019ede421" d="M -2 2 
L 2 -2 
M -2 -2 
L 2 2 
" style="stroke: #3ea44e; stroke-width: 0.7"/>
    </defs>
    <g clip-path="url(#p6f92d6c3b9)">
     <use xlink:href="#me019ede421" x="83.569711" y="130.006323" style="fill: #3ea44e; stroke: #3ea44e; stroke-width: 0.7"/>
    </g>
   </g>
   <g id="PathCollection_5">
    <defs>
     <path id="mbfbbd6def8" d="M -2 2 
L 2 -2 
M -2 -2 
L 2 2 
" style="stroke: #c371d2; stroke-width: 0.7"/>
    </defs>
    <g clip-path="url(#p6f92d6c3b9)">
     <use xlink:href="#mbfbbd6def8" x="84.302666" y="122.120668" style="fill: #c371d2; stroke: #c371d2; stroke-width: 0.7"/>
    </g>
   </g>
   <g id="PathCollection_6">
    <defs>
     <path id="mc5726a6e79" d="M -2 2 
L 2 -2 
M -2 -2 
L 2 2 
" style="stroke: #ac8e18; stroke-width: 0.7"/>
    </defs>
    <g clip-path="url(#p6f92d6c3b9)">
     <use xlink:href="#mc5726a6e79" x="86.759071" y="114.960434" style="fill: #ac8e18; stroke: #ac8e18; stroke-width: 0.7"/>
    </g>
   </g>
   <g id="PathCollection_7">
    <defs>
     <path id="mf13ea1d752" d="M -2 2 
L 2 -2 
M -2 -2 
L 2 2 
" style="stroke: #00aaae; stroke-width: 0.7"/>
    </defs>
    <g clip-path="url(#p6f92d6c3b9)">
     <use xlink:href="#mf13ea1d752" x="90.661795" y="96.930443" style="fill: #00aaae; stroke: #00aaae; stroke-width: 0.7"/>
    </g>
   </g>
   <g id="PathCollection_8">
    <defs>
     <path id="m5f4e967e7e" d="M -0 3.535534 
L 3.535534 0 
L 0 -3.535534 
L -3.535534 -0 
z
" style="stroke: #009afa"/>
    </defs>
    <g clip-path="url(#p6f92d6c3b9)">
     <use xlink:href="#m5f4e967e7e" x="39.282971" y="20.354646" style="fill-opacity: 0; stroke: #009afa"/>
    </g>
   </g>
   <g id="PathCollection_9">
    <defs>
     <path id="m345cd2c894" d="M -0 3.535534 
L 3.535534 0 
L 0 -3.535534 
L -3.535534 -0 
z
" style="stroke: #e36f47"/>
    </defs>
    <g clip-path="url(#p6f92d6c3b9)">
     <use xlink:href="#m345cd2c894" x="39.593254" y="74.426683" style="fill-opacity: 0; stroke: #e36f47"/>
    </g>
   </g>
   <g id="PathCollection_10">
    <defs>
     <path id="m84493f0d28" d="M -0 3.535534 
L 3.535534 0 
L 0 -3.535534 
L -3.535534 -0 
z
" style="stroke: #3ea44e"/>
    </defs>
    <g clip-path="url(#p6f92d6c3b9)">
     <use xlink:href="#m84493f0d28" x="41.242651" y="83.050398" style="fill-opacity: 0; stroke: #3ea44e"/>
    </g>
   </g>
   <g id="PathCollection_11">
    <defs>
     <path id="m8b2cda15b8" d="M -0 3.535534 
L 3.535534 0 
L 0 -3.535534 
L -3.535534 -0 
z
" style="stroke: #c371d2"/>
    </defs>
    <g clip-path="url(#p6f92d6c3b9)">
     <use xlink:href="#m8b2cda15b8" x="51.481977" y="88.161025" style="fill-opacity: 0; stroke: #c371d2"/>
    </g>
   </g>
   <g id="PathCollection_12">
    <defs>
     <path id="m1b1bbe5748" d="M -0 3.535534 
L 3.535534 0 
L 0 -3.535534 
L -3.535534 -0 
z
" style="stroke: #ac8e18"/>
    </defs>
    <g clip-path="url(#p6f92d6c3b9)">
     <use xlink:href="#m1b1bbe5748" x="60.782291" y="89.337064" style="fill-opacity: 0; stroke: #ac8e18"/>
    </g>
   </g>
   <g id="PathCollection_13">
    <defs>
     <path id="me1fb374795" d="M -0 3.535534 
L 3.535534 0 
L 0 -3.535534 
L -3.535534 -0 
z
" style="stroke: #00aaae"/>
    </defs>
    <g clip-path="url(#p6f92d6c3b9)">
     <use xlink:href="#me1fb374795" x="76.565878" y="88.272524" style="fill-opacity: 0; stroke: #00aaae"/>
    </g>
   </g>
   <g id="legend_1">
    <g id="patch_7">
     <path d="M 149.026292 127.226833 
L 208.665354 127.226833 
L 208.665354 24.854646 
L 149.026292 24.854646 
L 149.026292 127.226833 
z
" style="fill: none; opacity: 0"/>
    </g>
    <g id="line2d_31">
     <path d="M 156.226292 35.743239 
L 165.226292 35.743239 
L 174.226292 35.743239 
" style="fill: none"/>
     <defs>
      <path id="m02d6303d6e" d="M 0 3.6 
C 0.954731 3.6 1.870488 3.220681 2.545584 2.545584 
C 3.220681 1.870488 3.6 0.954731 3.6 0 
C 3.6 -0.954731 3.220681 -1.870488 2.545584 -2.545584 
C 1.870488 -3.220681 0.954731 -3.6 0 -3.6 
C -0.954731 -3.6 -1.870488 -3.220681 -2.545584 -2.545584 
C -3.220681 -1.870488 -3.6 -0.954731 -3.6 0 
C -3.6 0.954731 -3.220681 1.870488 -2.545584 2.545584 
C -1.870488 3.220681 -0.954731 3.6 0 3.6 
z
" style="stroke: #ffffff; stroke-width: inf"/>
     </defs>
     <g>
      <use xlink:href="#m02d6303d6e" x="165.226292" y="35.743239" style="fill: #ffffff; fill-opacity: 0; stroke: #ffffff; stroke-width: inf"/>
     </g>
    </g>
    <g id="text_16">
     <!-- $t_0$ -->
     <g transform="translate(181.426292 38.893239) scale(0.09 -0.09)">
      <defs>
       <path id="DejaVuSans-Oblique-74" d="M 2706 3500 
L 2619 3053 
L 1472 3053 
L 1100 1153 
Q 1081 1047 1072 975 
Q 1063 903 1063 863 
Q 1063 663 1183 572 
Q 1303 481 1569 481 
L 2150 481 
L 2053 0 
L 1503 0 
Q 991 0 739 200 
Q 488 400 488 806 
Q 488 878 497 964 
Q 506 1050 525 1153 
L 897 3053 
L 409 3053 
L 500 3500 
L 978 3500 
L 1172 4494 
L 1747 4494 
L 1556 3500 
L 2706 3500 
z
" transform="scale(0.015625)"/>
      </defs>
      <use xlink:href="#DejaVuSans-Oblique-74" transform="translate(0 0.78125)"/>
      <use xlink:href="#DejaVuSans-30" transform="translate(39.208984 -15.625) scale(0.7)"/>
     </g>
    </g>
    <g id="line2d_32">
     <path d="M 156.226292 48.953552 
L 165.226292 48.953552 
L 174.226292 48.953552 
" style="fill: none; stroke-dasharray: 4.1625,1.8; stroke-dashoffset: 0; stroke: #009afa; stroke-width: 1.125; stroke-linejoin: miter"/>
    </g>
    <g id="text_17">
     <!-- 0.1 -->
     <g transform="translate(181.426292 52.103552) scale(0.09 -0.09)">
      <use xlink:href="#DejaVuSans-30"/>
      <use xlink:href="#DejaVuSans-2e" x="63.623047"/>
      <use xlink:href="#DejaVuSans-31" x="95.410156"/>
     </g>
    </g>
    <g id="line2d_33">
     <path d="M 156.226292 62.163864 
L 165.226292 62.163864 
L 174.226292 62.163864 
" style="fill: none; stroke: #e36f47; stroke-width: 1.125; stroke-linejoin: miter"/>
    </g>
    <g id="text_18">
     <!-- 0.27 -->
     <g transform="translate(181.426292 65.313864) scale(0.09 -0.09)">
      <defs>
       <path id="DejaVuSans-37" d="M 525 4666 
L 3525 4666 
L 3525 4397 
L 1831 0 
L 1172 0 
L 2766 4134 
L 525 4134 
L 525 4666 
z
" transform="scale(0.015625)"/>
      </defs>
      <use xlink:href="#DejaVuSans-30"/>
      <use xlink:href="#DejaVuSans-2e" x="63.623047"/>
      <use xlink:href="#DejaVuSans-32" x="95.410156"/>
      <use xlink:href="#DejaVuSans-37" x="159.033203"/>
     </g>
    </g>
    <g id="line2d_34">
     <path d="M 156.226292 75.374177 
L 165.226292 75.374177 
L 174.226292 75.374177 
" style="fill: none; stroke: #3ea44e; stroke-width: 1.125; stroke-linejoin: miter"/>
    </g>
    <g id="text_19">
     <!-- 0.3 -->
     <g transform="translate(181.426292 78.524177) scale(0.09 -0.09)">
      <use xlink:href="#DejaVuSans-30"/>
      <use xlink:href="#DejaVuSans-2e" x="63.623047"/>
      <use xlink:href="#DejaVuSans-33" x="95.410156"/>
     </g>
    </g>
    <g id="line2d_35">
     <path d="M 156.226292 88.584489 
L 165.226292 88.584489 
L 174.226292 88.584489 
" style="fill: none; stroke: #c371d2; stroke-width: 1.125; stroke-linejoin: miter"/>
    </g>
    <g id="text_20">
     <!-- 0.35 -->
     <g transform="translate(181.426292 91.734489) scale(0.09 -0.09)">
      <defs>
       <path id="DejaVuSans-35" d="M 691 4666 
L 3169 4666 
L 3169 4134 
L 1269 4134 
L 1269 2991 
Q 1406 3038 1543 3061 
Q 1681 3084 1819 3084 
Q 2600 3084 3056 2656 
Q 3513 2228 3513 1497 
Q 3513 744 3044 326 
Q 2575 -91 1722 -91 
Q 1428 -91 1123 -41 
Q 819 9 494 109 
L 494 744 
Q 775 591 1075 516 
Q 1375 441 1709 441 
Q 2250 441 2565 725 
Q 2881 1009 2881 1497 
Q 2881 1984 2565 2268 
Q 2250 2553 1709 2553 
Q 1456 2553 1204 2497 
Q 953 2441 691 2322 
L 691 4666 
z
" transform="scale(0.015625)"/>
      </defs>
      <use xlink:href="#DejaVuSans-30"/>
      <use xlink:href="#DejaVuSans-2e" x="63.623047"/>
      <use xlink:href="#DejaVuSans-33" x="95.410156"/>
      <use xlink:href="#DejaVuSans-35" x="159.033203"/>
     </g>
    </g>
    <g id="line2d_36">
     <path d="M 156.226292 101.794802 
L 165.226292 101.794802 
L 174.226292 101.794802 
" style="fill: none; stroke: #ac8e18; stroke-width: 1.125; stroke-linejoin: miter"/>
    </g>
    <g id="text_21">
     <!-- 0.4 -->
     <g transform="translate(181.426292 104.944802) scale(0.09 -0.09)">
      <use xlink:href="#DejaVuSans-30"/>
      <use xlink:href="#DejaVuSans-2e" x="63.623047"/>
      <use xlink:href="#DejaVuSans-34" x="95.410156"/>
     </g>
    </g>
    <g id="line2d_37">
     <path d="M 156.226292 115.005114 
L 165.226292 115.005114 
L 174.226292 115.005114 
" style="fill: none; stroke-dasharray: 1.125,1.85625; stroke-dashoffset: 0; stroke: #00aaae; stroke-width: 1.125; stroke-linejoin: miter"/>
    </g>
    <g id="text_22">
     <!-- 0.5 -->
     <g transform="translate(181.426292 118.155114) scale(0.09 -0.09)">
      <use xlink:href="#DejaVuSans-30"/>
      <use xlink:href="#DejaVuSans-2e" x="63.623047"/>
      <use xlink:href="#DejaVuSans-35" x="95.410156"/>
     </g>
    </g>
   </g>
  </g>
 </g>
 <defs>
  <clipPath id="p6f92d6c3b9">
   <rect x="39.25031" y="20.354646" width="173.915045" height="127.710709"/>
  </clipPath>
 </defs>
</svg>
