<?xml version="1.0" encoding="utf-8" standalone="no"?>
<!DOCTYPE svg PUBLIC "-//W3C//DTD SVG 1.1//EN"
  "http://www.w3.org/Graphics/SVG/1.1/DTD/svg11.dtd">
<svg xmlns:xlink="http://www.w3.org/1999/xlink" width="216pt" height="180pt" viewBox="0 0 216 180" xmlns="http://www.w3.org/2000/svg" version="1.1">
 <metadata>
  <rdf:RDF xmlns:dc="http://purl.org/dc/elements/1.1/" xmlns:cc="http://creativecommons.org/ns#" xmlns:rdf="http://www.w3.org/1999/02/22-rdf-syntax-ns#">
   <cc:Work>
    <dc:type rdf:resource="http://purl.org/dc/dcmitype/StillImage"/>
    <dc:date>2023-05-18T19:23:28.884135</dc:date>
    <dc:format>image/svg+xml</dc:format>
    <dc:creator>
     <cc:Agent>
      <dc:title>Matplotlib v3.6.3, https://matplotlib.org/</dc:title>
     </cc:Agent>
    </dc:creator>
   </cc:Work>
  </rdf:RDF>
 </metadata>
 <defs>
  <style type="text/css">*{stroke-linejoin: round; stroke-linecap: butt}</style>
 </defs>
 <g id="figure_1">
  <g id="patch_1">
   <path d="M 0 180 
L 216 180 
L 216 0 
L 0 0 
z
" style="fill: #ffffff"/>
  </g>
  <g id="axes_1">
   <g id="patch_2">
    <path d="M 21.57031 148.065354 
L 213.165354 148.065354 
L 213.165354 20.354646 
L 21.57031 20.354646 
z
" style="fill: #ffffff"/>
   </g>
   <g id="PathCollection_1">
    <defs>
     <path id="m199138e54a" d="M 0 0 
C 0 0 0 0 0 0 
C 0 0 0 0 0 0 
C 0 0 0 0 0 0 
C 0 0 0 0 0 0 
C 0 0 0 0 0 0 
C 0 0 0 0 0 0 
C 0 0 0 0 0 0 
C 0 0 0 0 0 0 
z
" style="stroke: #ffffff; stroke-width: 0.7"/>
    </defs>
    <g clip-path="url(#pbca3f27fe6)">
     <use xlink:href="#m199138e54a" x="21.57031" y="148.065354" style="fill: #ffffff; fill-opacity: 0; stroke: #ffffff; stroke-width: 0.7"/>
    </g>
   </g>
   <g id="matplotlib.axis_1">
    <g id="xtick_1">
     <g id="line2d_1">
      <defs>
       <path id="m021f4040da" d="M 0 0 
L 0 -2.5 
" style="stroke: #000000; stroke-width: 0.5"/>
      </defs>
      <g>
       <use xlink:href="#m021f4040da" x="21.57031" y="148.065354" style="stroke: #000000; stroke-width: 0.5"/>
      </g>
     </g>
     <g id="line2d_2">
      <defs>
       <path id="ma2614bb2dd" d="M 0 0 
L 0 2.5 
" style="stroke: #000000; stroke-width: 0.5"/>
      </defs>
      <g>
       <use xlink:href="#ma2614bb2dd" x="21.57031" y="20.354646" style="stroke: #000000; stroke-width: 0.5"/>
      </g>
     </g>
     <g id="text_1">
      <!-- $0.0$ -->
      <g transform="translate(14.37031 158.403948) scale(0.09 -0.09)">
       <defs>
        <path id="DejaVuSans-30" d="M 2034 4250 
Q 1547 4250 1301 3770 
Q 1056 3291 1056 2328 
Q 1056 1369 1301 889 
Q 1547 409 2034 409 
Q 2525 409 2770 889 
Q 3016 1369 3016 2328 
Q 3016 3291 2770 3770 
Q 2525 4250 2034 4250 
z
M 2034 4750 
Q 2819 4750 3233 4129 
Q 3647 3509 3647 2328 
Q 3647 1150 3233 529 
Q 2819 -91 2034 -91 
Q 1250 -91 836 529 
Q 422 1150 422 2328 
Q 422 3509 836 4129 
Q 1250 4750 2034 4750 
z
" transform="scale(0.015625)"/>
        <path id="DejaVuSans-2e" d="M 684 794 
L 1344 794 
L 1344 0 
L 684 0 
L 684 794 
z
" transform="scale(0.015625)"/>
       </defs>
       <use xlink:href="#DejaVuSans-30" transform="translate(0 0.78125)"/>
       <use xlink:href="#DejaVuSans-2e" transform="translate(63.623047 0.78125)"/>
       <use xlink:href="#DejaVuSans-30" transform="translate(95.410156 0.78125)"/>
      </g>
     </g>
    </g>
    <g id="xtick_2">
     <g id="line2d_3">
      <g>
       <use xlink:href="#m021f4040da" x="51.04647" y="148.065354" style="stroke: #000000; stroke-width: 0.5"/>
      </g>
     </g>
     <g id="line2d_4">
      <g>
       <use xlink:href="#ma2614bb2dd" x="51.04647" y="20.354646" style="stroke: #000000; stroke-width: 0.5"/>
      </g>
     </g>
     <g id="text_2">
      <!-- $0.2$ -->
      <g transform="translate(44.11647 158.403948) scale(0.09 -0.09)">
       <defs>
        <path id="DejaVuSans-32" d="M 1228 531 
L 3431 531 
L 3431 0 
L 469 0 
L 469 531 
Q 828 903 1448 1529 
Q 2069 2156 2228 2338 
Q 2531 2678 2651 2914 
Q 2772 3150 2772 3378 
Q 2772 3750 2511 3984 
Q 2250 4219 1831 4219 
Q 1534 4219 1204 4116 
Q 875 4013 500 3803 
L 500 4441 
Q 881 4594 1212 4672 
Q 1544 4750 1819 4750 
Q 2544 4750 2975 4387 
Q 3406 4025 3406 3419 
Q 3406 3131 3298 2873 
Q 3191 2616 2906 2266 
Q 2828 2175 2409 1742 
Q 1991 1309 1228 531 
z
" transform="scale(0.015625)"/>
       </defs>
       <use xlink:href="#DejaVuSans-30" transform="translate(0 0.78125)"/>
       <use xlink:href="#DejaVuSans-2e" transform="translate(63.623047 0.78125)"/>
       <use xlink:href="#DejaVuSans-32" transform="translate(89.910156 0.78125)"/>
      </g>
     </g>
    </g>
    <g id="xtick_3">
     <g id="line2d_5">
      <g>
       <use xlink:href="#m021f4040da" x="80.522631" y="148.065354" style="stroke: #000000; stroke-width: 0.5"/>
      </g>
     </g>
     <g id="line2d_6">
      <g>
       <use xlink:href="#ma2614bb2dd" x="80.522631" y="20.354646" style="stroke: #000000; stroke-width: 0.5"/>
      </g>
     </g>
     <g id="text_3">
      <!-- $0.4$ -->
      <g transform="translate(73.322631 158.403948) scale(0.09 -0.09)">
       <defs>
        <path id="DejaVuSans-34" d="M 2419 4116 
L 825 1625 
L 2419 1625 
L 2419 4116 
z
M 2253 4666 
L 3047 4666 
L 3047 1625 
L 3713 1625 
L 3713 1100 
L 3047 1100 
L 3047 0 
L 2419 0 
L 2419 1100 
L 313 1100 
L 313 1709 
L 2253 4666 
z
" transform="scale(0.015625)"/>
       </defs>
       <use xlink:href="#DejaVuSans-30" transform="translate(0 0.78125)"/>
       <use xlink:href="#DejaVuSans-2e" transform="translate(63.623047 0.78125)"/>
       <use xlink:href="#DejaVuSans-34" transform="translate(95.410156 0.78125)"/>
      </g>
     </g>
    </g>
    <g id="xtick_4">
     <g id="line2d_7">
      <g>
       <use xlink:href="#m021f4040da" x="109.998792" y="148.065354" style="stroke: #000000; stroke-width: 0.5"/>
      </g>
     </g>
     <g id="line2d_8">
      <g>
       <use xlink:href="#ma2614bb2dd" x="109.998792" y="20.354646" style="stroke: #000000; stroke-width: 0.5"/>
      </g>
     </g>
     <g id="text_4">
      <!-- $0.6$ -->
      <g transform="translate(102.798792 158.403948) scale(0.09 -0.09)">
       <defs>
        <path id="DejaVuSans-36" d="M 2113 2584 
Q 1688 2584 1439 2293 
Q 1191 2003 1191 1497 
Q 1191 994 1439 701 
Q 1688 409 2113 409 
Q 2538 409 2786 701 
Q 3034 994 3034 1497 
Q 3034 2003 2786 2293 
Q 2538 2584 2113 2584 
z
M 3366 4563 
L 3366 3988 
Q 3128 4100 2886 4159 
Q 2644 4219 2406 4219 
Q 1781 4219 1451 3797 
Q 1122 3375 1075 2522 
Q 1259 2794 1537 2939 
Q 1816 3084 2150 3084 
Q 2853 3084 3261 2657 
Q 3669 2231 3669 1497 
Q 3669 778 3244 343 
Q 2819 -91 2113 -91 
Q 1303 -91 875 529 
Q 447 1150 447 2328 
Q 447 3434 972 4092 
Q 1497 4750 2381 4750 
Q 2619 4750 2861 4703 
Q 3103 4656 3366 4563 
z
" transform="scale(0.015625)"/>
       </defs>
       <use xlink:href="#DejaVuSans-30" transform="translate(0 0.78125)"/>
       <use xlink:href="#DejaVuSans-2e" transform="translate(63.623047 0.78125)"/>
       <use xlink:href="#DejaVuSans-36" transform="translate(95.410156 0.78125)"/>
      </g>
     </g>
    </g>
    <g id="xtick_5">
     <g id="line2d_9">
      <g>
       <use xlink:href="#m021f4040da" x="139.474953" y="148.065354" style="stroke: #000000; stroke-width: 0.5"/>
      </g>
     </g>
     <g id="line2d_10">
      <g>
       <use xlink:href="#ma2614bb2dd" x="139.474953" y="20.354646" style="stroke: #000000; stroke-width: 0.5"/>
      </g>
     </g>
     <g id="text_5">
      <!-- $0.8$ -->
      <g transform="translate(132.409953 158.403948) scale(0.09 -0.09)">
       <defs>
        <path id="DejaVuSans-38" d="M 2034 2216 
Q 1584 2216 1326 1975 
Q 1069 1734 1069 1313 
Q 1069 891 1326 650 
Q 1584 409 2034 409 
Q 2484 409 2743 651 
Q 3003 894 3003 1313 
Q 3003 1734 2745 1975 
Q 2488 2216 2034 2216 
z
M 1403 2484 
Q 997 2584 770 2862 
Q 544 3141 544 3541 
Q 544 4100 942 4425 
Q 1341 4750 2034 4750 
Q 2731 4750 3128 4425 
Q 3525 4100 3525 3541 
Q 3525 3141 3298 2862 
Q 3072 2584 2669 2484 
Q 3125 2378 3379 2068 
Q 3634 1759 3634 1313 
Q 3634 634 3220 271 
Q 2806 -91 2034 -91 
Q 1263 -91 848 271 
Q 434 634 434 1313 
Q 434 1759 690 2068 
Q 947 2378 1403 2484 
z
M 1172 3481 
Q 1172 3119 1398 2916 
Q 1625 2713 2034 2713 
Q 2441 2713 2670 2916 
Q 2900 3119 2900 3481 
Q 2900 3844 2670 4047 
Q 2441 4250 2034 4250 
Q 1625 4250 1398 4047 
Q 1172 3844 1172 3481 
z
" transform="scale(0.015625)"/>
       </defs>
       <use xlink:href="#DejaVuSans-30" transform="translate(0 0.78125)"/>
       <use xlink:href="#DejaVuSans-2e" transform="translate(63.623047 0.78125)"/>
       <use xlink:href="#DejaVuSans-38" transform="translate(92.785156 0.78125)"/>
      </g>
     </g>
    </g>
    <g id="xtick_6">
     <g id="line2d_11">
      <g>
       <use xlink:href="#m021f4040da" x="168.951113" y="148.065354" style="stroke: #000000; stroke-width: 0.5"/>
      </g>
     </g>
     <g id="line2d_12">
      <g>
       <use xlink:href="#ma2614bb2dd" x="168.951113" y="20.354646" style="stroke: #000000; stroke-width: 0.5"/>
      </g>
     </g>
     <g id="text_6">
      <!-- $1.0$ -->
      <g transform="translate(161.751113 158.403948) scale(0.09 -0.09)">
       <defs>
        <path id="DejaVuSans-31" d="M 794 531 
L 1825 531 
L 1825 4091 
L 703 3866 
L 703 4441 
L 1819 4666 
L 2450 4666 
L 2450 531 
L 3481 531 
L 3481 0 
L 794 0 
L 794 531 
z
" transform="scale(0.015625)"/>
       </defs>
       <use xlink:href="#DejaVuSans-31" transform="translate(0 0.78125)"/>
       <use xlink:href="#DejaVuSans-2e" transform="translate(63.623047 0.78125)"/>
       <use xlink:href="#DejaVuSans-30" transform="translate(95.410156 0.78125)"/>
      </g>
     </g>
    </g>
    <g id="xtick_7">
     <g id="line2d_13">
      <g>
       <use xlink:href="#m021f4040da" x="198.427274" y="148.065354" style="stroke: #000000; stroke-width: 0.5"/>
      </g>
     </g>
     <g id="line2d_14">
      <g>
       <use xlink:href="#ma2614bb2dd" x="198.427274" y="20.354646" style="stroke: #000000; stroke-width: 0.5"/>
      </g>
     </g>
     <g id="text_7">
      <!-- $1.2$ -->
      <g transform="translate(191.497274 158.403948) scale(0.09 -0.09)">
       <use xlink:href="#DejaVuSans-31" transform="translate(0 0.78125)"/>
       <use xlink:href="#DejaVuSans-2e" transform="translate(63.623047 0.78125)"/>
       <use xlink:href="#DejaVuSans-32" transform="translate(89.910156 0.78125)"/>
      </g>
     </g>
    </g>
    <g id="text_8">
     <!-- $k/N$ -->
     <g transform="translate(107.347832 173.393792) scale(0.12 -0.12)">
      <defs>
       <path id="DejaVuSans-Oblique-6b" d="M 1172 4863 
L 1747 4863 
L 1197 2028 
L 3169 3500 
L 3916 3500 
L 1716 1825 
L 3322 0 
L 2625 0 
L 1131 1709 
L 800 0 
L 225 0 
L 1172 4863 
z
" transform="scale(0.015625)"/>
       <path id="DejaVuSans-2f" d="M 1625 4666 
L 2156 4666 
L 531 -594 
L 0 -594 
L 1625 4666 
z
" transform="scale(0.015625)"/>
       <path id="DejaVuSans-Oblique-4e" d="M 1081 4666 
L 1931 4666 
L 3219 666 
L 4000 4666 
L 4616 4666 
L 3706 0 
L 2853 0 
L 1569 4025 
L 788 0 
L 172 0 
L 1081 4666 
z
" transform="scale(0.015625)"/>
      </defs>
      <use xlink:href="#DejaVuSans-Oblique-6b" transform="translate(0 0.015625)"/>
      <use xlink:href="#DejaVuSans-2f" transform="translate(57.910156 0.015625)"/>
      <use xlink:href="#DejaVuSans-Oblique-4e" transform="translate(91.601562 0.015625)"/>
     </g>
    </g>
   </g>
   <g id="matplotlib.axis_2">
    <g id="ytick_1">
     <g id="line2d_15">
      <defs>
       <path id="mdb336f2f4d" d="M 0 0 
L 2.5 0 
" style="stroke: #000000; stroke-width: 0.5"/>
      </defs>
      <g>
       <use xlink:href="#mdb336f2f4d" x="21.57031" y="148.065354" style="stroke: #000000; stroke-width: 0.5"/>
      </g>
     </g>
     <g id="line2d_16">
      <defs>
       <path id="me081558992" d="M 0 0 
L -2.5 0 
" style="stroke: #000000; stroke-width: 0.5"/>
      </defs>
      <g>
       <use xlink:href="#me081558992" x="213.165354" y="148.065354" style="stroke: #000000; stroke-width: 0.5"/>
      </g>
     </g>
     <g id="text_9">
      <!-- $0.0$ -->
      <g transform="translate(3.67031 151.484651) scale(0.09 -0.09)">
       <use xlink:href="#DejaVuSans-30" transform="translate(0 0.78125)"/>
       <use xlink:href="#DejaVuSans-2e" transform="translate(63.623047 0.78125)"/>
       <use xlink:href="#DejaVuSans-30" transform="translate(95.410156 0.78125)"/>
      </g>
     </g>
    </g>
    <g id="ytick_2">
     <g id="line2d_17">
      <g>
       <use xlink:href="#mdb336f2f4d" x="21.57031" y="116.138711" style="stroke: #000000; stroke-width: 0.5"/>
      </g>
     </g>
     <g id="line2d_18">
      <g>
       <use xlink:href="#me081558992" x="213.165354" y="116.138711" style="stroke: #000000; stroke-width: 0.5"/>
      </g>
     </g>
     <g id="text_10">
      <!-- $0.1$ -->
      <g transform="translate(3.67031 119.558008) scale(0.09 -0.09)">
       <use xlink:href="#DejaVuSans-30" transform="translate(0 0.78125)"/>
       <use xlink:href="#DejaVuSans-2e" transform="translate(63.623047 0.78125)"/>
       <use xlink:href="#DejaVuSans-31" transform="translate(95.410156 0.78125)"/>
      </g>
     </g>
    </g>
    <g id="ytick_3">
     <g id="line2d_19">
      <g>
       <use xlink:href="#mdb336f2f4d" x="21.57031" y="84.212068" style="stroke: #000000; stroke-width: 0.5"/>
      </g>
     </g>
     <g id="line2d_20">
      <g>
       <use xlink:href="#me081558992" x="213.165354" y="84.212068" style="stroke: #000000; stroke-width: 0.5"/>
      </g>
     </g>
     <g id="text_11">
      <!-- $0.2$ -->
      <g transform="translate(4.21031 87.631365) scale(0.09 -0.09)">
       <use xlink:href="#DejaVuSans-30" transform="translate(0 0.78125)"/>
       <use xlink:href="#DejaVuSans-2e" transform="translate(63.623047 0.78125)"/>
       <use xlink:href="#DejaVuSans-32" transform="translate(89.910156 0.78125)"/>
      </g>
     </g>
    </g>
    <g id="ytick_4">
     <g id="line2d_21">
      <g>
       <use xlink:href="#mdb336f2f4d" x="21.57031" y="52.285425" style="stroke: #000000; stroke-width: 0.5"/>
      </g>
     </g>
     <g id="line2d_22">
      <g>
       <use xlink:href="#me081558992" x="213.165354" y="52.285425" style="stroke: #000000; stroke-width: 0.5"/>
      </g>
     </g>
     <g id="text_12">
      <!-- $0.3$ -->
      <g transform="translate(3.67031 55.704722) scale(0.09 -0.09)">
       <defs>
        <path id="DejaVuSans-33" d="M 2597 2516 
Q 3050 2419 3304 2112 
Q 3559 1806 3559 1356 
Q 3559 666 3084 287 
Q 2609 -91 1734 -91 
Q 1441 -91 1130 -33 
Q 819 25 488 141 
L 488 750 
Q 750 597 1062 519 
Q 1375 441 1716 441 
Q 2309 441 2620 675 
Q 2931 909 2931 1356 
Q 2931 1769 2642 2001 
Q 2353 2234 1838 2234 
L 1294 2234 
L 1294 2753 
L 1863 2753 
Q 2328 2753 2575 2939 
Q 2822 3125 2822 3475 
Q 2822 3834 2567 4026 
Q 2313 4219 1838 4219 
Q 1578 4219 1281 4162 
Q 984 4106 628 3988 
L 628 4550 
Q 988 4650 1302 4700 
Q 1616 4750 1894 4750 
Q 2613 4750 3031 4423 
Q 3450 4097 3450 3541 
Q 3450 3153 3228 2886 
Q 3006 2619 2597 2516 
z
" transform="scale(0.015625)"/>
       </defs>
       <use xlink:href="#DejaVuSans-30" transform="translate(0 0.78125)"/>
       <use xlink:href="#DejaVuSans-2e" transform="translate(63.623047 0.78125)"/>
       <use xlink:href="#DejaVuSans-33" transform="translate(95.410156 0.78125)"/>
      </g>
     </g>
    </g>
    <g id="ytick_5">
     <g id="line2d_23">
      <g>
       <use xlink:href="#mdb336f2f4d" x="21.57031" y="20.358782" style="stroke: #000000; stroke-width: 0.5"/>
      </g>
     </g>
     <g id="line2d_24">
      <g>
       <use xlink:href="#me081558992" x="213.165354" y="20.358782" style="stroke: #000000; stroke-width: 0.5"/>
      </g>
     </g>
     <g id="text_13">
      <!-- $0.4$ -->
      <g transform="translate(3.67031 23.778079) scale(0.09 -0.09)">
       <use xlink:href="#DejaVuSans-30" transform="translate(0 0.78125)"/>
       <use xlink:href="#DejaVuSans-2e" transform="translate(63.623047 0.78125)"/>
       <use xlink:href="#DejaVuSans-34" transform="translate(95.410156 0.78125)"/>
      </g>
     </g>
    </g>
   </g>
   <g id="line2d_25">
    <path d="M 21.579305 20.35491 
L 21.948117 20.354646 
L 22.092044 74.88233 
L 22.35291 94.744015 
L 22.66775 104.278816 
L 23.081539 110.926761 
L 23.729208 116.726205 
L 24.547791 121.016113 
L 26.112992 125.626419 
L 27.660203 128.295197 
L 29.162436 130.078617 
L 30.151931 130.997386 
L 31.321335 131.909345 
L 32.742609 132.822476 
L 36.169861 134.448246 
L 37.89698 135.086179 
L 41.782997 136.191117 
L 44.391666 136.776523 
L 45.749973 137.046505 
L 49.258183 137.637579 
L 59.854776 138.951118 
L 63.776775 139.297009 
L 66.880192 139.554583 
L 68.265485 139.664032 
L 82.127412 140.609289 
L 86.157356 140.884981 
L 91.977387 141.297518 
L 93.038845 141.373904 
L 94.469115 141.471447 
L 95.872399 141.567576 
L 98.51705 141.749022 
L 101.02677 141.923617 
L 104.43603 142.176995 
L 106.190135 142.300487 
L 119.11654 143.189642 
L 125.638212 143.616194 
L 128.912542 143.834608 
L 135.695081 144.333983 
L 147.218202 145.300669 
L 151.149196 145.665128 
L 167.592806 147.582922 
L 168.951113 147.89781 
L 168.951113 147.89781 
" clip-path="url(#pbca3f27fe6)" style="fill: none; stroke-dasharray: 3.7,1.6; stroke-dashoffset: 0; stroke: #009afa"/>
   </g>
   <g id="patch_3">
    <path d="M 21.57031 148.065354 
L 21.57031 20.354646 
" style="fill: none; stroke: #000000; stroke-linejoin: miter; stroke-linecap: square"/>
   </g>
   <g id="patch_4">
    <path d="M 213.165354 148.065354 
L 213.165354 20.354646 
" style="fill: none; stroke: #000000; stroke-linejoin: miter; stroke-linecap: square"/>
   </g>
   <g id="patch_5">
    <path d="M 21.57031 148.065354 
L 213.165354 148.065354 
" style="fill: none; stroke: #000000; stroke-linejoin: miter; stroke-linecap: square"/>
   </g>
   <g id="patch_6">
    <path d="M 21.57031 20.354646 
L 213.165354 20.354646 
" style="fill: none; stroke: #000000; stroke-linejoin: miter; stroke-linecap: square"/>
   </g>
   <g id="line2d_26">
    <path d="M 21.579305 74.623622 
L 21.966108 74.44693 
L 21.975103 74.463489 
L 22.101039 74.675786 
L 22.397887 75.920795 
L 22.694736 78.147067 
L 23.954093 91.547938 
L 24.86263 100.696483 
L 25.915093 108.087226 
L 26.886597 112.468087 
L 28.631707 117.185695 
L 29.765129 119.197331 
L 30.241885 119.852571 
L 30.907546 120.726674 
L 31.249371 121.116067 
L 33.273339 123.189145 
L 33.705118 123.542848 
L 35.207352 124.647251 
L 35.837031 125.036405 
L 37.13237 125.834618 
L 38.661589 126.662357 
L 45.875909 129.311118 
L 46.208739 129.414185 
L 47.387137 129.715086 
L 48.709463 130.05496 
L 53.683925 131.190342 
L 54.250636 131.301623 
L 55.536979 131.502763 
L 57.255103 131.808598 
L 68.778223 133.526892 
L 69.183017 133.581507 
L 69.956622 133.686651 
L 70.325434 133.727333 
L 70.757214 133.787872 
L 71.737713 133.892397 
L 72.385383 133.983686 
L 75.965556 134.450166 
L 77.395827 134.619883 
L 79.032991 134.813393 
L 81.551706 135.108833 
L 83.035949 135.273462 
L 84.655123 135.484265 
L 85.113889 135.533142 
L 85.806535 135.611254 
L 97.338651 136.938254 
L 98.993807 137.128893 
L 100.71193 137.330082 
L 101.953297 137.469744 
L 103.707402 137.682445 
L 107.152644 138.07845 
L 108.528942 138.252621 
L 109.545423 138.366538 
L 111.614368 138.609883 
L 112.486922 138.703368 
L 117.128554 139.226829 
L 118.378916 139.377605 
L 119.953113 139.562837 
L 126.708666 140.377479 
L 131.548197 140.998071 
L 132.951481 141.190318 
L 137.602108 141.811041 
L 141.092327 142.288147 
L 142.405657 142.471028 
L 154.549461 144.353441 
L 161.76378 145.76263 
L 167.790705 147.383844 
L 168.951113 147.841887 
L 168.951113 147.841887 
" clip-path="url(#pbca3f27fe6)" style="fill: none; stroke: #e36f47"/>
   </g>
   <g id="text_14">
    <!-- CLS -->
    <g transform="translate(103.190488 14.354646) scale(0.15 -0.15)">
     <defs>
      <path id="DejaVuSans-43" d="M 4122 4306 
L 4122 3641 
Q 3803 3938 3442 4084 
Q 3081 4231 2675 4231 
Q 1875 4231 1450 3742 
Q 1025 3253 1025 2328 
Q 1025 1406 1450 917 
Q 1875 428 2675 428 
Q 3081 428 3442 575 
Q 3803 722 4122 1019 
L 4122 359 
Q 3791 134 3420 21 
Q 3050 -91 2638 -91 
Q 1578 -91 968 557 
Q 359 1206 359 2328 
Q 359 3453 968 4101 
Q 1578 4750 2638 4750 
Q 3056 4750 3426 4639 
Q 3797 4528 4122 4306 
z
" transform="scale(0.015625)"/>
      <path id="DejaVuSans-4c" d="M 628 4666 
L 1259 4666 
L 1259 531 
L 3531 531 
L 3531 0 
L 628 0 
L 628 4666 
z
" transform="scale(0.015625)"/>
      <path id="DejaVuSans-53" d="M 3425 4513 
L 3425 3897 
Q 3066 4069 2747 4153 
Q 2428 4238 2131 4238 
Q 1616 4238 1336 4038 
Q 1056 3838 1056 3469 
Q 1056 3159 1242 3001 
Q 1428 2844 1947 2747 
L 2328 2669 
Q 3034 2534 3370 2195 
Q 3706 1856 3706 1288 
Q 3706 609 3251 259 
Q 2797 -91 1919 -91 
Q 1588 -91 1214 -16 
Q 841 59 441 206 
L 441 856 
Q 825 641 1194 531 
Q 1563 422 1919 422 
Q 2459 422 2753 634 
Q 3047 847 3047 1241 
Q 3047 1584 2836 1778 
Q 2625 1972 2144 2069 
L 1759 2144 
Q 1053 2284 737 2584 
Q 422 2884 422 3419 
Q 422 4038 858 4394 
Q 1294 4750 2059 4750 
Q 2388 4750 2728 4690 
Q 3069 4631 3425 4513 
z
" transform="scale(0.015625)"/>
     </defs>
     <use xlink:href="#DejaVuSans-43"/>
     <use xlink:href="#DejaVuSans-4c" x="69.824219"/>
     <use xlink:href="#DejaVuSans-53" x="125.537109"/>
    </g>
   </g>
   <g id="line2d_27">
    <path d="M 21.579305 84.200454 
L 22.505832 83.504855 
L 23.603272 83.065156 
L 24.008066 83.075821 
L 24.583772 83.190011 
L 24.871625 83.411567 
L 25.348382 84.001653 
L 25.834134 84.846944 
L 26.265914 85.865413 
L 26.850616 87.689764 
L 27.462304 90.071284 
L 28.235909 93.806269 
L 30.34983 105.04875 
L 31.303344 109.004676 
L 32.229871 112.002618 
L 34.361783 116.472208 
L 35.630136 118.222991 
L 35.882008 118.51026 
L 36.448718 119.092953 
L 37.420223 119.982167 
L 38.418713 120.769473 
L 39.11136 121.217534 
L 43.923905 123.89742 
L 45.669014 124.571944 
L 47.180243 125.081171 
L 47.782936 125.303899 
L 48.250697 125.428012 
L 48.808412 125.605067 
L 49.4201 125.777008 
L 56.067709 127.471878 
L 56.517479 127.558697 
L 57.129167 127.696567 
L 63.327005 128.856795 
L 63.758784 128.914374 
L 64.244537 129.00605 
L 67.72576 129.606359 
L 68.445393 129.697559 
L 69.174021 129.823741 
L 69.731737 129.9092 
L 74.337387 130.624556 
L 74.778162 130.689417 
L 76.82012 130.999494 
L 77.305872 131.065197 
L 77.665689 131.125286 
L 78.295368 131.2325 
L 79.203904 131.362755 
L 80.103445 131.490213 
L 87.4437 132.461327 
L 88.550135 132.613515 
L 91.554602 132.99307 
L 92.355194 133.101855 
L 93.191767 133.204128 
L 93.587565 133.250044 
L 94.900895 133.437404 
L 96.187239 133.603917 
L 99.61449 134.057641 
L 103.626443 134.608813 
L 104.265117 134.709915 
L 109.527432 135.438098 
L 111.038661 135.646082 
L 113.557376 136.017923 
L 114.834724 136.20723 
L 116.957641 136.519747 
L 117.578325 136.608843 
L 119.530329 136.911867 
L 123.05653 137.436659 
L 124.144974 137.609621 
L 124.873602 137.722575 
L 128.345831 138.280564 
L 136.405719 139.679411 
L 151.12221 142.548067 
L 152.111705 142.774397 
L 156.780323 143.9068 
L 158.23758 144.293197 
L 166.46838 146.812756 
L 168.816182 147.762332 
L 168.951113 147.82891 
L 168.951113 147.82891 
" clip-path="url(#pbca3f27fe6)" style="fill: none; stroke: #3ea44e"/>
   </g>
   <g id="line2d_28">
    <path d="M 21.579305 100.16184 
L 24.295919 97.080558 
L 27.72317 93.452491 
L 29.963028 91.255983 
L 31.753114 89.680102 
L 34.298815 88.243338 
L 35.000457 88.166012 
L 35.396255 88.213791 
L 36.070911 88.54478 
L 37.267301 90.121593 
L 39.11136 95.013976 
L 42.124822 105.48682 
L 44.283721 110.45084 
L 44.679519 111.116138 
L 45.830932 112.538348 
L 46.685495 113.320039 
L 47.980835 114.466262 
L 48.250697 114.62888 
L 49.555031 115.499932 
L 50.031788 115.815758 
L 50.913338 116.313994 
L 51.264159 116.48671 
L 52.81137 117.214726 
L 53.378081 117.457278 
L 58.154644 119.10329 
L 58.487474 119.216023 
L 58.901263 119.328039 
L 59.207107 119.42441 
L 59.836785 119.577408 
L 60.313542 119.692206 
L 68.27448 121.494914 
L 69.983608 121.868093 
L 70.460365 121.996898 
L 70.937122 122.075888 
L 71.791686 122.223898 
L 72.052553 122.277834 
L 73.302915 122.499764 
L 73.887616 122.618353 
L 74.139488 122.664686 
L 74.967066 122.819683 
L 75.407841 122.907252 
L 76.964047 123.186101 
L 79.032991 123.577827 
L 79.32984 123.634032 
L 79.986505 123.758625 
L 80.373307 123.823268 
L 80.832073 123.900975 
L 82.046454 124.102826 
L 82.469238 124.19601 
L 83.917499 124.422042 
L 84.358274 124.511619 
L 84.718091 124.565912 
L 85.536673 124.695179 
L 86.022425 124.788169 
L 87.047902 124.9345 
L 89.197805 125.330266 
L 89.557621 125.370574 
L 89.953419 125.424922 
L 91.230768 125.618674 
L 104.966759 127.895178 
L 105.461507 127.974151 
L 106.136163 128.081041 
L 108.322047 128.486891 
L 108.816795 128.597176 
L 109.203598 128.671482 
L 110.229074 128.843519 
L 110.642863 128.918625 
L 111.497427 129.092556 
L 112.019161 129.196068 
L 112.342996 129.266176 
L 113.008656 129.39031 
L 113.503404 129.492571 
L 117.569329 130.273125 
L 118.13604 130.369325 
L 118.68476 130.484174 
L 119.008595 130.55561 
L 119.656264 130.696252 
L 120.348911 130.816507 
L 120.771695 130.894113 
L 122.147993 131.227999 
L 128.453776 132.635635 
L 129.056468 132.769457 
L 132.213857 133.5348 
L 132.915499 133.719381 
L 133.6981 133.907872 
L 134.516682 134.109994 
L 138.357723 135.153308 
L 139.509135 135.484116 
L 140.183791 135.687039 
L 147.236193 137.88245 
L 158.624382 142.308731 
L 162.051634 143.899673 
L 168.951113 147.789555 
L 168.951113 147.789555 
" clip-path="url(#pbca3f27fe6)" style="fill: none; stroke: #c371d2"/>
   </g>
   <g id="line2d_29">
    <path d="M 21.579305 116.123226 
L 25.123497 110.941959 
L 30.637683 103.520793 
L 35.306301 97.906949 
L 38.841498 94.09408 
L 41.504139 91.534429 
L 43.05135 90.294954 
L 44.994358 89.352036 
L 45.471115 89.347784 
L 46.298693 89.52584 
L 46.874399 89.846111 
L 48.412614 91.88741 
L 48.889371 92.796927 
L 49.483068 94.082729 
L 50.679458 97.120654 
L 51.057265 98.17178 
L 51.794889 99.989247 
L 54.178672 104.716236 
L 56.98524 108.041556 
L 57.479988 108.476853 
L 59.153134 109.690888 
L 59.39601 109.849306 
L 59.530942 109.954397 
L 60.178611 110.319037 
L 60.457469 110.429293 
L 61.482946 110.99704 
L 63.075133 111.669294 
L 63.327005 111.795186 
L 63.659835 111.933999 
L 64.244537 112.1607 
L 64.703302 112.348998 
L 64.973165 112.470984 
L 65.270013 112.550615 
L 67.365944 113.295277 
L 67.653797 113.378731 
L 68.733246 113.675927 
L 69.58781 113.895719 
L 69.794705 113.948302 
L 70.289452 114.082894 
L 70.577305 114.178939 
L 75.740671 115.395249 
L 76.136469 115.486523 
L 76.388341 115.540146 
L 76.667198 115.609163 
L 77.03601 115.695905 
L 77.737652 115.823691 
L 78.205413 115.923416 
L 79.176918 116.153756 
L 79.464771 116.210082 
L 80.274358 116.338978 
L 80.499243 116.393976 
L 81.137917 116.518765 
L 107.377529 121.441676 
L 107.602415 121.496822 
L 108.034194 121.579457 
L 108.59191 121.708245 
L 109.554419 121.893185 
L 110.013185 122.020221 
L 111.713317 122.375777 
L 112.136101 122.478958 
L 112.873725 122.625362 
L 114.088105 122.926726 
L 114.51089 123.020352 
L 115.032623 123.139613 
L 115.473399 123.256725 
L 115.815224 123.344843 
L 116.282986 123.449139 
L 117.389421 123.710783 
L 117.758233 123.799629 
L 119.818182 124.348958 
L 120.312929 124.462661 
L 121.167493 124.703666 
L 121.500324 124.790303 
L 123.038539 125.238032 
L 123.434337 125.341784 
L 125.557254 125.960851 
L 126.159946 126.15507 
L 128.894551 126.993317 
L 131.40427 127.794136 
L 131.899018 127.956331 
L 138.609594 130.425272 
L 138.95142 130.561413 
L 139.437172 130.753206 
L 141.26324 131.48172 
L 142.153786 131.860095 
L 145.059303 133.134052 
L 146.102771 133.618421 
L 146.867381 133.971973 
L 156.816305 139.25325 
L 158.831277 140.476777 
L 162.123597 142.607612 
L 167.502852 146.530805 
L 168.951113 147.732559 
L 168.951113 147.732559 
" clip-path="url(#pbca3f27fe6)" style="fill: none; stroke: #ac8e18"/>
   </g>
   <g id="line2d_30">
    <path d="M 21.579305 148.045997 
L 25.96007 138.841061 
L 32.085944 126.932984 
L 37.276296 117.775287 
L 39.480172 114.147155 
L 42.016878 110.168322 
L 45.731982 104.739756 
L 47.746954 101.993067 
L 51.489045 97.30423 
L 53.800865 94.685868 
L 56.805332 91.639049 
L 58.694368 89.993763 
L 59.557928 89.378482 
L 62.049656 88.323121 
L 63.677826 88.409655 
L 64.757275 88.96878 
L 64.991156 89.121838 
L 66.556357 90.474725 
L 67.069095 91.015829 
L 67.545852 91.523727 
L 68.112563 92.126924 
L 68.535347 92.543901 
L 68.913155 92.895869 
L 69.452879 93.428439 
L 70.388402 94.14482 
L 70.676255 94.289118 
L 71.692736 94.824693 
L 71.926617 94.962911 
L 74.274419 95.823157 
L 74.517295 95.941384 
L 74.778162 96.066894 
L 74.940079 96.131833 
L 75.110992 96.184639 
L 76.361354 96.515719 
L 76.460304 96.525827 
L 76.478295 96.545077 
L 76.676194 96.589741 
L 79.527739 97.346004 
L 79.698652 97.400027 
L 79.824587 97.447589 
L 80.031482 97.516789 
L 80.481252 97.578669 
L 81.326821 97.803958 
L 81.812573 97.931906 
L 82.136408 97.992811 
L 82.361293 98.046694 
L 83.098917 98.186358 
L 84.304302 98.528231 
L 84.754072 98.603244 
L 85.095898 98.677559 
L 86.652104 99.007352 
L 86.993929 99.101674 
L 87.497672 99.146541 
L 87.767535 99.19691 
L 88.4242 99.386662 
L 88.730044 99.424545 
L 89.917438 99.674259 
L 90.1873 99.719886 
L 92.040355 100.090221 
L 92.562088 100.223317 
L 92.957886 100.363479 
L 93.533593 100.536192 
L 93.902405 100.629462 
L 94.181262 100.735307 
L 94.46012 100.786599 
L 94.640028 100.805144 
L 95.22473 100.950716 
L 95.629523 101.040363 
L 95.926372 101.173303 
L 98.18422 101.729809 
L 98.616 101.859245 
L 98.804903 101.927494 
L 99.200701 102.037666 
L 99.740426 102.223053 
L 100.082251 102.293472 
L 100.388095 102.385756 
L 100.783893 102.516691 
L 103.725393 103.452511 
L 103.995255 103.566347 
L 104.346076 103.712435 
L 106.810818 104.582085 
L 113.836234 107.562003 
L 114.906688 108.091489 
L 115.167555 108.198824 
L 115.72527 108.458601 
L 116.27399 108.723176 
L 123.110502 112.530011 
L 123.875112 113.018339 
L 124.774653 113.562877 
L 125.494286 113.996001 
L 125.854102 114.230366 
L 126.636703 114.71186 
L 127.077478 115.001672 
L 127.698161 115.403981 
L 128.264872 115.796836 
L 130.720619 117.513941 
L 132.789564 118.951903 
L 134.201843 119.961533 
L 135.623118 120.991806 
L 139.662057 123.896777 
L 140.129818 124.222996 
L 140.777488 124.673683 
L 141.892919 125.441153 
L 142.702506 125.982403 
L 146.246697 128.33675 
L 148.765412 130.078604 
L 154.108686 134.040402 
L 158.084658 137.259219 
L 159.66785 138.605153 
L 167.241985 145.766135 
L 168.951113 147.637848 
L 168.951113 147.637848 
" clip-path="url(#pbca3f27fe6)" style="fill: none; stroke-dasharray: 1,1.65; stroke-dashoffset: 0; stroke: #00aaae"/>
   </g>
   <g id="PathCollection_2">
    <defs>
     <path id="medeb3566c4" d="M -2 2 
L 2 -2 
M -2 -2 
L 2 2 
" style="stroke: #009afa; stroke-width: 0.7"/>
    </defs>
    <g clip-path="url(#pbca3f27fe6)">
     <use xlink:href="#medeb3566c4" x="90.19291" y="141.173682" style="fill: #009afa; stroke: #009afa; stroke-width: 0.7"/>
    </g>
   </g>
   <g id="PathCollection_3">
    <defs>
     <path id="me9eef7b53a" d="M -2 2 
L 2 -2 
M -2 -2 
L 2 2 
" style="stroke: #e36f47; stroke-width: 0.7"/>
    </defs>
    <g clip-path="url(#pbca3f27fe6)">
     <use xlink:href="#me9eef7b53a" x="72.758297" y="134.036283" style="fill: #e36f47; stroke: #e36f47; stroke-width: 0.7"/>
    </g>
   </g>
   <g id="PathCollection_4">
    <defs>
     <path id="mc9a0d7d301" d="M -2 2 
L 2 -2 
M -2 -2 
L 2 2 
" style="stroke: #3ea44e; stroke-width: 0.7"/>
    </defs>
    <g clip-path="url(#pbca3f27fe6)">
     <use xlink:href="#mc9a0d7d301" x="70.395169" y="130.006323" style="fill: #3ea44e; stroke: #3ea44e; stroke-width: 0.7"/>
    </g>
   </g>
   <g id="PathCollection_5">
    <defs>
     <path id="m8915c2c0f8" d="M -2 2 
L 2 -2 
M -2 -2 
L 2 2 
" style="stroke: #c371d2; stroke-width: 0.7"/>
    </defs>
    <g clip-path="url(#pbca3f27fe6)">
     <use xlink:href="#m8915c2c0f8" x="71.202636" y="122.120668" style="fill: #c371d2; stroke: #c371d2; stroke-width: 0.7"/>
    </g>
   </g>
   <g id="PathCollection_6">
    <defs>
     <path id="m72c29a3ca7" d="M -2 2 
L 2 -2 
M -2 -2 
L 2 2 
" style="stroke: #ac8e18; stroke-width: 0.7"/>
    </defs>
    <g clip-path="url(#pbca3f27fe6)">
     <use xlink:href="#m72c29a3ca7" x="73.908756" y="114.960434" style="fill: #ac8e18; stroke: #ac8e18; stroke-width: 0.7"/>
    </g>
   </g>
   <g id="PathCollection_7">
    <defs>
     <path id="m4170810e50" d="M -2 2 
L 2 -2 
M -2 -2 
L 2 2 
" style="stroke: #00aaae; stroke-width: 0.7"/>
    </defs>
    <g clip-path="url(#pbca3f27fe6)">
     <use xlink:href="#m4170810e50" x="78.208226" y="96.930443" style="fill: #00aaae; stroke: #00aaae; stroke-width: 0.7"/>
    </g>
   </g>
   <g id="PathCollection_8">
    <defs>
     <path id="m2b6092bcf7" d="M -0 3.535534 
L 3.535534 0 
L 0 -3.535534 
L -3.535534 -0 
z
" style="stroke: #009afa"/>
    </defs>
    <g clip-path="url(#pbca3f27fe6)">
     <use xlink:href="#m2b6092bcf7" x="21.606291" y="20.354646" style="fill-opacity: 0; stroke: #009afa"/>
    </g>
   </g>
   <g id="PathCollection_9">
    <defs>
     <path id="m85ff416c27" d="M -0 3.535534 
L 3.535534 0 
L 0 -3.535534 
L -3.535534 -0 
z
" style="stroke: #e36f47"/>
    </defs>
    <g clip-path="url(#pbca3f27fe6)">
     <use xlink:href="#m85ff416c27" x="21.948117" y="74.426683" style="fill-opacity: 0; stroke: #e36f47"/>
    </g>
   </g>
   <g id="PathCollection_10">
    <defs>
     <path id="m1309b2bc86" d="M -0 3.535534 
L 3.535534 0 
L 0 -3.535534 
L -3.535534 -0 
z
" style="stroke: #3ea44e"/>
    </defs>
    <g clip-path="url(#pbca3f27fe6)">
     <use xlink:href="#m1309b2bc86" x="23.76519" y="83.050398" style="fill-opacity: 0; stroke: #3ea44e"/>
    </g>
   </g>
   <g id="PathCollection_11">
    <defs>
     <path id="m4840fd1d7b" d="M -0 3.535534 
L 3.535534 0 
L 0 -3.535534 
L -3.535534 -0 
z
" style="stroke: #c371d2"/>
    </defs>
    <g clip-path="url(#pbca3f27fe6)">
     <use xlink:href="#m4840fd1d7b" x="35.045434" y="88.161025" style="fill-opacity: 0; stroke: #c371d2"/>
    </g>
   </g>
   <g id="PathCollection_12">
    <defs>
     <path id="me4f146216b" d="M -0 3.535534 
L 3.535534 0 
L 0 -3.535534 
L -3.535534 -0 
z
" style="stroke: #ac8e18"/>
    </defs>
    <g clip-path="url(#pbca3f27fe6)">
     <use xlink:href="#me4f146216b" x="45.291207" y="89.337064" style="fill-opacity: 0; stroke: #ac8e18"/>
    </g>
   </g>
   <g id="PathCollection_13">
    <defs>
     <path id="m0948caaaa4" d="M -0 3.535534 
L 3.535534 0 
L 0 -3.535534 
L -3.535534 -0 
z
" style="stroke: #00aaae"/>
    </defs>
    <g clip-path="url(#pbca3f27fe6)">
     <use xlink:href="#m0948caaaa4" x="62.679335" y="88.272524" style="fill-opacity: 0; stroke: #00aaae"/>
    </g>
   </g>
   <g id="legend_1">
    <g id="patch_7">
     <path d="M 149.026292 127.226833 
L 208.665354 127.226833 
L 208.665354 24.854646 
L 149.026292 24.854646 
L 149.026292 127.226833 
z
" style="fill: none; opacity: 0"/>
    </g>
    <g id="line2d_31">
     <path d="M 156.226292 35.743239 
L 165.226292 35.743239 
L 174.226292 35.743239 
" style="fill: none"/>
     <defs>
      <path id="mf962e93f63" d="M 0 3.6 
C 0.954731 3.6 1.870488 3.220681 2.545584 2.545584 
C 3.220681 1.870488 3.6 0.954731 3.6 0 
C 3.6 -0.954731 3.220681 -1.870488 2.545584 -2.545584 
C 1.870488 -3.220681 0.954731 -3.6 0 -3.6 
C -0.954731 -3.6 -1.870488 -3.220681 -2.545584 -2.545584 
C -3.220681 -1.870488 -3.6 -0.954731 -3.6 0 
C -3.6 0.954731 -3.220681 1.870488 -2.545584 2.545584 
C -1.870488 3.220681 -0.954731 3.6 0 3.6 
z
" style="stroke: #ffffff; stroke-width: inf"/>
     </defs>
     <g>
      <use xlink:href="#mf962e93f63" x="165.226292" y="35.743239" style="fill: #ffffff; fill-opacity: 0; stroke: #ffffff; stroke-width: inf"/>
     </g>
    </g>
    <g id="text_15">
     <!-- $t_0$ -->
     <g transform="translate(181.426292 38.893239) scale(0.09 -0.09)">
      <defs>
       <path id="DejaVuSans-Oblique-74" d="M 2706 3500 
L 2619 3053 
L 1472 3053 
L 1100 1153 
Q 1081 1047 1072 975 
Q 1063 903 1063 863 
Q 1063 663 1183 572 
Q 1303 481 1569 481 
L 2150 481 
L 2053 0 
L 1503 0 
Q 991 0 739 200 
Q 488 400 488 806 
Q 488 878 497 964 
Q 506 1050 525 1153 
L 897 3053 
L 409 3053 
L 500 3500 
L 978 3500 
L 1172 4494 
L 1747 4494 
L 1556 3500 
L 2706 3500 
z
" transform="scale(0.015625)"/>
      </defs>
      <use xlink:href="#DejaVuSans-Oblique-74" transform="translate(0 0.78125)"/>
      <use xlink:href="#DejaVuSans-30" transform="translate(39.208984 -15.625) scale(0.7)"/>
     </g>
    </g>
    <g id="line2d_32">
     <path d="M 156.226292 48.953552 
L 165.226292 48.953552 
L 174.226292 48.953552 
" style="fill: none; stroke-dasharray: 4.1625,1.8; stroke-dashoffset: 0; stroke: #009afa; stroke-width: 1.125; stroke-linejoin: miter"/>
    </g>
    <g id="text_16">
     <!-- 0.1 -->
     <g transform="translate(181.426292 52.103552) scale(0.09 -0.09)">
      <use xlink:href="#DejaVuSans-30"/>
      <use xlink:href="#DejaVuSans-2e" x="63.623047"/>
      <use xlink:href="#DejaVuSans-31" x="95.410156"/>
     </g>
    </g>
    <g id="line2d_33">
     <path d="M 156.226292 62.163864 
L 165.226292 62.163864 
L 174.226292 62.163864 
" style="fill: none; stroke: #e36f47; stroke-width: 1.125; stroke-linejoin: miter"/>
    </g>
    <g id="text_17">
     <!-- 0.27 -->
     <g transform="translate(181.426292 65.313864) scale(0.09 -0.09)">
      <defs>
       <path id="DejaVuSans-37" d="M 525 4666 
L 3525 4666 
L 3525 4397 
L 1831 0 
L 1172 0 
L 2766 4134 
L 525 4134 
L 525 4666 
z
" transform="scale(0.015625)"/>
      </defs>
      <use xlink:href="#DejaVuSans-30"/>
      <use xlink:href="#DejaVuSans-2e" x="63.623047"/>
      <use xlink:href="#DejaVuSans-32" x="95.410156"/>
      <use xlink:href="#DejaVuSans-37" x="159.033203"/>
     </g>
    </g>
    <g id="line2d_34">
     <path d="M 156.226292 75.374177 
L 165.226292 75.374177 
L 174.226292 75.374177 
" style="fill: none; stroke: #3ea44e; stroke-width: 1.125; stroke-linejoin: miter"/>
    </g>
    <g id="text_18">
     <!-- 0.3 -->
     <g transform="translate(181.426292 78.524177) scale(0.09 -0.09)">
      <use xlink:href="#DejaVuSans-30"/>
      <use xlink:href="#DejaVuSans-2e" x="63.623047"/>
      <use xlink:href="#DejaVuSans-33" x="95.410156"/>
     </g>
    </g>
    <g id="line2d_35">
     <path d="M 156.226292 88.584489 
L 165.226292 88.584489 
L 174.226292 88.584489 
" style="fill: none; stroke: #c371d2; stroke-width: 1.125; stroke-linejoin: miter"/>
    </g>
    <g id="text_19">
     <!-- 0.35 -->
     <g transform="translate(181.426292 91.734489) scale(0.09 -0.09)">
      <defs>
       <path id="DejaVuSans-35" d="M 691 4666 
L 3169 4666 
L 3169 4134 
L 1269 4134 
L 1269 2991 
Q 1406 3038 1543 3061 
Q 1681 3084 1819 3084 
Q 2600 3084 3056 2656 
Q 3513 2228 3513 1497 
Q 3513 744 3044 326 
Q 2575 -91 1722 -91 
Q 1428 -91 1123 -41 
Q 819 9 494 109 
L 494 744 
Q 775 591 1075 516 
Q 1375 441 1709 441 
Q 2250 441 2565 725 
Q 2881 1009 2881 1497 
Q 2881 1984 2565 2268 
Q 2250 2553 1709 2553 
Q 1456 2553 1204 2497 
Q 953 2441 691 2322 
L 691 4666 
z
" transform="scale(0.015625)"/>
      </defs>
      <use xlink:href="#DejaVuSans-30"/>
      <use xlink:href="#DejaVuSans-2e" x="63.623047"/>
      <use xlink:href="#DejaVuSans-33" x="95.410156"/>
      <use xlink:href="#DejaVuSans-35" x="159.033203"/>
     </g>
    </g>
    <g id="line2d_36">
     <path d="M 156.226292 101.794802 
L 165.226292 101.794802 
L 174.226292 101.794802 
" style="fill: none; stroke: #ac8e18; stroke-width: 1.125; stroke-linejoin: miter"/>
    </g>
    <g id="text_20">
     <!-- 0.4 -->
     <g transform="translate(181.426292 104.944802) scale(0.09 -0.09)">
      <use xlink:href="#DejaVuSans-30"/>
      <use xlink:href="#DejaVuSans-2e" x="63.623047"/>
      <use xlink:href="#DejaVuSans-34" x="95.410156"/>
     </g>
    </g>
    <g id="line2d_37">
     <path d="M 156.226292 115.005114 
L 165.226292 115.005114 
L 174.226292 115.005114 
" style="fill: none; stroke-dasharray: 1.125,1.85625; stroke-dashoffset: 0; stroke: #00aaae; stroke-width: 1.125; stroke-linejoin: miter"/>
    </g>
    <g id="text_21">
     <!-- 0.5 -->
     <g transform="translate(181.426292 118.155114) scale(0.09 -0.09)">
      <use xlink:href="#DejaVuSans-30"/>
      <use xlink:href="#DejaVuSans-2e" x="63.623047"/>
      <use xlink:href="#DejaVuSans-35" x="95.410156"/>
     </g>
    </g>
   </g>
  </g>
 </g>
 <defs>
  <clipPath id="pbca3f27fe6">
   <rect x="21.57031" y="20.354646" width="191.595045" height="127.710709"/>
  </clipPath>
 </defs>
</svg>
