<?xml version="1.0" encoding="utf-8" standalone="no"?>
<!DOCTYPE svg PUBLIC "-//W3C//DTD SVG 1.1//EN"
  "http://www.w3.org/Graphics/SVG/1.1/DTD/svg11.dtd">
<svg xmlns:xlink="http://www.w3.org/1999/xlink" width="216pt" height="180pt" viewBox="0 0 216 180" xmlns="http://www.w3.org/2000/svg" version="1.1">
 <metadata>
  <rdf:RDF xmlns:dc="http://purl.org/dc/elements/1.1/" xmlns:cc="http://creativecommons.org/ns#" xmlns:rdf="http://www.w3.org/1999/02/22-rdf-syntax-ns#">
   <cc:Work>
    <dc:type rdf:resource="http://purl.org/dc/dcmitype/StillImage"/>
    <dc:date>2023-05-19T13:30:04.440784</dc:date>
    <dc:format>image/svg+xml</dc:format>
    <dc:creator>
     <cc:Agent>
      <dc:title>Matplotlib v3.6.3, https://matplotlib.org/</dc:title>
     </cc:Agent>
    </dc:creator>
   </cc:Work>
  </rdf:RDF>
 </metadata>
 <defs>
  <style type="text/css">*{stroke-linejoin: round; stroke-linecap: butt}</style>
 </defs>
 <g id="figure_1">
  <g id="patch_1">
   <path d="M 0 180 
L 216 180 
L 216 0 
L 0 0 
z
" style="fill: #ffffff"/>
  </g>
  <g id="axes_1">
   <g id="patch_2">
    <path d="M 39.67556 148.065354 
L 213.165354 148.065354 
L 213.165354 2.834646 
L 39.67556 2.834646 
z
" style="fill: #ffffff"/>
   </g>
   <g id="PathCollection_1">
    <defs>
     <path id="ma03eae3572" d="M 0 0 
C 0 0 0 0 0 0 
C 0 0 0 0 0 0 
C 0 0 0 0 0 0 
C 0 0 0 0 0 0 
C 0 0 0 0 0 0 
C 0 0 0 0 0 0 
C 0 0 0 0 0 0 
C 0 0 0 0 0 0 
z
" style="stroke: #ffffff; stroke-width: 0.7"/>
    </defs>
    <g clip-path="url(#pf293a5983c)">
     <use xlink:href="#ma03eae3572" x="39.67556" y="148.065354" style="fill: #ffffff; fill-opacity: 0; stroke: #ffffff; stroke-width: 0.7"/>
    </g>
   </g>
   <g id="matplotlib.axis_1">
    <g id="xtick_1">
     <g id="line2d_1">
      <defs>
       <path id="m681d2aacd6" d="M 0 0 
L 0 -2.5 
" style="stroke: #000000; stroke-width: 0.5"/>
      </defs>
      <g>
       <use xlink:href="#m681d2aacd6" x="39.67556" y="148.065354" style="stroke: #000000; stroke-width: 0.5"/>
      </g>
     </g>
     <g id="line2d_2">
      <defs>
       <path id="mfa975549ab" d="M 0 0 
L 0 2.5 
" style="stroke: #000000; stroke-width: 0.5"/>
      </defs>
      <g>
       <use xlink:href="#mfa975549ab" x="39.67556" y="2.834646" style="stroke: #000000; stroke-width: 0.5"/>
      </g>
     </g>
     <g id="text_1">
      <!-- $0.0$ -->
      <g transform="translate(32.47556 158.403948) scale(0.09 -0.09)">
       <defs>
        <path id="DejaVuSans-30" d="M 2034 4250 
Q 1547 4250 1301 3770 
Q 1056 3291 1056 2328 
Q 1056 1369 1301 889 
Q 1547 409 2034 409 
Q 2525 409 2770 889 
Q 3016 1369 3016 2328 
Q 3016 3291 2770 3770 
Q 2525 4250 2034 4250 
z
M 2034 4750 
Q 2819 4750 3233 4129 
Q 3647 3509 3647 2328 
Q 3647 1150 3233 529 
Q 2819 -91 2034 -91 
Q 1250 -91 836 529 
Q 422 1150 422 2328 
Q 422 3509 836 4129 
Q 1250 4750 2034 4750 
z
" transform="scale(0.015625)"/>
        <path id="DejaVuSans-2e" d="M 684 794 
L 1344 794 
L 1344 0 
L 684 0 
L 684 794 
z
" transform="scale(0.015625)"/>
       </defs>
       <use xlink:href="#DejaVuSans-30" transform="translate(0 0.78125)"/>
       <use xlink:href="#DejaVuSans-2e" transform="translate(63.623047 0.78125)"/>
       <use xlink:href="#DejaVuSans-30" transform="translate(95.410156 0.78125)"/>
      </g>
     </g>
    </g>
    <g id="xtick_2">
     <g id="line2d_3">
      <g>
       <use xlink:href="#m681d2aacd6" x="66.366297" y="148.065354" style="stroke: #000000; stroke-width: 0.5"/>
      </g>
     </g>
     <g id="line2d_4">
      <g>
       <use xlink:href="#mfa975549ab" x="66.366297" y="2.834646" style="stroke: #000000; stroke-width: 0.5"/>
      </g>
     </g>
     <g id="text_2">
      <!-- $0.2$ -->
      <g transform="translate(59.436297 158.403948) scale(0.09 -0.09)">
       <defs>
        <path id="DejaVuSans-32" d="M 1228 531 
L 3431 531 
L 3431 0 
L 469 0 
L 469 531 
Q 828 903 1448 1529 
Q 2069 2156 2228 2338 
Q 2531 2678 2651 2914 
Q 2772 3150 2772 3378 
Q 2772 3750 2511 3984 
Q 2250 4219 1831 4219 
Q 1534 4219 1204 4116 
Q 875 4013 500 3803 
L 500 4441 
Q 881 4594 1212 4672 
Q 1544 4750 1819 4750 
Q 2544 4750 2975 4387 
Q 3406 4025 3406 3419 
Q 3406 3131 3298 2873 
Q 3191 2616 2906 2266 
Q 2828 2175 2409 1742 
Q 1991 1309 1228 531 
z
" transform="scale(0.015625)"/>
       </defs>
       <use xlink:href="#DejaVuSans-30" transform="translate(0 0.78125)"/>
       <use xlink:href="#DejaVuSans-2e" transform="translate(63.623047 0.78125)"/>
       <use xlink:href="#DejaVuSans-32" transform="translate(89.910156 0.78125)"/>
      </g>
     </g>
    </g>
    <g id="xtick_3">
     <g id="line2d_5">
      <g>
       <use xlink:href="#m681d2aacd6" x="93.057035" y="148.065354" style="stroke: #000000; stroke-width: 0.5"/>
      </g>
     </g>
     <g id="line2d_6">
      <g>
       <use xlink:href="#mfa975549ab" x="93.057035" y="2.834646" style="stroke: #000000; stroke-width: 0.5"/>
      </g>
     </g>
     <g id="text_3">
      <!-- $0.4$ -->
      <g transform="translate(85.857035 158.403948) scale(0.09 -0.09)">
       <defs>
        <path id="DejaVuSans-34" d="M 2419 4116 
L 825 1625 
L 2419 1625 
L 2419 4116 
z
M 2253 4666 
L 3047 4666 
L 3047 1625 
L 3713 1625 
L 3713 1100 
L 3047 1100 
L 3047 0 
L 2419 0 
L 2419 1100 
L 313 1100 
L 313 1709 
L 2253 4666 
z
" transform="scale(0.015625)"/>
       </defs>
       <use xlink:href="#DejaVuSans-30" transform="translate(0 0.78125)"/>
       <use xlink:href="#DejaVuSans-2e" transform="translate(63.623047 0.78125)"/>
       <use xlink:href="#DejaVuSans-34" transform="translate(95.410156 0.78125)"/>
      </g>
     </g>
    </g>
    <g id="xtick_4">
     <g id="line2d_7">
      <g>
       <use xlink:href="#m681d2aacd6" x="119.747773" y="148.065354" style="stroke: #000000; stroke-width: 0.5"/>
      </g>
     </g>
     <g id="line2d_8">
      <g>
       <use xlink:href="#mfa975549ab" x="119.747773" y="2.834646" style="stroke: #000000; stroke-width: 0.5"/>
      </g>
     </g>
     <g id="text_4">
      <!-- $0.6$ -->
      <g transform="translate(112.547773 158.403948) scale(0.09 -0.09)">
       <defs>
        <path id="DejaVuSans-36" d="M 2113 2584 
Q 1688 2584 1439 2293 
Q 1191 2003 1191 1497 
Q 1191 994 1439 701 
Q 1688 409 2113 409 
Q 2538 409 2786 701 
Q 3034 994 3034 1497 
Q 3034 2003 2786 2293 
Q 2538 2584 2113 2584 
z
M 3366 4563 
L 3366 3988 
Q 3128 4100 2886 4159 
Q 2644 4219 2406 4219 
Q 1781 4219 1451 3797 
Q 1122 3375 1075 2522 
Q 1259 2794 1537 2939 
Q 1816 3084 2150 3084 
Q 2853 3084 3261 2657 
Q 3669 2231 3669 1497 
Q 3669 778 3244 343 
Q 2819 -91 2113 -91 
Q 1303 -91 875 529 
Q 447 1150 447 2328 
Q 447 3434 972 4092 
Q 1497 4750 2381 4750 
Q 2619 4750 2861 4703 
Q 3103 4656 3366 4563 
z
" transform="scale(0.015625)"/>
       </defs>
       <use xlink:href="#DejaVuSans-30" transform="translate(0 0.78125)"/>
       <use xlink:href="#DejaVuSans-2e" transform="translate(63.623047 0.78125)"/>
       <use xlink:href="#DejaVuSans-36" transform="translate(95.410156 0.78125)"/>
      </g>
     </g>
    </g>
    <g id="xtick_5">
     <g id="line2d_9">
      <g>
       <use xlink:href="#m681d2aacd6" x="146.43851" y="148.065354" style="stroke: #000000; stroke-width: 0.5"/>
      </g>
     </g>
     <g id="line2d_10">
      <g>
       <use xlink:href="#mfa975549ab" x="146.43851" y="2.834646" style="stroke: #000000; stroke-width: 0.5"/>
      </g>
     </g>
     <g id="text_5">
      <!-- $0.8$ -->
      <g transform="translate(139.37351 158.403948) scale(0.09 -0.09)">
       <defs>
        <path id="DejaVuSans-38" d="M 2034 2216 
Q 1584 2216 1326 1975 
Q 1069 1734 1069 1313 
Q 1069 891 1326 650 
Q 1584 409 2034 409 
Q 2484 409 2743 651 
Q 3003 894 3003 1313 
Q 3003 1734 2745 1975 
Q 2488 2216 2034 2216 
z
M 1403 2484 
Q 997 2584 770 2862 
Q 544 3141 544 3541 
Q 544 4100 942 4425 
Q 1341 4750 2034 4750 
Q 2731 4750 3128 4425 
Q 3525 4100 3525 3541 
Q 3525 3141 3298 2862 
Q 3072 2584 2669 2484 
Q 3125 2378 3379 2068 
Q 3634 1759 3634 1313 
Q 3634 634 3220 271 
Q 2806 -91 2034 -91 
Q 1263 -91 848 271 
Q 434 634 434 1313 
Q 434 1759 690 2068 
Q 947 2378 1403 2484 
z
M 1172 3481 
Q 1172 3119 1398 2916 
Q 1625 2713 2034 2713 
Q 2441 2713 2670 2916 
Q 2900 3119 2900 3481 
Q 2900 3844 2670 4047 
Q 2441 4250 2034 4250 
Q 1625 4250 1398 4047 
Q 1172 3844 1172 3481 
z
" transform="scale(0.015625)"/>
       </defs>
       <use xlink:href="#DejaVuSans-30" transform="translate(0 0.78125)"/>
       <use xlink:href="#DejaVuSans-2e" transform="translate(63.623047 0.78125)"/>
       <use xlink:href="#DejaVuSans-38" transform="translate(92.785156 0.78125)"/>
      </g>
     </g>
    </g>
    <g id="xtick_6">
     <g id="line2d_11">
      <g>
       <use xlink:href="#m681d2aacd6" x="173.129248" y="148.065354" style="stroke: #000000; stroke-width: 0.5"/>
      </g>
     </g>
     <g id="line2d_12">
      <g>
       <use xlink:href="#mfa975549ab" x="173.129248" y="2.834646" style="stroke: #000000; stroke-width: 0.5"/>
      </g>
     </g>
     <g id="text_6">
      <!-- $1.0$ -->
      <g transform="translate(165.929248 158.403948) scale(0.09 -0.09)">
       <defs>
        <path id="DejaVuSans-31" d="M 794 531 
L 1825 531 
L 1825 4091 
L 703 3866 
L 703 4441 
L 1819 4666 
L 2450 4666 
L 2450 531 
L 3481 531 
L 3481 0 
L 794 0 
L 794 531 
z
" transform="scale(0.015625)"/>
       </defs>
       <use xlink:href="#DejaVuSans-31" transform="translate(0 0.78125)"/>
       <use xlink:href="#DejaVuSans-2e" transform="translate(63.623047 0.78125)"/>
       <use xlink:href="#DejaVuSans-30" transform="translate(95.410156 0.78125)"/>
      </g>
     </g>
    </g>
    <g id="xtick_7">
     <g id="line2d_13">
      <g>
       <use xlink:href="#m681d2aacd6" x="199.819986" y="148.065354" style="stroke: #000000; stroke-width: 0.5"/>
      </g>
     </g>
     <g id="line2d_14">
      <g>
       <use xlink:href="#mfa975549ab" x="199.819986" y="2.834646" style="stroke: #000000; stroke-width: 0.5"/>
      </g>
     </g>
     <g id="text_7">
      <!-- $1.2$ -->
      <g transform="translate(192.889986 158.403948) scale(0.09 -0.09)">
       <use xlink:href="#DejaVuSans-31" transform="translate(0 0.78125)"/>
       <use xlink:href="#DejaVuSans-2e" transform="translate(63.623047 0.78125)"/>
       <use xlink:href="#DejaVuSans-32" transform="translate(89.910156 0.78125)"/>
      </g>
     </g>
    </g>
    <g id="text_8">
     <!-- $k/N$ -->
     <g transform="translate(116.400457 173.393792) scale(0.12 -0.12)">
      <defs>
       <path id="DejaVuSans-Oblique-6b" d="M 1172 4863 
L 1747 4863 
L 1197 2028 
L 3169 3500 
L 3916 3500 
L 1716 1825 
L 3322 0 
L 2625 0 
L 1131 1709 
L 800 0 
L 225 0 
L 1172 4863 
z
" transform="scale(0.015625)"/>
       <path id="DejaVuSans-2f" d="M 1625 4666 
L 2156 4666 
L 531 -594 
L 0 -594 
L 1625 4666 
z
" transform="scale(0.015625)"/>
       <path id="DejaVuSans-Oblique-4e" d="M 1081 4666 
L 1931 4666 
L 3219 666 
L 4000 4666 
L 4616 4666 
L 3706 0 
L 2853 0 
L 1569 4025 
L 788 0 
L 172 0 
L 1081 4666 
z
" transform="scale(0.015625)"/>
      </defs>
      <use xlink:href="#DejaVuSans-Oblique-6b" transform="translate(0 0.015625)"/>
      <use xlink:href="#DejaVuSans-2f" transform="translate(57.910156 0.015625)"/>
      <use xlink:href="#DejaVuSans-Oblique-4e" transform="translate(91.601562 0.015625)"/>
     </g>
    </g>
   </g>
   <g id="matplotlib.axis_2">
    <g id="ytick_1">
     <g id="line2d_15">
      <defs>
       <path id="m0b0446f80b" d="M 0 0 
L 2.5 0 
" style="stroke: #000000; stroke-width: 0.5"/>
      </defs>
      <g>
       <use xlink:href="#m0b0446f80b" x="39.67556" y="148.065354" style="stroke: #000000; stroke-width: 0.5"/>
      </g>
     </g>
     <g id="line2d_16">
      <defs>
       <path id="m65817e0a93" d="M 0 0 
L -2.5 0 
" style="stroke: #000000; stroke-width: 0.5"/>
      </defs>
      <g>
       <use xlink:href="#m65817e0a93" x="213.165354" y="148.065354" style="stroke: #000000; stroke-width: 0.5"/>
      </g>
     </g>
     <g id="text_9">
      <!-- $0.0$ -->
      <g transform="translate(21.77556 151.484651) scale(0.09 -0.09)">
       <use xlink:href="#DejaVuSans-30" transform="translate(0 0.78125)"/>
       <use xlink:href="#DejaVuSans-2e" transform="translate(63.623047 0.78125)"/>
       <use xlink:href="#DejaVuSans-30" transform="translate(95.410156 0.78125)"/>
      </g>
     </g>
    </g>
    <g id="ytick_2">
     <g id="line2d_17">
      <g>
       <use xlink:href="#m0b0446f80b" x="39.67556" y="109.337165" style="stroke: #000000; stroke-width: 0.5"/>
      </g>
     </g>
     <g id="line2d_18">
      <g>
       <use xlink:href="#m65817e0a93" x="213.165354" y="109.337165" style="stroke: #000000; stroke-width: 0.5"/>
      </g>
     </g>
     <g id="text_10">
      <!-- $0.1$ -->
      <g transform="translate(21.77556 112.756462) scale(0.09 -0.09)">
       <use xlink:href="#DejaVuSans-30" transform="translate(0 0.78125)"/>
       <use xlink:href="#DejaVuSans-2e" transform="translate(63.623047 0.78125)"/>
       <use xlink:href="#DejaVuSans-31" transform="translate(95.410156 0.78125)"/>
      </g>
     </g>
    </g>
    <g id="ytick_3">
     <g id="line2d_19">
      <g>
       <use xlink:href="#m0b0446f80b" x="39.67556" y="70.608976" style="stroke: #000000; stroke-width: 0.5"/>
      </g>
     </g>
     <g id="line2d_20">
      <g>
       <use xlink:href="#m65817e0a93" x="213.165354" y="70.608976" style="stroke: #000000; stroke-width: 0.5"/>
      </g>
     </g>
     <g id="text_11">
      <!-- $0.2$ -->
      <g transform="translate(22.31556 74.028273) scale(0.09 -0.09)">
       <use xlink:href="#DejaVuSans-30" transform="translate(0 0.78125)"/>
       <use xlink:href="#DejaVuSans-2e" transform="translate(63.623047 0.78125)"/>
       <use xlink:href="#DejaVuSans-32" transform="translate(89.910156 0.78125)"/>
      </g>
     </g>
    </g>
    <g id="ytick_4">
     <g id="line2d_21">
      <g>
       <use xlink:href="#m0b0446f80b" x="39.67556" y="31.880787" style="stroke: #000000; stroke-width: 0.5"/>
      </g>
     </g>
     <g id="line2d_22">
      <g>
       <use xlink:href="#m65817e0a93" x="213.165354" y="31.880787" style="stroke: #000000; stroke-width: 0.5"/>
      </g>
     </g>
     <g id="text_12">
      <!-- $0.3$ -->
      <g transform="translate(21.77556 35.300084) scale(0.09 -0.09)">
       <defs>
        <path id="DejaVuSans-33" d="M 2597 2516 
Q 3050 2419 3304 2112 
Q 3559 1806 3559 1356 
Q 3559 666 3084 287 
Q 2609 -91 1734 -91 
Q 1441 -91 1130 -33 
Q 819 25 488 141 
L 488 750 
Q 750 597 1062 519 
Q 1375 441 1716 441 
Q 2309 441 2620 675 
Q 2931 909 2931 1356 
Q 2931 1769 2642 2001 
Q 2353 2234 1838 2234 
L 1294 2234 
L 1294 2753 
L 1863 2753 
Q 2328 2753 2575 2939 
Q 2822 3125 2822 3475 
Q 2822 3834 2567 4026 
Q 2313 4219 1838 4219 
Q 1578 4219 1281 4162 
Q 984 4106 628 3988 
L 628 4550 
Q 988 4650 1302 4700 
Q 1616 4750 1894 4750 
Q 2613 4750 3031 4423 
Q 3450 4097 3450 3541 
Q 3450 3153 3228 2886 
Q 3006 2619 2597 2516 
z
" transform="scale(0.015625)"/>
       </defs>
       <use xlink:href="#DejaVuSans-30" transform="translate(0 0.78125)"/>
       <use xlink:href="#DejaVuSans-2e" transform="translate(63.623047 0.78125)"/>
       <use xlink:href="#DejaVuSans-33" transform="translate(95.410156 0.78125)"/>
      </g>
     </g>
    </g>
    <g id="text_13">
     <!-- $\langle h_{\mathrm{max}}/N \rangle$ -->
     <g transform="translate(15.279935 99.81) rotate(-90) scale(0.12 -0.12)">
      <defs>
       <path id="DejaVuSans-27e8" d="M 572 2006 
L 1453 4856 
L 1984 4856 
L 1103 2006 
L 1984 -844 
L 1453 -844 
L 572 2006 
z
" transform="scale(0.015625)"/>
       <path id="DejaVuSans-Oblique-68" d="M 3566 2113 
L 3156 0 
L 2578 0 
L 2988 2091 
Q 3016 2238 3031 2350 
Q 3047 2463 3047 2528 
Q 3047 2791 2881 2937 
Q 2716 3084 2419 3084 
Q 1956 3084 1617 2771 
Q 1278 2459 1178 1941 
L 800 0 
L 225 0 
L 1172 4863 
L 1747 4863 
L 1375 2950 
Q 1594 3244 1934 3414 
Q 2275 3584 2650 3584 
Q 3113 3584 3367 3334 
Q 3622 3084 3622 2631 
Q 3622 2519 3608 2391 
Q 3594 2263 3566 2113 
z
" transform="scale(0.015625)"/>
       <path id="DejaVuSans-6d" d="M 3328 2828 
Q 3544 3216 3844 3400 
Q 4144 3584 4550 3584 
Q 5097 3584 5394 3201 
Q 5691 2819 5691 2113 
L 5691 0 
L 5113 0 
L 5113 2094 
Q 5113 2597 4934 2840 
Q 4756 3084 4391 3084 
Q 3944 3084 3684 2787 
Q 3425 2491 3425 1978 
L 3425 0 
L 2847 0 
L 2847 2094 
Q 2847 2600 2669 2842 
Q 2491 3084 2119 3084 
Q 1678 3084 1418 2786 
Q 1159 2488 1159 1978 
L 1159 0 
L 581 0 
L 581 3500 
L 1159 3500 
L 1159 2956 
Q 1356 3278 1631 3431 
Q 1906 3584 2284 3584 
Q 2666 3584 2933 3390 
Q 3200 3197 3328 2828 
z
" transform="scale(0.015625)"/>
       <path id="DejaVuSans-61" d="M 2194 1759 
Q 1497 1759 1228 1600 
Q 959 1441 959 1056 
Q 959 750 1161 570 
Q 1363 391 1709 391 
Q 2188 391 2477 730 
Q 2766 1069 2766 1631 
L 2766 1759 
L 2194 1759 
z
M 3341 1997 
L 3341 0 
L 2766 0 
L 2766 531 
Q 2569 213 2275 61 
Q 1981 -91 1556 -91 
Q 1019 -91 701 211 
Q 384 513 384 1019 
Q 384 1609 779 1909 
Q 1175 2209 1959 2209 
L 2766 2209 
L 2766 2266 
Q 2766 2663 2505 2880 
Q 2244 3097 1772 3097 
Q 1472 3097 1187 3025 
Q 903 2953 641 2809 
L 641 3341 
Q 956 3463 1253 3523 
Q 1550 3584 1831 3584 
Q 2591 3584 2966 3190 
Q 3341 2797 3341 1997 
z
" transform="scale(0.015625)"/>
       <path id="DejaVuSans-78" d="M 3513 3500 
L 2247 1797 
L 3578 0 
L 2900 0 
L 1881 1375 
L 863 0 
L 184 0 
L 1544 1831 
L 300 3500 
L 978 3500 
L 1906 2253 
L 2834 3500 
L 3513 3500 
z
" transform="scale(0.015625)"/>
       <path id="DejaVuSans-27e9" d="M 1925 2006 
L 1044 -844 
L 513 -844 
L 1394 2006 
L 513 4856 
L 1044 4856 
L 1925 2006 
z
" transform="scale(0.015625)"/>
      </defs>
      <use xlink:href="#DejaVuSans-27e8" transform="translate(0 0.015625)"/>
      <use xlink:href="#DejaVuSans-Oblique-68" transform="translate(39.013672 0.015625)"/>
      <use xlink:href="#DejaVuSans-6d" transform="translate(102.392578 -16.390625) scale(0.7)"/>
      <use xlink:href="#DejaVuSans-61" transform="translate(170.581055 -16.390625) scale(0.7)"/>
      <use xlink:href="#DejaVuSans-78" transform="translate(213.476562 -16.390625) scale(0.7)"/>
      <use xlink:href="#DejaVuSans-2f" transform="translate(257.636719 0.015625)"/>
      <use xlink:href="#DejaVuSans-Oblique-4e" transform="translate(291.328125 0.015625)"/>
      <use xlink:href="#DejaVuSans-27e9" transform="translate(366.132812 0.015625)"/>
     </g>
    </g>
   </g>
   <g id="line2d_23">
    <path d="M 39.683705 148.065354 
L 39.822176 147.678624 
L 40.23759 147.338807 
L 41.043981 146.936799 
L 42.958143 146.303581 
L 47.812781 145.220142 
L 65.276447 142.730694 
L 72.061538 141.982542 
L 73.32407 141.85073 
L 90.722573 140.228782 
L 103.478217 139.550109 
L 117.357922 139.41936 
L 126.602913 139.619856 
L 132.255798 139.829224 
L 138.535875 140.207516 
L 150.63989 141.571961 
L 153.555932 142.04467 
L 163.990146 144.21689 
L 170.082881 146.124202 
L 171.84228 146.947822 
L 172.705689 147.522843 
L 173.121103 148.011429 
L 173.129248 148.033585 
L 173.129248 148.033585 
" clip-path="url(#pf293a5983c)" style="fill: none; stroke-dasharray: 3.7,1.6; stroke-dashoffset: 0; stroke: #009afa"/>
   </g>
   <g id="patch_3">
    <path d="M 39.67556 148.065354 
L 39.67556 2.834646 
" style="fill: none; stroke: #000000; stroke-linejoin: miter; stroke-linecap: square"/>
   </g>
   <g id="patch_4">
    <path d="M 213.165354 148.065354 
L 213.165354 2.834646 
" style="fill: none; stroke: #000000; stroke-linejoin: miter; stroke-linecap: square"/>
   </g>
   <g id="patch_5">
    <path d="M 39.67556 148.065354 
L 213.165354 148.065354 
" style="fill: none; stroke: #000000; stroke-linejoin: miter; stroke-linecap: square"/>
   </g>
   <g id="patch_6">
    <path d="M 39.67556 2.834646 
L 213.165354 2.834646 
" style="fill: none; stroke: #000000; stroke-linejoin: miter; stroke-linecap: square"/>
   </g>
   <g id="line2d_24">
    <path d="M 39.683705 148.065354 
L 39.814031 147.827952 
L 40.734457 147.375367 
L 42.550874 146.314517 
L 43.585336 145.748502 
L 45.980074 144.688126 
L 48.228195 143.864033 
L 57.456895 141.248005 
L 65.618553 139.380153 
L 68.233215 138.845592 
L 70.057778 138.465716 
L 71.21442 138.236571 
L 75.547755 137.456437 
L 76.932467 137.220382 
L 88.238236 135.462761 
L 93.87483 134.794985 
L 96.163678 134.577746 
L 100.334106 134.212904 
L 101.955034 134.12386 
L 104.186864 133.997579 
L 105.783356 133.896039 
L 108.503908 133.781151 
L 110.450651 133.71558 
L 112.519574 133.680494 
L 115.060929 133.670526 
L 117.252032 133.698813 
L 118.490128 133.718141 
L 128.003916 134.068319 
L 133.917453 134.573995 
L 135.098531 134.694193 
L 142.543396 135.785654 
L 149.385504 137.122868 
L 154.093526 138.287598 
L 155.127987 138.577106 
L 157.343527 139.234977 
L 164.959445 142.197268 
L 168.641151 144.195057 
L 170.881127 145.727835 
L 172.526491 147.196649 
L 173.129248 147.881492 
L 173.129248 147.881492 
" clip-path="url(#pf293a5983c)" style="fill: none; stroke: #e36f47"/>
   </g>
   <g id="line2d_25">
    <path d="M 39.683705 148.065354 
L 39.805886 147.868396 
L 40.376061 147.753453 
L 43.691226 147.173586 
L 45.198118 146.610975 
L 46.9005 145.746375 
L 49.726942 144.19326 
L 58.287723 140.760144 
L 59.639854 140.30789 
L 61.969428 139.511823 
L 72.330335 136.450758 
L 73.153017 136.229666 
L 78.642994 134.836225 
L 80.459411 134.414471 
L 87.749514 132.899209 
L 91.414929 132.272957 
L 92.864804 132.033758 
L 97.141122 131.352193 
L 99.413679 131.056311 
L 100.399269 130.925026 
L 102.134232 130.713074 
L 103.795886 130.522159 
L 105.074709 130.396745 
L 107.102905 130.210495 
L 110.157418 130.002939 
L 122.277724 129.83214 
L 129.510809 130.279139 
L 132.956299 130.626859 
L 136.035248 131.080248 
L 138.234497 131.453804 
L 140.091641 131.817409 
L 143.276479 132.519318 
L 144.62861 132.84366 
L 150.705053 134.521874 
L 152.700668 135.19786 
L 156.95255 136.86598 
L 159.811573 138.196088 
L 161.701298 139.180973 
L 164.544031 140.858044 
L 169.154309 144.072061 
L 172.656817 147.32163 
L 173.129248 147.892893 
L 173.129248 147.892893 
" clip-path="url(#pf293a5983c)" style="fill: none; stroke: #3ea44e"/>
   </g>
   <g id="line2d_26">
    <path d="M 39.683705 148.065354 
L 39.805886 147.900756 
L 40.498242 147.830757 
L 44.114785 147.693705 
L 50.736968 147.262512 
L 52.366041 146.941778 
L 54.019551 146.37113 
L 55.721932 145.422269 
L 58.352886 143.538312 
L 62.140481 140.912655 
L 67.125446 137.913537 
L 71.328455 135.589026 
L 72.599132 134.922204 
L 74.505148 133.959979 
L 75.262667 133.568285 
L 77.356026 132.540773 
L 79.938107 131.324214 
L 84.22257 129.481465 
L 85.167433 129.104805 
L 87.977584 127.986145 
L 99.454406 124.195476 
L 100.733229 123.83544 
L 102.166813 123.435945 
L 104.219446 122.941899 
L 106.467567 122.402713 
L 108.780851 121.937253 
L 115.077219 120.953652 
L 117.675591 120.735861 
L 120.54276 120.556048 
L 121.137372 120.550966 
L 122.326596 120.520552 
L 125.014567 120.524524 
L 125.85354 120.527376 
L 126.480733 120.559571 
L 134.512064 121.432255 
L 136.31219 121.778691 
L 137.379233 122.011854 
L 140.800287 122.923044 
L 142.502669 123.482197 
L 145.997031 124.816181 
L 147.308435 125.413493 
L 148.750165 126.095822 
L 151.552171 127.510852 
L 156.309066 130.558491 
L 160.715709 133.99583 
L 166.751426 139.770098 
L 170.498294 144.240426 
L 172.673107 147.258856 
L 173.129248 147.899567 
L 173.129248 147.899567 
" clip-path="url(#pf293a5983c)" style="fill: none; stroke: #c371d2"/>
   </g>
   <g id="line2d_27">
    <path d="M 39.683705 148.065354 
L 39.805886 147.921566 
L 40.604132 147.868231 
L 55.257646 147.374721 
L 59.395493 146.96741 
L 61.382962 146.472796 
L 62.645494 145.911548 
L 64.527074 144.641457 
L 65.651134 143.611085 
L 66.799631 142.43545 
L 67.206899 141.997418 
L 73.0064 136.38083 
L 79.718182 130.864009 
L 88.661795 124.349098 
L 89.98949 123.504542 
L 92.587862 121.829473 
L 100.171198 117.445959 
L 101.083479 117.003672 
L 106.158043 114.628253 
L 106.801527 114.362926 
L 109.465062 113.337794 
L 110.027092 113.145658 
L 111.476967 112.681561 
L 114.718823 111.759434 
L 122.09038 110.467785 
L 124.232612 110.352709 
L 130.056549 110.660315 
L 134.316576 111.498118 
L 136.874221 112.185726 
L 139.75768 113.276123 
L 144.237632 115.491821 
L 146.795277 117.046543 
L 150.884251 120.081519 
L 154.003927 122.811876 
L 160.422476 129.513573 
L 165.676237 136.261522 
L 170.139898 142.889407 
L 172.013333 145.998638 
L 173.129248 147.898763 
L 173.129248 147.898763 
" clip-path="url(#pf293a5983c)" style="fill: none; stroke: #ac8e18"/>
   </g>
   <g id="line2d_28">
    <path d="M 39.683705 148.065354 
L 39.79774 147.969369 
L 59.957523 147.468303 
L 64.559655 147.214763 
L 68.762664 146.843886 
L 72.933092 146.062743 
L 75.091614 145.223632 
L 77.518933 143.217673 
L 79.237606 140.821216 
L 79.661165 140.09537 
L 80.182468 139.183486 
L 81.127331 137.343614 
L 89.956908 117.527107 
L 90.747009 115.96137 
L 92.921822 111.766242 
L 93.467561 110.800236 
L 97.067814 104.522805 
L 97.344756 104.049348 
L 98.86794 101.624321 
L 99.698767 100.372967 
L 100.252652 99.551742 
L 101.710673 97.529244 
L 102.679971 96.25448 
L 103.584107 95.186524 
L 104.203155 94.468573 
L 105.815937 92.642252 
L 106.825963 91.638764 
L 108.487618 90.036483 
L 111.167443 87.952274 
L 114.164938 86.358022 
L 118.107296 85.024929 
L 118.791507 84.910829 
L 119.377973 84.876759 
L 122.456922 85.071109 
L 124.558426 85.492351 
L 127.669956 86.707649 
L 131.449406 89.068649 
L 132.557176 89.896319 
L 133.314695 90.517922 
L 135.896777 92.863558 
L 139.953169 97.12499 
L 145.573472 103.928677 
L 149.426231 108.791912 
L 153.034628 113.4927 
L 157.571597 120.06465 
L 162.792778 128.52961 
L 166.523355 135.115017 
L 170.270224 142.203973 
L 173.129248 147.900221 
L 173.129248 147.900221 
" clip-path="url(#pf293a5983c)" style="fill: none; stroke-dasharray: 1,1.65; stroke-dashoffset: 0; stroke: #00aaae"/>
   </g>
   <g id="PathCollection_2">
    <defs>
     <path id="m61a3c04f73" d="M -2 2 
L 2 -2 
M -2 -2 
L 2 2 
" style="stroke: #009afa; stroke-width: 0.7"/>
    </defs>
    <g clip-path="url(#pf293a5983c)">
     <use xlink:href="#m61a3c04f73" x="101.813497" y="139.60561" style="fill: #009afa; stroke: #009afa; stroke-width: 0.7"/>
    </g>
   </g>
   <g id="PathCollection_3">
    <defs>
     <path id="m3c8ee4419b" d="M -2 2 
L 2 -2 
M -2 -2 
L 2 2 
" style="stroke: #e36f47; stroke-width: 0.7"/>
    </defs>
    <g clip-path="url(#pf293a5983c)">
     <use xlink:href="#m3c8ee4419b" x="86.026411" y="135.759746" style="fill: #e36f47; stroke: #e36f47; stroke-width: 0.7"/>
    </g>
   </g>
   <g id="PathCollection_4">
    <defs>
     <path id="m3dd908c274" d="M -2 2 
L 2 -2 
M -2 -2 
L 2 2 
" style="stroke: #3ea44e; stroke-width: 0.7"/>
    </defs>
    <g clip-path="url(#pf293a5983c)">
     <use xlink:href="#m3dd908c274" x="83.886593" y="133.658385" style="fill: #3ea44e; stroke: #3ea44e; stroke-width: 0.7"/>
    </g>
   </g>
   <g id="PathCollection_5">
    <defs>
     <path id="m7150b19573" d="M -2 2 
L 2 -2 
M -2 -2 
L 2 2 
" style="stroke: #c371d2; stroke-width: 0.7"/>
    </defs>
    <g clip-path="url(#pf293a5983c)">
     <use xlink:href="#m7150b19573" x="84.617756" y="129.325495" style="fill: #c371d2; stroke: #c371d2; stroke-width: 0.7"/>
    </g>
   </g>
   <g id="PathCollection_6">
    <defs>
     <path id="mfb16714cbf" d="M -2 2 
L 2 -2 
M -2 -2 
L 2 2 
" style="stroke: #ac8e18; stroke-width: 0.7"/>
    </defs>
    <g clip-path="url(#pf293a5983c)">
     <use xlink:href="#mfb16714cbf" x="87.068154" y="125.43936" style="fill: #ac8e18; stroke: #ac8e18; stroke-width: 0.7"/>
    </g>
   </g>
   <g id="PathCollection_7">
    <defs>
     <path id="m30c959e6d8" d="M -2 2 
L 2 -2 
M -2 -2 
L 2 2 
" style="stroke: #00aaae; stroke-width: 0.7"/>
    </defs>
    <g clip-path="url(#pf293a5983c)">
     <use xlink:href="#m30c959e6d8" x="90.961335" y="115.573159" style="fill: #00aaae; stroke: #00aaae; stroke-width: 0.7"/>
    </g>
   </g>
   <g id="PathCollection_8">
    <defs>
     <path id="m3f50a63955" d="M -0 3.535534 
L 3.535534 0 
L 0 -3.535534 
L -3.535534 -0 
z
" style="stroke: #009afa"/>
    </defs>
    <g clip-path="url(#pf293a5983c)">
     <use xlink:href="#m3f50a63955" x="39.708141" y="147.896163" style="fill-opacity: 0; stroke: #009afa"/>
    </g>
   </g>
   <g id="PathCollection_9">
    <defs>
     <path id="m8afc729a50" d="M -0 3.535534 
L 3.535534 0 
L 0 -3.535534 
L -3.535534 -0 
z
" style="stroke: #e36f47"/>
    </defs>
    <g clip-path="url(#pf293a5983c)">
     <use xlink:href="#m8afc729a50" x="39.765159" y="147.866229" style="fill-opacity: 0; stroke: #e36f47"/>
    </g>
   </g>
   <g id="PathCollection_10">
    <defs>
     <path id="m4e87c57b10" d="M -0 3.535534 
L 3.535534 0 
L 0 -3.535534 
L -3.535534 -0 
z
" style="stroke: #3ea44e"/>
    </defs>
    <g clip-path="url(#pf293a5983c)">
     <use xlink:href="#m4e87c57b10" x="41.23947" y="147.647982" style="fill-opacity: 0; stroke: #3ea44e"/>
    </g>
   </g>
   <g id="PathCollection_11">
    <defs>
     <path id="m2bcddd551a" d="M -0 3.535534 
L 3.535534 0 
L 0 -3.535534 
L -3.535534 -0 
z
" style="stroke: #c371d2"/>
    </defs>
    <g clip-path="url(#pf293a5983c)">
     <use xlink:href="#m2bcddd551a" x="51.095364" y="147.20701" style="fill-opacity: 0; stroke: #c371d2"/>
    </g>
   </g>
   <g id="PathCollection_12">
    <defs>
     <path id="m932cff9eb7" d="M -0 3.535534 
L 3.535534 0 
L 0 -3.535534 
L -3.535534 -0 
z
" style="stroke: #ac8e18"/>
    </defs>
    <g clip-path="url(#pf293a5983c)">
     <use xlink:href="#m932cff9eb7" x="60.478826" y="146.738895" style="fill-opacity: 0; stroke: #ac8e18"/>
    </g>
   </g>
   <g id="PathCollection_13">
    <defs>
     <path id="m97a8138cd7" d="M -0 3.535534 
L 3.535534 0 
L 0 -3.535534 
L -3.535534 -0 
z
" style="stroke: #00aaae"/>
    </defs>
    <g clip-path="url(#pf293a5983c)">
     <use xlink:href="#m97a8138cd7" x="75.792116" y="144.798105" style="fill-opacity: 0; stroke: #00aaae"/>
    </g>
   </g>
   <g id="legend_1">
    <g id="patch_7">
     <path d="M 149.026292 109.706833 
L 208.665354 109.706833 
L 208.665354 7.334646 
L 149.026292 7.334646 
L 149.026292 109.706833 
z
" style="fill: none; opacity: 0"/>
    </g>
    <g id="line2d_29">
     <path d="M 156.226292 18.223239 
L 165.226292 18.223239 
L 174.226292 18.223239 
" style="fill: none"/>
     <defs>
      <path id="m2855fb26ec" d="M 0 3.6 
C 0.954731 3.6 1.870488 3.220681 2.545584 2.545584 
C 3.220681 1.870488 3.6 0.954731 3.6 0 
C 3.6 -0.954731 3.220681 -1.870488 2.545584 -2.545584 
C 1.870488 -3.220681 0.954731 -3.6 0 -3.6 
C -0.954731 -3.6 -1.870488 -3.220681 -2.545584 -2.545584 
C -3.220681 -1.870488 -3.6 -0.954731 -3.6 0 
C -3.6 0.954731 -3.220681 1.870488 -2.545584 2.545584 
C -1.870488 3.220681 -0.954731 3.6 0 3.6 
z
" style="stroke: #ffffff; stroke-width: inf"/>
     </defs>
     <g>
      <use xlink:href="#m2855fb26ec" x="165.226292" y="18.223239" style="fill: #ffffff; fill-opacity: 0; stroke: #ffffff; stroke-width: inf"/>
     </g>
    </g>
    <g id="text_14">
     <!-- $t_0$ -->
     <g transform="translate(181.426292 21.373239) scale(0.09 -0.09)">
      <defs>
       <path id="DejaVuSans-Oblique-74" d="M 2706 3500 
L 2619 3053 
L 1472 3053 
L 1100 1153 
Q 1081 1047 1072 975 
Q 1063 903 1063 863 
Q 1063 663 1183 572 
Q 1303 481 1569 481 
L 2150 481 
L 2053 0 
L 1503 0 
Q 991 0 739 200 
Q 488 400 488 806 
Q 488 878 497 964 
Q 506 1050 525 1153 
L 897 3053 
L 409 3053 
L 500 3500 
L 978 3500 
L 1172 4494 
L 1747 4494 
L 1556 3500 
L 2706 3500 
z
" transform="scale(0.015625)"/>
      </defs>
      <use xlink:href="#DejaVuSans-Oblique-74" transform="translate(0 0.78125)"/>
      <use xlink:href="#DejaVuSans-30" transform="translate(39.208984 -15.625) scale(0.7)"/>
     </g>
    </g>
    <g id="line2d_30">
     <path d="M 156.226292 31.433552 
L 165.226292 31.433552 
L 174.226292 31.433552 
" style="fill: none; stroke-dasharray: 4.1625,1.8; stroke-dashoffset: 0; stroke: #009afa; stroke-width: 1.125; stroke-linejoin: miter"/>
    </g>
    <g id="text_15">
     <!-- 0.1 -->
     <g transform="translate(181.426292 34.583552) scale(0.09 -0.09)">
      <use xlink:href="#DejaVuSans-30"/>
      <use xlink:href="#DejaVuSans-2e" x="63.623047"/>
      <use xlink:href="#DejaVuSans-31" x="95.410156"/>
     </g>
    </g>
    <g id="line2d_31">
     <path d="M 156.226292 44.643864 
L 165.226292 44.643864 
L 174.226292 44.643864 
" style="fill: none; stroke: #e36f47; stroke-width: 1.125; stroke-linejoin: miter"/>
    </g>
    <g id="text_16">
     <!-- 0.27 -->
     <g transform="translate(181.426292 47.793864) scale(0.09 -0.09)">
      <defs>
       <path id="DejaVuSans-37" d="M 525 4666 
L 3525 4666 
L 3525 4397 
L 1831 0 
L 1172 0 
L 2766 4134 
L 525 4134 
L 525 4666 
z
" transform="scale(0.015625)"/>
      </defs>
      <use xlink:href="#DejaVuSans-30"/>
      <use xlink:href="#DejaVuSans-2e" x="63.623047"/>
      <use xlink:href="#DejaVuSans-32" x="95.410156"/>
      <use xlink:href="#DejaVuSans-37" x="159.033203"/>
     </g>
    </g>
    <g id="line2d_32">
     <path d="M 156.226292 57.854177 
L 165.226292 57.854177 
L 174.226292 57.854177 
" style="fill: none; stroke: #3ea44e; stroke-width: 1.125; stroke-linejoin: miter"/>
    </g>
    <g id="text_17">
     <!-- 0.3 -->
     <g transform="translate(181.426292 61.004177) scale(0.09 -0.09)">
      <use xlink:href="#DejaVuSans-30"/>
      <use xlink:href="#DejaVuSans-2e" x="63.623047"/>
      <use xlink:href="#DejaVuSans-33" x="95.410156"/>
     </g>
    </g>
    <g id="line2d_33">
     <path d="M 156.226292 71.064489 
L 165.226292 71.064489 
L 174.226292 71.064489 
" style="fill: none; stroke: #c371d2; stroke-width: 1.125; stroke-linejoin: miter"/>
    </g>
    <g id="text_18">
     <!-- 0.35 -->
     <g transform="translate(181.426292 74.214489) scale(0.09 -0.09)">
      <defs>
       <path id="DejaVuSans-35" d="M 691 4666 
L 3169 4666 
L 3169 4134 
L 1269 4134 
L 1269 2991 
Q 1406 3038 1543 3061 
Q 1681 3084 1819 3084 
Q 2600 3084 3056 2656 
Q 3513 2228 3513 1497 
Q 3513 744 3044 326 
Q 2575 -91 1722 -91 
Q 1428 -91 1123 -41 
Q 819 9 494 109 
L 494 744 
Q 775 591 1075 516 
Q 1375 441 1709 441 
Q 2250 441 2565 725 
Q 2881 1009 2881 1497 
Q 2881 1984 2565 2268 
Q 2250 2553 1709 2553 
Q 1456 2553 1204 2497 
Q 953 2441 691 2322 
L 691 4666 
z
" transform="scale(0.015625)"/>
      </defs>
      <use xlink:href="#DejaVuSans-30"/>
      <use xlink:href="#DejaVuSans-2e" x="63.623047"/>
      <use xlink:href="#DejaVuSans-33" x="95.410156"/>
      <use xlink:href="#DejaVuSans-35" x="159.033203"/>
     </g>
    </g>
    <g id="line2d_34">
     <path d="M 156.226292 84.274802 
L 165.226292 84.274802 
L 174.226292 84.274802 
" style="fill: none; stroke: #ac8e18; stroke-width: 1.125; stroke-linejoin: miter"/>
    </g>
    <g id="text_19">
     <!-- 0.4 -->
     <g transform="translate(181.426292 87.424802) scale(0.09 -0.09)">
      <use xlink:href="#DejaVuSans-30"/>
      <use xlink:href="#DejaVuSans-2e" x="63.623047"/>
      <use xlink:href="#DejaVuSans-34" x="95.410156"/>
     </g>
    </g>
    <g id="line2d_35">
     <path d="M 156.226292 97.485114 
L 165.226292 97.485114 
L 174.226292 97.485114 
" style="fill: none; stroke-dasharray: 1.125,1.85625; stroke-dashoffset: 0; stroke: #00aaae; stroke-width: 1.125; stroke-linejoin: miter"/>
    </g>
    <g id="text_20">
     <!-- 0.5 -->
     <g transform="translate(181.426292 100.635114) scale(0.09 -0.09)">
      <use xlink:href="#DejaVuSans-30"/>
      <use xlink:href="#DejaVuSans-2e" x="63.623047"/>
      <use xlink:href="#DejaVuSans-35" x="95.410156"/>
     </g>
    </g>
   </g>
  </g>
 </g>
 <defs>
  <clipPath id="pf293a5983c">
   <rect x="39.67556" y="2.834646" width="173.489795" height="145.230709"/>
  </clipPath>
 </defs>
</svg>
