<?xml version="1.0" encoding="utf-8" standalone="no"?>
<!DOCTYPE svg PUBLIC "-//W3C//DTD SVG 1.1//EN"
  "http://www.w3.org/Graphics/SVG/1.1/DTD/svg11.dtd">
<svg xmlns:xlink="http://www.w3.org/1999/xlink" width="216pt" height="180pt" viewBox="0 0 216 180" xmlns="http://www.w3.org/2000/svg" version="1.1">
 <metadata>
  <rdf:RDF xmlns:dc="http://purl.org/dc/elements/1.1/" xmlns:cc="http://creativecommons.org/ns#" xmlns:rdf="http://www.w3.org/1999/02/22-rdf-syntax-ns#">
   <cc:Work>
    <dc:type rdf:resource="http://purl.org/dc/dcmitype/StillImage"/>
    <dc:date>2023-05-18T18:53:06.943125</dc:date>
    <dc:format>image/svg+xml</dc:format>
    <dc:creator>
     <cc:Agent>
      <dc:title>Matplotlib v3.6.3, https://matplotlib.org/</dc:title>
     </cc:Agent>
    </dc:creator>
   </cc:Work>
  </rdf:RDF>
 </metadata>
 <defs>
  <style type="text/css">*{stroke-linejoin: round; stroke-linecap: butt}</style>
 </defs>
 <g id="figure_1">
  <g id="patch_1">
   <path d="M 0 180 
L 216 180 
L 216 0 
L 0 0 
z
" style="fill: #ffffff"/>
  </g>
  <g id="axes_1">
   <g id="patch_2">
    <path d="M 21.57031 164.305354 
L 213.165354 164.305354 
L 213.165354 20.354646 
L 21.57031 20.354646 
z
" style="fill: #ffffff"/>
   </g>
   <g id="PathCollection_1">
    <defs>
     <path id="m962905b830" d="M 0 0 
C 0 0 0 0 0 0 
C 0 0 0 0 0 0 
C 0 0 0 0 0 0 
C 0 0 0 0 0 0 
C 0 0 0 0 0 0 
C 0 0 0 0 0 0 
C 0 0 0 0 0 0 
C 0 0 0 0 0 0 
z
" style="stroke: #ffffff; stroke-width: 0.7"/>
    </defs>
    <g clip-path="url(#p233f97485f)">
     <use xlink:href="#m962905b830" x="21.57031" y="164.305354" style="fill: #ffffff; fill-opacity: 0; stroke: #ffffff; stroke-width: 0.7"/>
    </g>
   </g>
   <g id="matplotlib.axis_1">
    <g id="xtick_1">
     <g id="line2d_1">
      <defs>
       <path id="m18ee04e572" d="M 0 0 
L 0 -2.5 
" style="stroke: #000000; stroke-width: 0.5"/>
      </defs>
      <g>
       <use xlink:href="#m18ee04e572" x="21.57031" y="164.305354" style="stroke: #000000; stroke-width: 0.5"/>
      </g>
     </g>
     <g id="line2d_2">
      <defs>
       <path id="m174d20d080" d="M 0 0 
L 0 2.5 
" style="stroke: #000000; stroke-width: 0.5"/>
      </defs>
      <g>
       <use xlink:href="#m174d20d080" x="21.57031" y="20.354646" style="stroke: #000000; stroke-width: 0.5"/>
      </g>
     </g>
     <g id="text_1">
      <!-- $0.0$ -->
      <g transform="translate(14.37031 174.643948) scale(0.09 -0.09)">
       <defs>
        <path id="DejaVuSans-30" d="M 2034 4250 
Q 1547 4250 1301 3770 
Q 1056 3291 1056 2328 
Q 1056 1369 1301 889 
Q 1547 409 2034 409 
Q 2525 409 2770 889 
Q 3016 1369 3016 2328 
Q 3016 3291 2770 3770 
Q 2525 4250 2034 4250 
z
M 2034 4750 
Q 2819 4750 3233 4129 
Q 3647 3509 3647 2328 
Q 3647 1150 3233 529 
Q 2819 -91 2034 -91 
Q 1250 -91 836 529 
Q 422 1150 422 2328 
Q 422 3509 836 4129 
Q 1250 4750 2034 4750 
z
" transform="scale(0.015625)"/>
        <path id="DejaVuSans-2e" d="M 684 794 
L 1344 794 
L 1344 0 
L 684 0 
L 684 794 
z
" transform="scale(0.015625)"/>
       </defs>
       <use xlink:href="#DejaVuSans-30" transform="translate(0 0.78125)"/>
       <use xlink:href="#DejaVuSans-2e" transform="translate(63.623047 0.78125)"/>
       <use xlink:href="#DejaVuSans-30" transform="translate(95.410156 0.78125)"/>
      </g>
     </g>
    </g>
    <g id="xtick_2">
     <g id="line2d_3">
      <g>
       <use xlink:href="#m18ee04e572" x="51.04647" y="164.305354" style="stroke: #000000; stroke-width: 0.5"/>
      </g>
     </g>
     <g id="line2d_4">
      <g>
       <use xlink:href="#m174d20d080" x="51.04647" y="20.354646" style="stroke: #000000; stroke-width: 0.5"/>
      </g>
     </g>
     <g id="text_2">
      <!-- $0.2$ -->
      <g transform="translate(44.11647 174.643948) scale(0.09 -0.09)">
       <defs>
        <path id="DejaVuSans-32" d="M 1228 531 
L 3431 531 
L 3431 0 
L 469 0 
L 469 531 
Q 828 903 1448 1529 
Q 2069 2156 2228 2338 
Q 2531 2678 2651 2914 
Q 2772 3150 2772 3378 
Q 2772 3750 2511 3984 
Q 2250 4219 1831 4219 
Q 1534 4219 1204 4116 
Q 875 4013 500 3803 
L 500 4441 
Q 881 4594 1212 4672 
Q 1544 4750 1819 4750 
Q 2544 4750 2975 4387 
Q 3406 4025 3406 3419 
Q 3406 3131 3298 2873 
Q 3191 2616 2906 2266 
Q 2828 2175 2409 1742 
Q 1991 1309 1228 531 
z
" transform="scale(0.015625)"/>
       </defs>
       <use xlink:href="#DejaVuSans-30" transform="translate(0 0.78125)"/>
       <use xlink:href="#DejaVuSans-2e" transform="translate(63.623047 0.78125)"/>
       <use xlink:href="#DejaVuSans-32" transform="translate(89.910156 0.78125)"/>
      </g>
     </g>
    </g>
    <g id="xtick_3">
     <g id="line2d_5">
      <g>
       <use xlink:href="#m18ee04e572" x="80.522631" y="164.305354" style="stroke: #000000; stroke-width: 0.5"/>
      </g>
     </g>
     <g id="line2d_6">
      <g>
       <use xlink:href="#m174d20d080" x="80.522631" y="20.354646" style="stroke: #000000; stroke-width: 0.5"/>
      </g>
     </g>
     <g id="text_3">
      <!-- $0.4$ -->
      <g transform="translate(73.322631 174.643948) scale(0.09 -0.09)">
       <defs>
        <path id="DejaVuSans-34" d="M 2419 4116 
L 825 1625 
L 2419 1625 
L 2419 4116 
z
M 2253 4666 
L 3047 4666 
L 3047 1625 
L 3713 1625 
L 3713 1100 
L 3047 1100 
L 3047 0 
L 2419 0 
L 2419 1100 
L 313 1100 
L 313 1709 
L 2253 4666 
z
" transform="scale(0.015625)"/>
       </defs>
       <use xlink:href="#DejaVuSans-30" transform="translate(0 0.78125)"/>
       <use xlink:href="#DejaVuSans-2e" transform="translate(63.623047 0.78125)"/>
       <use xlink:href="#DejaVuSans-34" transform="translate(95.410156 0.78125)"/>
      </g>
     </g>
    </g>
    <g id="xtick_4">
     <g id="line2d_7">
      <g>
       <use xlink:href="#m18ee04e572" x="109.998792" y="164.305354" style="stroke: #000000; stroke-width: 0.5"/>
      </g>
     </g>
     <g id="line2d_8">
      <g>
       <use xlink:href="#m174d20d080" x="109.998792" y="20.354646" style="stroke: #000000; stroke-width: 0.5"/>
      </g>
     </g>
     <g id="text_4">
      <!-- $0.6$ -->
      <g transform="translate(102.798792 174.643948) scale(0.09 -0.09)">
       <defs>
        <path id="DejaVuSans-36" d="M 2113 2584 
Q 1688 2584 1439 2293 
Q 1191 2003 1191 1497 
Q 1191 994 1439 701 
Q 1688 409 2113 409 
Q 2538 409 2786 701 
Q 3034 994 3034 1497 
Q 3034 2003 2786 2293 
Q 2538 2584 2113 2584 
z
M 3366 4563 
L 3366 3988 
Q 3128 4100 2886 4159 
Q 2644 4219 2406 4219 
Q 1781 4219 1451 3797 
Q 1122 3375 1075 2522 
Q 1259 2794 1537 2939 
Q 1816 3084 2150 3084 
Q 2853 3084 3261 2657 
Q 3669 2231 3669 1497 
Q 3669 778 3244 343 
Q 2819 -91 2113 -91 
Q 1303 -91 875 529 
Q 447 1150 447 2328 
Q 447 3434 972 4092 
Q 1497 4750 2381 4750 
Q 2619 4750 2861 4703 
Q 3103 4656 3366 4563 
z
" transform="scale(0.015625)"/>
       </defs>
       <use xlink:href="#DejaVuSans-30" transform="translate(0 0.78125)"/>
       <use xlink:href="#DejaVuSans-2e" transform="translate(63.623047 0.78125)"/>
       <use xlink:href="#DejaVuSans-36" transform="translate(95.410156 0.78125)"/>
      </g>
     </g>
    </g>
    <g id="xtick_5">
     <g id="line2d_9">
      <g>
       <use xlink:href="#m18ee04e572" x="139.474953" y="164.305354" style="stroke: #000000; stroke-width: 0.5"/>
      </g>
     </g>
     <g id="line2d_10">
      <g>
       <use xlink:href="#m174d20d080" x="139.474953" y="20.354646" style="stroke: #000000; stroke-width: 0.5"/>
      </g>
     </g>
     <g id="text_5">
      <!-- $0.8$ -->
      <g transform="translate(132.409953 174.643948) scale(0.09 -0.09)">
       <defs>
        <path id="DejaVuSans-38" d="M 2034 2216 
Q 1584 2216 1326 1975 
Q 1069 1734 1069 1313 
Q 1069 891 1326 650 
Q 1584 409 2034 409 
Q 2484 409 2743 651 
Q 3003 894 3003 1313 
Q 3003 1734 2745 1975 
Q 2488 2216 2034 2216 
z
M 1403 2484 
Q 997 2584 770 2862 
Q 544 3141 544 3541 
Q 544 4100 942 4425 
Q 1341 4750 2034 4750 
Q 2731 4750 3128 4425 
Q 3525 4100 3525 3541 
Q 3525 3141 3298 2862 
Q 3072 2584 2669 2484 
Q 3125 2378 3379 2068 
Q 3634 1759 3634 1313 
Q 3634 634 3220 271 
Q 2806 -91 2034 -91 
Q 1263 -91 848 271 
Q 434 634 434 1313 
Q 434 1759 690 2068 
Q 947 2378 1403 2484 
z
M 1172 3481 
Q 1172 3119 1398 2916 
Q 1625 2713 2034 2713 
Q 2441 2713 2670 2916 
Q 2900 3119 2900 3481 
Q 2900 3844 2670 4047 
Q 2441 4250 2034 4250 
Q 1625 4250 1398 4047 
Q 1172 3844 1172 3481 
z
" transform="scale(0.015625)"/>
       </defs>
       <use xlink:href="#DejaVuSans-30" transform="translate(0 0.78125)"/>
       <use xlink:href="#DejaVuSans-2e" transform="translate(63.623047 0.78125)"/>
       <use xlink:href="#DejaVuSans-38" transform="translate(92.785156 0.78125)"/>
      </g>
     </g>
    </g>
    <g id="xtick_6">
     <g id="line2d_11">
      <g>
       <use xlink:href="#m18ee04e572" x="168.951113" y="164.305354" style="stroke: #000000; stroke-width: 0.5"/>
      </g>
     </g>
     <g id="line2d_12">
      <g>
       <use xlink:href="#m174d20d080" x="168.951113" y="20.354646" style="stroke: #000000; stroke-width: 0.5"/>
      </g>
     </g>
     <g id="text_6">
      <!-- $1.0$ -->
      <g transform="translate(161.751113 174.643948) scale(0.09 -0.09)">
       <defs>
        <path id="DejaVuSans-31" d="M 794 531 
L 1825 531 
L 1825 4091 
L 703 3866 
L 703 4441 
L 1819 4666 
L 2450 4666 
L 2450 531 
L 3481 531 
L 3481 0 
L 794 0 
L 794 531 
z
" transform="scale(0.015625)"/>
       </defs>
       <use xlink:href="#DejaVuSans-31" transform="translate(0 0.78125)"/>
       <use xlink:href="#DejaVuSans-2e" transform="translate(63.623047 0.78125)"/>
       <use xlink:href="#DejaVuSans-30" transform="translate(95.410156 0.78125)"/>
      </g>
     </g>
    </g>
    <g id="xtick_7">
     <g id="line2d_13">
      <g>
       <use xlink:href="#m18ee04e572" x="198.427274" y="164.305354" style="stroke: #000000; stroke-width: 0.5"/>
      </g>
     </g>
     <g id="line2d_14">
      <g>
       <use xlink:href="#m174d20d080" x="198.427274" y="20.354646" style="stroke: #000000; stroke-width: 0.5"/>
      </g>
     </g>
     <g id="text_7">
      <!-- $1.2$ -->
      <g transform="translate(191.497274 174.643948) scale(0.09 -0.09)">
       <use xlink:href="#DejaVuSans-31" transform="translate(0 0.78125)"/>
       <use xlink:href="#DejaVuSans-2e" transform="translate(63.623047 0.78125)"/>
       <use xlink:href="#DejaVuSans-32" transform="translate(89.910156 0.78125)"/>
      </g>
     </g>
    </g>
   </g>
   <g id="matplotlib.axis_2">
    <g id="ytick_1">
     <g id="line2d_15">
      <defs>
       <path id="mb49b159097" d="M 0 0 
L 2.5 0 
" style="stroke: #000000; stroke-width: 0.5"/>
      </defs>
      <g>
       <use xlink:href="#mb49b159097" x="21.57031" y="164.305354" style="stroke: #000000; stroke-width: 0.5"/>
      </g>
     </g>
     <g id="line2d_16">
      <defs>
       <path id="mdb7aa82a35" d="M 0 0 
L -2.5 0 
" style="stroke: #000000; stroke-width: 0.5"/>
      </defs>
      <g>
       <use xlink:href="#mdb7aa82a35" x="213.165354" y="164.305354" style="stroke: #000000; stroke-width: 0.5"/>
      </g>
     </g>
     <g id="text_8">
      <!-- $0.0$ -->
      <g transform="translate(3.67031 167.724651) scale(0.09 -0.09)">
       <use xlink:href="#DejaVuSans-30" transform="translate(0 0.78125)"/>
       <use xlink:href="#DejaVuSans-2e" transform="translate(63.623047 0.78125)"/>
       <use xlink:href="#DejaVuSans-30" transform="translate(95.410156 0.78125)"/>
      </g>
     </g>
    </g>
    <g id="ytick_2">
     <g id="line2d_17">
      <g>
       <use xlink:href="#mb49b159097" x="21.57031" y="128.318843" style="stroke: #000000; stroke-width: 0.5"/>
      </g>
     </g>
     <g id="line2d_18">
      <g>
       <use xlink:href="#mdb7aa82a35" x="213.165354" y="128.318843" style="stroke: #000000; stroke-width: 0.5"/>
      </g>
     </g>
     <g id="text_9">
      <!-- $0.1$ -->
      <g transform="translate(3.67031 131.73814) scale(0.09 -0.09)">
       <use xlink:href="#DejaVuSans-30" transform="translate(0 0.78125)"/>
       <use xlink:href="#DejaVuSans-2e" transform="translate(63.623047 0.78125)"/>
       <use xlink:href="#DejaVuSans-31" transform="translate(95.410156 0.78125)"/>
      </g>
     </g>
    </g>
    <g id="ytick_3">
     <g id="line2d_19">
      <g>
       <use xlink:href="#mb49b159097" x="21.57031" y="92.332331" style="stroke: #000000; stroke-width: 0.5"/>
      </g>
     </g>
     <g id="line2d_20">
      <g>
       <use xlink:href="#mdb7aa82a35" x="213.165354" y="92.332331" style="stroke: #000000; stroke-width: 0.5"/>
      </g>
     </g>
     <g id="text_10">
      <!-- $0.2$ -->
      <g transform="translate(4.21031 95.751628) scale(0.09 -0.09)">
       <use xlink:href="#DejaVuSans-30" transform="translate(0 0.78125)"/>
       <use xlink:href="#DejaVuSans-2e" transform="translate(63.623047 0.78125)"/>
       <use xlink:href="#DejaVuSans-32" transform="translate(89.910156 0.78125)"/>
      </g>
     </g>
    </g>
    <g id="ytick_4">
     <g id="line2d_21">
      <g>
       <use xlink:href="#mb49b159097" x="21.57031" y="56.345819" style="stroke: #000000; stroke-width: 0.5"/>
      </g>
     </g>
     <g id="line2d_22">
      <g>
       <use xlink:href="#mdb7aa82a35" x="213.165354" y="56.345819" style="stroke: #000000; stroke-width: 0.5"/>
      </g>
     </g>
     <g id="text_11">
      <!-- $0.3$ -->
      <g transform="translate(3.67031 59.765116) scale(0.09 -0.09)">
       <defs>
        <path id="DejaVuSans-33" d="M 2597 2516 
Q 3050 2419 3304 2112 
Q 3559 1806 3559 1356 
Q 3559 666 3084 287 
Q 2609 -91 1734 -91 
Q 1441 -91 1130 -33 
Q 819 25 488 141 
L 488 750 
Q 750 597 1062 519 
Q 1375 441 1716 441 
Q 2309 441 2620 675 
Q 2931 909 2931 1356 
Q 2931 1769 2642 2001 
Q 2353 2234 1838 2234 
L 1294 2234 
L 1294 2753 
L 1863 2753 
Q 2328 2753 2575 2939 
Q 2822 3125 2822 3475 
Q 2822 3834 2567 4026 
Q 2313 4219 1838 4219 
Q 1578 4219 1281 4162 
Q 984 4106 628 3988 
L 628 4550 
Q 988 4650 1302 4700 
Q 1616 4750 1894 4750 
Q 2613 4750 3031 4423 
Q 3450 4097 3450 3541 
Q 3450 3153 3228 2886 
Q 3006 2619 2597 2516 
z
" transform="scale(0.015625)"/>
       </defs>
       <use xlink:href="#DejaVuSans-30" transform="translate(0 0.78125)"/>
       <use xlink:href="#DejaVuSans-2e" transform="translate(63.623047 0.78125)"/>
       <use xlink:href="#DejaVuSans-33" transform="translate(95.410156 0.78125)"/>
      </g>
     </g>
    </g>
    <g id="ytick_5">
     <g id="line2d_23">
      <g>
       <use xlink:href="#mb49b159097" x="21.57031" y="20.359308" style="stroke: #000000; stroke-width: 0.5"/>
      </g>
     </g>
     <g id="line2d_24">
      <g>
       <use xlink:href="#mdb7aa82a35" x="213.165354" y="20.359308" style="stroke: #000000; stroke-width: 0.5"/>
      </g>
     </g>
     <g id="text_12">
      <!-- $0.4$ -->
      <g transform="translate(3.67031 23.778605) scale(0.09 -0.09)">
       <use xlink:href="#DejaVuSans-30" transform="translate(0 0.78125)"/>
       <use xlink:href="#DejaVuSans-2e" transform="translate(63.623047 0.78125)"/>
       <use xlink:href="#DejaVuSans-34" transform="translate(95.410156 0.78125)"/>
      </g>
     </g>
    </g>
   </g>
   <g id="line2d_25">
    <path d="M 21.579305 20.354944 
L 22.316929 20.354646 
L 22.460855 81.816201 
L 22.721722 104.203546 
L 23.036562 114.950815 
L 23.45035 122.443867 
L 24.09802 128.980354 
L 24.907607 133.761419 
L 25.330391 135.522468 
L 26.400845 138.80935 
L 27.129473 140.422511 
L 28.047005 142.021158 
L 28.80262 143.111189 
L 30.637683 145.150997 
L 31.177408 145.627639 
L 32.139917 146.401747 
L 35.423242 148.386773 
L 41.144323 150.585627 
L 48.457591 152.291594 
L 50.976306 152.714116 
L 57.183139 153.621501 
L 59.126148 153.857731 
L 61.932716 154.156482 
L 67.671788 154.700422 
L 70.091553 154.902679 
L 71.809677 155.042876 
L 103.788361 157.547176 
L 106.72986 157.791299 
L 138.015897 160.249888 
L 143.107299 160.727129 
L 146.381629 161.054313 
L 152.88531 161.734654 
L 166.054591 163.40297 
L 168.951113 164.00219 
L 168.951113 164.00219 
" clip-path="url(#p233f97485f)" style="fill: none; stroke-dasharray: 3.7,1.6; stroke-dashoffset: 0; stroke: #009afa"/>
   </g>
   <g id="patch_3">
    <path d="M 21.57031 164.305354 
L 21.57031 20.354646 
" style="fill: none; stroke: #000000; stroke-linejoin: miter; stroke-linecap: square"/>
   </g>
   <g id="patch_4">
    <path d="M 213.165354 164.305354 
L 213.165354 20.354646 
" style="fill: none; stroke: #000000; stroke-linejoin: miter; stroke-linecap: square"/>
   </g>
   <g id="patch_5">
    <path d="M 21.57031 164.305354 
L 213.165354 164.305354 
" style="fill: none; stroke: #000000; stroke-linejoin: miter; stroke-linecap: square"/>
   </g>
   <g id="patch_6">
    <path d="M 21.57031 20.354646 
L 213.165354 20.354646 
" style="fill: none; stroke: #000000; stroke-linejoin: miter; stroke-linecap: square"/>
   </g>
   <g id="line2d_26">
    <path d="M 21.579305 81.524596 
L 22.128025 81.210719 
L 22.379897 81.209917 
L 22.622773 82.006755 
L 22.748708 82.739891 
L 23.162497 86.329366 
L 24.259937 99.705957 
L 25.330391 111.716367 
L 26.086006 117.796033 
L 27.15646 123.493942 
L 28.757643 128.658156 
L 28.991523 129.198946 
L 29.963028 131.178587 
L 31.591197 133.611531 
L 33.462242 135.818974 
L 36.4847 138.290558 
L 37.069402 138.706711 
L 37.510177 138.986282 
L 37.780039 139.149904 
L 39.732043 140.270095 
L 40.42469 140.614038 
L 45.003354 142.521522 
L 46.6765 143.074542 
L 47.378142 143.293957 
L 47.917867 143.452124 
L 48.304669 143.574566 
L 49.537041 143.918939 
L 49.959825 144.035189 
L 52.118723 144.593044 
L 52.937306 144.795569 
L 55.599947 145.374755 
L 56.409534 145.537924 
L 59.998703 146.227496 
L 60.574409 146.345258 
L 69.183017 147.752042 
L 69.911645 147.872804 
L 75.902588 148.732376 
L 77.674684 148.981894 
L 79.077968 149.177877 
L 86.256306 150.13109 
L 87.722558 150.327773 
L 88.703057 150.450805 
L 92.319212 150.945258 
L 93.866423 151.153987 
L 95.044822 151.300014 
L 96.178243 151.432962 
L 100.684944 152.037651 
L 104.705892 152.575789 
L 106.307075 152.784777 
L 107.224607 152.901487 
L 114.393949 153.846307 
L 134.615632 156.69259 
L 135.99193 156.902109 
L 143.260221 158.038393 
L 146.723454 158.612597 
L 149.035275 159.005149 
L 151.410063 159.425912 
L 164.093592 162.222296 
L 168.276457 163.583428 
L 168.951113 163.871721 
L 168.951113 163.871721 
" clip-path="url(#p233f97485f)" style="fill: none; stroke: #e36f47"/>
   </g>
   <g id="text_13">
    <!-- CLS -->
    <g transform="translate(103.190488 14.354646) scale(0.15 -0.15)">
     <defs>
      <path id="DejaVuSans-43" d="M 4122 4306 
L 4122 3641 
Q 3803 3938 3442 4084 
Q 3081 4231 2675 4231 
Q 1875 4231 1450 3742 
Q 1025 3253 1025 2328 
Q 1025 1406 1450 917 
Q 1875 428 2675 428 
Q 3081 428 3442 575 
Q 3803 722 4122 1019 
L 4122 359 
Q 3791 134 3420 21 
Q 3050 -91 2638 -91 
Q 1578 -91 968 557 
Q 359 1206 359 2328 
Q 359 3453 968 4101 
Q 1578 4750 2638 4750 
Q 3056 4750 3426 4639 
Q 3797 4528 4122 4306 
z
" transform="scale(0.015625)"/>
      <path id="DejaVuSans-4c" d="M 628 4666 
L 1259 4666 
L 1259 531 
L 3531 531 
L 3531 0 
L 628 0 
L 628 4666 
z
" transform="scale(0.015625)"/>
      <path id="DejaVuSans-53" d="M 3425 4513 
L 3425 3897 
Q 3066 4069 2747 4153 
Q 2428 4238 2131 4238 
Q 1616 4238 1336 4038 
Q 1056 3838 1056 3469 
Q 1056 3159 1242 3001 
Q 1428 2844 1947 2747 
L 2328 2669 
Q 3034 2534 3370 2195 
Q 3706 1856 3706 1288 
Q 3706 609 3251 259 
Q 2797 -91 1919 -91 
Q 1588 -91 1214 -16 
Q 841 59 441 206 
L 441 856 
Q 825 641 1194 531 
Q 1563 422 1919 422 
Q 2459 422 2753 634 
Q 3047 847 3047 1241 
Q 3047 1584 2836 1778 
Q 2625 1972 2144 2069 
L 1759 2144 
Q 1053 2284 737 2584 
Q 422 2884 422 3419 
Q 422 4038 858 4394 
Q 1294 4750 2059 4750 
Q 2388 4750 2728 4690 
Q 3069 4631 3425 4513 
z
" transform="scale(0.015625)"/>
     </defs>
     <use xlink:href="#DejaVuSans-43"/>
     <use xlink:href="#DejaVuSans-4c" x="69.824219"/>
     <use xlink:href="#DejaVuSans-53" x="125.537109"/>
    </g>
   </g>
   <g id="line2d_27">
    <path d="M 21.579305 92.31924 
L 22.586791 91.44256 
L 23.342406 90.963477 
L 24.232951 90.762482 
L 25.087515 91.040318 
L 25.807148 92.039536 
L 26.499795 93.5942 
L 27.750157 98.352532 
L 28.541753 102.640745 
L 28.757643 103.902419 
L 29.675174 109.527366 
L 30.008005 111.509891 
L 31.627179 119.78879 
L 32.535715 123.132765 
L 33.255348 125.149333 
L 34.046944 127.019689 
L 35.738081 129.93975 
L 35.917989 130.190483 
L 36.853512 131.336781 
L 40.352727 134.357623 
L 40.586607 134.531432 
L 40.883456 134.732848 
L 41.198295 134.957806 
L 43.708015 136.459054 
L 45.857918 137.434169 
L 46.271707 137.603677 
L 46.811431 137.833402 
L 55.312094 140.518942 
L 62.3555 142.134788 
L 63.344996 142.336077 
L 68.454389 143.323171 
L 78.826097 145.143701 
L 79.482762 145.253174 
L 80.004496 145.340257 
L 82.550197 145.730328 
L 83.377774 145.848365 
L 84.835031 146.063114 
L 91.93241 147.140763 
L 93.443639 147.360358 
L 96.313175 147.804921 
L 97.122761 147.906656 
L 101.602476 148.60295 
L 102.564985 148.742593 
L 105.254612 149.19171 
L 106.855795 149.442622 
L 107.899263 149.627513 
L 109.014694 149.797178 
L 110.35501 150.008519 
L 113.143587 150.463324 
L 114.753766 150.737339 
L 115.572348 150.872573 
L 118.531838 151.369569 
L 120.834663 151.760495 
L 136.792521 154.783007 
L 138.276764 155.093086 
L 150.060751 157.687746 
L 151.832847 158.139848 
L 153.640925 158.618155 
L 165.70377 162.44781 
L 168.573306 163.653412 
L 168.951113 163.840751 
L 168.951113 163.840751 
" clip-path="url(#p233f97485f)" style="fill: none; stroke: #3ea44e"/>
   </g>
   <g id="line2d_28">
    <path d="M 21.579305 110.310314 
L 24.21496 106.938224 
L 27.588239 102.902683 
L 30.358826 99.855641 
L 32.688637 97.674828 
L 33.003476 97.431262 
L 33.705118 96.951844 
L 34.784568 96.534001 
L 35.081416 96.5013 
L 35.522191 96.499689 
L 36.124884 96.732583 
L 37.186342 97.940025 
L 37.941957 99.410446 
L 38.34675 100.491684 
L 38.742548 101.648029 
L 42.637561 116.43504 
L 43.690024 119.415309 
L 44.292716 120.784319 
L 44.652533 121.464486 
L 46.496592 124.104362 
L 49.582018 126.957154 
L 50.085761 127.30002 
L 52.280641 128.662754 
L 56.400539 130.511948 
L 58.937244 131.406066 
L 59.467974 131.590184 
L 59.863772 131.698904 
L 60.349524 131.83718 
L 61.348014 132.129248 
L 72.808167 134.959699 
L 75.902588 135.640579 
L 76.550258 135.783659 
L 78.628198 136.201442 
L 79.851574 136.469322 
L 81.42577 136.780941 
L 82.334307 136.957536 
L 82.766086 137.053519 
L 90.610084 138.529378 
L 91.896428 138.755855 
L 116.040109 143.621802 
L 117.353439 143.910144 
L 117.902159 144.033584 
L 122.363883 145.098047 
L 128.615693 146.691897 
L 129.371308 146.896893 
L 130.40578 147.169268 
L 132.042945 147.637035 
L 133.500201 148.05401 
L 134.804535 148.42182 
L 146.714459 152.418944 
L 148.16272 152.978411 
L 150.258651 153.820808 
L 151.113215 154.180775 
L 152.831338 154.921082 
L 161.799762 159.261509 
L 165.649798 161.518479 
L 168.951113 163.720243 
L 168.951113 163.720243 
" clip-path="url(#p233f97485f)" style="fill: none; stroke: #c371d2"/>
   </g>
   <g id="line2d_29">
    <path d="M 21.579305 128.301388 
L 25.060529 122.561854 
L 30.547729 114.225717 
L 34.217857 109.181825 
L 36.556663 106.195639 
L 40.370717 101.758419 
L 42.52062 99.593692 
L 43.537102 98.75765 
L 45.111299 97.884112 
L 45.740977 97.809485 
L 46.289697 97.881414 
L 46.802436 98.085225 
L 47.270197 98.406401 
L 47.665995 98.843817 
L 48.466587 100.083409 
L 48.907362 100.914587 
L 49.348137 101.894574 
L 49.833889 103.070148 
L 51.192196 106.94148 
L 51.677948 108.367881 
L 52.946301 111.574957 
L 53.171186 112.088685 
L 54.907301 115.520732 
L 55.447025 116.299652 
L 58.235602 119.520176 
L 59.755827 120.723028 
L 60.187606 121.018375 
L 61.887739 122.047478 
L 62.157601 122.19094 
L 62.526413 122.391171 
L 63.165087 122.70424 
L 64.037642 123.122049 
L 64.955174 123.545943 
L 65.368963 123.718125 
L 67.788728 124.672641 
L 68.175531 124.806649 
L 68.544343 124.926308 
L 70.496347 125.51611 
L 71.431869 125.782611 
L 72.790176 126.181684 
L 74.814144 126.739795 
L 75.38985 126.898232 
L 75.920579 127.02436 
L 78.529248 127.670524 
L 80.499243 128.124411 
L 81.30883 128.311984 
L 82.19038 128.482369 
L 82.766086 128.598415 
L 83.404761 128.736614 
L 84.673113 129.001481 
L 85.689595 129.203161 
L 86.076398 129.289036 
L 89.440681 129.979651 
L 90.259263 130.148901 
L 108.142139 134.076587 
L 109.37451 134.369272 
L 111.848248 134.990433 
L 112.567881 135.17823 
L 113.458427 135.395216 
L 113.926188 135.536678 
L 114.537876 135.702531 
L 117.551338 136.526885 
L 118.073072 136.681275 
L 119.467361 137.113931 
L 122.579773 138.074543 
L 123.326392 138.317326 
L 125.971043 139.200813 
L 126.852593 139.516582 
L 130.83756 140.92953 
L 131.494224 141.168799 
L 140.81347 145.112867 
L 141.901914 145.635872 
L 143.044331 146.177323 
L 145.563046 147.461628 
L 146.624505 148.014618 
L 147.371124 148.413286 
L 152.939283 151.63518 
L 161.278028 157.239313 
L 164.021628 159.329966 
L 165.928655 160.888133 
L 167.008105 161.805775 
L 168.951113 163.577199 
L 168.951113 163.577199 
" clip-path="url(#p233f97485f)" style="fill: none; stroke: #ac8e18"/>
   </g>
   <g id="line2d_30">
    <path d="M 21.579305 164.283536 
L 25.915093 154.011167 
L 32.715623 139.181946 
L 35.747076 133.099914 
L 39.264282 126.467239 
L 43.231258 119.525455 
L 45.884904 115.228704 
L 49.564027 109.731104 
L 52.793379 105.391633 
L 55.806842 101.789388 
L 58.343547 99.166754 
L 59.71085 97.984772 
L 60.745322 97.293089 
L 61.671849 96.862813 
L 62.517418 96.63454 
L 63.156092 96.583504 
L 64.460426 96.909448 
L 65.288004 97.398112 
L 66.889187 98.860811 
L 67.347953 99.406157 
L 69.695755 102.009146 
L 72.21447 103.770919 
L 73.590768 104.374556 
L 74.022548 104.562015 
L 75.308891 105.125877 
L 75.776653 105.266587 
L 76.190442 105.435885 
L 76.58624 105.548737 
L 78.322354 106.003943 
L 79.006005 106.214853 
L 80.64317 106.741825 
L 80.913032 106.800372 
L 81.542711 107.002566 
L 81.866545 107.086253 
L 83.28782 107.464338 
L 83.755582 107.609491 
L 84.034439 107.679409 
L 92.553093 109.75774 
L 92.984873 109.904313 
L 95.548565 110.686772 
L 97.131757 111.167927 
L 97.311665 111.228819 
L 98.076275 111.477095 
L 98.51705 111.60146 
L 99.011798 111.763863 
L 103.410553 113.362138 
L 103.851328 113.53416 
L 104.166168 113.658294 
L 110.795785 116.551299 
L 114.834724 118.715556 
L 115.72527 119.204361 
L 116.139059 119.424678 
L 116.867687 119.838866 
L 121.19448 122.530514 
L 121.959089 123.030813 
L 123.101507 123.817324 
L 125.332368 125.394845 
L 126.942547 126.543325 
L 128.462771 127.685995 
L 132.186871 130.625719 
L 133.725086 131.854627 
L 142.189767 138.696486 
L 144.924372 140.753084 
L 146.075785 141.621666 
L 147.919844 143.041637 
L 149.628972 144.393588 
L 152.795356 147.026708 
L 154.144668 148.198756 
L 157.517947 151.242876 
L 158.453469 152.120775 
L 160.099629 153.702586 
L 162.222546 155.824107 
L 163.041129 156.661743 
L 168.735223 163.084811 
L 168.951113 163.357009 
L 168.951113 163.357009 
" clip-path="url(#p233f97485f)" style="fill: none; stroke-dasharray: 1,1.65; stroke-dashoffset: 0; stroke: #00aaae"/>
   </g>
   <g id="PathCollection_2">
    <defs>
     <path id="m42f05ae418" d="M -2 2 
L 2 -2 
M -2 -2 
L 2 2 
" style="stroke: #009afa; stroke-width: 0.7"/>
    </defs>
    <g clip-path="url(#p233f97485f)">
     <use xlink:href="#m42f05ae418" x="90.19291" y="156.467208" style="fill: #009afa; stroke: #009afa; stroke-width: 0.7"/>
    </g>
   </g>
   <g id="PathCollection_3">
    <defs>
     <path id="m957cf1cfcf" d="M -2 2 
L 2 -2 
M -2 -2 
L 2 2 
" style="stroke: #e36f47; stroke-width: 0.7"/>
    </defs>
    <g clip-path="url(#p233f97485f)">
     <use xlink:href="#m957cf1cfcf" x="72.758297" y="148.27445" style="fill: #e36f47; stroke: #e36f47; stroke-width: 0.7"/>
    </g>
   </g>
   <g id="PathCollection_4">
    <defs>
     <path id="md2088b88a7" d="M -2 2 
L 2 -2 
M -2 -2 
L 2 2 
" style="stroke: #3ea44e; stroke-width: 0.7"/>
    </defs>
    <g clip-path="url(#p233f97485f)">
     <use xlink:href="#md2088b88a7" x="70.395169" y="143.664261" style="fill: #3ea44e; stroke: #3ea44e; stroke-width: 0.7"/>
    </g>
   </g>
   <g id="PathCollection_5">
    <defs>
     <path id="mea8ce75f7e" d="M -2 2 
L 2 -2 
M -2 -2 
L 2 2 
" style="stroke: #c371d2; stroke-width: 0.7"/>
    </defs>
    <g clip-path="url(#p233f97485f)">
     <use xlink:href="#mea8ce75f7e" x="71.202636" y="134.626419" style="fill: #c371d2; stroke: #c371d2; stroke-width: 0.7"/>
    </g>
   </g>
   <g id="PathCollection_6">
    <defs>
     <path id="m7f6b19d3b5" d="M -2 2 
L 2 -2 
M -2 -2 
L 2 2 
" style="stroke: #ac8e18; stroke-width: 0.7"/>
    </defs>
    <g clip-path="url(#p233f97485f)">
     <use xlink:href="#m7f6b19d3b5" x="73.908756" y="126.464507" style="fill: #ac8e18; stroke: #ac8e18; stroke-width: 0.7"/>
    </g>
   </g>
   <g id="PathCollection_7">
    <defs>
     <path id="m57bb6f3243" d="M -2 2 
L 2 -2 
M -2 -2 
L 2 2 
" style="stroke: #00aaae; stroke-width: 0.7"/>
    </defs>
    <g clip-path="url(#p233f97485f)">
     <use xlink:href="#m57bb6f3243" x="78.208226" y="105.967585" style="fill: #00aaae; stroke: #00aaae; stroke-width: 0.7"/>
    </g>
   </g>
   <g id="PathCollection_8">
    <defs>
     <path id="mce826e2f3f" d="M -0 3.535534 
L 3.535534 0 
L 0 -3.535534 
L -3.535534 -0 
z
" style="stroke: #009afa"/>
    </defs>
    <g clip-path="url(#p233f97485f)">
     <use xlink:href="#mce826e2f3f" x="21.570312" y="20.354646" style="fill-opacity: 0; stroke: #009afa"/>
    </g>
   </g>
   <g id="PathCollection_9">
    <defs>
     <path id="m6d0e410f81" d="M -0 3.535534 
L 3.535534 0 
L 0 -3.535534 
L -3.535534 -0 
z
" style="stroke: #e36f47"/>
    </defs>
    <g clip-path="url(#p233f97485f)">
     <use xlink:href="#m6d0e410f81" x="21.570355" y="81.125791" style="fill-opacity: 0; stroke: #e36f47"/>
    </g>
   </g>
   <g id="PathCollection_10">
    <defs>
     <path id="m422d7f013a" d="M -0 3.535534 
L 3.535534 0 
L 0 -3.535534 
L -3.535534 -0 
z
" style="stroke: #3ea44e"/>
    </defs>
    <g clip-path="url(#p233f97485f)">
     <use xlink:href="#m422d7f013a" x="21.570466" y="90.735662" style="fill-opacity: 0; stroke: #3ea44e"/>
    </g>
   </g>
   <g id="PathCollection_11">
    <defs>
     <path id="md63ad4f6f5" d="M -0 3.535534 
L 3.535534 0 
L 0 -3.535534 
L -3.535534 -0 
z
" style="stroke: #c371d2"/>
    </defs>
    <g clip-path="url(#p233f97485f)">
     <use xlink:href="#md63ad4f6f5" x="21.571154" y="96.484446" style="fill-opacity: 0; stroke: #c371d2"/>
    </g>
   </g>
   <g id="PathCollection_12">
    <defs>
     <path id="mbf45b84862" d="M -0 3.535534 
L 3.535534 0 
L 0 -3.535534 
L -3.535534 -0 
z
" style="stroke: #ac8e18"/>
    </defs>
    <g clip-path="url(#p233f97485f)">
     <use xlink:href="#mbf45b84862" x="21.57178" y="97.795437" style="fill-opacity: 0; stroke: #ac8e18"/>
    </g>
   </g>
   <g id="PathCollection_13">
    <defs>
     <path id="mb69959443e" d="M -0 3.535534 
L 3.535534 0 
L 0 -3.535534 
L -3.535534 -0 
z
" style="stroke: #00aaae"/>
    </defs>
    <g clip-path="url(#p233f97485f)">
     <use xlink:href="#mb69959443e" x="21.57284" y="96.570664" style="fill-opacity: 0; stroke: #00aaae"/>
    </g>
   </g>
   <g id="legend_1">
    <g id="patch_7">
     <path d="M 149.026292 127.226833 
L 208.665354 127.226833 
L 208.665354 24.854646 
L 149.026292 24.854646 
L 149.026292 127.226833 
z
" style="fill: none; opacity: 0"/>
    </g>
    <g id="line2d_31">
     <path d="M 156.226292 35.743239 
L 165.226292 35.743239 
L 174.226292 35.743239 
" style="fill: none"/>
     <defs>
      <path id="m281e6404c2" d="M 0 3.6 
C 0.954731 3.6 1.870488 3.220681 2.545584 2.545584 
C 3.220681 1.870488 3.6 0.954731 3.6 0 
C 3.6 -0.954731 3.220681 -1.870488 2.545584 -2.545584 
C 1.870488 -3.220681 0.954731 -3.6 0 -3.6 
C -0.954731 -3.6 -1.870488 -3.220681 -2.545584 -2.545584 
C -3.220681 -1.870488 -3.6 -0.954731 -3.6 0 
C -3.6 0.954731 -3.220681 1.870488 -2.545584 2.545584 
C -1.870488 3.220681 -0.954731 3.6 0 3.6 
z
" style="stroke: #ffffff; stroke-width: inf"/>
     </defs>
     <g>
      <use xlink:href="#m281e6404c2" x="165.226292" y="35.743239" style="fill: #ffffff; fill-opacity: 0; stroke: #ffffff; stroke-width: inf"/>
     </g>
    </g>
    <g id="text_14">
     <!-- $t_0$ -->
     <g transform="translate(181.426292 38.893239) scale(0.09 -0.09)">
      <defs>
       <path id="DejaVuSans-Oblique-74" d="M 2706 3500 
L 2619 3053 
L 1472 3053 
L 1100 1153 
Q 1081 1047 1072 975 
Q 1063 903 1063 863 
Q 1063 663 1183 572 
Q 1303 481 1569 481 
L 2150 481 
L 2053 0 
L 1503 0 
Q 991 0 739 200 
Q 488 400 488 806 
Q 488 878 497 964 
Q 506 1050 525 1153 
L 897 3053 
L 409 3053 
L 500 3500 
L 978 3500 
L 1172 4494 
L 1747 4494 
L 1556 3500 
L 2706 3500 
z
" transform="scale(0.015625)"/>
      </defs>
      <use xlink:href="#DejaVuSans-Oblique-74" transform="translate(0 0.78125)"/>
      <use xlink:href="#DejaVuSans-30" transform="translate(39.208984 -15.625) scale(0.7)"/>
     </g>
    </g>
    <g id="line2d_32">
     <path d="M 156.226292 48.953552 
L 165.226292 48.953552 
L 174.226292 48.953552 
" style="fill: none; stroke-dasharray: 4.1625,1.8; stroke-dashoffset: 0; stroke: #009afa; stroke-width: 1.125; stroke-linejoin: miter"/>
    </g>
    <g id="text_15">
     <!-- 0.1 -->
     <g transform="translate(181.426292 52.103552) scale(0.09 -0.09)">
      <use xlink:href="#DejaVuSans-30"/>
      <use xlink:href="#DejaVuSans-2e" x="63.623047"/>
      <use xlink:href="#DejaVuSans-31" x="95.410156"/>
     </g>
    </g>
    <g id="line2d_33">
     <path d="M 156.226292 62.163864 
L 165.226292 62.163864 
L 174.226292 62.163864 
" style="fill: none; stroke: #e36f47; stroke-width: 1.125; stroke-linejoin: miter"/>
    </g>
    <g id="text_16">
     <!-- 0.27 -->
     <g transform="translate(181.426292 65.313864) scale(0.09 -0.09)">
      <defs>
       <path id="DejaVuSans-37" d="M 525 4666 
L 3525 4666 
L 3525 4397 
L 1831 0 
L 1172 0 
L 2766 4134 
L 525 4134 
L 525 4666 
z
" transform="scale(0.015625)"/>
      </defs>
      <use xlink:href="#DejaVuSans-30"/>
      <use xlink:href="#DejaVuSans-2e" x="63.623047"/>
      <use xlink:href="#DejaVuSans-32" x="95.410156"/>
      <use xlink:href="#DejaVuSans-37" x="159.033203"/>
     </g>
    </g>
    <g id="line2d_34">
     <path d="M 156.226292 75.374177 
L 165.226292 75.374177 
L 174.226292 75.374177 
" style="fill: none; stroke: #3ea44e; stroke-width: 1.125; stroke-linejoin: miter"/>
    </g>
    <g id="text_17">
     <!-- 0.3 -->
     <g transform="translate(181.426292 78.524177) scale(0.09 -0.09)">
      <use xlink:href="#DejaVuSans-30"/>
      <use xlink:href="#DejaVuSans-2e" x="63.623047"/>
      <use xlink:href="#DejaVuSans-33" x="95.410156"/>
     </g>
    </g>
    <g id="line2d_35">
     <path d="M 156.226292 88.584489 
L 165.226292 88.584489 
L 174.226292 88.584489 
" style="fill: none; stroke: #c371d2; stroke-width: 1.125; stroke-linejoin: miter"/>
    </g>
    <g id="text_18">
     <!-- 0.35 -->
     <g transform="translate(181.426292 91.734489) scale(0.09 -0.09)">
      <defs>
       <path id="DejaVuSans-35" d="M 691 4666 
L 3169 4666 
L 3169 4134 
L 1269 4134 
L 1269 2991 
Q 1406 3038 1543 3061 
Q 1681 3084 1819 3084 
Q 2600 3084 3056 2656 
Q 3513 2228 3513 1497 
Q 3513 744 3044 326 
Q 2575 -91 1722 -91 
Q 1428 -91 1123 -41 
Q 819 9 494 109 
L 494 744 
Q 775 591 1075 516 
Q 1375 441 1709 441 
Q 2250 441 2565 725 
Q 2881 1009 2881 1497 
Q 2881 1984 2565 2268 
Q 2250 2553 1709 2553 
Q 1456 2553 1204 2497 
Q 953 2441 691 2322 
L 691 4666 
z
" transform="scale(0.015625)"/>
      </defs>
      <use xlink:href="#DejaVuSans-30"/>
      <use xlink:href="#DejaVuSans-2e" x="63.623047"/>
      <use xlink:href="#DejaVuSans-33" x="95.410156"/>
      <use xlink:href="#DejaVuSans-35" x="159.033203"/>
     </g>
    </g>
    <g id="line2d_36">
     <path d="M 156.226292 101.794802 
L 165.226292 101.794802 
L 174.226292 101.794802 
" style="fill: none; stroke: #ac8e18; stroke-width: 1.125; stroke-linejoin: miter"/>
    </g>
    <g id="text_19">
     <!-- 0.4 -->
     <g transform="translate(181.426292 104.944802) scale(0.09 -0.09)">
      <use xlink:href="#DejaVuSans-30"/>
      <use xlink:href="#DejaVuSans-2e" x="63.623047"/>
      <use xlink:href="#DejaVuSans-34" x="95.410156"/>
     </g>
    </g>
    <g id="line2d_37">
     <path d="M 156.226292 115.005114 
L 165.226292 115.005114 
L 174.226292 115.005114 
" style="fill: none; stroke-dasharray: 1.125,1.85625; stroke-dashoffset: 0; stroke: #00aaae; stroke-width: 1.125; stroke-linejoin: miter"/>
    </g>
    <g id="text_20">
     <!-- 0.5 -->
     <g transform="translate(181.426292 118.155114) scale(0.09 -0.09)">
      <use xlink:href="#DejaVuSans-30"/>
      <use xlink:href="#DejaVuSans-2e" x="63.623047"/>
      <use xlink:href="#DejaVuSans-35" x="95.410156"/>
     </g>
    </g>
   </g>
  </g>
 </g>
 <defs>
  <clipPath id="p233f97485f">
   <rect x="21.57031" y="20.354646" width="191.595045" height="143.950709"/>
  </clipPath>
 </defs>
</svg>
