<?xml version="1.0" encoding="utf-8" standalone="no"?>
<!DOCTYPE svg PUBLIC "-//W3C//DTD SVG 1.1//EN"
  "http://www.w3.org/Graphics/SVG/1.1/DTD/svg11.dtd">
<svg xmlns:xlink="http://www.w3.org/1999/xlink" width="216pt" height="180pt" viewBox="0 0 216 180" xmlns="http://www.w3.org/2000/svg" version="1.1">
 <metadata>
  <rdf:RDF xmlns:dc="http://purl.org/dc/elements/1.1/" xmlns:cc="http://creativecommons.org/ns#" xmlns:rdf="http://www.w3.org/1999/02/22-rdf-syntax-ns#">
   <cc:Work>
    <dc:type rdf:resource="http://purl.org/dc/dcmitype/StillImage"/>
    <dc:date>2023-05-19T13:30:03.350268</dc:date>
    <dc:format>image/svg+xml</dc:format>
    <dc:creator>
     <cc:Agent>
      <dc:title>Matplotlib v3.6.3, https://matplotlib.org/</dc:title>
     </cc:Agent>
    </dc:creator>
   </cc:Work>
  </rdf:RDF>
 </metadata>
 <defs>
  <style type="text/css">*{stroke-linejoin: round; stroke-linecap: butt}</style>
 </defs>
 <g id="figure_1">
  <g id="patch_1">
   <path d="M 0 180 
L 216 180 
L 216 0 
L 0 0 
z
" style="fill: #ffffff"/>
  </g>
  <g id="axes_1">
   <g id="patch_2">
    <path d="M 39.25031 148.065354 
L 213.165354 148.065354 
L 213.165354 20.354646 
L 39.25031 20.354646 
z
" style="fill: #ffffff"/>
   </g>
   <g id="PathCollection_1">
    <defs>
     <path id="m6682ae9232" d="M 0 0 
C 0 0 0 0 0 0 
C 0 0 0 0 0 0 
C 0 0 0 0 0 0 
C 0 0 0 0 0 0 
C 0 0 0 0 0 0 
C 0 0 0 0 0 0 
C 0 0 0 0 0 0 
C 0 0 0 0 0 0 
z
" style="stroke: #ffffff; stroke-width: 0.7"/>
    </defs>
    <g clip-path="url(#p5bac2047c6)">
     <use xlink:href="#m6682ae9232" x="39.25031" y="148.065354" style="fill: #ffffff; fill-opacity: 0; stroke: #ffffff; stroke-width: 0.7"/>
    </g>
   </g>
   <g id="matplotlib.axis_1">
    <g id="xtick_1">
     <g id="line2d_1">
      <defs>
       <path id="md4610b7738" d="M 0 0 
L 0 -2.5 
" style="stroke: #000000; stroke-width: 0.5"/>
      </defs>
      <g>
       <use xlink:href="#md4610b7738" x="39.25031" y="148.065354" style="stroke: #000000; stroke-width: 0.5"/>
      </g>
     </g>
     <g id="line2d_2">
      <defs>
       <path id="mb4a4d0c1d6" d="M 0 0 
L 0 2.5 
" style="stroke: #000000; stroke-width: 0.5"/>
      </defs>
      <g>
       <use xlink:href="#mb4a4d0c1d6" x="39.25031" y="20.354646" style="stroke: #000000; stroke-width: 0.5"/>
      </g>
     </g>
     <g id="text_1">
      <!-- $0.0$ -->
      <g transform="translate(32.05031 158.403948) scale(0.09 -0.09)">
       <defs>
        <path id="DejaVuSans-30" d="M 2034 4250 
Q 1547 4250 1301 3770 
Q 1056 3291 1056 2328 
Q 1056 1369 1301 889 
Q 1547 409 2034 409 
Q 2525 409 2770 889 
Q 3016 1369 3016 2328 
Q 3016 3291 2770 3770 
Q 2525 4250 2034 4250 
z
M 2034 4750 
Q 2819 4750 3233 4129 
Q 3647 3509 3647 2328 
Q 3647 1150 3233 529 
Q 2819 -91 2034 -91 
Q 1250 -91 836 529 
Q 422 1150 422 2328 
Q 422 3509 836 4129 
Q 1250 4750 2034 4750 
z
" transform="scale(0.015625)"/>
        <path id="DejaVuSans-2e" d="M 684 794 
L 1344 794 
L 1344 0 
L 684 0 
L 684 794 
z
" transform="scale(0.015625)"/>
       </defs>
       <use xlink:href="#DejaVuSans-30" transform="translate(0 0.78125)"/>
       <use xlink:href="#DejaVuSans-2e" transform="translate(63.623047 0.78125)"/>
       <use xlink:href="#DejaVuSans-30" transform="translate(95.410156 0.78125)"/>
      </g>
     </g>
    </g>
    <g id="xtick_2">
     <g id="line2d_3">
      <g>
       <use xlink:href="#md4610b7738" x="66.00647" y="148.065354" style="stroke: #000000; stroke-width: 0.5"/>
      </g>
     </g>
     <g id="line2d_4">
      <g>
       <use xlink:href="#mb4a4d0c1d6" x="66.00647" y="20.354646" style="stroke: #000000; stroke-width: 0.5"/>
      </g>
     </g>
     <g id="text_2">
      <!-- $0.2$ -->
      <g transform="translate(59.07647 158.403948) scale(0.09 -0.09)">
       <defs>
        <path id="DejaVuSans-32" d="M 1228 531 
L 3431 531 
L 3431 0 
L 469 0 
L 469 531 
Q 828 903 1448 1529 
Q 2069 2156 2228 2338 
Q 2531 2678 2651 2914 
Q 2772 3150 2772 3378 
Q 2772 3750 2511 3984 
Q 2250 4219 1831 4219 
Q 1534 4219 1204 4116 
Q 875 4013 500 3803 
L 500 4441 
Q 881 4594 1212 4672 
Q 1544 4750 1819 4750 
Q 2544 4750 2975 4387 
Q 3406 4025 3406 3419 
Q 3406 3131 3298 2873 
Q 3191 2616 2906 2266 
Q 2828 2175 2409 1742 
Q 1991 1309 1228 531 
z
" transform="scale(0.015625)"/>
       </defs>
       <use xlink:href="#DejaVuSans-30" transform="translate(0 0.78125)"/>
       <use xlink:href="#DejaVuSans-2e" transform="translate(63.623047 0.78125)"/>
       <use xlink:href="#DejaVuSans-32" transform="translate(89.910156 0.78125)"/>
      </g>
     </g>
    </g>
    <g id="xtick_3">
     <g id="line2d_5">
      <g>
       <use xlink:href="#md4610b7738" x="92.762631" y="148.065354" style="stroke: #000000; stroke-width: 0.5"/>
      </g>
     </g>
     <g id="line2d_6">
      <g>
       <use xlink:href="#mb4a4d0c1d6" x="92.762631" y="20.354646" style="stroke: #000000; stroke-width: 0.5"/>
      </g>
     </g>
     <g id="text_3">
      <!-- $0.4$ -->
      <g transform="translate(85.562631 158.403948) scale(0.09 -0.09)">
       <defs>
        <path id="DejaVuSans-34" d="M 2419 4116 
L 825 1625 
L 2419 1625 
L 2419 4116 
z
M 2253 4666 
L 3047 4666 
L 3047 1625 
L 3713 1625 
L 3713 1100 
L 3047 1100 
L 3047 0 
L 2419 0 
L 2419 1100 
L 313 1100 
L 313 1709 
L 2253 4666 
z
" transform="scale(0.015625)"/>
       </defs>
       <use xlink:href="#DejaVuSans-30" transform="translate(0 0.78125)"/>
       <use xlink:href="#DejaVuSans-2e" transform="translate(63.623047 0.78125)"/>
       <use xlink:href="#DejaVuSans-34" transform="translate(95.410156 0.78125)"/>
      </g>
     </g>
    </g>
    <g id="xtick_4">
     <g id="line2d_7">
      <g>
       <use xlink:href="#md4610b7738" x="119.518792" y="148.065354" style="stroke: #000000; stroke-width: 0.5"/>
      </g>
     </g>
     <g id="line2d_8">
      <g>
       <use xlink:href="#mb4a4d0c1d6" x="119.518792" y="20.354646" style="stroke: #000000; stroke-width: 0.5"/>
      </g>
     </g>
     <g id="text_4">
      <!-- $0.6$ -->
      <g transform="translate(112.318792 158.403948) scale(0.09 -0.09)">
       <defs>
        <path id="DejaVuSans-36" d="M 2113 2584 
Q 1688 2584 1439 2293 
Q 1191 2003 1191 1497 
Q 1191 994 1439 701 
Q 1688 409 2113 409 
Q 2538 409 2786 701 
Q 3034 994 3034 1497 
Q 3034 2003 2786 2293 
Q 2538 2584 2113 2584 
z
M 3366 4563 
L 3366 3988 
Q 3128 4100 2886 4159 
Q 2644 4219 2406 4219 
Q 1781 4219 1451 3797 
Q 1122 3375 1075 2522 
Q 1259 2794 1537 2939 
Q 1816 3084 2150 3084 
Q 2853 3084 3261 2657 
Q 3669 2231 3669 1497 
Q 3669 778 3244 343 
Q 2819 -91 2113 -91 
Q 1303 -91 875 529 
Q 447 1150 447 2328 
Q 447 3434 972 4092 
Q 1497 4750 2381 4750 
Q 2619 4750 2861 4703 
Q 3103 4656 3366 4563 
z
" transform="scale(0.015625)"/>
       </defs>
       <use xlink:href="#DejaVuSans-30" transform="translate(0 0.78125)"/>
       <use xlink:href="#DejaVuSans-2e" transform="translate(63.623047 0.78125)"/>
       <use xlink:href="#DejaVuSans-36" transform="translate(95.410156 0.78125)"/>
      </g>
     </g>
    </g>
    <g id="xtick_5">
     <g id="line2d_9">
      <g>
       <use xlink:href="#md4610b7738" x="146.274953" y="148.065354" style="stroke: #000000; stroke-width: 0.5"/>
      </g>
     </g>
     <g id="line2d_10">
      <g>
       <use xlink:href="#mb4a4d0c1d6" x="146.274953" y="20.354646" style="stroke: #000000; stroke-width: 0.5"/>
      </g>
     </g>
     <g id="text_5">
      <!-- $0.8$ -->
      <g transform="translate(139.209953 158.403948) scale(0.09 -0.09)">
       <defs>
        <path id="DejaVuSans-38" d="M 2034 2216 
Q 1584 2216 1326 1975 
Q 1069 1734 1069 1313 
Q 1069 891 1326 650 
Q 1584 409 2034 409 
Q 2484 409 2743 651 
Q 3003 894 3003 1313 
Q 3003 1734 2745 1975 
Q 2488 2216 2034 2216 
z
M 1403 2484 
Q 997 2584 770 2862 
Q 544 3141 544 3541 
Q 544 4100 942 4425 
Q 1341 4750 2034 4750 
Q 2731 4750 3128 4425 
Q 3525 4100 3525 3541 
Q 3525 3141 3298 2862 
Q 3072 2584 2669 2484 
Q 3125 2378 3379 2068 
Q 3634 1759 3634 1313 
Q 3634 634 3220 271 
Q 2806 -91 2034 -91 
Q 1263 -91 848 271 
Q 434 634 434 1313 
Q 434 1759 690 2068 
Q 947 2378 1403 2484 
z
M 1172 3481 
Q 1172 3119 1398 2916 
Q 1625 2713 2034 2713 
Q 2441 2713 2670 2916 
Q 2900 3119 2900 3481 
Q 2900 3844 2670 4047 
Q 2441 4250 2034 4250 
Q 1625 4250 1398 4047 
Q 1172 3844 1172 3481 
z
" transform="scale(0.015625)"/>
       </defs>
       <use xlink:href="#DejaVuSans-30" transform="translate(0 0.78125)"/>
       <use xlink:href="#DejaVuSans-2e" transform="translate(63.623047 0.78125)"/>
       <use xlink:href="#DejaVuSans-38" transform="translate(92.785156 0.78125)"/>
      </g>
     </g>
    </g>
    <g id="xtick_6">
     <g id="line2d_11">
      <g>
       <use xlink:href="#md4610b7738" x="173.031113" y="148.065354" style="stroke: #000000; stroke-width: 0.5"/>
      </g>
     </g>
     <g id="line2d_12">
      <g>
       <use xlink:href="#mb4a4d0c1d6" x="173.031113" y="20.354646" style="stroke: #000000; stroke-width: 0.5"/>
      </g>
     </g>
     <g id="text_6">
      <!-- $1.0$ -->
      <g transform="translate(165.831113 158.403948) scale(0.09 -0.09)">
       <defs>
        <path id="DejaVuSans-31" d="M 794 531 
L 1825 531 
L 1825 4091 
L 703 3866 
L 703 4441 
L 1819 4666 
L 2450 4666 
L 2450 531 
L 3481 531 
L 3481 0 
L 794 0 
L 794 531 
z
" transform="scale(0.015625)"/>
       </defs>
       <use xlink:href="#DejaVuSans-31" transform="translate(0 0.78125)"/>
       <use xlink:href="#DejaVuSans-2e" transform="translate(63.623047 0.78125)"/>
       <use xlink:href="#DejaVuSans-30" transform="translate(95.410156 0.78125)"/>
      </g>
     </g>
    </g>
    <g id="xtick_7">
     <g id="line2d_13">
      <g>
       <use xlink:href="#md4610b7738" x="199.787274" y="148.065354" style="stroke: #000000; stroke-width: 0.5"/>
      </g>
     </g>
     <g id="line2d_14">
      <g>
       <use xlink:href="#mb4a4d0c1d6" x="199.787274" y="20.354646" style="stroke: #000000; stroke-width: 0.5"/>
      </g>
     </g>
     <g id="text_7">
      <!-- $1.2$ -->
      <g transform="translate(192.857274 158.403948) scale(0.09 -0.09)">
       <use xlink:href="#DejaVuSans-31" transform="translate(0 0.78125)"/>
       <use xlink:href="#DejaVuSans-2e" transform="translate(63.623047 0.78125)"/>
       <use xlink:href="#DejaVuSans-32" transform="translate(89.910156 0.78125)"/>
      </g>
     </g>
    </g>
    <g id="text_8">
     <!-- $k/N$ -->
     <g transform="translate(116.187832 173.393792) scale(0.12 -0.12)">
      <defs>
       <path id="DejaVuSans-Oblique-6b" d="M 1172 4863 
L 1747 4863 
L 1197 2028 
L 3169 3500 
L 3916 3500 
L 1716 1825 
L 3322 0 
L 2625 0 
L 1131 1709 
L 800 0 
L 225 0 
L 1172 4863 
z
" transform="scale(0.015625)"/>
       <path id="DejaVuSans-2f" d="M 1625 4666 
L 2156 4666 
L 531 -594 
L 0 -594 
L 1625 4666 
z
" transform="scale(0.015625)"/>
       <path id="DejaVuSans-Oblique-4e" d="M 1081 4666 
L 1931 4666 
L 3219 666 
L 4000 4666 
L 4616 4666 
L 3706 0 
L 2853 0 
L 1569 4025 
L 788 0 
L 172 0 
L 1081 4666 
z
" transform="scale(0.015625)"/>
      </defs>
      <use xlink:href="#DejaVuSans-Oblique-6b" transform="translate(0 0.015625)"/>
      <use xlink:href="#DejaVuSans-2f" transform="translate(57.910156 0.015625)"/>
      <use xlink:href="#DejaVuSans-Oblique-4e" transform="translate(91.601562 0.015625)"/>
     </g>
    </g>
   </g>
   <g id="matplotlib.axis_2">
    <g id="ytick_1">
     <g id="line2d_15">
      <defs>
       <path id="m00b9e16903" d="M 0 0 
L 2.5 0 
" style="stroke: #000000; stroke-width: 0.5"/>
      </defs>
      <g>
       <use xlink:href="#m00b9e16903" x="39.25031" y="148.065354" style="stroke: #000000; stroke-width: 0.5"/>
      </g>
     </g>
     <g id="line2d_16">
      <defs>
       <path id="m6063b0790b" d="M 0 0 
L -2.5 0 
" style="stroke: #000000; stroke-width: 0.5"/>
      </defs>
      <g>
       <use xlink:href="#m6063b0790b" x="213.165354" y="148.065354" style="stroke: #000000; stroke-width: 0.5"/>
      </g>
     </g>
     <g id="text_9">
      <!-- $0.0$ -->
      <g transform="translate(21.35031 151.484651) scale(0.09 -0.09)">
       <use xlink:href="#DejaVuSans-30" transform="translate(0 0.78125)"/>
       <use xlink:href="#DejaVuSans-2e" transform="translate(63.623047 0.78125)"/>
       <use xlink:href="#DejaVuSans-30" transform="translate(95.410156 0.78125)"/>
      </g>
     </g>
    </g>
    <g id="ytick_2">
     <g id="line2d_17">
      <g>
       <use xlink:href="#m00b9e16903" x="39.25031" y="116.138711" style="stroke: #000000; stroke-width: 0.5"/>
      </g>
     </g>
     <g id="line2d_18">
      <g>
       <use xlink:href="#m6063b0790b" x="213.165354" y="116.138711" style="stroke: #000000; stroke-width: 0.5"/>
      </g>
     </g>
     <g id="text_10">
      <!-- $0.1$ -->
      <g transform="translate(21.35031 119.558008) scale(0.09 -0.09)">
       <use xlink:href="#DejaVuSans-30" transform="translate(0 0.78125)"/>
       <use xlink:href="#DejaVuSans-2e" transform="translate(63.623047 0.78125)"/>
       <use xlink:href="#DejaVuSans-31" transform="translate(95.410156 0.78125)"/>
      </g>
     </g>
    </g>
    <g id="ytick_3">
     <g id="line2d_19">
      <g>
       <use xlink:href="#m00b9e16903" x="39.25031" y="84.212068" style="stroke: #000000; stroke-width: 0.5"/>
      </g>
     </g>
     <g id="line2d_20">
      <g>
       <use xlink:href="#m6063b0790b" x="213.165354" y="84.212068" style="stroke: #000000; stroke-width: 0.5"/>
      </g>
     </g>
     <g id="text_11">
      <!-- $0.2$ -->
      <g transform="translate(21.89031 87.631365) scale(0.09 -0.09)">
       <use xlink:href="#DejaVuSans-30" transform="translate(0 0.78125)"/>
       <use xlink:href="#DejaVuSans-2e" transform="translate(63.623047 0.78125)"/>
       <use xlink:href="#DejaVuSans-32" transform="translate(89.910156 0.78125)"/>
      </g>
     </g>
    </g>
    <g id="ytick_4">
     <g id="line2d_21">
      <g>
       <use xlink:href="#m00b9e16903" x="39.25031" y="52.285425" style="stroke: #000000; stroke-width: 0.5"/>
      </g>
     </g>
     <g id="line2d_22">
      <g>
       <use xlink:href="#m6063b0790b" x="213.165354" y="52.285425" style="stroke: #000000; stroke-width: 0.5"/>
      </g>
     </g>
     <g id="text_12">
      <!-- $0.3$ -->
      <g transform="translate(21.35031 55.704722) scale(0.09 -0.09)">
       <defs>
        <path id="DejaVuSans-33" d="M 2597 2516 
Q 3050 2419 3304 2112 
Q 3559 1806 3559 1356 
Q 3559 666 3084 287 
Q 2609 -91 1734 -91 
Q 1441 -91 1130 -33 
Q 819 25 488 141 
L 488 750 
Q 750 597 1062 519 
Q 1375 441 1716 441 
Q 2309 441 2620 675 
Q 2931 909 2931 1356 
Q 2931 1769 2642 2001 
Q 2353 2234 1838 2234 
L 1294 2234 
L 1294 2753 
L 1863 2753 
Q 2328 2753 2575 2939 
Q 2822 3125 2822 3475 
Q 2822 3834 2567 4026 
Q 2313 4219 1838 4219 
Q 1578 4219 1281 4162 
Q 984 4106 628 3988 
L 628 4550 
Q 988 4650 1302 4700 
Q 1616 4750 1894 4750 
Q 2613 4750 3031 4423 
Q 3450 4097 3450 3541 
Q 3450 3153 3228 2886 
Q 3006 2619 2597 2516 
z
" transform="scale(0.015625)"/>
       </defs>
       <use xlink:href="#DejaVuSans-30" transform="translate(0 0.78125)"/>
       <use xlink:href="#DejaVuSans-2e" transform="translate(63.623047 0.78125)"/>
       <use xlink:href="#DejaVuSans-33" transform="translate(95.410156 0.78125)"/>
      </g>
     </g>
    </g>
    <g id="ytick_5">
     <g id="line2d_23">
      <g>
       <use xlink:href="#m00b9e16903" x="39.25031" y="20.358782" style="stroke: #000000; stroke-width: 0.5"/>
      </g>
     </g>
     <g id="line2d_24">
      <g>
       <use xlink:href="#m6063b0790b" x="213.165354" y="20.358782" style="stroke: #000000; stroke-width: 0.5"/>
      </g>
     </g>
     <g id="text_13">
      <!-- $0.4$ -->
      <g transform="translate(21.35031 23.778079) scale(0.09 -0.09)">
       <use xlink:href="#DejaVuSans-30" transform="translate(0 0.78125)"/>
       <use xlink:href="#DejaVuSans-2e" transform="translate(63.623047 0.78125)"/>
       <use xlink:href="#DejaVuSans-34" transform="translate(95.410156 0.78125)"/>
      </g>
     </g>
    </g>
    <g id="text_14">
     <!-- $\langle σ \rangle$ -->
     <g transform="translate(14.854685 92.73) rotate(-90) scale(0.12 -0.12)">
      <defs>
       <path id="DejaVuSans-27e8" d="M 572 2006 
L 1453 4856 
L 1984 4856 
L 1103 2006 
L 1984 -844 
L 1453 -844 
L 572 2006 
z
" transform="scale(0.015625)"/>
       <path id="DejaVuSans-Oblique-3c3" d="M 2219 3044 
Q 1744 3044 1422 2700 
Q 1081 2341 969 1747 
Q 844 1119 1044 756 
Q 1241 397 1706 397 
Q 2166 397 2503 759 
Q 2844 1122 2966 1747 
Q 3075 2319 2881 2700 
Q 2700 3044 2219 3044 
z
M 2309 3503 
L 4219 3500 
L 4106 2925 
L 3463 2925 
Q 3706 2438 3575 1747 
Q 3406 888 2884 400 
Q 2359 -91 1609 -91 
Q 856 -91 525 400 
Q 194 888 363 1747 
Q 528 2609 1050 3097 
Q 1484 3503 2309 3503 
z
" transform="scale(0.015625)"/>
       <path id="DejaVuSans-27e9" d="M 1925 2006 
L 1044 -844 
L 513 -844 
L 1394 2006 
L 513 4856 
L 1044 4856 
L 1925 2006 
z
" transform="scale(0.015625)"/>
      </defs>
      <use xlink:href="#DejaVuSans-27e8" transform="translate(0 0.125)"/>
      <use xlink:href="#DejaVuSans-Oblique-3c3" transform="translate(39.013672 0.125)"/>
      <use xlink:href="#DejaVuSans-27e9" transform="translate(102.392578 0.125)"/>
     </g>
    </g>
   </g>
   <g id="line2d_25">
    <path d="M 39.258475 20.35491 
L 39.340128 20.354646 
L 39.462608 83.764707 
L 39.723899 98.926677 
L 40.091339 108.14509 
L 40.540432 114.127921 
L 41.340635 120.013606 
L 41.953035 122.763256 
L 43.67592 127.392729 
L 45.40697 130.025628 
L 45.504954 130.132601 
L 46.035701 130.745549 
L 48.771087 133.029877 
L 48.885402 133.107875 
L 49.32633 133.379444 
L 49.456975 133.453601 
L 49.718266 133.610061 
L 51.245183 134.404 
L 51.400324 134.481946 
L 52.184196 134.818459 
L 53.833593 135.467195 
L 54.48682 135.709157 
L 54.723614 135.790401 
L 55.548313 136.052488 
L 55.776942 136.118796 
L 57.254867 136.524584 
L 57.44267 136.593451 
L 64.962941 138.080712 
L 65.216066 138.128123 
L 65.795805 138.214074 
L 67.208407 138.42609 
L 67.494194 138.46455 
L 69.094599 138.685076 
L 69.331394 138.7131 
L 70.156092 138.8292 
L 73.846822 139.240088 
L 74.108113 139.271053 
L 74.385734 139.301886 
L 75.079788 139.376018 
L 76.222934 139.470632 
L 76.61487 139.515031 
L 77.014971 139.556244 
L 77.333419 139.580295 
L 77.725355 139.622477 
L 78.460235 139.673088 
L 78.786848 139.700901 
L 80.093302 139.819005 
L 80.387254 139.848401 
L 81.28544 139.92489 
L 81.946832 139.977683 
L 83.089979 140.055124 
L 83.702378 140.104075 
L 97.599774 141.113135 
L 97.950883 141.143892 
L 98.555118 141.195242 
L 98.922558 141.207973 
L 99.298163 141.238027 
L 99.60028 141.270007 
L 100.351491 141.331526 
L 100.833246 141.370058 
L 103.911576 141.596787 
L 104.279016 141.630147 
L 104.785266 141.662821 
L 105.071053 141.68113 
L 151.237842 145.227324 
L 151.980887 145.298301 
L 153.262844 145.426451 
L 155.810428 145.675432 
L 156.912747 145.781914 
L 158.69279 145.962797 
L 161.722128 146.282776 
L 162.546827 146.374098 
L 168.262559 147.068095 
L 173.031113 148.053843 
L 173.031113 148.053843 
" clip-path="url(#p5bac2047c6)" style="fill: none; stroke-dasharray: 3.7,1.6; stroke-dashoffset: 0; stroke: #009afa"/>
   </g>
   <g id="patch_3">
    <path d="M 39.25031 148.065354 
L 39.25031 20.354646 
" style="fill: none; stroke: #000000; stroke-linejoin: miter; stroke-linecap: square"/>
   </g>
   <g id="patch_4">
    <path d="M 213.165354 148.065354 
L 213.165354 20.354646 
" style="fill: none; stroke: #000000; stroke-linejoin: miter; stroke-linecap: square"/>
   </g>
   <g id="patch_5">
    <path d="M 39.25031 148.065354 
L 213.165354 148.065354 
" style="fill: none; stroke: #000000; stroke-linejoin: miter; stroke-linecap: square"/>
   </g>
   <g id="patch_6">
    <path d="M 39.25031 20.354646 
L 213.165354 20.354646 
" style="fill: none; stroke: #000000; stroke-linejoin: miter; stroke-linecap: square"/>
   </g>
   <g id="line2d_26">
    <path d="M 39.258475 74.623622 
L 39.340128 74.568875 
L 39.364624 74.65981 
L 39.699403 76.443601 
L 40.393456 83.965216 
L 42.402128 106.64221 
L 42.916544 110.165934 
L 44.443461 116.627088 
L 44.451626 116.622805 
L 44.476122 116.72739 
L 44.639429 117.204971 
L 44.859893 117.676852 
L 44.91705 117.859356 
L 45.325317 118.851461 
L 45.40697 119.068964 
L 46.068362 120.32256 
L 46.092858 120.303027 
L 46.133685 120.448392 
L 48.85274 123.93629 
L 48.942559 124.044022 
L 49.154858 124.316472 
L 49.187519 124.285291 
L 49.252842 124.344533 
L 49.473306 124.606959 
L 49.481471 124.589708 
L 49.636612 124.716871 
L 49.799919 124.855678 
L 49.808084 124.841801 
L 49.848911 124.915008 
L 49.889738 124.915029 
L 50.07754 125.040846 
L 50.453146 125.388805 
L 50.542964 125.465105 
L 50.730767 125.64805 
L 50.845082 125.650374 
L 51.245183 125.992986 
L 51.269679 126.011258 
L 51.30234 126.084105 
L 51.465647 126.165149 
L 51.579961 126.225411 
L 52.094377 126.530074 
L 52.176031 126.575138 
L 52.184196 126.601965 
L 52.698612 126.907738 
L 52.706777 126.895523 
L 52.7721 126.987543 
L 52.780265 126.982437 
L 53.000729 127.131565 
L 53.26202 127.302786 
L 53.400831 127.344054 
L 53.580468 127.43338 
L 53.621294 127.432291 
L 53.662121 127.467757 
L 53.776436 127.554155 
L 53.792766 127.55045 
L 54.127545 127.71306 
L 54.13571 127.703013 
L 54.176537 127.767521 
L 54.209198 127.786152 
L 54.331678 127.877141 
L 54.519481 127.949286 
L 54.6093 128.035077 
L 54.788937 128.132856 
L 54.919582 128.118926 
L 54.935913 128.143164 
L 55.368676 128.344525 
L 56.062729 128.679967 
L 56.087225 128.655254 
L 56.168878 128.703406 
L 59.64731 130.036587 
L 59.688136 130.022491 
L 59.728963 130.087562 
L 59.745294 130.07852 
L 59.965758 130.13376 
L 60.088238 130.176301 
L 61.002755 130.428025 
L 61.092573 130.447427 
L 61.108904 130.465573 
L 61.215053 130.50786 
L 61.370195 130.58525 
L 61.517171 130.610777 
L 61.835619 130.698563 
L 61.998925 130.75941 
L 62.105075 130.799054 
L 62.219389 130.774691 
L 66.996109 131.941645 
L 67.036935 131.925094 
L 67.085927 132.005786 
L 67.257399 132.042397 
L 67.412541 132.040997 
L 67.543186 132.101314 
L 67.551351 132.094808 
L 67.845303 132.165648 
L 69.192583 132.410102 
L 69.274236 132.485037 
L 81.791691 134.42421 
L 81.89784 134.4193 
L 81.906005 134.425271 
L 82.216288 134.480582 
L 82.379595 134.510544 
L 82.551067 134.55523 
L 83.008325 134.598789 
L 83.171632 134.637533 
L 83.24512 134.604995 
L 83.285947 134.632571 
L 83.571733 134.686785 
L 84.371936 134.732591 
L 84.453589 134.739466 
L 84.46992 134.768614 
L 84.616896 134.801564 
L 85.172138 134.8615 
L 85.34361 134.896088 
L 85.498752 134.88719 
L 85.58857 134.958371 
L 85.71105 134.970472 
L 85.719216 134.961255 
L 85.841696 134.951272 
L 85.849861 134.960621 
L 86.111151 134.992243 
L 86.282623 135.045448 
L 86.44593 135.049986 
L 94.480617 136.011399 
L 94.66842 136.02774 
L 94.839892 136.098178 
L 95.019529 136.115932 
L 95.362473 136.136396 
L 95.623764 136.206806 
L 95.901385 136.24374 
L 96.162675 136.276707 
L 96.391305 136.280719 
L 96.628099 136.295417 
L 96.815902 136.319658 
L 97.191507 136.405322 
L 97.403806 136.384611 
L 97.534451 136.403692 
L 97.697758 136.428675 
L 98.767416 136.582902 
L 98.881731 136.565261 
L 99.543123 136.63195 
L 99.665603 136.664039 
L 99.869736 136.678697 
L 100.114696 136.703135 
L 100.269838 136.706783 
L 100.694435 136.789978 
L 101.208851 136.844292 
L 101.372157 136.872879 
L 101.951896 136.938538 
L 102.711272 137.058406 
L 102.841917 137.070417 
L 103.070547 137.092249 
L 103.470648 137.139197 
L 103.772765 137.171041 
L 104.074882 137.213778 
L 104.238189 137.210553 
L 104.474984 137.267106 
L 104.630125 137.280651 
L 104.834258 137.324785 
L 105.046557 137.337856 
L 105.226194 137.331058 
L 105.544642 137.393834 
L 105.716114 137.382612 
L 105.887586 137.44124 
L 106.059058 137.431624 
L 106.067224 137.442432 
L 108.810775 137.766951 
L 108.957751 137.81262 
L 109.104727 137.793272 
L 109.29253 137.805619 
L 110.664306 137.979416 
L 110.843943 138.009295 
L 110.958258 138.017199 
L 110.966423 138.028799 
L 111.14606 138.064389 
L 111.448177 138.090503 
L 111.872775 138.123578 
L 112.191223 138.148567 
L 113.081244 138.266297 
L 113.211889 138.273534 
L 113.220055 138.286517 
L 113.546668 138.326752 
L 113.799793 138.354403 
L 114.061084 138.390417 
L 114.265217 138.427898 
L 114.428524 138.45257 
L 114.567334 138.461219 
L 114.69798 138.472243 
L 114.926609 138.502604 
L 115.122577 138.501125 
L 115.383868 138.564645 
L 115.669654 138.58373 
L 115.857457 138.621566 
L 116.298385 138.654023 
L 119.188912 139.014648 
L 119.360384 139.023591 
L 119.564518 139.084349 
L 119.75232 139.101542 
L 121.140427 139.247407 
L 121.295568 139.26151 
L 121.46704 139.290924 
L 121.907968 139.33313 
L 122.063109 139.349776 
L 122.504037 139.397566 
L 122.675509 139.420877 
L 122.830651 139.43112 
L 123.140933 139.479516 
L 123.296075 139.509118 
L 123.467547 139.519807 
L 124.047285 139.577832 
L 124.210592 139.607913 
L 124.431056 139.644418 
L 125.108778 139.701481 
L 125.296581 139.740746 
L 125.443557 139.763092 
L 127.256261 139.970715 
L 128.317754 140.091402 
L 128.660698 140.148078 
L 128.799508 140.155447 
L 129.101626 140.183198 
L 131.102132 140.450593 
L 131.461407 140.505674 
L 131.828847 140.529992 
L 132.27794 140.574837 
L 132.506569 140.628944 
L 133.486409 140.737609 
L 133.657881 140.768881 
L 134.188628 140.840819 
L 134.523406 140.877766 
L 134.760201 140.88594 
L 134.964334 140.911086 
L 142.157992 141.92045 
L 142.590755 141.959356 
L 146.836727 142.547627 
L 147.571607 142.664061 
L 148.535117 142.796871 
L 148.747415 142.832253 
L 149.041367 142.886271 
L 149.482295 142.95271 
L 149.653767 142.966947 
L 150.658103 143.120528 
L 155.304177 143.829892 
L 155.75327 143.909025 
L 158.529483 144.376406 
L 160.889264 144.796806 
L 161.166886 144.850512 
L 161.828277 144.976412 
L 162.212048 145.05185 
L 163.028581 145.209124 
L 163.689973 145.344712 
L 164.171728 145.435429 
L 165.470016 145.721245 
L 168.123749 146.3536 
L 168.483023 146.444924 
L 172.173753 147.604757 
L 173.031113 148.050811 
L 173.031113 148.050811 
" clip-path="url(#p5bac2047c6)" style="fill: none; stroke: #e36f47"/>
   </g>
   <g id="text_15">
    <!-- CLS -->
    <g transform="translate(112.030488 14.354646) scale(0.15 -0.15)">
     <defs>
      <path id="DejaVuSans-43" d="M 4122 4306 
L 4122 3641 
Q 3803 3938 3442 4084 
Q 3081 4231 2675 4231 
Q 1875 4231 1450 3742 
Q 1025 3253 1025 2328 
Q 1025 1406 1450 917 
Q 1875 428 2675 428 
Q 3081 428 3442 575 
Q 3803 722 4122 1019 
L 4122 359 
Q 3791 134 3420 21 
Q 3050 -91 2638 -91 
Q 1578 -91 968 557 
Q 359 1206 359 2328 
Q 359 3453 968 4101 
Q 1578 4750 2638 4750 
Q 3056 4750 3426 4639 
Q 3797 4528 4122 4306 
z
" transform="scale(0.015625)"/>
      <path id="DejaVuSans-4c" d="M 628 4666 
L 1259 4666 
L 1259 531 
L 3531 531 
L 3531 0 
L 628 0 
L 628 4666 
z
" transform="scale(0.015625)"/>
      <path id="DejaVuSans-53" d="M 3425 4513 
L 3425 3897 
Q 3066 4069 2747 4153 
Q 2428 4238 2131 4238 
Q 1616 4238 1336 4038 
Q 1056 3838 1056 3469 
Q 1056 3159 1242 3001 
Q 1428 2844 1947 2747 
L 2328 2669 
Q 3034 2534 3370 2195 
Q 3706 1856 3706 1288 
Q 3706 609 3251 259 
Q 2797 -91 1919 -91 
Q 1588 -91 1214 -16 
Q 841 59 441 206 
L 441 856 
Q 825 641 1194 531 
Q 1563 422 1919 422 
Q 2459 422 2753 634 
Q 3047 847 3047 1241 
Q 3047 1584 2836 1778 
Q 2625 1972 2144 2069 
L 1759 2144 
Q 1053 2284 737 2584 
Q 422 2884 422 3419 
Q 422 4038 858 4394 
Q 1294 4750 2059 4750 
Q 2388 4750 2728 4690 
Q 3069 4631 3425 4513 
z
" transform="scale(0.015625)"/>
     </defs>
     <use xlink:href="#DejaVuSans-43"/>
     <use xlink:href="#DejaVuSans-4c" x="69.824219"/>
     <use xlink:href="#DejaVuSans-53" x="125.537109"/>
    </g>
   </g>
   <g id="line2d_27">
    <path d="M 39.258475 84.200454 
L 39.87904 83.731094 
L 40.818054 83.379799 
L 41.005856 83.435884 
L 41.201824 83.463933 
L 42.116341 84.082284 
L 42.393963 84.694683 
L 42.402128 84.677748 
L 42.459285 84.785645 
L 42.728741 85.382114 
L 42.736907 85.376705 
L 42.769568 85.459261 
L 42.785899 85.47563 
L 43.039024 86.186335 
L 43.782069 88.881606 
L 44.05969 90.192121 
L 44.574106 92.788242 
L 44.843562 94.427489 
L 45.856064 100.735791 
L 46.084693 102.17184 
L 46.705258 105.88847 
L 46.844069 106.60262 
L 47.097194 107.995732 
L 47.570783 110.174124 
L 49.146692 115.350597 
L 49.171188 115.402332 
L 49.179354 115.44948 
L 49.69377 116.701047 
L 49.701935 116.687171 
L 49.742762 116.796424 
L 49.750927 116.788245 
L 49.987722 117.283144 
L 50.036714 117.362316 
L 50.265343 117.860921 
L 50.869578 118.912368 
L 51.016553 119.153491 
L 51.024719 119.133971 
L 51.032884 119.1101 
L 51.098207 119.237898 
L 51.473812 119.725622 
L 51.596292 119.940985 
L 51.767764 120.091712 
L 51.824921 120.196923 
L 52.061716 120.506283 
L 52.069881 120.497913 
L 52.1597 120.583842 
L 52.265849 120.712536 
L 52.290345 120.704819 
L 52.363833 120.807831 
L 52.919076 121.326183 
L 53.115044 121.512607 
L 53.270185 121.73012 
L 53.368169 121.806784 
L 53.482484 121.905201 
L 53.498815 121.891161 
L 53.613129 122.029628 
L 53.653956 122.014566 
L 53.75194 122.085486 
L 53.964238 122.230958 
L 54.429662 122.650934 
L 54.535812 122.733664 
L 54.552142 122.700517 
L 54.846094 122.92958 
L 54.862425 122.91021 
L 54.87059 122.886869 
L 54.944078 123.01131 
L 55.058393 123.063121 
L 55.23803 123.17795 
L 55.262526 123.166624 
L 55.327849 123.229356 
L 55.48299 123.37193 
L 55.491156 123.362982 
L 55.499321 123.337934 
L 55.58914 123.403108 
L 55.801438 123.585463 
L 55.817769 123.568246 
L 55.891257 123.553974 
L 55.923918 123.603033 
L 56.103555 123.78898 
L 56.111721 123.759327 
L 56.201539 123.835995 
L 56.209705 123.820915 
L 56.283193 123.84802 
L 56.242366 123.852904 
L 56.291358 123.877324 
L 56.381177 124.00146 
L 56.430169 123.944018 
L 56.560814 124.015189 
L 57.205875 124.367347 
L 57.238537 124.423969 
L 57.287529 124.443026 
L 57.44267 124.592383 
L 57.532489 124.590766 
L 57.548819 124.618724 
L 57.728457 124.721232 
L 57.801945 124.79482 
L 57.981582 124.874935 
L 58.087731 124.892736 
L 58.006078 124.903188 
L 58.095897 124.903747 
L 58.291865 125.056958 
L 58.30003 125.046152 
L 58.308195 125.023199 
L 58.373518 125.10548 
L 58.406179 125.078546 
L 58.887934 125.307719 
L 58.904264 125.300755 
L 58.969587 125.357084 
L 59.092067 125.406748 
L 59.108398 125.386659 
L 59.181886 125.445702 
L 59.312531 125.519185 
L 62.137736 126.507735 
L 62.317373 126.547301 
L 62.448019 126.693992 
L 62.464349 126.680091 
L 62.995096 126.894808 
L 63.109411 126.905531 
L 63.158403 126.882326 
L 63.21556 126.937127 
L 63.403363 126.967397 
L 63.525843 126.982004 
L 64.766973 127.368579 
L 65.003768 127.445625 
L 65.322216 127.586241 
L 65.330381 127.574336 
L 65.428365 127.58815 
L 65.444696 127.613775 
L 65.526349 127.646221 
L 65.55901 127.606894 
L 65.66516 127.653163 
L 65.877458 127.7297 
L 65.885624 127.721055 
L 67.355383 128.101126 
L 67.388045 128.079923 
L 67.453367 128.150059 
L 67.633005 128.174184 
L 67.730989 128.199403 
L 67.739154 128.214175 
L 67.877965 128.261848 
L 67.88613 128.25488 
L 68.188247 128.345999 
L 68.302562 128.325483 
L 68.457703 128.376066 
L 68.792482 128.520432 
L 68.890466 128.511746 
L 68.898631 128.497119 
L 68.980284 128.454438 
L 69.00478 128.510016 
L 69.159922 128.505219 
L 69.266071 128.579095 
L 69.323228 128.610385 
L 69.37222 128.551065 
L 69.47837 128.599363 
L 69.486535 128.618348 
L 69.731495 128.711741 
L 69.853975 128.702533 
L 69.86214 128.722748 
L 69.992786 128.803606 
L 70.009116 128.791973 
L 70.22958 128.848241 
L 70.303068 128.839578 
L 70.327564 128.887567 
L 70.548028 128.880091 
L 70.686839 128.911665 
L 70.695004 128.901466 
L 71.070609 128.99407 
L 71.176759 129.029233 
L 71.184924 129.04164 
L 71.487041 129.103469 
L 71.519703 129.073947 
L 71.601356 129.102931 
L 73.422225 129.492248 
L 73.471217 129.481307 
L 73.512044 129.532733 
L 73.585532 129.555314 
L 73.618193 129.52828 
L 73.634524 129.510769 
L 73.724342 129.55804 
L 73.871318 129.581745 
L 74.050956 129.610601 
L 74.116278 129.547884 
L 74.181601 129.612758 
L 74.336742 129.685699 
L 74.589868 129.708623 
L 74.736844 129.706718 
L 74.851158 129.736225 
L 75.047126 129.792029 
L 75.096118 129.846258 
L 75.169606 129.796511 
L 75.300252 129.839876 
L 75.455393 129.888019 
L 75.749345 129.864166 
L 75.87999 129.962215 
L 75.945313 129.930258 
L 75.994305 129.953545 
L 76.916987 130.111681 
L 77.080294 130.15378 
L 78.45207 130.437386 
L 78.607211 130.452275 
L 78.737856 130.438112 
L 78.81951 130.444342 
L 78.844006 130.485963 
L 78.925659 130.537356 
L 78.974651 130.514623 
L 79.105296 130.523433 
L 79.235942 130.522678 
L 79.244107 130.503252 
L 79.317595 130.578041 
L 79.333926 130.565796 
L 79.513563 130.601433 
L 79.668704 130.62222 
L 79.832011 130.693925 
L 80.174955 130.745498 
L 80.362758 130.727465 
L 80.501568 130.782497 
L 80.526064 130.761566 
L 80.860843 130.812124 
L 81.105803 130.887639 
L 81.309936 130.89283 
L 81.783525 130.929218 
L 81.873344 130.955866 
L 81.881509 130.972327 
L 82.028485 131.010872 
L 82.175461 131.038463 
L 82.240784 131.071587 
L 82.281611 131.052953 
L 82.453083 131.066585 
L 82.608224 131.105421 
L 82.894011 131.157078 
L 82.951168 131.136294 
L 83.00016 131.199627 
L 83.130805 131.221855 
L 83.138971 131.216342 
L 83.269616 131.201267 
L 83.285947 131.221641 
L 83.85752 131.282444 
L 83.947338 131.323112 
L 83.955504 131.335115 
L 84.167802 131.388568 
L 86.192805 131.688006 
L 86.405103 131.722901 
L 86.552079 131.725618 
L 86.560245 131.735644 
L 86.911354 131.77917 
L 87.025669 131.794596 
L 87.932021 131.937715 
L 88.054501 131.932641 
L 88.217807 131.965176 
L 88.413775 131.997936 
L 88.577082 132.037152 
L 88.699562 132.09699 
L 88.89553 132.094725 
L 89.393615 132.158935 
L 89.703898 132.21214 
L 89.826378 132.230279 
L 90.006015 132.276017 
L 90.185652 132.297155 
L 90.357124 132.3288 
L 90.512266 132.366739 
L 90.700068 132.425347 
L 91.312468 132.464567 
L 91.630916 132.542108 
L 91.769727 132.54379 
L 92.676079 132.656972 
L 92.855716 132.679492 
L 93.035353 132.758703 
L 93.043519 132.751915 
L 93.19866 132.736454 
L 93.353801 132.793866 
L 93.484447 132.762336 
L 93.70491 132.821444 
L 93.909044 132.857065 
L 93.990697 132.904746 
L 94.031524 132.878266 
L 95.207332 132.991234 
L 95.313481 133.016183 
L 95.231828 133.023335 
L 95.321646 133.025409 
L 95.78707 133.074036 
L 96.081022 133.135477 
L 96.236163 133.160958 
L 96.374974 133.178977 
L 96.758745 133.217602 
L 96.848563 133.210165 
L 96.864894 133.227234 
L 96.979209 133.261317 
L 96.987374 133.248403 
L 97.077193 133.258474 
L 97.093523 133.281911 
L 97.207838 133.279836 
L 97.403806 133.303427 
L 97.534451 133.346082 
L 97.648766 133.354178 
L 97.656931 133.342683 
L 97.967214 133.385182 
L 102.384659 133.968692 
L 102.498973 133.972735 
L 102.507139 133.987599 
L 102.972563 134.066625 
L 103.086877 134.053607 
L 103.095043 134.04573 
L 103.201192 134.108155 
L 103.478813 134.152626 
L 103.584963 134.147407 
L 103.593128 134.151295 
L 103.715608 134.176678 
L 103.723773 134.166403 
L 103.846253 134.185342 
L 103.854418 134.197839 
L 104.02589 134.212324 
L 104.409661 134.243358 
L 104.801597 134.304034 
L 105.046557 134.282113 
L 105.201698 134.377829 
L 105.348674 134.366112 
L 105.658957 134.410447 
L 105.871256 134.45114 
L 107.961581 134.722157 
L 108.100391 134.721285 
L 108.345351 134.793389 
L 108.541319 134.800528 
L 109.847772 135.008534 
L 110.019244 135.026935 
L 111.750295 135.235224 
L 111.848279 135.24458 
L 111.872775 135.273864 
L 112.052412 135.304811 
L 112.640316 135.383516 
L 112.868945 135.422415 
L 113.073079 135.45774 
L 113.987596 135.606201 
L 114.118241 135.608046 
L 114.240721 135.648082 
L 118.952118 136.303381 
L 119.050102 136.329926 
L 119.082763 136.306103 
L 119.523691 136.375529 
L 119.654336 136.413565 
L 119.931958 136.432681 
L 125.549706 137.277229 
L 125.672186 137.292037 
L 125.859989 137.310897 
L 125.957973 137.356987 
L 126.219263 137.380442 
L 126.799002 137.478092 
L 126.945978 137.486151 
L 127.182773 137.547837 
L 127.582874 137.600396 
L 127.72985 137.61542 
L 127.925818 137.669723 
L 130.30193 138.023721 
L 130.408079 138.024502 
L 130.42441 138.042516 
L 131.404249 138.201797 
L 131.592052 138.235789 
L 132.163625 138.320373 
L 133.029151 138.451633 
L 133.388425 138.511199 
L 133.576228 138.512052 
L 133.706873 138.545634 
L 134.057982 138.595383 
L 134.196793 138.665513 
L 134.409092 138.675417 
L 134.539737 138.704769 
L 134.74387 138.724952 
L 134.882681 138.742469 
L 140.778051 139.784402 
L 140.818878 139.774929 
L 140.8842 139.811849 
L 141.080168 139.849344 
L 141.25164 139.888734 
L 142.468275 140.113741 
L 142.827549 140.165666 
L 143.031683 140.198738 
L 143.203155 140.23967 
L 143.366461 140.261208 
L 143.684909 140.331983 
L 144.08501 140.404471 
L 144.264648 140.439284 
L 144.485112 140.469468 
L 144.92604 140.548664 
L 145.18733 140.603346 
L 145.399629 140.64998 
L 145.620093 140.699791 
L 146.003864 140.752988 
L 146.420295 140.844398 
L 146.795901 140.885037 
L 147.032695 140.955539 
L 147.179671 140.979626 
L 147.702253 141.072526 
L 147.865559 141.098759 
L 148.028866 141.13253 
L 148.159511 141.178008 
L 148.722919 141.273805 
L 148.910722 141.288283 
L 149.425138 141.409449 
L 149.604775 141.42102 
L 149.866066 141.486476 
L 152.217681 141.977658 
L 152.55246 142.040887 
L 152.944396 142.106435 
L 153.107703 142.131667 
L 153.393489 142.21121 
L 153.826252 142.309012 
L 154.054881 142.343424 
L 155.434822 142.648379 
L 155.61446 142.673581 
L 167.470522 145.839691 
L 169.62617 146.561914 
L 170.736655 146.972241 
L 171.781817 147.392122 
L 172.965791 147.989631 
L 173.031113 148.050291 
L 173.031113 148.050291 
" clip-path="url(#p5bac2047c6)" style="fill: none; stroke: #3ea44e"/>
   </g>
   <g id="line2d_28">
    <path d="M 39.258475 100.16184 
L 41.855051 96.919138 
L 44.810901 93.469524 
L 45.243664 92.991201 
L 45.962213 92.201525 
L 46.231669 91.913054 
L 47.333989 90.782 
L 49.530463 89.016975 
L 49.57129 89.016047 
L 49.628447 88.974218 
L 50.44498 88.710612 
L 51.17986 88.736311 
L 51.318671 88.777311 
L 51.326836 88.762638 
L 51.392159 88.735417 
L 51.432985 88.774151 
L 51.596292 88.877496 
L 51.710607 88.926604 
L 51.931071 89.067255 
L 52.265849 89.455236 
L 53.155871 91.067788 
L 53.343673 91.563095 
L 53.392665 91.675002 
L 55.760612 100.408334 
L 56.250531 102.455315 
L 56.887427 104.975462 
L 57.116057 105.866507 
L 57.246702 106.412055 
L 58.504163 110.305803 
L 58.618478 110.622903 
L 59.361523 112.275185 
L 59.737128 112.899181 
L 59.916766 113.332721 
L 59.924931 113.311624 
L 59.990254 113.405701 
L 60.145395 113.683333 
L 60.15356 113.658948 
L 60.218883 113.796084 
L 60.292371 113.80162 
L 60.300536 113.855394 
L 60.472008 114.170319 
L 60.578158 114.182928 
L 60.586323 114.200728 
L 60.806787 114.431954 
L 60.823118 114.410923 
L 60.863944 114.529464 
L 61.125235 114.859276 
L 61.1334 114.835178 
L 61.370195 115.070124 
L 61.533501 115.298985 
L 61.786627 115.457419 
L 61.958099 115.646765 
L 62.007091 115.708327 
L 62.129571 115.856778 
L 62.137736 115.84477 
L 62.309208 115.936951 
L 62.464349 116.148508 
L 62.472515 116.144295 
L 63.076749 116.654966 
L 63.084915 116.64188 
L 63.09308 116.616705 
L 63.174733 116.709235 
L 63.378867 116.853713 
L 63.517677 117.01341 
L 63.542173 116.986984 
L 63.713645 117.091086 
L 63.852456 117.198372 
L 63.868786 117.176362 
L 64.023928 117.376709 
L 64.121912 117.371516 
L 64.138242 117.413346 
L 64.717981 117.752369 
L 64.8078 117.820346 
L 64.840461 117.786224 
L 64.962941 117.877352 
L 65.077256 118.037591 
L 65.118082 118.006912 
L 65.305885 118.164548 
L 65.363042 118.132381 
L 65.444696 118.232146 
L 65.452861 118.212282 
L 65.534514 118.294915 
L 65.697821 118.389435 
L 65.730482 118.407952 
L 65.820301 118.334743 
L 66.726653 118.877692 
L 66.775645 118.83788 
L 66.840967 118.893959 
L 67.355383 119.24589 
L 67.477863 119.189901 
L 67.486029 119.211365 
L 67.494194 119.201906 
L 67.51869 119.285467 
L 67.551351 119.303003 
L 68.25357 119.608508 
L 68.261735 119.586784 
L 68.318893 119.641105 
L 68.359719 119.627694 
L 68.531191 119.742747 
L 68.539357 119.713393 
L 68.670002 119.738136 
L 68.678167 119.760051 
L 68.702663 119.746864 
L 68.841474 119.881476 
L 68.906796 119.866734 
L 68.939458 119.925364 
L 69.184418 119.952516 
L 69.306898 120.0824 
L 69.315063 120.068569 
L 69.502866 120.104641 
L 69.788652 120.241145 
L 69.796818 120.210391 
L 69.870306 120.158925 
L 69.902967 120.239284 
L 70.156092 120.471709 
L 70.188754 120.430201 
L 70.303068 120.416669 
L 70.311234 120.432361 
L 70.45821 120.456108 
L 70.515367 120.391668 
L 70.564359 120.457627 
L 70.711335 120.574737 
L 70.735831 120.554343 
L 70.907303 120.546325 
L 70.915468 120.566717 
L 71.005287 120.660475 
L 71.037948 120.627457 
L 71.046114 120.611608 
L 71.070609 120.67416 
L 71.135932 120.674047 
L 71.291073 120.703682 
L 71.307404 120.654808 
L 71.348231 120.656881 
L 71.372727 120.718427 
L 71.478876 120.812238 
L 71.503372 120.789043 
L 71.568695 120.757822 
L 71.625852 120.796157 
L 71.650348 120.778832 
L 71.756497 120.821568 
L 71.846316 120.85212 
L 71.993292 121.005542 
L 72.164764 120.908964 
L 72.31174 121.015028 
L 72.360732 121.074928 
L 72.393393 121.068431 
L 72.426055 121.145548 
L 72.507708 121.067724 
L 72.515873 121.051006 
L 72.5567 121.111839 
L 72.605692 121.112548 
L 72.687345 121.130423 
L 72.630188 121.141477 
L 72.695511 121.173452 
L 72.834321 121.267421 
L 72.973132 121.219733 
L 73.120108 121.331961 
L 73.128273 121.318814 
L 73.275249 121.388678 
L 73.365068 121.327821 
L 73.53654 121.339019 
L 73.683516 121.446826 
L 73.716177 121.475154 
L 73.805996 121.429406 
L 73.961137 121.535498 
L 74.998134 121.763917 
L 75.02263 121.795945 
L 75.096118 121.806212 
L 75.26759 121.907549 
L 75.790172 121.957438 
L 75.977974 122.041981 
L 76.182107 122.050001 
L 76.288257 122.119652 
L 76.222934 122.030931 
L 76.312753 122.105367 
L 76.394406 122.168648 
L 76.525051 122.218482 
L 76.712854 122.158486 
L 76.729185 122.196586 
L 76.933318 122.265127 
L 76.949649 122.215833 
L 77.014971 122.361832 
L 77.080294 122.383526 
L 77.112955 122.309937 
L 77.406907 122.373232 
L 77.439569 122.340542 
L 77.488561 122.406998 
L 77.513057 122.405349 
L 77.586545 122.404266 
L 77.602875 122.360699 
L 77.611041 122.337644 
L 77.668198 122.411491 
L 77.700859 122.381017 
L 77.823339 122.45156 
L 77.83967 122.443729 
L 77.896827 122.465981 
L 77.856001 122.460607 
L 77.913158 122.503972 
L 77.945819 122.549628 
L 78.027473 122.484691 
L 78.419409 122.562952 
L 78.533723 122.595281 
L 78.599046 122.672879 
L 78.656203 122.637256 
L 78.770518 122.665036 
L 78.950155 122.753372 
L 79.0808 122.718981 
L 79.088966 122.729553 
L 79.456406 122.924285 
L 79.480902 122.848214 
L 79.55439 122.789037 
L 79.587051 122.870874 
L 79.734027 122.830764 
L 79.81568 122.937091 
L 79.864672 122.899122 
L 80.019814 122.93404 
L 80.150459 123.041979 
L 80.158624 123.033568 
L 80.281104 123.027594 
L 80.191286 122.997562 
L 80.28927 123.019261 
L 80.41175 123.019773 
L 80.419915 123.029341 
L 80.67304 123.129357 
L 80.746528 123.094034 
L 80.787355 123.122783 
L 81.007819 123.168384 
L 81.04048 123.136585 
L 81.089472 123.234358 
L 81.097637 123.223863 
L 81.367093 123.268361 
L 81.375259 123.249351 
L 81.489573 123.240328 
L 81.416085 123.295737 
L 81.497739 123.264828 
L 81.89784 123.431964 
L 81.922336 123.388692 
L 82.02032 123.404281 
L 81.954997 123.420771 
L 82.028485 123.416145 
L 82.63272 123.541128 
L 82.657216 123.524933 
L 82.763365 123.585975 
L 82.853184 123.581721 
L 82.869515 123.615677 
L 82.983829 123.626369 
L 82.991995 123.619337 
L 83.032821 123.619996 
L 83.016491 123.649814 
L 83.081813 123.685498 
L 83.196128 123.73584 
L 83.212459 123.71923 
L 83.49008 123.739711 
L 83.571733 123.8114 
L 83.61256 123.796735 
L 83.775866 123.805331 
L 83.808528 123.826925 
L 83.87385 123.76506 
L 83.882016 123.775538 
L 83.931008 123.778231 
L 83.971834 123.839019 
L 84.11881 123.87425 
L 84.567904 123.958909 
L 84.665888 123.944952 
L 84.674053 123.92693 
L 85.000666 124.018705 
L 85.123146 124.062719 
L 85.270122 124.119912 
L 85.433429 124.149421 
L 85.441594 124.138409 
L 85.702885 124.144273 
L 85.83353 124.211562 
L 86.029498 124.207159 
L 86.176474 124.295055 
L 86.682725 124.325165 
L 86.739882 124.405543 
L 86.797039 124.344853 
L 87.295125 124.491461 
L 87.311455 124.53031 
L 87.401274 124.493353 
L 87.899359 124.569798 
L 88.030005 124.581721 
L 88.095327 124.613678 
L 88.136154 124.603619 
L 88.291295 124.729282 
L 88.421941 124.696793 
L 88.430106 124.721708 
L 88.495429 124.782105 
L 88.544421 124.722841 
L 88.732223 124.762738 
L 88.77305 124.745464 
L 88.830207 124.806283 
L 88.871034 124.843153 
L 88.944522 124.792704 
L 89.516095 124.881434 
L 89.556922 124.85916 
L 89.64674 124.950281 
L 89.728394 124.862405 
L 89.761055 124.95568 
L 89.801882 124.998185 
L 89.826378 124.918169 
L 89.87537 124.938934 
L 90.038676 124.924449 
L 90.577588 125.118475 
L 90.667407 125.06728 
L 90.691903 125.081261 
L 90.904202 125.151494 
L 90.920532 125.113115 
L 91.010351 125.165751 
L 91.198153 125.216622 
L 91.459444 125.307166 
L 91.573759 125.253686 
L 91.590089 125.269728 
L 91.720735 125.340443 
L 91.737065 125.376125 
L 91.761561 125.306872 
L 91.826884 125.310104 
L 93.010857 125.532239 
L 93.07618 125.538497 
L 93.051684 125.554584 
L 93.108841 125.571805 
L 93.304809 125.641895 
L 93.44362 125.650449 
L 93.459951 125.623769 
L 93.664084 125.650938 
L 93.786564 125.665893 
L 93.794729 125.641625 
L 93.860052 125.723842 
L 93.884548 125.707132 
L 95.272654 125.99026 
L 95.28082 126.015081 
L 95.362473 125.935892 
L 95.378804 125.9622 
L 95.52578 125.960817 
L 95.533945 125.988106 
L 95.672756 126.016585 
L 95.680921 125.999653 
L 95.958542 126.082113 
L 96.081022 126.076287 
L 96.195337 126.156631 
L 96.227998 126.122555 
L 96.293321 126.134157 
L 96.325982 126.184741 
L 96.587273 126.208499 
L 96.628099 126.16756 
L 96.693422 126.237213 
L 96.807737 126.233911 
L 96.864894 126.205949 
L 96.913886 126.243252 
L 96.987374 126.288577 
L 97.020035 126.233923 
L 97.109854 126.1575 
L 97.13435 126.195892 
L 97.420137 126.367778 
L 97.444633 126.33091 
L 97.983545 126.403406 
L 98.024371 126.427729 
L 98.097859 126.418921 
L 98.383646 126.46486 
L 98.391811 126.446604 
L 98.612275 126.50094 
L 98.734755 126.570628 
L 98.751086 126.554733 
L 99.428808 126.67583 
L 99.575784 126.667401 
L 99.747256 126.772133 
L 99.763587 126.757119 
L 99.902398 126.753549 
L 99.910563 126.773998 
L 100.033043 126.843559 
L 100.07387 126.79688 
L 100.204515 126.784429 
L 100.21268 126.801331 
L 103.307341 127.256477 
L 103.331837 127.2328 
L 103.39716 127.314541 
L 103.78093 127.405294 
L 103.90341 127.393718 
L 104.058552 127.464183 
L 104.197362 127.523432 
L 104.344338 127.483053 
L 104.377 127.467999 
L 104.409661 127.529819 
L 104.450488 127.515506 
L 104.572968 127.570124 
L 104.605629 127.526928 
L 104.736274 127.501302 
L 104.74444 127.513391 
L 104.817928 127.526489 
L 104.834258 127.561278 
L 104.997565 127.633426 
L 105.201698 127.660043 
L 105.35684 127.737027 
L 105.365005 127.728365 
L 105.503816 127.714676 
L 106.165207 127.83363 
L 106.320349 127.864117 
L 106.483655 127.929126 
L 106.622466 127.876316 
L 106.638797 127.85288 
L 106.72045 127.925654 
L 106.998071 127.894287 
L 107.243031 127.938024 
L 107.349181 127.978573 
L 107.471661 128.04404 
L 107.496157 128.010662 
L 107.651298 128.01917 
L 107.994242 128.118862 
L 108.100391 128.069447 
L 108.124887 128.117813 
L 108.263698 128.104347 
L 108.271863 128.126852 
L 108.418839 128.210898 
L 108.427005 128.193363 
L 108.810775 128.245684 
L 108.94142 128.286903 
L 108.982247 128.269035 
L 109.072066 128.330272 
L 109.235372 128.27323 
L 109.455836 128.375115 
L 109.668135 128.369113 
L 109.79878 128.410453 
L 109.937591 128.348017 
L 109.945756 128.354653 
L 110.305031 128.469326 
L 110.435676 128.451489 
L 110.647975 128.555672 
L 110.917431 128.58727 
L 111.080738 128.597888 
L 111.105234 128.56726 
L 111.195052 128.5997 
L 111.317532 128.656139 
L 111.325697 128.642189 
L 111.5135 128.686205 
L 111.619649 128.708024 
L 111.644145 128.685061 
L 111.913601 128.741952 
L 112.223884 128.789011 
L 112.37086 128.859466 
L 113.579329 129.034458 
L 113.669148 129.084972 
L 113.701809 129.052084 
L 114.003926 129.094048 
L 114.036588 129.102838 
L 114.077414 129.177221 
L 114.199894 129.183647 
L 114.240721 129.133074 
L 114.306044 129.184137 
L 114.412193 129.21383 
L 114.428524 129.197875 
L 114.616326 129.230763 
L 114.763302 129.289601 
L 114.910278 129.266151 
L 114.918444 129.27661 
L 115.08175 129.332489 
L 115.212396 129.338675 
L 115.351206 129.349129 
L 115.661489 129.39326 
L 115.767638 129.395104 
L 115.775804 129.406227 
L 116.069756 129.523216 
L 116.077921 129.502586 
L 116.216731 129.536541 
L 116.584171 129.598743 
L 116.649494 129.614862 
L 116.690321 129.568992 
L 117.098587 129.658471 
L 117.204737 129.728186 
L 117.335382 129.752077 
L 117.498689 129.7801 
L 117.621169 129.789475 
L 117.988609 129.837494 
L 118.135585 129.916531 
L 118.151915 129.894486 
L 118.38871 129.887591 
L 118.437702 129.894445 
L 118.486694 129.945744 
L 118.731654 130.024363 
L 118.788811 130.062084 
L 118.845968 130.03112 
L 119.115424 130.145556 
L 119.164416 130.073835 
L 119.237904 130.110229 
L 119.466534 130.126156 
L 119.621675 130.137965 
L 119.768651 130.175197 
L 119.776816 130.167267 
L 120.046272 130.209301 
L 120.168752 130.257586 
L 120.462704 130.307909 
L 120.626011 130.388525 
L 121.156758 130.512233 
L 121.262907 130.475596 
L 121.279237 130.500072 
L 121.524197 130.5543 
L 121.883472 130.668471 
L 121.989621 130.676368 
L 121.907968 130.652967 
L 122.005952 130.659418 
L 122.308069 130.72423 
L 122.389723 130.731443 
L 122.414219 130.748948 
L 123.091941 130.843106 
L 123.132768 130.900957 
L 123.206256 130.845041 
L 123.418555 130.912814 
L 123.42672 130.899073 
L 123.581861 130.981641 
L 123.761498 130.959857 
L 123.949301 131.02359 
L 124.063616 131.081457 
L 124.071781 131.071549 
L 124.480048 131.09847 
L 124.610693 131.156291 
L 124.765834 131.206271 
L 124.774 131.190269 
L 124.855653 131.241842 
L 124.986298 131.272883 
L 125.051621 131.244655 
L 125.092448 131.275626 
L 125.231258 131.322729 
L 125.239424 131.30123 
L 125.451722 131.361272 
L 125.582368 131.364323 
L 125.77017 131.354239 
L 125.900816 131.397366 
L 126.129445 131.481558 
L 126.464223 131.553735 
L 126.725514 131.57108 
L 126.856159 131.579605 
L 127.043962 131.650617 
L 127.36241 131.701553 
L 127.435898 131.707589 
L 127.460394 131.748186 
L 127.493055 131.720969 
L 127.623701 131.805322 
L 127.713519 131.794146 
L 127.738015 131.81897 
L 127.884991 131.854999 
L 128.09729 131.871664 
L 128.195274 131.883601 
L 128.211605 131.869678 
L 128.366746 131.922737 
L 128.521887 131.984014 
L 128.619871 131.974053 
L 128.636202 132.008102 
L 128.775012 132.004646 
L 142.688739 135.396656 
L 142.917368 135.428832 
L 143.015352 135.436979 
L 143.031683 135.456065 
L 143.194989 135.541263 
L 143.268477 135.521232 
L 143.309304 135.554904 
L 143.472611 135.581408 
L 143.782893 135.655588 
L 144.19116 135.792923 
L 144.501442 135.868582 
L 144.640253 135.89348 
L 144.754568 135.947346 
L 144.958701 135.997058 
L 145.073016 136.046359 
L 145.219992 136.086466 
L 145.383298 136.111552 
L 145.513944 136.140093 
L 145.66092 136.217301 
L 145.963037 136.27558 
L 146.240658 136.373648 
L 146.624429 136.501364 
L 146.738743 136.520069 
L 146.918381 136.615406 
L 147.702253 136.803921 
L 150.34782 137.696019 
L 150.57645 137.74903 
L 150.878567 137.846867 
L 151.564455 138.026795 
L 151.703265 138.067496 
L 151.948225 138.160618 
L 152.201351 138.255751 
L 152.952561 138.501899 
L 153.140364 138.574305 
L 153.28734 138.623009 
L 153.295505 138.617658 
L 153.556796 138.749878 
L 153.834417 138.809812 
L 154.569297 139.079045 
L 155.091878 139.273502 
L 155.279681 139.326842 
L 155.475649 139.403412 
L 155.622625 139.460906 
L 155.87575 139.573983 
L 156.153372 139.679946 
L 156.888251 139.928208 
L 157.018897 139.998794 
L 157.34551 140.136776 
L 157.492486 140.193803 
L 158.309019 140.488825 
L 158.856096 140.699549 
L 159.052064 140.806965 
L 159.509323 140.998926 
L 159.599142 141.012791 
L 159.615472 141.032931 
L 159.835936 141.121033 
L 159.950251 141.164988 
L 160.16255 141.259512 
L 160.30136 141.314874 
L 160.660635 141.465392 
L 161.224043 141.711582 
L 162.195717 142.146781 
L 162.497835 142.26586 
L 162.865275 142.427251 
L 163.404187 142.689918 
L 163.591989 142.753382 
L 163.771627 142.823178 
L 164.11457 143.006093 
L 164.286042 143.061591 
L 165.061749 143.441261 
L 165.314874 143.554855 
L 166.07425 143.926097 
L 166.433525 144.113233 
L 168.295221 145.096874 
L 168.52385 145.21821 
L 169.618004 145.842074 
L 170.508026 146.362944 
L 171.757321 147.142463 
L 172.353391 147.544643 
L 173.031113 148.049304 
L 173.031113 148.049304 
" clip-path="url(#p5bac2047c6)" style="fill: none; stroke: #c371d2"/>
   </g>
   <g id="line2d_29">
    <path d="M 39.258475 116.123226 
L 42.606261 110.737689 
L 45.994874 105.641465 
L 50.787924 99.081437 
L 52.853753 96.498991 
L 53.87442 95.282226 
L 54.73178 94.295234 
L 55.580974 93.359015 
L 56.079059 92.818457 
L 56.846601 92.040996 
L 57.050734 91.838646 
L 57.312025 91.592193 
L 59.353358 90.193311 
L 60.38219 89.965934 
L 60.863944 90.099979 
L 60.896606 90.06619 
L 60.953763 90.139034 
L 60.961928 90.13744 
L 61.460013 90.474852 
L 61.598824 90.580033 
L 61.606989 90.575823 
L 61.615155 90.556501 
L 61.688643 90.646538 
L 61.696808 90.635589 
L 61.860115 90.82128 
L 62.088744 91.055856 
L 62.292877 91.360225 
L 62.309208 91.350758 
L 62.333704 91.423875 
L 62.3582 91.434918 
L 63.542173 94.01911 
L 63.811629 94.699799 
L 64.1954 95.802971 
L 64.203565 95.786143 
L 64.268888 95.958549 
L 64.522013 96.550747 
L 64.595501 96.744066 
L 65.771309 100.58897 
L 65.779474 100.584636 
L 65.78764 100.563448 
L 65.836632 100.727077 
L 66.473527 102.599327 
L 66.898125 103.589592 
L 67.061431 103.982953 
L 67.094093 104.090407 
L 67.339053 104.649445 
L 67.469698 104.886242 
L 67.608509 105.138495 
L 67.633005 105.132484 
L 67.673831 105.234899 
L 67.845303 105.602794 
L 67.869799 105.661262 
L 68.024941 106.02811 
L 68.033106 106.01664 
L 68.196413 106.434008 
L 68.433207 106.895199 
L 68.441373 106.880601 
L 68.506695 106.983913 
L 68.857804 107.59563 
L 69.086434 108.025266 
L 69.24974 108.097773 
L 69.404882 108.281749 
L 69.413047 108.231742 
L 69.4947 108.403028 
L 69.690668 108.619994 
L 69.698834 108.586823 
L 69.772322 108.699455 
L 69.951959 108.980121 
L 70.074439 109.190171 
L 70.237746 109.373157 
L 70.254076 109.348636 
L 70.262242 109.326641 
L 70.311234 109.437646 
L 70.327564 109.438555 
L 70.482706 109.63483 
L 71.389057 110.560083 
L 71.397223 110.539345 
L 71.470711 110.646425 
L 71.642183 110.886453 
L 71.658513 110.852461 
L 71.756497 110.904279 
L 71.903473 111.021949 
L 71.927969 111.001661 
L 72.107607 111.219176 
L 72.254583 111.245302 
L 72.270913 111.221431 
L 72.336236 111.321854 
L 72.475047 111.48204 
L 72.532204 111.532439 
L 72.589361 111.473635 
L 72.687345 111.494669 
L 72.866983 111.844216 
L 72.875148 111.838116 
L 72.997628 111.726884 
L 73.013959 111.753778 
L 73.152769 112.005039 
L 73.177265 111.98442 
L 73.201761 111.910365 
L 73.275249 112.036739 
L 73.381399 112.191899 
L 73.41406 112.157755 
L 73.454887 112.103919 
L 73.520209 112.142618 
L 73.65902 112.335087 
L 73.691681 112.318815 
L 73.699846 112.29419 
L 73.740673 112.342271 
L 73.789665 112.345234 
L 74.034625 112.514113 
L 74.075452 112.475499 
L 74.124444 112.592292 
L 74.246924 112.565708 
L 74.255089 112.582967 
L 74.369404 112.671195 
L 74.377569 112.65438 
L 74.491884 112.621588 
L 74.500049 112.658947 
L 74.696017 112.877342 
L 74.720513 112.843904 
L 74.826662 112.938062 
L 75.63503 113.417611 
L 75.675857 113.371979 
L 75.75751 113.461864 
L 75.814668 113.397366 
L 75.871825 113.433561 
L 75.888156 113.404374 
L 75.937148 113.494412 
L 75.977974 113.452481 
L 76.100454 113.479891 
L 76.500555 113.799107 
L 76.516886 113.759263 
L 76.663862 113.737834 
L 76.680193 113.764193 
L 76.85983 113.981888 
L 77.210939 114.089537 
L 77.300758 114.126646 
L 77.341585 114.05529 
L 77.34975 114.042029 
L 77.398742 114.147555 
L 77.406907 114.150997 
L 77.529387 114.197113 
L 77.537553 114.187961 
L 77.676363 114.252041 
L 77.758017 114.229459 
L 77.790678 114.25539 
L 77.986646 114.390255 
L 77.815174 114.231748 
L 78.002977 114.365383 
L 78.043803 114.341691 
L 78.08463 114.42111 
L 78.20711 114.541433 
L 78.223441 114.521515 
L 78.786848 114.736339 
L 78.803179 114.790408 
L 78.901163 114.736271 
L 78.990982 114.765391 
L 78.999147 114.81012 
L 79.146123 114.810226 
L 79.211446 114.78148 
L 79.252272 114.83052 
L 79.538059 115.054846 
L 79.603382 115.024055 
L 79.55439 115.066442 
L 79.644208 115.076878 
L 80.04431 115.250825 
L 80.06064 115.208862 
L 80.085136 115.17982 
L 80.134128 115.267645 
L 80.16679 115.240818 
L 80.354592 115.279307 
L 80.640379 115.455879 
L 80.754694 115.392408 
L 80.771024 115.422389 
L 80.893504 115.532167 
L 80.909835 115.511292 
L 80.926166 115.483798 
L 80.991488 115.589196 
L 80.999654 115.58564 
L 81.179291 115.574477 
L 81.277275 115.557482 
L 81.228283 115.60282 
L 81.293605 115.57833 
L 81.685541 115.699715 
L 81.693707 115.678494 
L 81.77536 115.746651 
L 81.783525 115.729781 
L 81.938667 115.780502 
L 82.028485 115.86198 
L 82.502075 115.940318 
L 82.51024 116.00595 
L 82.591893 115.915809 
L 82.608224 115.917015 
L 82.7552 116.004178 
L 82.763365 115.996947 
L 82.845019 115.908793 
L 82.894011 115.984419 
L 82.991995 116.081787 
L 83.008325 116.037729 
L 83.016491 116.011321 
L 83.065483 116.06592 
L 83.106309 116.052859 
L 83.236955 116.126847 
L 83.285947 116.105768 
L 83.310443 116.188368 
L 83.375765 116.199822 
L 83.334939 116.177913 
L 83.416592 116.179072 
L 83.947338 116.357485 
L 84.020826 116.313265 
L 84.061653 116.365202 
L 84.282117 116.432265 
L 84.290282 116.411679 
L 84.478085 116.381367 
L 84.48625 116.398069 
L 84.641392 116.551936 
L 84.83736 116.531333 
L 85.041493 116.654241 
L 85.049658 116.647578 
L 85.196634 116.588634 
L 85.2048 116.595221 
L 85.392602 116.755971 
L 85.408933 116.736317 
L 86.886858 117.070689 
L 87.05833 117.172562 
L 87.066495 117.162805 
L 87.254298 117.111091 
L 87.393109 117.241309 
L 87.42577 117.217964 
L 87.491093 117.183327 
L 87.540085 117.25207 
L 87.662565 117.291076 
L 87.752383 117.23243 
L 87.776879 117.27593 
L 87.981013 117.403719 
L 88.005509 117.356635 
L 88.144319 117.310217 
L 88.16065 117.33114 
L 88.258634 117.374728 
L 88.266799 117.388897 
L 88.28313 117.372993 
L 88.421941 117.423134 
L 88.560751 117.423228 
L 88.462767 117.482281 
L 88.568917 117.451801 
L 88.617908 117.491663 
L 88.675066 117.456452 
L 88.748554 117.408768 
L 88.781215 117.476901 
L 88.977183 117.585505 
L 88.985348 117.577593 
L 89.115994 117.554082 
L 89.222143 117.560863 
L 89.164986 117.613926 
L 89.230308 117.567091 
L 89.344623 117.669288 
L 89.38545 117.702829 
L 89.426276 117.621678 
L 89.450772 117.636539 
L 89.589583 117.6732 
L 89.687567 117.688622 
L 89.703898 117.674304 
L 91.916703 118.193464 
L 91.990191 118.157265 
L 92.014687 118.241897 
L 92.145332 118.255982 
L 92.259647 118.169645 
L 92.275977 118.205162 
L 92.308639 118.242312 
L 92.382127 118.223397 
L 92.537268 118.275488 
L 92.757732 118.374489 
L 92.855716 118.459168 
L 92.912873 118.413777 
L 93.165999 118.420534 
L 93.174164 118.446431 
L 93.247652 118.556762 
L 93.296644 118.496525 
L 93.508943 118.525582 
L 93.517108 118.613171 
L 93.623257 118.566388 
L 93.721241 118.528375 
L 93.745737 118.570295 
L 93.868217 118.628792 
L 93.884548 118.604736 
L 94.007028 118.593449 
L 94.015193 118.619902 
L 94.162169 118.676402 
L 94.186665 118.650735 
L 94.480617 118.693776 
L 94.872553 118.780189 
L 94.986868 118.856569 
L 94.995033 118.835745 
L 95.084852 118.863386 
L 95.117513 118.810867 
L 95.264489 118.819785 
L 95.435961 118.951893 
L 95.533945 118.921055 
L 95.493118 118.98271 
L 95.558441 118.936347 
L 95.746244 118.888265 
L 95.77074 118.907775 
L 95.868724 118.892835 
L 96.048361 119.048153 
L 96.113684 119.053113 
L 96.097353 119.092069 
L 96.138179 119.113272 
L 96.195337 119.138867 
L 96.236163 119.090436 
L 96.268825 119.028021 
L 96.350478 119.095766 
L 96.415801 119.121865 
L 96.383139 119.139357 
L 96.440297 119.15621 
L 96.497454 119.206287 
L 96.554611 119.16117 
L 96.726083 119.099326 
L 96.750579 119.143081 
L 96.864894 119.150651 
L 96.873059 119.137697 
L 96.897555 119.091534 
L 96.987374 119.13101 
L 97.060862 119.114974 
L 97.093523 119.166795 
L 97.216003 119.198831 
L 97.338483 119.26971 
L 97.632435 119.320821 
L 97.787577 119.28794 
L 97.795742 119.325781 
L 98.367315 119.430595 
L 98.424473 119.474035 
L 98.489795 119.433658 
L 98.571449 119.542956 
L 98.620441 119.482717 
L 98.685763 119.4277 
L 98.734755 119.473274 
L 98.759251 119.469814 
L 98.800078 119.55137 
L 98.808243 119.552066 
L 98.914392 119.481085 
L 98.938888 119.478164 
L 98.979715 119.550015 
L 99.143022 119.653124 
L 99.657438 119.675138 
L 99.673768 119.704864 
L 99.70643 119.618438 
L 99.763587 119.655861 
L 99.771752 119.635401 
L 99.837075 119.769867 
L 100.016712 119.728215 
L 100.024878 119.738648 
L 100.188184 119.728465 
L 100.21268 119.764649 
L 100.286168 119.765035 
L 100.522963 119.908318 
L 100.678104 119.87642 
L 100.800584 119.936197 
L 100.82508 119.910779 
L 101.094536 119.90476 
L 101.290504 119.972636 
L 101.306835 119.948151 
L 101.355827 120.015927 
L 101.388488 120.012721 
L 101.486472 120.132849 
L 101.527299 120.064948 
L 101.617117 120.014679 
L 101.551795 120.091572 
L 101.657944 120.079658 
L 101.935565 120.086208 
L 101.943731 120.068727 
L 101.976392 120.150806 
L 102.017219 120.131434 
L 102.131533 120.171586 
L 102.139699 120.150749 
L 102.221352 120.161623 
L 102.262179 120.129124 
L 102.507139 120.195407 
L 102.645949 120.195229 
L 102.792925 120.305357 
L 102.809256 120.334729 
L 102.858248 120.276587 
L 102.899075 120.290915 
L 104.981234 120.651094 
L 105.054722 120.675097 
L 105.095549 120.637826 
L 106.059058 120.822769 
L 106.083554 120.78929 
L 106.10805 120.863235 
L 106.157042 120.846227 
L 106.263191 120.948031 
L 106.287687 120.907331 
L 106.295853 120.893886 
L 106.35301 120.947859 
L 106.377506 120.952903 
L 106.426498 121.013352 
L 106.483655 120.930821 
L 106.59797 120.932964 
L 106.712285 120.985474 
L 106.72045 120.967523 
L 106.744946 120.928203 
L 106.802103 121.04525 
L 107.438999 121.190625 
L 107.545149 121.199734 
L 107.496157 121.160085 
L 107.553314 121.18565 
L 107.683959 121.203139 
L 107.82277 121.189401 
L 109.602812 121.596266 
L 109.6763 121.547549 
L 109.717127 121.590756 
L 109.888599 121.572 
L 110.076402 121.676031 
L 110.419346 121.676432 
L 110.509164 121.724889 
L 110.541826 121.68983 
L 110.65614 121.761492 
L 110.672471 121.769913 
L 110.729628 121.715023 
L 110.754124 121.712057 
L 111.186887 121.870494 
L 111.293036 121.948864 
L 111.333863 121.902794 
L 111.652311 121.999096 
L 111.750295 122.027522 
L 111.774791 122.006613 
L 111.978924 122.013592 
L 112.027916 121.993546 
L 112.068743 122.057064 
L 112.076908 122.055364 
L 113.309873 122.273531 
L 113.489511 122.27995 
L 113.660983 122.405186 
L 113.669148 122.388611 
L 113.807958 122.441873 
L 113.85695 122.395291 
L 113.946769 122.485579 
L 114.363201 122.577962 
L 114.485681 122.555743 
L 114.616326 122.610538 
L 114.632657 122.600724 
L 114.657153 122.555648 
L 114.738806 122.637972 
L 114.885782 122.610268 
L 114.975601 122.675779 
L 115.008262 122.65182 
L 115.147073 122.73709 
L 115.155238 122.727422 
L 115.20423 122.700384 
L 115.253222 122.770651 
L 115.343041 122.816563 
L 115.359372 122.776398 
L 115.424694 122.765754 
L 115.465521 122.784385 
L 115.636993 122.817579 
L 115.645158 122.805461 
L 115.710481 122.852421 
L 115.751308 122.829102 
L 115.849292 122.894208 
L 116.143244 122.93078 
L 116.257558 122.912332 
L 116.502518 122.938964 
L 116.559675 122.975445 
L 116.608667 122.92406 
L 116.722982 122.971469 
L 116.845462 123.105987 
L 116.869958 123.089474 
L 117.074091 123.144623 
L 117.098587 123.192639 
L 117.180241 123.175185 
L 117.270059 123.218328 
L 117.302721 123.190163 
L 117.400705 123.184102 
L 117.417035 123.213366 
L 117.661995 123.223566 
L 118.298891 123.355936 
L 118.38871 123.359952 
L 118.405041 123.392867 
L 118.617339 123.467611 
L 118.625505 123.448975 
L 118.63367 123.418254 
L 118.674497 123.472149 
L 118.723488 123.479253 
L 118.870464 123.546096 
L 119.009275 123.489036 
L 119.213408 123.63848 
L 119.335888 123.603045 
L 119.442038 123.603335 
L 119.450203 123.594983 
L 119.597179 123.614833 
L 119.784982 123.753968 
L 119.915627 123.760233 
L 119.923792 123.785306 
L 119.98095 123.815253 
L 120.038107 123.777316 
L 120.34839 123.833968 
L 120.372886 123.806481 
L 120.454539 123.858528 
L 120.47087 123.904294 
L 120.560688 123.854262 
L 120.805648 123.94367 
L 120.952624 124.060747 
L 121.075104 124.031526 
L 121.213915 124.081034 
L 121.311899 124.0288 
L 121.352725 124.062699 
L 122.3244 124.269301 
L 122.406053 124.257287 
L 122.430549 124.302319 
L 122.757163 124.397876 
L 122.863312 124.407772 
L 122.871477 124.425999 
L 123.067445 124.477891 
L 123.704341 124.61992 
L 123.720672 124.603692 
L 123.892144 124.714906 
L 123.981962 124.644043 
L 124.014624 124.680914 
L 124.05545 124.747612 
L 124.145269 124.709959 
L 124.235088 124.757605 
L 124.243253 124.775468 
L 124.414725 124.834703 
L 124.618858 124.886139 
L 124.733173 124.907755 
L 124.839322 124.877849 
L 124.863818 124.916062 
L 125.125109 125.012292 
L 125.255754 124.993981 
L 125.353738 125.058127 
L 125.492549 125.08436 
L 125.574202 125.04481 
L 125.615029 125.085193 
L 125.737509 125.129438 
L 125.827328 125.153504 
L 125.835493 125.162124 
L 125.957973 125.188324 
L 125.966138 125.172887 
L 126.01513 125.156928 
L 126.064122 125.211332 
L 126.292751 125.332453 
L 126.423397 125.264225 
L 126.431562 125.278566 
L 126.603034 125.346774 
L 126.472389 125.240056 
L 126.611199 125.338811 
L 127.076623 125.48161 
L 127.166442 125.532518 
L 127.305253 125.609089 
L 127.313418 125.605266 
L 127.460394 125.580339 
L 127.656362 125.683697 
L 127.787007 125.695172 
L 127.97481 125.726627 
L 128.072794 125.720095 
L 128.080959 125.753313 
L 128.440234 125.831995 
L 128.448399 125.812604 
L 128.554549 125.842363 
L 128.758682 125.988388 
L 128.881162 125.97525 
L 129.011807 126.007201 
L 129.052634 126.03723 
L 129.109791 126.044778 
L 129.232271 126.05023 
L 129.313924 126.090413 
L 129.281263 126.10024 
L 129.32209 126.104021 
L 129.477231 126.110787 
L 129.591546 126.129251 
L 129.599711 126.146801 
L 129.926324 126.282233 
L 129.93449 126.26195 
L 130.024308 126.286427 
L 130.007978 126.319401 
L 130.032474 126.292589 
L 130.114127 126.311675 
L 130.146788 126.290184 
L 130.31826 126.385436 
L 130.481567 126.464106 
L 130.489732 126.435089 
L 130.579551 126.520896 
L 131.17562 126.657317 
L 131.257273 126.72148 
L 131.289935 126.649011 
L 133.225119 127.205914 
L 133.233284 127.18126 
L 133.314937 127.288093 
L 133.331268 127.270804 
L 133.363929 127.330429 
L 133.396591 127.338265 
L 133.535401 127.38384 
L 133.649716 127.312649 
L 133.666047 127.335571 
L 133.821188 127.452591 
L 133.837518 127.429381 
L 134.098809 127.562077 
L 134.188628 127.540199 
L 134.204958 127.576647 
L 134.327438 127.627718 
L 134.523406 127.710672 
L 134.596894 127.648324 
L 134.645886 127.69322 
L 134.890846 127.774715 
L 135.078649 127.899235 
L 135.09498 127.870799 
L 135.176633 127.86326 
L 135.201129 127.882515 
L 135.33994 127.964191 
L 135.348105 127.95006 
L 135.486916 127.992823 
L 135.593065 128.006531 
L 135.519577 127.963889 
L 135.609396 127.992986 
L 135.682884 128.069109 
L 135.84619 128.143022 
L 135.878852 128.10116 
L 136.229961 128.200686 
L 136.303449 128.285198 
L 136.352441 128.261552 
L 136.45859 128.245405 
L 136.466755 128.270584 
L 136.474921 128.257191 
L 136.515747 128.323964 
L 136.548409 128.338424 
L 136.679054 128.400664 
L 136.687219 128.382339 
L 136.82603 128.410878 
L 137.021998 128.456223 
L 136.850526 128.379207 
L 137.030163 128.440461 
L 137.250627 128.499188 
L 140.998515 129.8541 
L 141.120995 129.903359 
L 141.300632 129.923357 
L 141.627245 130.072738 
L 141.635411 130.061044 
L 141.733395 130.065447 
L 141.749725 130.081942 
L 141.896701 130.145237 
L 142.321299 130.325634 
L 142.394787 130.31751 
L 142.427448 130.30013 
L 142.754061 130.502944 
L 142.762227 130.491155 
L 142.827549 130.48383 
L 142.803053 130.512259 
L 142.860211 130.537921 
L 143.113336 130.65104 
L 143.374627 130.73395 
L 143.562429 130.829478 
L 143.913538 130.924654 
L 144.06868 130.950631 
L 144.231986 131.106131 
L 144.256482 131.071824 
L 144.362632 131.136579 
L 144.762733 131.269472 
L 144.901544 131.33442 
L 144.909709 131.322408 
L 144.917874 131.30775 
L 144.999528 131.384943 
L 148.37181 132.812963 
L 148.502455 132.828066 
L 149.204674 133.128511 
L 149.392476 133.203347 
L 149.47413 133.284996 
L 149.906892 133.451848 
L 150.078364 133.561785 
L 150.08653 133.551352 
L 150.22534 133.573828 
L 151.605281 134.23499 
L 151.654273 134.247964 
L 151.686935 134.296927 
L 151.850241 134.386698 
L 151.964556 134.472663 
L 152.005383 134.442191 
L 152.144193 134.486546 
L 152.536129 134.688423 
L 152.650444 134.706971 
L 152.772924 134.818647 
L 152.805585 134.79997 
L 153.181191 135.001359 
L 153.360828 135.084214 
L 153.466977 135.112821 
L 153.760929 135.290991 
L 153.867078 135.354228 
L 154.02222 135.436156 
L 154.177361 135.503883 
L 154.495809 135.681299 
L 154.593793 135.703282 
L 154.601958 135.712363 
L 155.24702 136.058853 
L 155.475649 136.19188 
L 155.704278 136.31465 
L 161.844608 139.793225 
L 162.040576 139.911751 
L 162.424347 140.162581 
L 162.677472 140.325965 
L 162.824448 140.409011 
L 164.302373 141.352391 
L 164.547333 141.514234 
L 164.759632 141.663174 
L 165.004592 141.831189 
L 165.429189 142.093953 
L 167.070421 143.237424 
L 167.862458 143.812001 
L 168.654495 144.384699 
L 169.046431 144.695294 
L 171.626676 146.770915 
L 173.031113 148.048246 
L 173.031113 148.048246 
" clip-path="url(#p5bac2047c6)" style="fill: none; stroke: #ac8e18"/>
   </g>
   <g id="line2d_30">
    <path d="M 39.258475 148.045997 
L 43.390133 138.493634 
L 48.771087 126.983259 
L 52.886415 118.93011 
L 59.52483 107.344719 
L 63.003261 102.001409 
L 65.036429 99.120174 
L 68.351554 94.843678 
L 70.997122 91.89115 
L 71.168593 91.709612 
L 71.878977 91.038743 
L 72.156599 90.809214 
L 72.393393 90.598771 
L 73.136439 90.0277 
L 73.356903 89.864729 
L 73.650854 89.698632 
L 73.748838 89.66139 
L 73.757004 89.647118 
L 73.977468 89.528337 
L 74.524545 89.274518 
L 74.745009 89.249566 
L 74.753174 89.263525 
L 74.875654 89.233782 
L 75.030796 89.179967 
L 75.038961 89.187581 
L 75.243094 89.20564 
L 75.39007 89.192863 
L 75.455393 89.13896 
L 75.51255 89.188611 
L 75.896321 89.277021 
L 76.361745 89.385512 
L 76.394406 89.467318 
L 76.484225 89.43323 
L 76.688358 89.51586 
L 76.696523 89.498075 
L 76.729185 89.561861 
L 76.778177 89.569378 
L 77.031302 89.688735 
L 77.039467 89.664253 
L 77.121121 89.768032 
L 77.292593 89.897247 
L 77.96215 90.379698 
L 78.125457 90.545722 
L 78.492897 90.96616 
L 78.582715 90.927228 
L 78.607211 90.978801 
L 78.729691 91.193847 
L 78.770518 91.177852 
L 78.786848 91.161268 
L 78.827675 91.237837 
L 78.852171 91.237711 
L 79.603382 92.278705 
L 79.636043 92.267677 
L 79.652374 92.342391 
L 79.685035 92.352734 
L 80.240278 93.188786 
L 80.248443 93.18267 
L 80.321931 93.263597 
L 80.468907 93.411049 
L 80.754694 93.79285 
L 80.999654 94.199032 
L 81.236448 94.545503 
L 81.252779 94.526641 
L 81.269109 94.505305 
L 81.309936 94.596469 
L 81.326267 94.600009 
L 81.456912 94.77191 
L 81.465077 94.733625 
L 81.538565 94.910115 
L 81.840683 95.167498 
L 81.963163 95.351337 
L 81.971328 95.318639 
L 82.036651 95.417655 
L 82.257115 95.73716 
L 82.26528 95.726074 
L 82.297941 95.637214 
L 82.355099 95.820422 
L 82.526571 95.915089 
L 82.542901 95.894599 
L 82.583728 96.021148 
L 82.738869 96.168601 
L 82.7552 96.151276 
L 83.171632 96.670152 
L 83.196128 96.732932 
L 83.277781 96.636866 
L 83.432923 96.751877 
L 83.571733 96.919122 
L 83.694213 96.857777 
L 83.726874 96.88767 
L 83.85752 96.972386 
L 83.87385 96.938637 
L 83.882016 96.917105 
L 83.947338 97.012861 
L 83.955504 97.015768 
L 84.11881 97.188326 
L 84.126976 97.182536 
L 84.135141 97.150379 
L 84.208629 97.255036 
L 84.22496 97.244875 
L 84.322944 97.245471 
L 84.331109 97.236273 
L 84.355605 97.185159 
L 84.420928 97.317199 
L 84.576069 97.446569 
L 84.723045 97.61326 
L 85.147642 97.651806 
L 85.278288 97.762592 
L 85.286453 97.744499 
L 85.302784 97.693347 
L 85.376272 97.784171 
L 85.384437 97.785826 
L 85.523248 97.959176 
L 85.670224 97.979114 
L 85.784538 97.929453 
L 85.907018 98.064572 
L 85.93968 98.017306 
L 86.919519 98.296401 
L 86.93585 98.276096 
L 87.001173 98.382074 
L 87.491093 98.801553 
L 87.523754 98.758731 
L 87.654399 98.675185 
L 87.556415 98.779771 
L 87.662565 98.700871 
L 87.866698 98.787689 
L 87.883029 98.758095 
L 87.907525 98.796768 
L 87.997343 98.759568 
L 88.095327 98.865321 
L 88.119823 98.846208 
L 88.127989 98.838641 
L 88.152485 98.937959 
L 88.168815 98.929241 
L 88.242303 98.878177 
L 88.291295 98.94962 
L 88.715892 98.990987 
L 88.724058 98.959634 
L 88.764884 99.029653 
L 88.822042 99.005192 
L 88.89553 99.014125 
L 88.91186 99.058864 
L 88.985348 99.092691 
L 89.009844 99.009542 
L 89.01801 99.031631 
L 89.164986 99.148185 
L 89.181316 99.140166 
L 89.230308 99.134413 
L 89.205812 99.194344 
L 89.2793 99.191704 
L 89.393615 99.177776 
L 89.475268 99.249581 
L 89.499764 99.214331 
L 89.548756 99.153771 
L 89.597748 99.264085 
L 89.720228 99.356146 
L 89.64674 99.231018 
L 89.728394 99.325184 
L 89.850874 99.33075 
L 89.99785 99.295033 
L 90.01418 99.34429 
L 90.13666 99.566955 
L 90.161156 99.485544 
L 90.324463 99.388809 
L 90.340794 99.45985 
L 90.422447 99.540601 
L 90.455108 99.448567 
L 90.520431 99.38092 
L 90.569423 99.446139 
L 90.683738 99.432942 
L 90.691903 99.395002 
L 90.757226 99.595717 
L 90.765391 99.62848 
L 90.822548 99.53892 
L 90.863375 99.578601 
L 92.129001 100.104859 
L 92.153497 100.022429 
L 92.177993 99.982588 
L 92.202489 100.048298 
L 92.251481 100.053155 
L 92.414788 100.174843 
L 92.422953 100.12976 
L 92.58626 100.102619 
L 92.667913 100.15115 
L 92.618921 100.07711 
L 92.692409 100.113084 
L 92.741401 100.048973 
L 92.798559 100.095321 
L 92.83122 100.049572 
L 92.929204 100.160457 
L 93.051684 100.222261 
L 93.068015 100.209325 
L 93.157833 100.211254 
L 93.092511 100.304106 
L 93.174164 100.239869 
L 93.223156 100.283866 
L 93.280313 100.237093 
L 93.304809 100.189331 
L 93.345636 100.273271 
L 93.353801 100.273501 
L 93.427289 100.381847 
L 93.468116 100.307817 
L 93.713076 100.367093 
L 93.82739 100.429615 
L 93.802894 100.324955 
L 93.835556 100.426537 
L 93.94987 100.449665 
L 94.129508 100.552421 
L 94.341806 100.556114 
L 94.374468 100.606817 
L 94.43979 100.514293 
L 94.472452 100.473902 
L 94.554105 100.52126 
L 94.66842 100.621699 
L 94.68475 100.599488 
L 94.766404 100.59202 
L 94.782734 100.647904 
L 94.856222 100.712008 
L 94.905214 100.672628 
L 94.962372 100.611244 
L 95.003198 100.67917 
L 95.133844 100.808003 
L 95.550276 100.933897 
L 95.680921 100.969538 
L 95.689086 100.930788 
L 95.721748 100.99928 
L 95.778905 100.993754 
L 95.89322 101.022375 
L 95.901385 101.00701 
L 95.991204 100.973237 
L 96.007534 101.007222 
L 96.097353 101.1116 
L 96.138179 101.099127 
L 96.195337 101.028054 
L 96.244329 101.090161 
L 96.317817 101.165867 
L 96.358643 101.120888 
L 96.52195 100.956588 
L 96.538281 100.983337 
L 97.25683 101.298344 
L 97.264995 101.273077 
L 97.37931 101.213913 
L 97.395641 101.26972 
L 97.469129 101.349884 
L 97.50179 101.279162 
L 97.542617 101.280027 
L 97.575278 101.349305 
L 97.583443 101.371252 
L 97.632435 101.229591 
L 97.648766 101.245265 
L 97.665097 101.223563 
L 97.722254 101.307812 
L 97.828403 101.346524 
L 97.836569 101.340777 
L 97.983545 101.390439 
L 98.065198 101.509909 
L 98.106025 101.431751 
L 98.11419 101.428574 
L 98.130521 101.5037 
L 98.146851 101.528057 
L 98.334654 101.568558 
L 98.391811 101.53526 
L 98.440803 101.593537 
L 98.465299 101.652193 
L 98.530622 101.540138 
L 98.538787 101.557479 
L 98.693928 101.567801 
L 98.710259 101.670449 
L 98.816408 101.624061 
L 98.947054 101.625458 
L 98.955219 101.637189 
L 98.97155 101.659741 
L 99.020542 101.572413 
L 99.045038 101.568517 
L 99.143022 101.640523 
L 99.159352 101.727971 
L 99.208344 101.587625 
L 99.257336 101.667398 
L 99.567619 101.792932 
L 99.575784 101.771856 
L 99.665603 101.834546 
L 99.771752 101.869248 
L 99.681934 101.814672 
L 99.796248 101.823867 
L 99.820744 101.787803 
L 99.861571 101.89449 
L 99.886067 101.881319 
L 99.910563 101.933512 
L 99.984051 101.838443 
L 100.0902 101.823465 
L 100.098366 101.853711 
L 100.33516 101.913015 
L 100.367822 102.018682 
L 100.449475 101.936328 
L 100.531128 101.916519 
L 100.490302 101.980921 
L 100.547459 101.981712 
L 100.694435 102.029009 
L 100.588286 101.914024 
L 100.7026 102.020225 
L 100.800584 102.006102 
L 100.80875 101.993301 
L 100.816915 101.950883 
L 100.906734 102.055966 
L 100.972056 102.067681 
L 100.955726 102.110062 
L 100.996552 102.107644 
L 101.200685 102.139613 
L 101.306835 102.036432 
L 101.331331 102.100727 
L 101.355827 102.055409 
L 101.412984 102.157654 
L 101.421149 102.20134 
L 101.510968 102.124132 
L 101.519133 102.145575 
L 101.723267 102.197376 
L 101.772259 102.116917 
L 101.829416 102.211745 
L 101.968227 102.30858 
L 101.976392 102.300719 
L 102.090707 102.240846 
L 102.107037 102.279444 
L 102.368328 102.450721 
L 102.572461 102.218442 
L 102.703107 102.359517 
L 102.719437 102.339854 
L 102.792925 102.282657 
L 102.825587 102.322402 
L 102.858248 102.397835 
L 102.923571 102.292502 
L 102.948067 102.373512 
L 102.964397 102.405462 
L 103.078712 102.388087 
L 103.1522 102.468326 
L 103.209357 102.426249 
L 103.813592 102.634024 
L 103.854418 102.689521 
L 103.911576 102.694558 
L 104.058552 102.835154 
L 104.205528 102.818653 
L 104.213693 102.794857 
L 104.303512 102.769076 
L 104.25452 102.843812 
L 104.336173 102.789406 
L 104.88325 103.133374 
L 104.891416 103.178198 
L 104.964904 103.050265 
L 104.981234 103.097952 
L 105.087384 102.955849 
L 105.152706 103.073667 
L 105.185368 103.05254 
L 105.299682 103.14724 
L 105.438493 103.108043 
L 105.446658 103.131436 
L 105.536477 103.214509 
L 105.560973 103.169291 
L 105.642626 103.088664 
L 105.683453 103.152079 
L 105.952909 103.21914 
L 106.116216 103.171161 
L 106.132546 103.210421 
L 106.328514 103.404261 
L 106.434663 103.372439 
L 106.450994 103.405268 
L 106.573474 103.557008 
L 106.589805 103.520335 
L 106.655127 103.503263 
L 106.695954 103.560051 
L 106.72045 103.604501 
L 106.810269 103.563061 
L 106.84293 103.657644 
L 106.924583 103.582446 
L 107.038898 103.662178 
L 107.079725 103.577165 
L 107.169543 103.554456 
L 107.194039 103.578314 
L 107.300189 103.663846 
L 107.316519 103.648554 
L 107.430834 103.663118 
L 107.438999 103.659444 
L 107.561479 103.642916 
L 107.651298 103.645528 
L 107.659463 103.666427 
L 107.790109 103.776669 
L 107.896258 103.740981 
L 107.855431 103.820879 
L 107.920754 103.772355 
L 108.06773 103.84342 
L 108.288194 103.858457 
L 108.484162 103.865777 
L 108.565815 103.823541 
L 108.533154 103.886505 
L 108.582146 103.88653 
L 108.729122 103.984427 
L 108.92509 104.140975 
L 108.94142 104.12819 
L 108.998578 104.149542 
L 109.072066 104.06928 
L 109.194546 104.138987 
L 109.153719 104.038864 
L 109.202711 104.127156 
L 109.464002 104.200086 
L 109.521159 104.138451 
L 109.570151 104.21279 
L 109.610978 104.332218 
L 109.692631 104.235158 
L 109.831442 104.291112 
L 109.962087 104.393949 
L 109.970252 104.386141 
L 110.084567 104.4696 
L 110.092732 104.416128 
L 110.247874 104.503946 
L 110.256039 104.484823 
L 110.500999 104.456737 
L 110.623479 104.547366 
L 110.631644 104.539735 
L 110.672471 104.533198 
L 110.721463 104.58569 
L 110.843943 104.606722 
L 110.941927 104.575461 
L 110.950092 104.612311 
L 111.00725 104.71442 
L 111.186887 104.791066 
L 111.195052 104.773892 
L 111.227713 104.635447 
L 111.333863 104.670367 
L 111.382855 104.793814 
L 111.456343 104.709414 
L 111.464508 104.68867 
L 111.521665 104.791184 
L 111.537996 104.790838 
L 111.570657 104.742976 
L 111.627815 104.758351 
L 111.644145 104.717093 
L 111.693137 104.782093 
L 111.733964 104.778179 
L 111.742129 104.757686 
L 111.815617 104.852892 
L 111.929932 104.955508 
L 111.856444 104.837386 
L 111.938097 104.919054 
L 112.158561 104.924002 
L 112.354529 105.076054 
L 112.362695 105.052301 
L 112.526001 105.125132 
L 112.713804 105.265285 
L 112.721969 105.244234 
L 112.828119 105.232325 
L 112.836284 105.248149 
L 112.98326 105.338677 
L 113.432353 105.409403 
L 113.481345 105.445805 
L 113.538503 105.411086 
L 113.579329 105.365649 
L 113.644652 105.419372 
L 113.807958 105.69657 
L 113.824289 105.618703 
L 113.889612 105.584559 
L 113.930438 105.637751 
L 114.036588 105.582712 
L 114.061084 105.657751 
L 114.22439 105.753963 
L 114.232556 105.72308 
L 114.289713 105.766356 
L 114.338705 105.691562 
L 114.428524 105.66198 
L 114.363201 105.705936 
L 114.45302 105.687486 
L 114.673484 105.971937 
L 115.163404 106.154095 
L 115.20423 106.253719 
L 115.269553 106.139499 
L 115.43286 106.012742 
L 115.44919 106.071835 
L 115.588001 106.276894 
L 115.69415 106.220779 
L 115.620662 106.305228 
L 115.710481 106.240638 
L 115.743142 106.295417 
L 115.824796 106.249273 
L 115.832961 106.238191 
L 115.873788 106.324252 
L 115.881953 106.328353 
L 115.890118 106.357685 
L 115.971772 106.25067 
L 115.979937 106.306132 
L 116.028929 106.360362 
L 116.094252 106.336251 
L 116.249393 106.506988 
L 116.355542 106.470342 
L 116.363707 106.49878 
L 116.584171 106.63973 
L 116.600502 106.623196 
L 116.698486 106.672763 
L 116.706651 106.695114 
L 116.861793 106.865313 
L 116.992438 106.768621 
L 117.033265 106.801966 
L 117.090422 106.77222 
L 117.147579 106.804335 
L 117.237398 106.874583 
L 117.417035 107.097464 
L 117.547681 107.064007 
L 117.457862 107.175819 
L 117.555846 107.070815 
L 117.710987 107.169997 
L 117.735483 107.13764 
L 117.947782 107.105249 
L 117.964113 107.145766 
L 118.119254 107.289518 
L 118.217238 107.153451 
L 118.258065 107.236313 
L 118.731654 107.350316 
L 118.89496 107.457382 
L 118.919456 107.431802 
L 120.234075 107.973246 
L 120.372886 108.161927 
L 120.381051 108.125202 
L 120.47087 108.123067 
L 120.4872 108.141312 
L 120.626011 108.236273 
L 120.879136 108.374128 
L 120.911798 108.413413 
L 120.985286 108.378053 
L 121.0996 108.524773 
L 121.124096 108.480013 
L 121.164923 108.477602 
L 121.197584 108.537013 
L 121.213915 108.526454 
L 121.311899 108.601188 
L 121.352725 108.581761 
L 121.524197 108.602204 
L 121.654843 108.688966 
L 121.752827 108.69964 
L 121.671173 108.699595 
L 121.760992 108.726649 
L 121.826315 108.806512 
L 121.916133 108.771918 
L 121.948795 108.819583 
L 122.193755 108.873728 
L 122.299904 109.064387 
L 122.348896 109.027414 
L 122.985792 109.351939 
L 123.157264 109.496289 
L 123.238917 109.412307 
L 123.287909 109.446319 
L 123.336901 109.536515 
L 123.451216 109.663459 
L 123.467547 109.648362 
L 123.630853 109.699847 
L 123.745168 109.84055 
L 123.761498 109.81862 
L 123.834986 109.796591 
L 123.875813 109.839709 
L 124.05545 109.847104 
L 124.063616 109.817541 
L 124.145269 109.791042 
L 124.17793 109.807311 
L 124.578032 110.014671 
L 124.627024 110.014678 
L 124.66785 110.08427 
L 124.822992 110.214623 
L 124.847488 110.195721 
L 124.863818 110.190987 
L 124.91281 110.272141 
L 124.920976 110.277543 
L 125.084282 110.345179 
L 125.108778 110.31194 
L 125.15777 110.409221 
L 125.182266 110.399125 
L 125.329242 110.511155 
L 125.370069 110.579581 
L 125.451722 110.541861 
L 125.664021 110.624662 
L 125.696682 110.592807 
L 125.77017 110.652954 
L 125.917146 110.806515 
L 126.023296 110.817062 
L 126.039626 110.845084 
L 126.227429 111.045395 
L 126.251925 110.996475 
L 126.276421 110.993864 
L 126.309082 111.06599 
L 126.341743 111.049699 
L 126.62753 111.119238 
L 126.652026 111.114767 
L 126.668357 111.186281 
L 126.692853 111.19257 
L 126.847994 111.285092 
L 127.141946 111.43337 
L 127.248095 111.522488 
L 127.264426 111.486864 
L 128.423903 112.178613 
L 128.456565 112.119506 
L 128.603541 112.224814 
L 128.734186 112.330893 
L 128.742351 112.313212 
L 128.913823 112.429627 
L 129.297594 112.667406 
L 129.305759 112.646214 
L 129.33842 112.69374 
L 129.403743 112.698447 
L 129.436404 112.700103 
L 129.4609 112.787796 
L 129.469066 112.778817 
L 130.089631 113.141536 
L 130.114127 113.089877 
L 130.122292 113.073904 
L 130.19578 113.152371 
L 130.383583 113.329086 
L 130.42441 113.382381 
L 130.473402 113.395715 
L 130.971487 113.635828 
L 130.995983 113.622508 
L 131.05314 113.701196 
L 131.257273 113.806663 
L 131.461407 113.988967 
L 131.624713 114.130103 
L 131.632879 114.121666 
L 131.649209 114.096893 
L 131.690036 114.185815 
L 131.714532 114.190245 
L 131.837012 114.260246 
L 131.845177 114.243854 
L 131.934996 114.309937 
L 132.081972 114.430488 
L 132.098303 114.40913 
L 132.122799 114.378498 
L 132.15546 114.515383 
L 132.179956 114.502928 
L 132.335097 114.660892 
L 132.531065 114.692206 
L 132.555561 114.672168 
L 132.686207 114.806347 
L 132.710703 114.77298 
L 132.776025 114.862412 
L 132.898505 114.950998 
L 132.906671 114.937512 
L 133.274111 115.080116 
L 133.519071 115.355127 
L 133.527236 115.333864 
L 133.576228 115.410349 
L 133.617055 115.390685 
L 133.7477 115.516683 
L 133.878345 115.598702 
L 133.902841 115.60765 
L 133.943668 115.666763 
L 133.968164 115.729133 
L 134.057982 115.671501 
L 134.164132 115.727395 
L 134.417257 115.894205 
L 134.433588 115.861404 
L 134.507076 115.956868 
L 134.670382 116.051462 
L 134.678548 116.033243 
L 134.752036 116.132985 
L 135.201129 116.400576 
L 135.209294 116.384037 
L 135.511412 116.565926 
L 135.731876 116.757652 
L 135.813529 116.800608 
L 135.821694 116.816331 
L 135.960505 116.990128 
L 135.976836 116.965766 
L 136.066654 116.991738 
L 136.082985 117.026041 
L 136.319779 117.219862 
L 137.19347 117.924034 
L 137.234297 117.890028 
L 137.299619 117.958962 
L 137.454761 118.076993 
L 137.626233 118.126044 
L 137.912019 118.478285 
L 137.92835 118.433249 
L 137.985507 118.501749 
L 138.018169 118.490356 
L 138.287625 118.676786 
L 138.385609 118.732721 
L 138.548915 118.868174 
L 138.581577 118.905691 
L 138.630569 118.912234 
L 138.78571 119.055914 
L 138.973512 119.236328 
L 139.218472 119.366059 
L 140.157486 120.10249 
L 140.296296 120.168372 
L 140.443272 120.25849 
L 140.582083 120.38898 
L 140.598414 120.381996 
L 140.680067 120.453694 
L 140.86787 120.68755 
L 141.080168 120.797662 
L 141.210814 120.84657 
L 141.847709 121.307998 
L 141.945693 121.367539 
L 142.35396 121.707112 
L 142.500936 121.883157 
L 142.59892 121.921983 
L 142.762227 122.122202 
L 142.835715 122.096552 
L 142.868376 122.152045 
L 143.048013 122.282309 
L 144.909709 123.665087 
L 144.975032 123.693147 
L 144.999528 123.725862 
L 145.53844 124.214408 
L 145.66092 124.311243 
L 146.346807 124.855501 
L 146.559106 124.999859 
L 146.665255 125.076486 
L 146.763239 125.149724 
L 146.787735 125.143033 
L 146.975538 125.316582 
L 147.122514 125.447468 
L 147.138845 125.424709 
L 147.587938 125.767784 
L 147.596103 125.758285 
L 147.792071 125.879844 
L 148.330983 126.33312 
L 148.37181 126.301011 
L 148.437133 126.34837 
L 148.698423 126.583998 
L 148.853564 126.680423 
L 149.392476 127.060211 
L 149.416972 127.053386 
L 149.482295 127.124554 
L 149.71909 127.300957 
L 149.849735 127.408608 
L 150.217175 127.648179 
L 151.760423 128.749342 
L 151.809415 128.751015 
L 151.842076 128.816972 
L 152.06254 128.997968 
L 152.789255 129.484281 
L 152.887239 129.524804 
L 153.115868 129.722798 
L 153.197521 129.809919 
L 153.426151 129.974673 
L 153.507804 130.052973 
L 153.65478 130.139876 
L 155.100044 131.216134 
L 155.451153 131.468009 
L 155.589964 131.601243 
L 155.794097 131.744351 
L 156.006396 131.880683 
L 156.088049 131.963951 
L 156.284017 132.116342 
L 158.619302 133.966988 
L 158.839766 134.176171 
L 159.42767 134.665271 
L 159.639968 134.838105 
L 159.737952 134.910978 
L 159.91759 135.047738 
L 160.260534 135.373108 
L 160.440171 135.516157 
L 160.685131 135.726856 
L 160.962752 135.961985 
L 161.01991 136.003072 
L 161.044406 136.037243 
L 161.828277 136.710871 
L 162.048741 136.903206 
L 164.498341 139.093975 
L 164.579994 139.169057 
L 165.061749 139.610427 
L 165.290378 139.820805 
L 165.698645 140.21784 
L 165.95177 140.469416 
L 166.31921 140.815839 
L 166.572335 141.048702 
L 166.760138 141.250295 
L 166.874453 141.358647 
L 167.903285 142.384413 
L 168.270725 142.731142 
L 170.083428 144.639286 
L 171.765487 146.517541 
L 173.031113 148.046247 
L 173.031113 148.046247 
" clip-path="url(#p5bac2047c6)" style="fill: none; stroke-dasharray: 1,1.65; stroke-dashoffset: 0; stroke: #00aaae"/>
   </g>
   <g id="PathCollection_2">
    <defs>
     <path id="mefcbb394c9" d="M -2 2 
L 2 -2 
M -2 -2 
L 2 2 
" style="stroke: #009afa; stroke-width: 0.7"/>
    </defs>
    <g clip-path="url(#p5bac2047c6)">
     <use xlink:href="#mefcbb394c9" x="101.540557" y="141.419122" style="fill: #009afa; stroke: #009afa; stroke-width: 0.7"/>
    </g>
   </g>
   <g id="PathCollection_3">
    <defs>
     <path id="m292ed72e11" d="M -2 2 
L 2 -2 
M -2 -2 
L 2 2 
" style="stroke: #e36f47; stroke-width: 0.7"/>
    </defs>
    <g clip-path="url(#p5bac2047c6)">
     <use xlink:href="#m292ed72e11" x="85.714774" y="134.970472" style="fill: #e36f47; stroke: #e36f47; stroke-width: 0.7"/>
    </g>
   </g>
   <g id="PathCollection_4">
    <defs>
     <path id="mb6d8beedac" d="M -2 2 
L 2 -2 
M -2 -2 
L 2 2 
" style="stroke: #3ea44e; stroke-width: 0.7"/>
    </defs>
    <g clip-path="url(#p5bac2047c6)">
     <use xlink:href="#mb6d8beedac" x="83.569711" y="131.257712" style="fill: #3ea44e; stroke: #3ea44e; stroke-width: 0.7"/>
    </g>
   </g>
   <g id="PathCollection_5">
    <defs>
     <path id="mc0f275ad79" d="M -2 2 
L 2 -2 
M -2 -2 
L 2 2 
" style="stroke: #c371d2; stroke-width: 0.7"/>
    </defs>
    <g clip-path="url(#p5bac2047c6)">
     <use xlink:href="#mc0f275ad79" x="84.302666" y="123.869804" style="fill: #c371d2; stroke: #c371d2; stroke-width: 0.7"/>
    </g>
   </g>
   <g id="PathCollection_6">
    <defs>
     <path id="m9436c4cf0e" d="M -2 2 
L 2 -2 
M -2 -2 
L 2 2 
" style="stroke: #ac8e18; stroke-width: 0.7"/>
    </defs>
    <g clip-path="url(#p5bac2047c6)">
     <use xlink:href="#m9436c4cf0e" x="86.759071" y="116.980968" style="fill: #ac8e18; stroke: #ac8e18; stroke-width: 0.7"/>
    </g>
   </g>
   <g id="PathCollection_7">
    <defs>
     <path id="m525fa7ef42" d="M -2 2 
L 2 -2 
M -2 -2 
L 2 2 
" style="stroke: #00aaae; stroke-width: 0.7"/>
    </defs>
    <g clip-path="url(#p5bac2047c6)">
     <use xlink:href="#m525fa7ef42" x="90.661795" y="99.424987" style="fill: #00aaae; stroke: #00aaae; stroke-width: 0.7"/>
    </g>
   </g>
   <g id="PathCollection_8">
    <defs>
     <path id="m7ca0173a70" d="M -0 3.535534 
L 3.535534 0 
L 0 -3.535534 
L -3.535534 -0 
z
" style="stroke: #009afa"/>
    </defs>
    <g clip-path="url(#p5bac2047c6)">
     <use xlink:href="#m7ca0173a70" x="39.282971" y="20.354646" style="fill-opacity: 0; stroke: #009afa"/>
    </g>
   </g>
   <g id="PathCollection_9">
    <defs>
     <path id="ma7f57b4bf1" d="M -0 3.535534 
L 3.535534 0 
L 0 -3.535534 
L -3.535534 -0 
z
" style="stroke: #e36f47"/>
    </defs>
    <g clip-path="url(#p5bac2047c6)">
     <use xlink:href="#ma7f57b4bf1" x="39.340128" y="74.568875" style="fill-opacity: 0; stroke: #e36f47"/>
    </g>
   </g>
   <g id="PathCollection_10">
    <defs>
     <path id="m4f7a9e1a7d" d="M -0 3.535534 
L 3.535534 0 
L 0 -3.535534 
L -3.535534 -0 
z
" style="stroke: #3ea44e"/>
    </defs>
    <g clip-path="url(#p5bac2047c6)">
     <use xlink:href="#m4f7a9e1a7d" x="40.818054" y="83.379799" style="fill-opacity: 0; stroke: #3ea44e"/>
    </g>
   </g>
   <g id="PathCollection_11">
    <defs>
     <path id="mb130e0821f" d="M -0 3.535534 
L 3.535534 0 
L 0 -3.535534 
L -3.535534 -0 
z
" style="stroke: #c371d2"/>
    </defs>
    <g clip-path="url(#p5bac2047c6)">
     <use xlink:href="#mb130e0821f" x="50.698106" y="88.680514" style="fill-opacity: 0; stroke: #c371d2"/>
    </g>
   </g>
   <g id="PathCollection_12">
    <defs>
     <path id="mc861f4ae89" d="M -0 3.535534 
L 3.535534 0 
L 0 -3.535534 
L -3.535534 -0 
z
" style="stroke: #ac8e18"/>
    </defs>
    <g clip-path="url(#p5bac2047c6)">
     <use xlink:href="#mc861f4ae89" x="60.104568" y="89.908862" style="fill-opacity: 0; stroke: #ac8e18"/>
    </g>
   </g>
   <g id="PathCollection_13">
    <defs>
     <path id="m0965efbe71" d="M -0 3.535534 
L 3.535534 0 
L 0 -3.535534 
L -3.535534 -0 
z
" style="stroke: #00aaae"/>
    </defs>
    <g clip-path="url(#p5bac2047c6)">
     <use xlink:href="#m0965efbe71" x="75.455393" y="89.13896" style="fill-opacity: 0; stroke: #00aaae"/>
    </g>
   </g>
   <g id="legend_1">
    <g id="patch_7">
     <path d="M 149.026292 127.226833 
L 208.665354 127.226833 
L 208.665354 24.854646 
L 149.026292 24.854646 
L 149.026292 127.226833 
z
" style="fill: none; opacity: 0"/>
    </g>
    <g id="line2d_31">
     <path d="M 156.226292 35.743239 
L 165.226292 35.743239 
L 174.226292 35.743239 
" style="fill: none"/>
     <defs>
      <path id="m272fa6472e" d="M 0 3.6 
C 0.954731 3.6 1.870488 3.220681 2.545584 2.545584 
C 3.220681 1.870488 3.6 0.954731 3.6 0 
C 3.6 -0.954731 3.220681 -1.870488 2.545584 -2.545584 
C 1.870488 -3.220681 0.954731 -3.6 0 -3.6 
C -0.954731 -3.6 -1.870488 -3.220681 -2.545584 -2.545584 
C -3.220681 -1.870488 -3.6 -0.954731 -3.6 0 
C -3.6 0.954731 -3.220681 1.870488 -2.545584 2.545584 
C -1.870488 3.220681 -0.954731 3.6 0 3.6 
z
" style="stroke: #ffffff; stroke-width: inf"/>
     </defs>
     <g>
      <use xlink:href="#m272fa6472e" x="165.226292" y="35.743239" style="fill: #ffffff; fill-opacity: 0; stroke: #ffffff; stroke-width: inf"/>
     </g>
    </g>
    <g id="text_16">
     <!-- $t_0$ -->
     <g transform="translate(181.426292 38.893239) scale(0.09 -0.09)">
      <defs>
       <path id="DejaVuSans-Oblique-74" d="M 2706 3500 
L 2619 3053 
L 1472 3053 
L 1100 1153 
Q 1081 1047 1072 975 
Q 1063 903 1063 863 
Q 1063 663 1183 572 
Q 1303 481 1569 481 
L 2150 481 
L 2053 0 
L 1503 0 
Q 991 0 739 200 
Q 488 400 488 806 
Q 488 878 497 964 
Q 506 1050 525 1153 
L 897 3053 
L 409 3053 
L 500 3500 
L 978 3500 
L 1172 4494 
L 1747 4494 
L 1556 3500 
L 2706 3500 
z
" transform="scale(0.015625)"/>
      </defs>
      <use xlink:href="#DejaVuSans-Oblique-74" transform="translate(0 0.78125)"/>
      <use xlink:href="#DejaVuSans-30" transform="translate(39.208984 -15.625) scale(0.7)"/>
     </g>
    </g>
    <g id="line2d_32">
     <path d="M 156.226292 48.953552 
L 165.226292 48.953552 
L 174.226292 48.953552 
" style="fill: none; stroke-dasharray: 4.1625,1.8; stroke-dashoffset: 0; stroke: #009afa; stroke-width: 1.125; stroke-linejoin: miter"/>
    </g>
    <g id="text_17">
     <!-- 0.1 -->
     <g transform="translate(181.426292 52.103552) scale(0.09 -0.09)">
      <use xlink:href="#DejaVuSans-30"/>
      <use xlink:href="#DejaVuSans-2e" x="63.623047"/>
      <use xlink:href="#DejaVuSans-31" x="95.410156"/>
     </g>
    </g>
    <g id="line2d_33">
     <path d="M 156.226292 62.163864 
L 165.226292 62.163864 
L 174.226292 62.163864 
" style="fill: none; stroke: #e36f47; stroke-width: 1.125; stroke-linejoin: miter"/>
    </g>
    <g id="text_18">
     <!-- 0.27 -->
     <g transform="translate(181.426292 65.313864) scale(0.09 -0.09)">
      <defs>
       <path id="DejaVuSans-37" d="M 525 4666 
L 3525 4666 
L 3525 4397 
L 1831 0 
L 1172 0 
L 2766 4134 
L 525 4134 
L 525 4666 
z
" transform="scale(0.015625)"/>
      </defs>
      <use xlink:href="#DejaVuSans-30"/>
      <use xlink:href="#DejaVuSans-2e" x="63.623047"/>
      <use xlink:href="#DejaVuSans-32" x="95.410156"/>
      <use xlink:href="#DejaVuSans-37" x="159.033203"/>
     </g>
    </g>
    <g id="line2d_34">
     <path d="M 156.226292 75.374177 
L 165.226292 75.374177 
L 174.226292 75.374177 
" style="fill: none; stroke: #3ea44e; stroke-width: 1.125; stroke-linejoin: miter"/>
    </g>
    <g id="text_19">
     <!-- 0.3 -->
     <g transform="translate(181.426292 78.524177) scale(0.09 -0.09)">
      <use xlink:href="#DejaVuSans-30"/>
      <use xlink:href="#DejaVuSans-2e" x="63.623047"/>
      <use xlink:href="#DejaVuSans-33" x="95.410156"/>
     </g>
    </g>
    <g id="line2d_35">
     <path d="M 156.226292 88.584489 
L 165.226292 88.584489 
L 174.226292 88.584489 
" style="fill: none; stroke: #c371d2; stroke-width: 1.125; stroke-linejoin: miter"/>
    </g>
    <g id="text_20">
     <!-- 0.35 -->
     <g transform="translate(181.426292 91.734489) scale(0.09 -0.09)">
      <defs>
       <path id="DejaVuSans-35" d="M 691 4666 
L 3169 4666 
L 3169 4134 
L 1269 4134 
L 1269 2991 
Q 1406 3038 1543 3061 
Q 1681 3084 1819 3084 
Q 2600 3084 3056 2656 
Q 3513 2228 3513 1497 
Q 3513 744 3044 326 
Q 2575 -91 1722 -91 
Q 1428 -91 1123 -41 
Q 819 9 494 109 
L 494 744 
Q 775 591 1075 516 
Q 1375 441 1709 441 
Q 2250 441 2565 725 
Q 2881 1009 2881 1497 
Q 2881 1984 2565 2268 
Q 2250 2553 1709 2553 
Q 1456 2553 1204 2497 
Q 953 2441 691 2322 
L 691 4666 
z
" transform="scale(0.015625)"/>
      </defs>
      <use xlink:href="#DejaVuSans-30"/>
      <use xlink:href="#DejaVuSans-2e" x="63.623047"/>
      <use xlink:href="#DejaVuSans-33" x="95.410156"/>
      <use xlink:href="#DejaVuSans-35" x="159.033203"/>
     </g>
    </g>
    <g id="line2d_36">
     <path d="M 156.226292 101.794802 
L 165.226292 101.794802 
L 174.226292 101.794802 
" style="fill: none; stroke: #ac8e18; stroke-width: 1.125; stroke-linejoin: miter"/>
    </g>
    <g id="text_21">
     <!-- 0.4 -->
     <g transform="translate(181.426292 104.944802) scale(0.09 -0.09)">
      <use xlink:href="#DejaVuSans-30"/>
      <use xlink:href="#DejaVuSans-2e" x="63.623047"/>
      <use xlink:href="#DejaVuSans-34" x="95.410156"/>
     </g>
    </g>
    <g id="line2d_37">
     <path d="M 156.226292 115.005114 
L 165.226292 115.005114 
L 174.226292 115.005114 
" style="fill: none; stroke-dasharray: 1.125,1.85625; stroke-dashoffset: 0; stroke: #00aaae; stroke-width: 1.125; stroke-linejoin: miter"/>
    </g>
    <g id="text_22">
     <!-- 0.5 -->
     <g transform="translate(181.426292 118.155114) scale(0.09 -0.09)">
      <use xlink:href="#DejaVuSans-30"/>
      <use xlink:href="#DejaVuSans-2e" x="63.623047"/>
      <use xlink:href="#DejaVuSans-35" x="95.410156"/>
     </g>
    </g>
   </g>
  </g>
 </g>
 <defs>
  <clipPath id="p5bac2047c6">
   <rect x="39.25031" y="20.354646" width="173.915045" height="127.710709"/>
  </clipPath>
 </defs>
</svg>
