<?xml version="1.0" encoding="utf-8" standalone="no"?>
<!DOCTYPE svg PUBLIC "-//W3C//DTD SVG 1.1//EN"
  "http://www.w3.org/Graphics/SVG/1.1/DTD/svg11.dtd">
<svg xmlns:xlink="http://www.w3.org/1999/xlink" width="216pt" height="180pt" viewBox="0 0 216 180" xmlns="http://www.w3.org/2000/svg" version="1.1">
 <metadata>
  <rdf:RDF xmlns:dc="http://purl.org/dc/elements/1.1/" xmlns:cc="http://creativecommons.org/ns#" xmlns:rdf="http://www.w3.org/1999/02/22-rdf-syntax-ns#">
   <cc:Work>
    <dc:type rdf:resource="http://purl.org/dc/dcmitype/StillImage"/>
    <dc:date>2023-05-18T19:41:23.862948</dc:date>
    <dc:format>image/svg+xml</dc:format>
    <dc:creator>
     <cc:Agent>
      <dc:title>Matplotlib v3.6.3, https://matplotlib.org/</dc:title>
     </cc:Agent>
    </dc:creator>
   </cc:Work>
  </rdf:RDF>
 </metadata>
 <defs>
  <style type="text/css">*{stroke-linejoin: round; stroke-linecap: butt}</style>
 </defs>
 <g id="figure_1">
  <g id="patch_1">
   <path d="M 0 180 
L 216 180 
L 216 0 
L 0 0 
z
" style="fill: #ffffff"/>
  </g>
  <g id="axes_1">
   <g id="patch_2">
    <path d="M 39.67556 148.065354 
L 213.165354 148.065354 
L 213.165354 2.834646 
L 39.67556 2.834646 
z
" style="fill: #ffffff"/>
   </g>
   <g id="PathCollection_1">
    <defs>
     <path id="m490e6d56e6" d="M 0 0 
C 0 0 0 0 0 0 
C 0 0 0 0 0 0 
C 0 0 0 0 0 0 
C 0 0 0 0 0 0 
C 0 0 0 0 0 0 
C 0 0 0 0 0 0 
C 0 0 0 0 0 0 
C 0 0 0 0 0 0 
z
" style="stroke: #ffffff; stroke-width: 0.7"/>
    </defs>
    <g clip-path="url(#p6ff3ad1c55)">
     <use xlink:href="#m490e6d56e6" x="39.67556" y="148.065354" style="fill: #ffffff; fill-opacity: 0; stroke: #ffffff; stroke-width: 0.7"/>
    </g>
   </g>
   <g id="matplotlib.axis_1">
    <g id="xtick_1">
     <g id="line2d_1">
      <defs>
       <path id="m99d1292ee4" d="M 0 0 
L 0 -2.5 
" style="stroke: #000000; stroke-width: 0.5"/>
      </defs>
      <g>
       <use xlink:href="#m99d1292ee4" x="39.67556" y="148.065354" style="stroke: #000000; stroke-width: 0.5"/>
      </g>
     </g>
     <g id="line2d_2">
      <defs>
       <path id="m26aa75dfdb" d="M 0 0 
L 0 2.5 
" style="stroke: #000000; stroke-width: 0.5"/>
      </defs>
      <g>
       <use xlink:href="#m26aa75dfdb" x="39.67556" y="2.834646" style="stroke: #000000; stroke-width: 0.5"/>
      </g>
     </g>
     <g id="text_1">
      <!-- $0.0$ -->
      <g transform="translate(32.47556 158.403948) scale(0.09 -0.09)">
       <defs>
        <path id="DejaVuSans-30" d="M 2034 4250 
Q 1547 4250 1301 3770 
Q 1056 3291 1056 2328 
Q 1056 1369 1301 889 
Q 1547 409 2034 409 
Q 2525 409 2770 889 
Q 3016 1369 3016 2328 
Q 3016 3291 2770 3770 
Q 2525 4250 2034 4250 
z
M 2034 4750 
Q 2819 4750 3233 4129 
Q 3647 3509 3647 2328 
Q 3647 1150 3233 529 
Q 2819 -91 2034 -91 
Q 1250 -91 836 529 
Q 422 1150 422 2328 
Q 422 3509 836 4129 
Q 1250 4750 2034 4750 
z
" transform="scale(0.015625)"/>
        <path id="DejaVuSans-2e" d="M 684 794 
L 1344 794 
L 1344 0 
L 684 0 
L 684 794 
z
" transform="scale(0.015625)"/>
       </defs>
       <use xlink:href="#DejaVuSans-30" transform="translate(0 0.78125)"/>
       <use xlink:href="#DejaVuSans-2e" transform="translate(63.623047 0.78125)"/>
       <use xlink:href="#DejaVuSans-30" transform="translate(95.410156 0.78125)"/>
      </g>
     </g>
    </g>
    <g id="xtick_2">
     <g id="line2d_3">
      <g>
       <use xlink:href="#m99d1292ee4" x="66.366297" y="148.065354" style="stroke: #000000; stroke-width: 0.5"/>
      </g>
     </g>
     <g id="line2d_4">
      <g>
       <use xlink:href="#m26aa75dfdb" x="66.366297" y="2.834646" style="stroke: #000000; stroke-width: 0.5"/>
      </g>
     </g>
     <g id="text_2">
      <!-- $0.2$ -->
      <g transform="translate(59.436297 158.403948) scale(0.09 -0.09)">
       <defs>
        <path id="DejaVuSans-32" d="M 1228 531 
L 3431 531 
L 3431 0 
L 469 0 
L 469 531 
Q 828 903 1448 1529 
Q 2069 2156 2228 2338 
Q 2531 2678 2651 2914 
Q 2772 3150 2772 3378 
Q 2772 3750 2511 3984 
Q 2250 4219 1831 4219 
Q 1534 4219 1204 4116 
Q 875 4013 500 3803 
L 500 4441 
Q 881 4594 1212 4672 
Q 1544 4750 1819 4750 
Q 2544 4750 2975 4387 
Q 3406 4025 3406 3419 
Q 3406 3131 3298 2873 
Q 3191 2616 2906 2266 
Q 2828 2175 2409 1742 
Q 1991 1309 1228 531 
z
" transform="scale(0.015625)"/>
       </defs>
       <use xlink:href="#DejaVuSans-30" transform="translate(0 0.78125)"/>
       <use xlink:href="#DejaVuSans-2e" transform="translate(63.623047 0.78125)"/>
       <use xlink:href="#DejaVuSans-32" transform="translate(89.910156 0.78125)"/>
      </g>
     </g>
    </g>
    <g id="xtick_3">
     <g id="line2d_5">
      <g>
       <use xlink:href="#m99d1292ee4" x="93.057035" y="148.065354" style="stroke: #000000; stroke-width: 0.5"/>
      </g>
     </g>
     <g id="line2d_6">
      <g>
       <use xlink:href="#m26aa75dfdb" x="93.057035" y="2.834646" style="stroke: #000000; stroke-width: 0.5"/>
      </g>
     </g>
     <g id="text_3">
      <!-- $0.4$ -->
      <g transform="translate(85.857035 158.403948) scale(0.09 -0.09)">
       <defs>
        <path id="DejaVuSans-34" d="M 2419 4116 
L 825 1625 
L 2419 1625 
L 2419 4116 
z
M 2253 4666 
L 3047 4666 
L 3047 1625 
L 3713 1625 
L 3713 1100 
L 3047 1100 
L 3047 0 
L 2419 0 
L 2419 1100 
L 313 1100 
L 313 1709 
L 2253 4666 
z
" transform="scale(0.015625)"/>
       </defs>
       <use xlink:href="#DejaVuSans-30" transform="translate(0 0.78125)"/>
       <use xlink:href="#DejaVuSans-2e" transform="translate(63.623047 0.78125)"/>
       <use xlink:href="#DejaVuSans-34" transform="translate(95.410156 0.78125)"/>
      </g>
     </g>
    </g>
    <g id="xtick_4">
     <g id="line2d_7">
      <g>
       <use xlink:href="#m99d1292ee4" x="119.747773" y="148.065354" style="stroke: #000000; stroke-width: 0.5"/>
      </g>
     </g>
     <g id="line2d_8">
      <g>
       <use xlink:href="#m26aa75dfdb" x="119.747773" y="2.834646" style="stroke: #000000; stroke-width: 0.5"/>
      </g>
     </g>
     <g id="text_4">
      <!-- $0.6$ -->
      <g transform="translate(112.547773 158.403948) scale(0.09 -0.09)">
       <defs>
        <path id="DejaVuSans-36" d="M 2113 2584 
Q 1688 2584 1439 2293 
Q 1191 2003 1191 1497 
Q 1191 994 1439 701 
Q 1688 409 2113 409 
Q 2538 409 2786 701 
Q 3034 994 3034 1497 
Q 3034 2003 2786 2293 
Q 2538 2584 2113 2584 
z
M 3366 4563 
L 3366 3988 
Q 3128 4100 2886 4159 
Q 2644 4219 2406 4219 
Q 1781 4219 1451 3797 
Q 1122 3375 1075 2522 
Q 1259 2794 1537 2939 
Q 1816 3084 2150 3084 
Q 2853 3084 3261 2657 
Q 3669 2231 3669 1497 
Q 3669 778 3244 343 
Q 2819 -91 2113 -91 
Q 1303 -91 875 529 
Q 447 1150 447 2328 
Q 447 3434 972 4092 
Q 1497 4750 2381 4750 
Q 2619 4750 2861 4703 
Q 3103 4656 3366 4563 
z
" transform="scale(0.015625)"/>
       </defs>
       <use xlink:href="#DejaVuSans-30" transform="translate(0 0.78125)"/>
       <use xlink:href="#DejaVuSans-2e" transform="translate(63.623047 0.78125)"/>
       <use xlink:href="#DejaVuSans-36" transform="translate(95.410156 0.78125)"/>
      </g>
     </g>
    </g>
    <g id="xtick_5">
     <g id="line2d_9">
      <g>
       <use xlink:href="#m99d1292ee4" x="146.43851" y="148.065354" style="stroke: #000000; stroke-width: 0.5"/>
      </g>
     </g>
     <g id="line2d_10">
      <g>
       <use xlink:href="#m26aa75dfdb" x="146.43851" y="2.834646" style="stroke: #000000; stroke-width: 0.5"/>
      </g>
     </g>
     <g id="text_5">
      <!-- $0.8$ -->
      <g transform="translate(139.37351 158.403948) scale(0.09 -0.09)">
       <defs>
        <path id="DejaVuSans-38" d="M 2034 2216 
Q 1584 2216 1326 1975 
Q 1069 1734 1069 1313 
Q 1069 891 1326 650 
Q 1584 409 2034 409 
Q 2484 409 2743 651 
Q 3003 894 3003 1313 
Q 3003 1734 2745 1975 
Q 2488 2216 2034 2216 
z
M 1403 2484 
Q 997 2584 770 2862 
Q 544 3141 544 3541 
Q 544 4100 942 4425 
Q 1341 4750 2034 4750 
Q 2731 4750 3128 4425 
Q 3525 4100 3525 3541 
Q 3525 3141 3298 2862 
Q 3072 2584 2669 2484 
Q 3125 2378 3379 2068 
Q 3634 1759 3634 1313 
Q 3634 634 3220 271 
Q 2806 -91 2034 -91 
Q 1263 -91 848 271 
Q 434 634 434 1313 
Q 434 1759 690 2068 
Q 947 2378 1403 2484 
z
M 1172 3481 
Q 1172 3119 1398 2916 
Q 1625 2713 2034 2713 
Q 2441 2713 2670 2916 
Q 2900 3119 2900 3481 
Q 2900 3844 2670 4047 
Q 2441 4250 2034 4250 
Q 1625 4250 1398 4047 
Q 1172 3844 1172 3481 
z
" transform="scale(0.015625)"/>
       </defs>
       <use xlink:href="#DejaVuSans-30" transform="translate(0 0.78125)"/>
       <use xlink:href="#DejaVuSans-2e" transform="translate(63.623047 0.78125)"/>
       <use xlink:href="#DejaVuSans-38" transform="translate(92.785156 0.78125)"/>
      </g>
     </g>
    </g>
    <g id="xtick_6">
     <g id="line2d_11">
      <g>
       <use xlink:href="#m99d1292ee4" x="173.129248" y="148.065354" style="stroke: #000000; stroke-width: 0.5"/>
      </g>
     </g>
     <g id="line2d_12">
      <g>
       <use xlink:href="#m26aa75dfdb" x="173.129248" y="2.834646" style="stroke: #000000; stroke-width: 0.5"/>
      </g>
     </g>
     <g id="text_6">
      <!-- $1.0$ -->
      <g transform="translate(165.929248 158.403948) scale(0.09 -0.09)">
       <defs>
        <path id="DejaVuSans-31" d="M 794 531 
L 1825 531 
L 1825 4091 
L 703 3866 
L 703 4441 
L 1819 4666 
L 2450 4666 
L 2450 531 
L 3481 531 
L 3481 0 
L 794 0 
L 794 531 
z
" transform="scale(0.015625)"/>
       </defs>
       <use xlink:href="#DejaVuSans-31" transform="translate(0 0.78125)"/>
       <use xlink:href="#DejaVuSans-2e" transform="translate(63.623047 0.78125)"/>
       <use xlink:href="#DejaVuSans-30" transform="translate(95.410156 0.78125)"/>
      </g>
     </g>
    </g>
    <g id="xtick_7">
     <g id="line2d_13">
      <g>
       <use xlink:href="#m99d1292ee4" x="199.819986" y="148.065354" style="stroke: #000000; stroke-width: 0.5"/>
      </g>
     </g>
     <g id="line2d_14">
      <g>
       <use xlink:href="#m26aa75dfdb" x="199.819986" y="2.834646" style="stroke: #000000; stroke-width: 0.5"/>
      </g>
     </g>
     <g id="text_7">
      <!-- $1.2$ -->
      <g transform="translate(192.889986 158.403948) scale(0.09 -0.09)">
       <use xlink:href="#DejaVuSans-31" transform="translate(0 0.78125)"/>
       <use xlink:href="#DejaVuSans-2e" transform="translate(63.623047 0.78125)"/>
       <use xlink:href="#DejaVuSans-32" transform="translate(89.910156 0.78125)"/>
      </g>
     </g>
    </g>
    <g id="text_8">
     <!-- $k/N$ -->
     <g transform="translate(116.400457 173.393792) scale(0.12 -0.12)">
      <defs>
       <path id="DejaVuSans-Oblique-6b" d="M 1172 4863 
L 1747 4863 
L 1197 2028 
L 3169 3500 
L 3916 3500 
L 1716 1825 
L 3322 0 
L 2625 0 
L 1131 1709 
L 800 0 
L 225 0 
L 1172 4863 
z
" transform="scale(0.015625)"/>
       <path id="DejaVuSans-2f" d="M 1625 4666 
L 2156 4666 
L 531 -594 
L 0 -594 
L 1625 4666 
z
" transform="scale(0.015625)"/>
       <path id="DejaVuSans-Oblique-4e" d="M 1081 4666 
L 1931 4666 
L 3219 666 
L 4000 4666 
L 4616 4666 
L 3706 0 
L 2853 0 
L 1569 4025 
L 788 0 
L 172 0 
L 1081 4666 
z
" transform="scale(0.015625)"/>
      </defs>
      <use xlink:href="#DejaVuSans-Oblique-6b" transform="translate(0 0.015625)"/>
      <use xlink:href="#DejaVuSans-2f" transform="translate(57.910156 0.015625)"/>
      <use xlink:href="#DejaVuSans-Oblique-4e" transform="translate(91.601562 0.015625)"/>
     </g>
    </g>
   </g>
   <g id="matplotlib.axis_2">
    <g id="ytick_1">
     <g id="line2d_15">
      <defs>
       <path id="mf98855c985" d="M 0 0 
L 2.5 0 
" style="stroke: #000000; stroke-width: 0.5"/>
      </defs>
      <g>
       <use xlink:href="#mf98855c985" x="39.67556" y="148.065354" style="stroke: #000000; stroke-width: 0.5"/>
      </g>
     </g>
     <g id="line2d_16">
      <defs>
       <path id="m1356989356" d="M 0 0 
L -2.5 0 
" style="stroke: #000000; stroke-width: 0.5"/>
      </defs>
      <g>
       <use xlink:href="#m1356989356" x="213.165354" y="148.065354" style="stroke: #000000; stroke-width: 0.5"/>
      </g>
     </g>
     <g id="text_9">
      <!-- $0.0$ -->
      <g transform="translate(21.77556 151.484651) scale(0.09 -0.09)">
       <use xlink:href="#DejaVuSans-30" transform="translate(0 0.78125)"/>
       <use xlink:href="#DejaVuSans-2e" transform="translate(63.623047 0.78125)"/>
       <use xlink:href="#DejaVuSans-30" transform="translate(95.410156 0.78125)"/>
      </g>
     </g>
    </g>
    <g id="ytick_2">
     <g id="line2d_17">
      <g>
       <use xlink:href="#mf98855c985" x="39.67556" y="109.337165" style="stroke: #000000; stroke-width: 0.5"/>
      </g>
     </g>
     <g id="line2d_18">
      <g>
       <use xlink:href="#m1356989356" x="213.165354" y="109.337165" style="stroke: #000000; stroke-width: 0.5"/>
      </g>
     </g>
     <g id="text_10">
      <!-- $0.1$ -->
      <g transform="translate(21.77556 112.756462) scale(0.09 -0.09)">
       <use xlink:href="#DejaVuSans-30" transform="translate(0 0.78125)"/>
       <use xlink:href="#DejaVuSans-2e" transform="translate(63.623047 0.78125)"/>
       <use xlink:href="#DejaVuSans-31" transform="translate(95.410156 0.78125)"/>
      </g>
     </g>
    </g>
    <g id="ytick_3">
     <g id="line2d_19">
      <g>
       <use xlink:href="#mf98855c985" x="39.67556" y="70.608976" style="stroke: #000000; stroke-width: 0.5"/>
      </g>
     </g>
     <g id="line2d_20">
      <g>
       <use xlink:href="#m1356989356" x="213.165354" y="70.608976" style="stroke: #000000; stroke-width: 0.5"/>
      </g>
     </g>
     <g id="text_11">
      <!-- $0.2$ -->
      <g transform="translate(22.31556 74.028273) scale(0.09 -0.09)">
       <use xlink:href="#DejaVuSans-30" transform="translate(0 0.78125)"/>
       <use xlink:href="#DejaVuSans-2e" transform="translate(63.623047 0.78125)"/>
       <use xlink:href="#DejaVuSans-32" transform="translate(89.910156 0.78125)"/>
      </g>
     </g>
    </g>
    <g id="ytick_4">
     <g id="line2d_21">
      <g>
       <use xlink:href="#mf98855c985" x="39.67556" y="31.880787" style="stroke: #000000; stroke-width: 0.5"/>
      </g>
     </g>
     <g id="line2d_22">
      <g>
       <use xlink:href="#m1356989356" x="213.165354" y="31.880787" style="stroke: #000000; stroke-width: 0.5"/>
      </g>
     </g>
     <g id="text_12">
      <!-- $0.3$ -->
      <g transform="translate(21.77556 35.300084) scale(0.09 -0.09)">
       <defs>
        <path id="DejaVuSans-33" d="M 2597 2516 
Q 3050 2419 3304 2112 
Q 3559 1806 3559 1356 
Q 3559 666 3084 287 
Q 2609 -91 1734 -91 
Q 1441 -91 1130 -33 
Q 819 25 488 141 
L 488 750 
Q 750 597 1062 519 
Q 1375 441 1716 441 
Q 2309 441 2620 675 
Q 2931 909 2931 1356 
Q 2931 1769 2642 2001 
Q 2353 2234 1838 2234 
L 1294 2234 
L 1294 2753 
L 1863 2753 
Q 2328 2753 2575 2939 
Q 2822 3125 2822 3475 
Q 2822 3834 2567 4026 
Q 2313 4219 1838 4219 
Q 1578 4219 1281 4162 
Q 984 4106 628 3988 
L 628 4550 
Q 988 4650 1302 4700 
Q 1616 4750 1894 4750 
Q 2613 4750 3031 4423 
Q 3450 4097 3450 3541 
Q 3450 3153 3228 2886 
Q 3006 2619 2597 2516 
z
" transform="scale(0.015625)"/>
       </defs>
       <use xlink:href="#DejaVuSans-30" transform="translate(0 0.78125)"/>
       <use xlink:href="#DejaVuSans-2e" transform="translate(63.623047 0.78125)"/>
       <use xlink:href="#DejaVuSans-33" transform="translate(95.410156 0.78125)"/>
      </g>
     </g>
    </g>
    <g id="text_13">
     <!-- $\langle h_{\mathrm{max}}/N \rangle$ -->
     <g transform="translate(15.279935 99.81) rotate(-90) scale(0.12 -0.12)">
      <defs>
       <path id="DejaVuSans-27e8" d="M 572 2006 
L 1453 4856 
L 1984 4856 
L 1103 2006 
L 1984 -844 
L 1453 -844 
L 572 2006 
z
" transform="scale(0.015625)"/>
       <path id="DejaVuSans-Oblique-68" d="M 3566 2113 
L 3156 0 
L 2578 0 
L 2988 2091 
Q 3016 2238 3031 2350 
Q 3047 2463 3047 2528 
Q 3047 2791 2881 2937 
Q 2716 3084 2419 3084 
Q 1956 3084 1617 2771 
Q 1278 2459 1178 1941 
L 800 0 
L 225 0 
L 1172 4863 
L 1747 4863 
L 1375 2950 
Q 1594 3244 1934 3414 
Q 2275 3584 2650 3584 
Q 3113 3584 3367 3334 
Q 3622 3084 3622 2631 
Q 3622 2519 3608 2391 
Q 3594 2263 3566 2113 
z
" transform="scale(0.015625)"/>
       <path id="DejaVuSans-6d" d="M 3328 2828 
Q 3544 3216 3844 3400 
Q 4144 3584 4550 3584 
Q 5097 3584 5394 3201 
Q 5691 2819 5691 2113 
L 5691 0 
L 5113 0 
L 5113 2094 
Q 5113 2597 4934 2840 
Q 4756 3084 4391 3084 
Q 3944 3084 3684 2787 
Q 3425 2491 3425 1978 
L 3425 0 
L 2847 0 
L 2847 2094 
Q 2847 2600 2669 2842 
Q 2491 3084 2119 3084 
Q 1678 3084 1418 2786 
Q 1159 2488 1159 1978 
L 1159 0 
L 581 0 
L 581 3500 
L 1159 3500 
L 1159 2956 
Q 1356 3278 1631 3431 
Q 1906 3584 2284 3584 
Q 2666 3584 2933 3390 
Q 3200 3197 3328 2828 
z
" transform="scale(0.015625)"/>
       <path id="DejaVuSans-61" d="M 2194 1759 
Q 1497 1759 1228 1600 
Q 959 1441 959 1056 
Q 959 750 1161 570 
Q 1363 391 1709 391 
Q 2188 391 2477 730 
Q 2766 1069 2766 1631 
L 2766 1759 
L 2194 1759 
z
M 3341 1997 
L 3341 0 
L 2766 0 
L 2766 531 
Q 2569 213 2275 61 
Q 1981 -91 1556 -91 
Q 1019 -91 701 211 
Q 384 513 384 1019 
Q 384 1609 779 1909 
Q 1175 2209 1959 2209 
L 2766 2209 
L 2766 2266 
Q 2766 2663 2505 2880 
Q 2244 3097 1772 3097 
Q 1472 3097 1187 3025 
Q 903 2953 641 2809 
L 641 3341 
Q 956 3463 1253 3523 
Q 1550 3584 1831 3584 
Q 2591 3584 2966 3190 
Q 3341 2797 3341 1997 
z
" transform="scale(0.015625)"/>
       <path id="DejaVuSans-78" d="M 3513 3500 
L 2247 1797 
L 3578 0 
L 2900 0 
L 1881 1375 
L 863 0 
L 184 0 
L 1544 1831 
L 300 3500 
L 978 3500 
L 1906 2253 
L 2834 3500 
L 3513 3500 
z
" transform="scale(0.015625)"/>
       <path id="DejaVuSans-27e9" d="M 1925 2006 
L 1044 -844 
L 513 -844 
L 1394 2006 
L 513 4856 
L 1044 4856 
L 1925 2006 
z
" transform="scale(0.015625)"/>
      </defs>
      <use xlink:href="#DejaVuSans-27e8" transform="translate(0 0.015625)"/>
      <use xlink:href="#DejaVuSans-Oblique-68" transform="translate(39.013672 0.015625)"/>
      <use xlink:href="#DejaVuSans-6d" transform="translate(102.392578 -16.390625) scale(0.7)"/>
      <use xlink:href="#DejaVuSans-61" transform="translate(170.581055 -16.390625) scale(0.7)"/>
      <use xlink:href="#DejaVuSans-78" transform="translate(213.476562 -16.390625) scale(0.7)"/>
      <use xlink:href="#DejaVuSans-2f" transform="translate(257.636719 0.015625)"/>
      <use xlink:href="#DejaVuSans-Oblique-4e" transform="translate(291.328125 0.015625)"/>
      <use xlink:href="#DejaVuSans-27e9" transform="translate(366.132812 0.015625)"/>
     </g>
    </g>
   </g>
   <g id="line2d_23">
    <path d="M 39.683705 148.065354 
L 39.846612 147.453017 
L 40.840347 144.919824 
L 43.332829 139.154223 
L 48.423684 127.929013 
L 62.474441 98.044871 
L 78.585976 65.520749 
L 85.623573 52.261339 
L 92.742624 39.782774 
L 99.894256 28.69341 
L 101.702527 26.178662 
L 103.347891 24.108778 
L 107.290249 19.877712 
L 109.424335 18.11445 
L 110.711303 17.252773 
L 111.574712 16.783223 
L 113.407419 16.076744 
L 115.126092 15.779514 
L 116.250152 15.815728 
L 117.137997 15.982161 
L 119.288374 16.849968 
L 120.624214 17.730587 
L 122.131107 19.028855 
L 123.149278 20.095274 
L 124.346647 21.535944 
L 126.497023 24.592344 
L 128.280859 27.557976 
L 130.569707 31.85778 
L 132.940009 36.855916 
L 136.157428 44.316971 
L 139.993896 53.964774 
L 144.995151 67.367256 
L 151.690643 86.118737 
L 162.19002 116.313101 
L 173.129248 148.016692 
L 173.129248 148.016692 
" clip-path="url(#p6ff3ad1c55)" style="fill: none; stroke-dasharray: 3.7,1.6; stroke-dashoffset: 0; stroke: #009afa"/>
   </g>
   <g id="patch_3">
    <path d="M 39.67556 148.065354 
L 39.67556 2.834646 
" style="fill: none; stroke: #000000; stroke-linejoin: miter; stroke-linecap: square"/>
   </g>
   <g id="patch_4">
    <path d="M 213.165354 148.065354 
L 213.165354 2.834646 
" style="fill: none; stroke: #000000; stroke-linejoin: miter; stroke-linecap: square"/>
   </g>
   <g id="patch_5">
    <path d="M 39.67556 148.065354 
L 213.165354 148.065354 
" style="fill: none; stroke: #000000; stroke-linejoin: miter; stroke-linecap: square"/>
   </g>
   <g id="patch_6">
    <path d="M 39.67556 2.834646 
L 213.165354 2.834646 
" style="fill: none; stroke: #000000; stroke-linejoin: miter; stroke-linecap: square"/>
   </g>
   <g id="line2d_24">
    <path d="M 39.683705 148.065354 
L 39.814031 147.82257 
L 40.359771 147.574799 
L 43.12105 146.476988 
L 44.188093 145.778475 
L 45.548369 144.515341 
L 47.46253 141.886234 
L 49.042731 138.966641 
L 51.274562 133.992119 
L 54.215039 126.832265 
L 58.654264 115.749174 
L 68.363541 92.029868 
L 74.969434 76.734179 
L 86.389238 52.089445 
L 95.528339 34.693616 
L 101.246387 25.595714 
L 104.154283 21.715552 
L 106.646765 18.961345 
L 108.365437 17.362625 
L 109.342881 16.600613 
L 112.364812 15.017266 
L 114.173084 14.590848 
L 115.631104 14.561119 
L 116.632984 14.73295 
L 117.618574 15.03843 
L 118.946269 15.683293 
L 120.559051 16.825298 
L 122.326596 18.50378 
L 124.297774 20.892381 
L 126.040883 23.423833 
L 127.507049 25.832195 
L 128.956924 28.445552 
L 131.139883 32.784792 
L 134.064069 39.229397 
L 137.371088 47.199799 
L 141.370463 57.522202 
L 147.007057 72.898669 
L 153.262698 90.575055 
L 165.07348 124.637558 
L 173.129248 147.871335 
L 173.129248 147.871335 
" clip-path="url(#p6ff3ad1c55)" style="fill: none; stroke: #e36f47"/>
   </g>
   <g id="line2d_25">
    <path d="M 39.683705 148.065354 
L 39.805886 147.865418 
L 40.351625 147.74544 
L 42.24135 147.566864 
L 46.191853 147.161224 
L 49.710652 146.477681 
L 51.592231 145.842045 
L 53.050252 145.121754 
L 54.035841 144.490876 
L 55.363536 143.405964 
L 56.047747 142.692488 
L 57.139226 141.371323 
L 59.933087 136.742875 
L 61.10602 134.101499 
L 65.463791 121.82283 
L 66.335345 119.02955 
L 66.67745 117.881808 
L 68.159907 112.889062 
L 68.705647 111.010218 
L 70.277702 105.565493 
L 70.701262 104.092692 
L 74.716927 90.256717 
L 76.671815 83.810473 
L 78.300889 78.715508 
L 80.459411 72.220122 
L 81.705652 68.542425 
L 82.960038 65.003774 
L 89.0935 48.688445 
L 92.270193 41.052289 
L 94.379843 36.327446 
L 100.016436 25.283041 
L 101.450021 22.906827 
L 103.413054 19.966212 
L 104.911802 18.007402 
L 107.664936 15.05875 
L 108.797142 14.117721 
L 109.75015 13.468446 
L 112.926843 12.132681 
L 113.814688 12.033552 
L 114.808422 12.065683 
L 116.413059 12.41468 
L 117.789626 13.043131 
L 118.799652 13.684369 
L 120.990756 15.609827 
L 122.473212 17.28451 
L 124.721334 20.384979 
L 126.20379 22.766985 
L 128.802162 27.497573 
L 130.871085 31.728347 
L 133.330986 37.206095 
L 136.776476 45.518969 
L 140.792142 55.895117 
L 144.669337 66.393173 
L 149.752045 80.595959 
L 161.351048 113.883906 
L 173.129248 147.916074 
L 173.129248 147.916074 
" clip-path="url(#p6ff3ad1c55)" style="fill: none; stroke: #3ea44e"/>
   </g>
   <g id="line2d_26">
    <path d="M 39.683705 148.065354 
L 39.805886 147.899661 
L 40.498242 147.826912 
L 44.489471 147.671769 
L 51.584086 147.29986 
L 57.489477 146.628963 
L 59.89236 146.11659 
L 63.199379 144.990099 
L 64.755144 144.167401 
L 65.585971 143.612211 
L 66.392363 143.009219 
L 67.475696 142.029967 
L 68.648629 140.690948 
L 70.684971 137.512671 
L 71.132966 136.608407 
L 71.621688 135.638863 
L 72.281463 134.265112 
L 72.892365 132.848002 
L 73.812792 130.378741 
L 74.236351 128.995984 
L 75.441865 124.789864 
L 77.575951 115.522243 
L 77.950638 113.657826 
L 79.938107 103.066779 
L 80.557155 99.472571 
L 86.120441 68.189977 
L 86.446255 66.647051 
L 88.873575 56.004867 
L 89.500768 53.501852 
L 91.545255 46.000944 
L 95.275833 34.139546 
L 98.851649 25.086753 
L 101.963179 18.742924 
L 103.926212 15.500076 
L 105.359797 13.543921 
L 106.663056 12.053612 
L 108.169948 10.636754 
L 108.854159 10.120394 
L 111.061554 9.009015 
L 112.267068 8.724093 
L 114.124211 8.741632 
L 116.005791 9.325202 
L 117.056543 9.917534 
L 119.475717 11.889227 
L 120.632359 13.129511 
L 121.642385 14.366344 
L 123.295894 16.690161 
L 125.625469 20.527066 
L 128.223841 25.442391 
L 131.433116 32.311713 
L 133.933743 38.170328 
L 137.680612 47.551395 
L 141.18312 56.792802 
L 146.575352 71.616924 
L 155.364203 96.602642 
L 172.094786 145.039715 
L 173.129248 147.916491 
L 173.129248 147.916491 
" clip-path="url(#p6ff3ad1c55)" style="fill: none; stroke: #c371d2"/>
   </g>
   <g id="line2d_27">
    <path d="M 39.683705 148.065354 
L 39.805886 147.921227 
L 40.644858 147.865284 
L 58.621683 147.145513 
L 62.278952 146.747846 
L 65.919931 146.107537 
L 67.532714 145.673129 
L 70.799006 144.36963 
L 74.293368 141.739979 
L 75.335975 140.596894 
L 76.077204 139.564205 
L 78.341615 135.39797 
L 79.897381 131.14697 
L 82.137356 122.318247 
L 84.002645 111.426078 
L 84.76831 105.936559 
L 85.028962 104.031194 
L 89.541495 67.749802 
L 91.268312 56.412911 
L 91.911796 52.625235 
L 92.229466 50.884807 
L 92.628589 48.8334 
L 93.377962 45.142954 
L 97.075959 30.359426 
L 99.438115 23.274725 
L 101.898016 17.305958 
L 103.31531 14.543903 
L 104.765185 12.157477 
L 106.312805 10.07014 
L 107.265813 9.016839 
L 108.112931 8.217479 
L 109.342881 7.333055 
L 110.116691 6.918117 
L 110.678721 6.696646 
L 112.055288 6.432872 
L 113.146767 6.407343 
L 115.451906 7.088459 
L 117.455666 8.41257 
L 119.703788 10.619672 
L 120.925593 12.133437 
L 122.733864 14.714277 
L 125.193765 18.864288 
L 128.31344 24.988459 
L 131.107301 31.13819 
L 133.721964 37.349608 
L 137.41996 46.697322 
L 142.690012 60.798032 
L 148.717584 77.610378 
L 157.661197 103.213987 
L 173.129248 147.915325 
L 173.129248 147.915325 
" clip-path="url(#p6ff3ad1c55)" style="fill: none; stroke: #ac8e18"/>
   </g>
   <g id="line2d_28">
    <path d="M 39.683705 148.065354 
L 39.79774 147.969369 
L 59.908651 147.469437 
L 68.656774 146.859676 
L 75.148632 145.673547 
L 78.072818 144.545535 
L 79.44124 143.808066 
L 80.10916 143.358081 
L 82.015176 141.637989 
L 83.758284 139.296254 
L 84.002645 138.898336 
L 84.784601 137.457469 
L 85.175578 136.618461 
L 85.639864 135.506381 
L 86.503273 133.159028 
L 87.529589 129.620132 
L 88.181218 126.579885 
L 88.629214 124.309623 
L 88.922447 122.541585 
L 89.085354 121.570284 
L 90.331595 112.436476 
L 90.616683 109.945059 
L 90.861044 107.692313 
L 91.936233 96.648656 
L 92.449391 90.833014 
L 93.190619 81.751683 
L 94.151772 69.904215 
L 94.355406 67.498942 
L 94.738239 63.241953 
L 95.072199 59.72445 
L 95.552775 55.104519 
L 95.870445 52.048205 
L 96.872325 43.711772 
L 98.957539 31.06808 
L 100.839118 22.826363 
L 103.242002 15.111455 
L 104.659295 11.685517 
L 106.190624 8.757343 
L 107.290249 7.159341 
L 108.846014 5.45808 
L 109.676841 4.813438 
L 110.475087 4.38427 
L 111.696892 3.995782 
L 113.716943 4.087702 
L 115.158673 4.654016 
L 115.932483 5.12448 
L 118.009551 6.935617 
L 119.532735 8.647727 
L 121.446896 11.281625 
L 122.7583 13.367654 
L 125.128602 17.642465 
L 128.443766 24.491789 
L 130.75705 29.756702 
L 134.08036 37.855575 
L 138.112316 48.292409 
L 143.129862 61.9057 
L 152.122347 87.277738 
L 165.871726 126.983153 
L 173.129248 147.911961 
L 173.129248 147.911961 
" clip-path="url(#p6ff3ad1c55)" style="fill: none; stroke-dasharray: 1,1.65; stroke-dashoffset: 0; stroke: #00aaae"/>
   </g>
   <g id="PathCollection_2">
    <defs>
     <path id="m170a049a4d" d="M -2 2 
L 2 -2 
M -2 -2 
L 2 2 
" style="stroke: #009afa; stroke-width: 0.7"/>
    </defs>
    <g clip-path="url(#p6ff3ad1c55)">
     <use xlink:href="#m170a049a4d" x="60.991669" y="101.121442" style="fill: #009afa; stroke: #009afa; stroke-width: 0.7"/>
    </g>
   </g>
   <g id="PathCollection_3">
    <defs>
     <path id="m4ce5bb9270" d="M -2 2 
L 2 -2 
M -2 -2 
L 2 2 
" style="stroke: #e36f47; stroke-width: 0.7"/>
    </defs>
    <g clip-path="url(#p6ff3ad1c55)">
     <use xlink:href="#m4ce5bb9270" x="64.538811" y="101.219965" style="fill: #e36f47; stroke: #e36f47; stroke-width: 0.7"/>
    </g>
   </g>
   <g id="PathCollection_4">
    <defs>
     <path id="med816a8767" d="M -2 2 
L 2 -2 
M -2 -2 
L 2 2 
" style="stroke: #3ea44e; stroke-width: 0.7"/>
    </defs>
    <g clip-path="url(#p6ff3ad1c55)">
     <use xlink:href="#med816a8767" x="71.092668" y="102.751238" style="fill: #3ea44e; stroke: #3ea44e; stroke-width: 0.7"/>
    </g>
   </g>
   <g id="PathCollection_5">
    <defs>
     <path id="m44e2f7c28d" d="M -2 2 
L 2 -2 
M -2 -2 
L 2 2 
" style="stroke: #c371d2; stroke-width: 0.7"/>
    </defs>
    <g clip-path="url(#p6ff3ad1c55)">
     <use xlink:href="#m44e2f7c28d" x="79.839977" y="103.588631" style="fill: #c371d2; stroke: #c371d2; stroke-width: 0.7"/>
    </g>
   </g>
   <g id="PathCollection_6">
    <defs>
     <path id="m14314cac42" d="M -2 2 
L 2 -2 
M -2 -2 
L 2 2 
" style="stroke: #ac8e18; stroke-width: 0.7"/>
    </defs>
    <g clip-path="url(#p6ff3ad1c55)">
     <use xlink:href="#m14314cac42" x="85.007355" y="104.242508" style="fill: #ac8e18; stroke: #ac8e18; stroke-width: 0.7"/>
    </g>
   </g>
   <g id="PathCollection_7">
    <defs>
     <path id="m62b1becaee" d="M -2 2 
L 2 -2 
M -2 -2 
L 2 2 
" style="stroke: #00aaae; stroke-width: 0.7"/>
    </defs>
    <g clip-path="url(#p6ff3ad1c55)">
     <use xlink:href="#m62b1becaee" x="91.333451" y="103.204186" style="fill: #00aaae; stroke: #00aaae; stroke-width: 0.7"/>
    </g>
   </g>
   <g id="PathCollection_8">
    <defs>
     <path id="mc13de24352" d="M -0 3.535534 
L 3.535534 0 
L 0 -3.535534 
L -3.535534 -0 
z
" style="stroke: #009afa"/>
    </defs>
    <g clip-path="url(#p6ff3ad1c55)">
     <use xlink:href="#mc13de24352" x="39.708141" y="147.894146" style="fill-opacity: 0; stroke: #009afa"/>
    </g>
   </g>
   <g id="PathCollection_9">
    <defs>
     <path id="me9ee7a780f" d="M -0 3.535534 
L 3.535534 0 
L 0 -3.535534 
L -3.535534 -0 
z
" style="stroke: #e36f47"/>
    </defs>
    <g clip-path="url(#p6ff3ad1c55)">
     <use xlink:href="#me9ee7a780f" x="45.027066" y="145.048776" style="fill-opacity: 0; stroke: #e36f47"/>
    </g>
   </g>
   <g id="PathCollection_10">
    <defs>
     <path id="ma0667390d2" d="M -0 3.535534 
L 3.535534 0 
L 0 -3.535534 
L -3.535534 -0 
z
" style="stroke: #3ea44e"/>
    </defs>
    <g clip-path="url(#p6ff3ad1c55)">
     <use xlink:href="#ma0667390d2" x="58.597247" y="139.20428" style="fill-opacity: 0; stroke: #3ea44e"/>
    </g>
   </g>
   <g id="PathCollection_11">
    <defs>
     <path id="ma8c3738ce3" d="M -0 3.535534 
L 3.535534 0 
L 0 -3.535534 
L -3.535534 -0 
z
" style="stroke: #c371d2"/>
    </defs>
    <g clip-path="url(#p6ff3ad1c55)">
     <use xlink:href="#ma8c3738ce3" x="95.463176" y="33.621625" style="fill-opacity: 0; stroke: #c371d2"/>
    </g>
   </g>
   <g id="PathCollection_12">
    <defs>
     <path id="m28545bba04" d="M -0 3.535534 
L 3.535534 0 
L 0 -3.535534 
L -3.535534 -0 
z
" style="stroke: #ac8e18"/>
    </defs>
    <g clip-path="url(#p6ff3ad1c55)">
     <use xlink:href="#m28545bba04" x="100.879845" y="19.594011" style="fill-opacity: 0; stroke: #ac8e18"/>
    </g>
   </g>
   <g id="PathCollection_13">
    <defs>
     <path id="mede4167f33" d="M -0 3.535534 
L 3.535534 0 
L 0 -3.535534 
L -3.535534 -0 
z
" style="stroke: #00aaae"/>
    </defs>
    <g clip-path="url(#p6ff3ad1c55)">
     <use xlink:href="#mede4167f33" x="110.857919" y="4.215173" style="fill-opacity: 0; stroke: #00aaae"/>
    </g>
   </g>
   <g id="legend_1">
    <g id="patch_7">
     <path d="M 149.026292 109.706833 
L 208.665354 109.706833 
L 208.665354 7.334646 
L 149.026292 7.334646 
L 149.026292 109.706833 
z
" style="fill: none; opacity: 0"/>
    </g>
    <g id="line2d_29">
     <path d="M 156.226292 18.223239 
L 165.226292 18.223239 
L 174.226292 18.223239 
" style="fill: none"/>
     <defs>
      <path id="m334a150268" d="M 0 3.6 
C 0.954731 3.6 1.870488 3.220681 2.545584 2.545584 
C 3.220681 1.870488 3.6 0.954731 3.6 0 
C 3.6 -0.954731 3.220681 -1.870488 2.545584 -2.545584 
C 1.870488 -3.220681 0.954731 -3.6 0 -3.6 
C -0.954731 -3.6 -1.870488 -3.220681 -2.545584 -2.545584 
C -3.220681 -1.870488 -3.6 -0.954731 -3.6 0 
C -3.6 0.954731 -3.220681 1.870488 -2.545584 2.545584 
C -1.870488 3.220681 -0.954731 3.6 0 3.6 
z
" style="stroke: #ffffff; stroke-width: inf"/>
     </defs>
     <g>
      <use xlink:href="#m334a150268" x="165.226292" y="18.223239" style="fill: #ffffff; fill-opacity: 0; stroke: #ffffff; stroke-width: inf"/>
     </g>
    </g>
    <g id="text_14">
     <!-- $t_0$ -->
     <g transform="translate(181.426292 21.373239) scale(0.09 -0.09)">
      <defs>
       <path id="DejaVuSans-Oblique-74" d="M 2706 3500 
L 2619 3053 
L 1472 3053 
L 1100 1153 
Q 1081 1047 1072 975 
Q 1063 903 1063 863 
Q 1063 663 1183 572 
Q 1303 481 1569 481 
L 2150 481 
L 2053 0 
L 1503 0 
Q 991 0 739 200 
Q 488 400 488 806 
Q 488 878 497 964 
Q 506 1050 525 1153 
L 897 3053 
L 409 3053 
L 500 3500 
L 978 3500 
L 1172 4494 
L 1747 4494 
L 1556 3500 
L 2706 3500 
z
" transform="scale(0.015625)"/>
      </defs>
      <use xlink:href="#DejaVuSans-Oblique-74" transform="translate(0 0.78125)"/>
      <use xlink:href="#DejaVuSans-30" transform="translate(39.208984 -15.625) scale(0.7)"/>
     </g>
    </g>
    <g id="line2d_30">
     <path d="M 156.226292 31.433552 
L 165.226292 31.433552 
L 174.226292 31.433552 
" style="fill: none; stroke-dasharray: 4.1625,1.8; stroke-dashoffset: 0; stroke: #009afa; stroke-width: 1.125; stroke-linejoin: miter"/>
    </g>
    <g id="text_15">
     <!-- 0.1 -->
     <g transform="translate(181.426292 34.583552) scale(0.09 -0.09)">
      <use xlink:href="#DejaVuSans-30"/>
      <use xlink:href="#DejaVuSans-2e" x="63.623047"/>
      <use xlink:href="#DejaVuSans-31" x="95.410156"/>
     </g>
    </g>
    <g id="line2d_31">
     <path d="M 156.226292 44.643864 
L 165.226292 44.643864 
L 174.226292 44.643864 
" style="fill: none; stroke: #e36f47; stroke-width: 1.125; stroke-linejoin: miter"/>
    </g>
    <g id="text_16">
     <!-- 0.27 -->
     <g transform="translate(181.426292 47.793864) scale(0.09 -0.09)">
      <defs>
       <path id="DejaVuSans-37" d="M 525 4666 
L 3525 4666 
L 3525 4397 
L 1831 0 
L 1172 0 
L 2766 4134 
L 525 4134 
L 525 4666 
z
" transform="scale(0.015625)"/>
      </defs>
      <use xlink:href="#DejaVuSans-30"/>
      <use xlink:href="#DejaVuSans-2e" x="63.623047"/>
      <use xlink:href="#DejaVuSans-32" x="95.410156"/>
      <use xlink:href="#DejaVuSans-37" x="159.033203"/>
     </g>
    </g>
    <g id="line2d_32">
     <path d="M 156.226292 57.854177 
L 165.226292 57.854177 
L 174.226292 57.854177 
" style="fill: none; stroke: #3ea44e; stroke-width: 1.125; stroke-linejoin: miter"/>
    </g>
    <g id="text_17">
     <!-- 0.3 -->
     <g transform="translate(181.426292 61.004177) scale(0.09 -0.09)">
      <use xlink:href="#DejaVuSans-30"/>
      <use xlink:href="#DejaVuSans-2e" x="63.623047"/>
      <use xlink:href="#DejaVuSans-33" x="95.410156"/>
     </g>
    </g>
    <g id="line2d_33">
     <path d="M 156.226292 71.064489 
L 165.226292 71.064489 
L 174.226292 71.064489 
" style="fill: none; stroke: #c371d2; stroke-width: 1.125; stroke-linejoin: miter"/>
    </g>
    <g id="text_18">
     <!-- 0.35 -->
     <g transform="translate(181.426292 74.214489) scale(0.09 -0.09)">
      <defs>
       <path id="DejaVuSans-35" d="M 691 4666 
L 3169 4666 
L 3169 4134 
L 1269 4134 
L 1269 2991 
Q 1406 3038 1543 3061 
Q 1681 3084 1819 3084 
Q 2600 3084 3056 2656 
Q 3513 2228 3513 1497 
Q 3513 744 3044 326 
Q 2575 -91 1722 -91 
Q 1428 -91 1123 -41 
Q 819 9 494 109 
L 494 744 
Q 775 591 1075 516 
Q 1375 441 1709 441 
Q 2250 441 2565 725 
Q 2881 1009 2881 1497 
Q 2881 1984 2565 2268 
Q 2250 2553 1709 2553 
Q 1456 2553 1204 2497 
Q 953 2441 691 2322 
L 691 4666 
z
" transform="scale(0.015625)"/>
      </defs>
      <use xlink:href="#DejaVuSans-30"/>
      <use xlink:href="#DejaVuSans-2e" x="63.623047"/>
      <use xlink:href="#DejaVuSans-33" x="95.410156"/>
      <use xlink:href="#DejaVuSans-35" x="159.033203"/>
     </g>
    </g>
    <g id="line2d_34">
     <path d="M 156.226292 84.274802 
L 165.226292 84.274802 
L 174.226292 84.274802 
" style="fill: none; stroke: #ac8e18; stroke-width: 1.125; stroke-linejoin: miter"/>
    </g>
    <g id="text_19">
     <!-- 0.4 -->
     <g transform="translate(181.426292 87.424802) scale(0.09 -0.09)">
      <use xlink:href="#DejaVuSans-30"/>
      <use xlink:href="#DejaVuSans-2e" x="63.623047"/>
      <use xlink:href="#DejaVuSans-34" x="95.410156"/>
     </g>
    </g>
    <g id="line2d_35">
     <path d="M 156.226292 97.485114 
L 165.226292 97.485114 
L 174.226292 97.485114 
" style="fill: none; stroke-dasharray: 1.125,1.85625; stroke-dashoffset: 0; stroke: #00aaae; stroke-width: 1.125; stroke-linejoin: miter"/>
    </g>
    <g id="text_20">
     <!-- 0.5 -->
     <g transform="translate(181.426292 100.635114) scale(0.09 -0.09)">
      <use xlink:href="#DejaVuSans-30"/>
      <use xlink:href="#DejaVuSans-2e" x="63.623047"/>
      <use xlink:href="#DejaVuSans-35" x="95.410156"/>
     </g>
    </g>
   </g>
  </g>
 </g>
 <defs>
  <clipPath id="p6ff3ad1c55">
   <rect x="39.67556" y="2.834646" width="173.489795" height="145.230709"/>
  </clipPath>
 </defs>
</svg>
