<?xml version="1.0" encoding="utf-8" standalone="no"?>
<!DOCTYPE svg PUBLIC "-//W3C//DTD SVG 1.1//EN"
  "http://www.w3.org/Graphics/SVG/1.1/DTD/svg11.dtd">
<svg xmlns:xlink="http://www.w3.org/1999/xlink" width="216pt" height="180pt" viewBox="0 0 216 180" xmlns="http://www.w3.org/2000/svg" version="1.1">
 <metadata>
  <rdf:RDF xmlns:dc="http://purl.org/dc/elements/1.1/" xmlns:cc="http://creativecommons.org/ns#" xmlns:rdf="http://www.w3.org/1999/02/22-rdf-syntax-ns#">
   <cc:Work>
    <dc:type rdf:resource="http://purl.org/dc/dcmitype/StillImage"/>
    <dc:date>2023-05-19T13:30:03.701905</dc:date>
    <dc:format>image/svg+xml</dc:format>
    <dc:creator>
     <cc:Agent>
      <dc:title>Matplotlib v3.6.3, https://matplotlib.org/</dc:title>
     </cc:Agent>
    </dc:creator>
   </cc:Work>
  </rdf:RDF>
 </metadata>
 <defs>
  <style type="text/css">*{stroke-linejoin: round; stroke-linecap: butt}</style>
 </defs>
 <g id="figure_1">
  <g id="patch_1">
   <path d="M 0 180 
L 216 180 
L 216 0 
L 0 0 
z
" style="fill: #ffffff"/>
  </g>
  <g id="axes_1">
   <g id="patch_2">
    <path d="M 39.75431 148.065354 
L 213.165354 148.065354 
L 213.165354 2.834646 
L 39.75431 2.834646 
z
" style="fill: #ffffff"/>
   </g>
   <g id="PathCollection_1">
    <defs>
     <path id="mdbc69e6931" d="M 0 0 
C 0 0 0 0 0 0 
C 0 0 0 0 0 0 
C 0 0 0 0 0 0 
C 0 0 0 0 0 0 
C 0 0 0 0 0 0 
C 0 0 0 0 0 0 
C 0 0 0 0 0 0 
C 0 0 0 0 0 0 
z
" style="stroke: #ffffff; stroke-width: 0.7"/>
    </defs>
    <g clip-path="url(#p410da6e64f)">
     <use xlink:href="#mdbc69e6931" x="39.75431" y="148.065354" style="fill: #ffffff; fill-opacity: 0; stroke: #ffffff; stroke-width: 0.7"/>
    </g>
   </g>
   <g id="matplotlib.axis_1">
    <g id="xtick_1">
     <g id="line2d_1">
      <defs>
       <path id="m306e62529c" d="M 0 0 
L 0 -2.5 
" style="stroke: #000000; stroke-width: 0.5"/>
      </defs>
      <g>
       <use xlink:href="#m306e62529c" x="39.75431" y="148.065354" style="stroke: #000000; stroke-width: 0.5"/>
      </g>
     </g>
     <g id="line2d_2">
      <defs>
       <path id="m8ccaf9170c" d="M 0 0 
L 0 2.5 
" style="stroke: #000000; stroke-width: 0.5"/>
      </defs>
      <g>
       <use xlink:href="#m8ccaf9170c" x="39.75431" y="2.834646" style="stroke: #000000; stroke-width: 0.5"/>
      </g>
     </g>
     <g id="text_1">
      <!-- $0.0$ -->
      <g transform="translate(32.55431 158.403948) scale(0.09 -0.09)">
       <defs>
        <path id="DejaVuSans-30" d="M 2034 4250 
Q 1547 4250 1301 3770 
Q 1056 3291 1056 2328 
Q 1056 1369 1301 889 
Q 1547 409 2034 409 
Q 2525 409 2770 889 
Q 3016 1369 3016 2328 
Q 3016 3291 2770 3770 
Q 2525 4250 2034 4250 
z
M 2034 4750 
Q 2819 4750 3233 4129 
Q 3647 3509 3647 2328 
Q 3647 1150 3233 529 
Q 2819 -91 2034 -91 
Q 1250 -91 836 529 
Q 422 1150 422 2328 
Q 422 3509 836 4129 
Q 1250 4750 2034 4750 
z
" transform="scale(0.015625)"/>
        <path id="DejaVuSans-2e" d="M 684 794 
L 1344 794 
L 1344 0 
L 684 0 
L 684 794 
z
" transform="scale(0.015625)"/>
       </defs>
       <use xlink:href="#DejaVuSans-30" transform="translate(0 0.78125)"/>
       <use xlink:href="#DejaVuSans-2e" transform="translate(63.623047 0.78125)"/>
       <use xlink:href="#DejaVuSans-30" transform="translate(95.410156 0.78125)"/>
      </g>
     </g>
    </g>
    <g id="xtick_2">
     <g id="line2d_3">
      <g>
       <use xlink:href="#m306e62529c" x="66.432932" y="148.065354" style="stroke: #000000; stroke-width: 0.5"/>
      </g>
     </g>
     <g id="line2d_4">
      <g>
       <use xlink:href="#m8ccaf9170c" x="66.432932" y="2.834646" style="stroke: #000000; stroke-width: 0.5"/>
      </g>
     </g>
     <g id="text_2">
      <!-- $0.2$ -->
      <g transform="translate(59.502932 158.403948) scale(0.09 -0.09)">
       <defs>
        <path id="DejaVuSans-32" d="M 1228 531 
L 3431 531 
L 3431 0 
L 469 0 
L 469 531 
Q 828 903 1448 1529 
Q 2069 2156 2228 2338 
Q 2531 2678 2651 2914 
Q 2772 3150 2772 3378 
Q 2772 3750 2511 3984 
Q 2250 4219 1831 4219 
Q 1534 4219 1204 4116 
Q 875 4013 500 3803 
L 500 4441 
Q 881 4594 1212 4672 
Q 1544 4750 1819 4750 
Q 2544 4750 2975 4387 
Q 3406 4025 3406 3419 
Q 3406 3131 3298 2873 
Q 3191 2616 2906 2266 
Q 2828 2175 2409 1742 
Q 1991 1309 1228 531 
z
" transform="scale(0.015625)"/>
       </defs>
       <use xlink:href="#DejaVuSans-30" transform="translate(0 0.78125)"/>
       <use xlink:href="#DejaVuSans-2e" transform="translate(63.623047 0.78125)"/>
       <use xlink:href="#DejaVuSans-32" transform="translate(89.910156 0.78125)"/>
      </g>
     </g>
    </g>
    <g id="xtick_3">
     <g id="line2d_5">
      <g>
       <use xlink:href="#m306e62529c" x="93.111554" y="148.065354" style="stroke: #000000; stroke-width: 0.5"/>
      </g>
     </g>
     <g id="line2d_6">
      <g>
       <use xlink:href="#m8ccaf9170c" x="93.111554" y="2.834646" style="stroke: #000000; stroke-width: 0.5"/>
      </g>
     </g>
     <g id="text_3">
      <!-- $0.4$ -->
      <g transform="translate(85.911554 158.403948) scale(0.09 -0.09)">
       <defs>
        <path id="DejaVuSans-34" d="M 2419 4116 
L 825 1625 
L 2419 1625 
L 2419 4116 
z
M 2253 4666 
L 3047 4666 
L 3047 1625 
L 3713 1625 
L 3713 1100 
L 3047 1100 
L 3047 0 
L 2419 0 
L 2419 1100 
L 313 1100 
L 313 1709 
L 2253 4666 
z
" transform="scale(0.015625)"/>
       </defs>
       <use xlink:href="#DejaVuSans-30" transform="translate(0 0.78125)"/>
       <use xlink:href="#DejaVuSans-2e" transform="translate(63.623047 0.78125)"/>
       <use xlink:href="#DejaVuSans-34" transform="translate(95.410156 0.78125)"/>
      </g>
     </g>
    </g>
    <g id="xtick_4">
     <g id="line2d_7">
      <g>
       <use xlink:href="#m306e62529c" x="119.790176" y="148.065354" style="stroke: #000000; stroke-width: 0.5"/>
      </g>
     </g>
     <g id="line2d_8">
      <g>
       <use xlink:href="#m8ccaf9170c" x="119.790176" y="2.834646" style="stroke: #000000; stroke-width: 0.5"/>
      </g>
     </g>
     <g id="text_4">
      <!-- $0.6$ -->
      <g transform="translate(112.590176 158.403948) scale(0.09 -0.09)">
       <defs>
        <path id="DejaVuSans-36" d="M 2113 2584 
Q 1688 2584 1439 2293 
Q 1191 2003 1191 1497 
Q 1191 994 1439 701 
Q 1688 409 2113 409 
Q 2538 409 2786 701 
Q 3034 994 3034 1497 
Q 3034 2003 2786 2293 
Q 2538 2584 2113 2584 
z
M 3366 4563 
L 3366 3988 
Q 3128 4100 2886 4159 
Q 2644 4219 2406 4219 
Q 1781 4219 1451 3797 
Q 1122 3375 1075 2522 
Q 1259 2794 1537 2939 
Q 1816 3084 2150 3084 
Q 2853 3084 3261 2657 
Q 3669 2231 3669 1497 
Q 3669 778 3244 343 
Q 2819 -91 2113 -91 
Q 1303 -91 875 529 
Q 447 1150 447 2328 
Q 447 3434 972 4092 
Q 1497 4750 2381 4750 
Q 2619 4750 2861 4703 
Q 3103 4656 3366 4563 
z
" transform="scale(0.015625)"/>
       </defs>
       <use xlink:href="#DejaVuSans-30" transform="translate(0 0.78125)"/>
       <use xlink:href="#DejaVuSans-2e" transform="translate(63.623047 0.78125)"/>
       <use xlink:href="#DejaVuSans-36" transform="translate(95.410156 0.78125)"/>
      </g>
     </g>
    </g>
    <g id="xtick_5">
     <g id="line2d_9">
      <g>
       <use xlink:href="#m306e62529c" x="146.468799" y="148.065354" style="stroke: #000000; stroke-width: 0.5"/>
      </g>
     </g>
     <g id="line2d_10">
      <g>
       <use xlink:href="#m8ccaf9170c" x="146.468799" y="2.834646" style="stroke: #000000; stroke-width: 0.5"/>
      </g>
     </g>
     <g id="text_5">
      <!-- $0.8$ -->
      <g transform="translate(139.403799 158.403948) scale(0.09 -0.09)">
       <defs>
        <path id="DejaVuSans-38" d="M 2034 2216 
Q 1584 2216 1326 1975 
Q 1069 1734 1069 1313 
Q 1069 891 1326 650 
Q 1584 409 2034 409 
Q 2484 409 2743 651 
Q 3003 894 3003 1313 
Q 3003 1734 2745 1975 
Q 2488 2216 2034 2216 
z
M 1403 2484 
Q 997 2584 770 2862 
Q 544 3141 544 3541 
Q 544 4100 942 4425 
Q 1341 4750 2034 4750 
Q 2731 4750 3128 4425 
Q 3525 4100 3525 3541 
Q 3525 3141 3298 2862 
Q 3072 2584 2669 2484 
Q 3125 2378 3379 2068 
Q 3634 1759 3634 1313 
Q 3634 634 3220 271 
Q 2806 -91 2034 -91 
Q 1263 -91 848 271 
Q 434 634 434 1313 
Q 434 1759 690 2068 
Q 947 2378 1403 2484 
z
M 1172 3481 
Q 1172 3119 1398 2916 
Q 1625 2713 2034 2713 
Q 2441 2713 2670 2916 
Q 2900 3119 2900 3481 
Q 2900 3844 2670 4047 
Q 2441 4250 2034 4250 
Q 1625 4250 1398 4047 
Q 1172 3844 1172 3481 
z
" transform="scale(0.015625)"/>
       </defs>
       <use xlink:href="#DejaVuSans-30" transform="translate(0 0.78125)"/>
       <use xlink:href="#DejaVuSans-2e" transform="translate(63.623047 0.78125)"/>
       <use xlink:href="#DejaVuSans-38" transform="translate(92.785156 0.78125)"/>
      </g>
     </g>
    </g>
    <g id="xtick_6">
     <g id="line2d_11">
      <g>
       <use xlink:href="#m306e62529c" x="173.147421" y="148.065354" style="stroke: #000000; stroke-width: 0.5"/>
      </g>
     </g>
     <g id="line2d_12">
      <g>
       <use xlink:href="#m8ccaf9170c" x="173.147421" y="2.834646" style="stroke: #000000; stroke-width: 0.5"/>
      </g>
     </g>
     <g id="text_6">
      <!-- $1.0$ -->
      <g transform="translate(165.947421 158.403948) scale(0.09 -0.09)">
       <defs>
        <path id="DejaVuSans-31" d="M 794 531 
L 1825 531 
L 1825 4091 
L 703 3866 
L 703 4441 
L 1819 4666 
L 2450 4666 
L 2450 531 
L 3481 531 
L 3481 0 
L 794 0 
L 794 531 
z
" transform="scale(0.015625)"/>
       </defs>
       <use xlink:href="#DejaVuSans-31" transform="translate(0 0.78125)"/>
       <use xlink:href="#DejaVuSans-2e" transform="translate(63.623047 0.78125)"/>
       <use xlink:href="#DejaVuSans-30" transform="translate(95.410156 0.78125)"/>
      </g>
     </g>
    </g>
    <g id="xtick_7">
     <g id="line2d_13">
      <g>
       <use xlink:href="#m306e62529c" x="199.826043" y="148.065354" style="stroke: #000000; stroke-width: 0.5"/>
      </g>
     </g>
     <g id="line2d_14">
      <g>
       <use xlink:href="#m8ccaf9170c" x="199.826043" y="2.834646" style="stroke: #000000; stroke-width: 0.5"/>
      </g>
     </g>
     <g id="text_7">
      <!-- $1.2$ -->
      <g transform="translate(192.896043 158.403948) scale(0.09 -0.09)">
       <use xlink:href="#DejaVuSans-31" transform="translate(0 0.78125)"/>
       <use xlink:href="#DejaVuSans-2e" transform="translate(63.623047 0.78125)"/>
       <use xlink:href="#DejaVuSans-32" transform="translate(89.910156 0.78125)"/>
      </g>
     </g>
    </g>
    <g id="text_8">
     <!-- $k/N$ -->
     <g transform="translate(116.439832 173.393792) scale(0.12 -0.12)">
      <defs>
       <path id="DejaVuSans-Oblique-6b" d="M 1172 4863 
L 1747 4863 
L 1197 2028 
L 3169 3500 
L 3916 3500 
L 1716 1825 
L 3322 0 
L 2625 0 
L 1131 1709 
L 800 0 
L 225 0 
L 1172 4863 
z
" transform="scale(0.015625)"/>
       <path id="DejaVuSans-2f" d="M 1625 4666 
L 2156 4666 
L 531 -594 
L 0 -594 
L 1625 4666 
z
" transform="scale(0.015625)"/>
       <path id="DejaVuSans-Oblique-4e" d="M 1081 4666 
L 1931 4666 
L 3219 666 
L 4000 4666 
L 4616 4666 
L 3706 0 
L 2853 0 
L 1569 4025 
L 788 0 
L 172 0 
L 1081 4666 
z
" transform="scale(0.015625)"/>
      </defs>
      <use xlink:href="#DejaVuSans-Oblique-6b" transform="translate(0 0.015625)"/>
      <use xlink:href="#DejaVuSans-2f" transform="translate(57.910156 0.015625)"/>
      <use xlink:href="#DejaVuSans-Oblique-4e" transform="translate(91.601562 0.015625)"/>
     </g>
    </g>
   </g>
   <g id="matplotlib.axis_2">
    <g id="ytick_1">
     <g id="line2d_15">
      <defs>
       <path id="m661336d631" d="M 0 0 
L 2.5 0 
" style="stroke: #000000; stroke-width: 0.5"/>
      </defs>
      <g>
       <use xlink:href="#m661336d631" x="39.75431" y="148.065354" style="stroke: #000000; stroke-width: 0.5"/>
      </g>
     </g>
     <g id="line2d_16">
      <defs>
       <path id="mbf297e619b" d="M 0 0 
L -2.5 0 
" style="stroke: #000000; stroke-width: 0.5"/>
      </defs>
      <g>
       <use xlink:href="#mbf297e619b" x="213.165354" y="148.065354" style="stroke: #000000; stroke-width: 0.5"/>
      </g>
     </g>
     <g id="text_9">
      <!-- $0.0$ -->
      <g transform="translate(21.85431 151.484651) scale(0.09 -0.09)">
       <use xlink:href="#DejaVuSans-30" transform="translate(0 0.78125)"/>
       <use xlink:href="#DejaVuSans-2e" transform="translate(63.623047 0.78125)"/>
       <use xlink:href="#DejaVuSans-30" transform="translate(95.410156 0.78125)"/>
      </g>
     </g>
    </g>
    <g id="ytick_2">
     <g id="line2d_17">
      <g>
       <use xlink:href="#m661336d631" x="39.75431" y="119.01744" style="stroke: #000000; stroke-width: 0.5"/>
      </g>
     </g>
     <g id="line2d_18">
      <g>
       <use xlink:href="#mbf297e619b" x="213.165354" y="119.01744" style="stroke: #000000; stroke-width: 0.5"/>
      </g>
     </g>
     <g id="text_10">
      <!-- $0.2$ -->
      <g transform="translate(22.39431 122.436737) scale(0.09 -0.09)">
       <use xlink:href="#DejaVuSans-30" transform="translate(0 0.78125)"/>
       <use xlink:href="#DejaVuSans-2e" transform="translate(63.623047 0.78125)"/>
       <use xlink:href="#DejaVuSans-32" transform="translate(89.910156 0.78125)"/>
      </g>
     </g>
    </g>
    <g id="ytick_3">
     <g id="line2d_19">
      <g>
       <use xlink:href="#m661336d631" x="39.75431" y="89.969525" style="stroke: #000000; stroke-width: 0.5"/>
      </g>
     </g>
     <g id="line2d_20">
      <g>
       <use xlink:href="#mbf297e619b" x="213.165354" y="89.969525" style="stroke: #000000; stroke-width: 0.5"/>
      </g>
     </g>
     <g id="text_11">
      <!-- $0.4$ -->
      <g transform="translate(21.85431 93.388822) scale(0.09 -0.09)">
       <use xlink:href="#DejaVuSans-30" transform="translate(0 0.78125)"/>
       <use xlink:href="#DejaVuSans-2e" transform="translate(63.623047 0.78125)"/>
       <use xlink:href="#DejaVuSans-34" transform="translate(95.410156 0.78125)"/>
      </g>
     </g>
    </g>
    <g id="ytick_4">
     <g id="line2d_21">
      <g>
       <use xlink:href="#m661336d631" x="39.75431" y="60.92161" style="stroke: #000000; stroke-width: 0.5"/>
      </g>
     </g>
     <g id="line2d_22">
      <g>
       <use xlink:href="#mbf297e619b" x="213.165354" y="60.92161" style="stroke: #000000; stroke-width: 0.5"/>
      </g>
     </g>
     <g id="text_12">
      <!-- $0.6$ -->
      <g transform="translate(21.85431 64.340907) scale(0.09 -0.09)">
       <use xlink:href="#DejaVuSans-30" transform="translate(0 0.78125)"/>
       <use xlink:href="#DejaVuSans-2e" transform="translate(63.623047 0.78125)"/>
       <use xlink:href="#DejaVuSans-36" transform="translate(95.410156 0.78125)"/>
      </g>
     </g>
    </g>
    <g id="ytick_5">
     <g id="line2d_23">
      <g>
       <use xlink:href="#m661336d631" x="39.75431" y="31.873696" style="stroke: #000000; stroke-width: 0.5"/>
      </g>
     </g>
     <g id="line2d_24">
      <g>
       <use xlink:href="#mbf297e619b" x="213.165354" y="31.873696" style="stroke: #000000; stroke-width: 0.5"/>
      </g>
     </g>
     <g id="text_13">
      <!-- $0.8$ -->
      <g transform="translate(22.12431 35.292993) scale(0.09 -0.09)">
       <use xlink:href="#DejaVuSans-30" transform="translate(0 0.78125)"/>
       <use xlink:href="#DejaVuSans-2e" transform="translate(63.623047 0.78125)"/>
       <use xlink:href="#DejaVuSans-38" transform="translate(92.785156 0.78125)"/>
      </g>
     </g>
    </g>
    <g id="text_14">
     <!-- $\langle s_{\mathrm{max}}/N \rangle$ -->
     <g transform="translate(15.358685 99.09) rotate(-90) scale(0.12 -0.12)">
      <defs>
       <path id="DejaVuSans-27e8" d="M 572 2006 
L 1453 4856 
L 1984 4856 
L 1103 2006 
L 1984 -844 
L 1453 -844 
L 572 2006 
z
" transform="scale(0.015625)"/>
       <path id="DejaVuSans-Oblique-73" d="M 3200 3397 
L 3091 2853 
Q 2863 2978 2609 3040 
Q 2356 3103 2088 3103 
Q 1634 3103 1373 2948 
Q 1113 2794 1113 2528 
Q 1113 2219 1719 2053 
Q 1766 2041 1788 2034 
L 1972 1978 
Q 2547 1819 2739 1644 
Q 2931 1469 2931 1166 
Q 2931 609 2489 259 
Q 2047 -91 1331 -91 
Q 1053 -91 747 -37 
Q 441 16 72 128 
L 184 722 
Q 500 559 806 475 
Q 1113 391 1394 391 
Q 1816 391 2080 572 
Q 2344 753 2344 1031 
Q 2344 1331 1650 1516 
L 1591 1531 
L 1394 1581 
Q 956 1697 753 1886 
Q 550 2075 550 2369 
Q 550 2928 970 3256 
Q 1391 3584 2113 3584 
Q 2397 3584 2667 3537 
Q 2938 3491 3200 3397 
z
" transform="scale(0.015625)"/>
       <path id="DejaVuSans-6d" d="M 3328 2828 
Q 3544 3216 3844 3400 
Q 4144 3584 4550 3584 
Q 5097 3584 5394 3201 
Q 5691 2819 5691 2113 
L 5691 0 
L 5113 0 
L 5113 2094 
Q 5113 2597 4934 2840 
Q 4756 3084 4391 3084 
Q 3944 3084 3684 2787 
Q 3425 2491 3425 1978 
L 3425 0 
L 2847 0 
L 2847 2094 
Q 2847 2600 2669 2842 
Q 2491 3084 2119 3084 
Q 1678 3084 1418 2786 
Q 1159 2488 1159 1978 
L 1159 0 
L 581 0 
L 581 3500 
L 1159 3500 
L 1159 2956 
Q 1356 3278 1631 3431 
Q 1906 3584 2284 3584 
Q 2666 3584 2933 3390 
Q 3200 3197 3328 2828 
z
" transform="scale(0.015625)"/>
       <path id="DejaVuSans-61" d="M 2194 1759 
Q 1497 1759 1228 1600 
Q 959 1441 959 1056 
Q 959 750 1161 570 
Q 1363 391 1709 391 
Q 2188 391 2477 730 
Q 2766 1069 2766 1631 
L 2766 1759 
L 2194 1759 
z
M 3341 1997 
L 3341 0 
L 2766 0 
L 2766 531 
Q 2569 213 2275 61 
Q 1981 -91 1556 -91 
Q 1019 -91 701 211 
Q 384 513 384 1019 
Q 384 1609 779 1909 
Q 1175 2209 1959 2209 
L 2766 2209 
L 2766 2266 
Q 2766 2663 2505 2880 
Q 2244 3097 1772 3097 
Q 1472 3097 1187 3025 
Q 903 2953 641 2809 
L 641 3341 
Q 956 3463 1253 3523 
Q 1550 3584 1831 3584 
Q 2591 3584 2966 3190 
Q 3341 2797 3341 1997 
z
" transform="scale(0.015625)"/>
       <path id="DejaVuSans-78" d="M 3513 3500 
L 2247 1797 
L 3578 0 
L 2900 0 
L 1881 1375 
L 863 0 
L 184 0 
L 1544 1831 
L 300 3500 
L 978 3500 
L 1906 2253 
L 2834 3500 
L 3513 3500 
z
" transform="scale(0.015625)"/>
       <path id="DejaVuSans-27e9" d="M 1925 2006 
L 1044 -844 
L 513 -844 
L 1394 2006 
L 513 4856 
L 1044 4856 
L 1925 2006 
z
" transform="scale(0.015625)"/>
      </defs>
      <use xlink:href="#DejaVuSans-27e8" transform="translate(0 0.125)"/>
      <use xlink:href="#DejaVuSans-Oblique-73" transform="translate(39.013672 0.125)"/>
      <use xlink:href="#DejaVuSans-6d" transform="translate(91.113281 -16.28125) scale(0.7)"/>
      <use xlink:href="#DejaVuSans-61" transform="translate(159.301758 -16.28125) scale(0.7)"/>
      <use xlink:href="#DejaVuSans-78" transform="translate(202.197266 -16.28125) scale(0.7)"/>
      <use xlink:href="#DejaVuSans-2f" transform="translate(246.357422 0.125)"/>
      <use xlink:href="#DejaVuSans-Oblique-4e" transform="translate(280.048828 0.125)"/>
      <use xlink:href="#DejaVuSans-27e9" transform="translate(354.853516 0.125)"/>
     </g>
    </g>
   </g>
   <g id="line2d_25">
    <path d="M 39.762451 148.065354 
L 173.147421 2.834646 
L 173.147421 2.834646 
" clip-path="url(#p410da6e64f)" style="fill: none; stroke-dasharray: 3.7,1.6; stroke-dashoffset: 0; stroke: #009afa"/>
   </g>
   <g id="patch_3">
    <path d="M 39.75431 148.065354 
L 39.75431 2.834646 
" style="fill: none; stroke: #000000; stroke-linejoin: miter; stroke-linecap: square"/>
   </g>
   <g id="patch_4">
    <path d="M 213.165354 148.065354 
L 213.165354 2.834646 
" style="fill: none; stroke: #000000; stroke-linejoin: miter; stroke-linecap: square"/>
   </g>
   <g id="patch_5">
    <path d="M 39.75431 148.065354 
L 213.165354 148.065354 
" style="fill: none; stroke: #000000; stroke-linejoin: miter; stroke-linecap: square"/>
   </g>
   <g id="patch_6">
    <path d="M 39.75431 2.834646 
L 213.165354 2.834646 
" style="fill: none; stroke: #000000; stroke-linejoin: miter; stroke-linecap: square"/>
   </g>
   <g id="line2d_26">
    <path d="M 39.762451 148.065354 
L 39.974135 147.99829 
L 44.785861 146.94892 
L 46.202512 146.251186 
L 47.659871 145.253441 
L 48.970679 144.111021 
L 50.53388 142.501224 
L 52.202922 140.607864 
L 54.393031 137.995094 
L 55.418882 136.732182 
L 59.815383 131.306959 
L 61.533275 129.165756 
L 63.527984 126.70556 
L 75.528805 112.106634 
L 78.345823 108.726224 
L 84.012425 101.989494 
L 89.638318 95.34835 
L 114.152885 67.277839 
L 130.745607 49.022157 
L 173.147421 2.834646 
L 173.147421 2.834646 
" clip-path="url(#p410da6e64f)" style="fill: none; stroke: #e36f47"/>
   </g>
   <g id="line2d_27">
    <path d="M 39.762451 148.065354 
L 39.94971 148.022736 
L 41.928135 147.938973 
L 49.052096 147.559194 
L 51.779555 147.189606 
L 53.587006 146.769613 
L 55.239765 146.212802 
L 57.657841 144.93581 
L 58.927941 144.038629 
L 60.865658 142.22642 
L 63.422143 139.148424 
L 65.16446 136.734963 
L 65.856502 135.699537 
L 70.04132 129.029766 
L 76.766339 117.95776 
L 82.302674 109.507049 
L 84.386941 106.445464 
L 85.958284 104.162763 
L 94.800136 91.877718 
L 103.576856 80.473022 
L 107.484857 75.640781 
L 114.291293 67.542549 
L 124.22413 56.273223 
L 134.27095 45.201737 
L 173.147421 2.834646 
L 173.147421 2.834646 
" clip-path="url(#p410da6e64f)" style="fill: none; stroke: #3ea44e"/>
   </g>
   <g id="line2d_28">
    <path d="M 39.762451 148.065354 
L 39.933426 148.037501 
L 42.945844 147.987959 
L 53.122931 147.788364 
L 58.349883 147.512341 
L 61.810092 147.136007 
L 65.514552 146.367964 
L 67.484836 145.680378 
L 68.193161 145.357534 
L 69.35742 144.706875 
L 70.96947 143.525829 
L 72.768779 141.902285 
L 73.884188 140.61776 
L 74.657646 139.512495 
L 75.292697 138.545735 
L 76.497664 136.486437 
L 79.20884 130.59581 
L 79.526365 129.844563 
L 80.38124 127.695356 
L 80.975582 126.110974 
L 82.612057 121.787529 
L 84.313666 117.328344 
L 85.298808 114.943474 
L 85.673325 114.03383 
L 87.570334 109.749345 
L 88.848576 107.096273 
L 89.369643 106.034422 
L 92.544894 100.015064 
L 94.954828 95.759177 
L 98.244063 90.364295 
L 103.161631 82.914871 
L 106.117057 78.750356 
L 111.653392 71.440274 
L 117.499111 64.250404 
L 125.551222 54.944452 
L 135.883 43.472307 
L 160.088183 17.054082 
L 173.147421 2.834646 
L 173.147421 2.834646 
" clip-path="url(#p410da6e64f)" style="fill: none; stroke: #c371d2"/>
   </g>
   <g id="line2d_29">
    <path d="M 39.762451 148.065354 
L 39.925285 148.044676 
L 44.28922 148.003807 
L 58.463866 147.789954 
L 64.317726 147.513585 
L 70.863628 146.680759 
L 74.72278 145.460932 
L 77.116431 144.026003 
L 78.419098 142.952166 
L 80.177698 140.891837 
L 80.780182 140.026746 
L 81.154699 139.410728 
L 81.610632 138.630178 
L 82.058424 137.760643 
L 82.701616 136.380663 
L 83.043566 135.56836 
L 84.91615 130.260538 
L 85.4535 128.535179 
L 85.6489 127.918597 
L 86.796875 123.844073 
L 88.042551 119.229241 
L 89.296368 114.927674 
L 89.59761 113.92292 
L 91.478335 108.26251 
L 95.370053 98.907902 
L 97.503171 94.543658 
L 100.010805 89.891882 
L 104.488723 82.427873 
L 110.342583 73.84467 
L 114.682093 68.10118 
L 120.047453 61.484021 
L 128.702048 51.490837 
L 138.390634 40.743469 
L 161.016334 16.043578 
L 173.147421 2.834646 
L 173.147421 2.834646 
" clip-path="url(#p410da6e64f)" style="fill: none; stroke: #ac8e18"/>
   </g>
   <g id="line2d_30">
    <path d="M 39.762451 148.065354 
L 39.917143 148.05597 
L 65.644818 147.786234 
L 71.824345 147.518321 
L 75.569513 147.179334 
L 79.444948 146.498542 
L 82.750466 145.294119 
L 83.605341 144.799396 
L 84.264816 144.367835 
L 85.445358 143.383529 
L 87.586617 140.699992 
L 88.384501 139.155034 
L 88.685743 138.511523 
L 89.003268 137.717596 
L 89.394068 136.750981 
L 90.346643 133.695664 
L 91.242227 130.290403 
L 93.619594 118.594099 
L 94.124378 115.904333 
L 94.686153 113.135334 
L 95.728287 108.392015 
L 97.079804 103.176161 
L 97.788129 100.862085 
L 99.017521 97.306446 
L 100.018947 94.729779 
L 102.290472 89.523943 
L 104.024648 86.000364 
L 106.914941 80.701835 
L 111.050909 74.064169 
L 115.260152 68.073658 
L 120.210287 61.674051 
L 125.079005 55.812843 
L 136.412209 42.967686 
L 152.915373 24.871034 
L 173.147421 2.834646 
L 173.147421 2.834646 
" clip-path="url(#p410da6e64f)" style="fill: none; stroke-dasharray: 1,1.65; stroke-dashoffset: 0; stroke: #00aaae"/>
   </g>
   <g id="PathCollection_2">
    <defs>
     <path id="m0e9b03fc7a" d="M -2 2 
L 2 -2 
M -2 -2 
L 2 2 
" style="stroke: #009afa; stroke-width: 0.7"/>
    </defs>
    <g clip-path="url(#p410da6e64f)">
     <use xlink:href="#m0e9b03fc7a" x="61.060744" y="124.875708" style="fill: #009afa; stroke: #009afa; stroke-width: 0.7"/>
    </g>
   </g>
   <g id="PathCollection_3">
    <defs>
     <path id="m05b0efb98a" d="M -2 2 
L 2 -2 
M -2 -2 
L 2 2 
" style="stroke: #e36f47; stroke-width: 0.7"/>
    </defs>
    <g clip-path="url(#p410da6e64f)">
     <use xlink:href="#m05b0efb98a" x="64.606275" y="125.388476" style="fill: #e36f47; stroke: #e36f47; stroke-width: 0.7"/>
    </g>
   </g>
   <g id="PathCollection_4">
    <defs>
     <path id="m9f8fbb2534" d="M -2 2 
L 2 -2 
M -2 -2 
L 2 2 
" style="stroke: #3ea44e; stroke-width: 0.7"/>
    </defs>
    <g clip-path="url(#p410da6e64f)">
     <use xlink:href="#m9f8fbb2534" x="71.157157" y="127.187195" style="fill: #3ea44e; stroke: #3ea44e; stroke-width: 0.7"/>
    </g>
   </g>
   <g id="PathCollection_5">
    <defs>
     <path id="m972e3b4b35" d="M -2 2 
L 2 -2 
M -2 -2 
L 2 2 
" style="stroke: #c371d2; stroke-width: 0.7"/>
    </defs>
    <g clip-path="url(#p410da6e64f)">
     <use xlink:href="#m972e3b4b35" x="79.900496" y="128.911782" style="fill: #c371d2; stroke: #c371d2; stroke-width: 0.7"/>
    </g>
   </g>
   <g id="PathCollection_6">
    <defs>
     <path id="mf9c656901d" d="M -2 2 
L 2 -2 
M -2 -2 
L 2 2 
" style="stroke: #ac8e18; stroke-width: 0.7"/>
    </defs>
    <g clip-path="url(#p410da6e64f)">
     <use xlink:href="#mf9c656901d" x="85.065528" y="129.811513" style="fill: #ac8e18; stroke: #ac8e18; stroke-width: 0.7"/>
    </g>
   </g>
   <g id="PathCollection_7">
    <defs>
     <path id="m1cd269a012" d="M -2 2 
L 2 -2 
M -2 -2 
L 2 2 
" style="stroke: #00aaae; stroke-width: 0.7"/>
    </defs>
    <g clip-path="url(#p410da6e64f)">
     <use xlink:href="#m1cd269a012" x="91.388753" y="129.702633" style="fill: #00aaae; stroke: #00aaae; stroke-width: 0.7"/>
    </g>
   </g>
   <g id="PathCollection_8">
    <defs>
     <path id="m91994444b0" d="M -0 3.535534 
L 3.535534 0 
L 0 -3.535534 
L -3.535534 -0 
z
" style="stroke: #009afa"/>
    </defs>
    <g clip-path="url(#p410da6e64f)">
     <use xlink:href="#m91994444b0" x="39.786876" y="148.039348" style="fill-opacity: 0; stroke: #009afa"/>
    </g>
   </g>
   <g id="PathCollection_9">
    <defs>
     <path id="mb6cdc902f2" d="M -0 3.535534 
L 3.535534 0 
L 0 -3.535534 
L -3.535534 -0 
z
" style="stroke: #e36f47"/>
    </defs>
    <g clip-path="url(#p410da6e64f)">
     <use xlink:href="#mb6cdc902f2" x="42.449202" y="147.620854" style="fill-opacity: 0; stroke: #e36f47"/>
    </g>
   </g>
   <g id="PathCollection_10">
    <defs>
     <path id="ma02fbe37ff" d="M -0 3.535534 
L 3.535534 0 
L 0 -3.535534 
L -3.535534 -0 
z
" style="stroke: #3ea44e"/>
    </defs>
    <g clip-path="url(#p410da6e64f)">
     <use xlink:href="#ma02fbe37ff" x="55.55729" y="146.076519" style="fill-opacity: 0; stroke: #3ea44e"/>
    </g>
   </g>
   <g id="PathCollection_11">
    <defs>
     <path id="m63240ee102" d="M -0 3.535534 
L 3.535534 0 
L 0 -3.535534 
L -3.535534 -0 
z
" style="stroke: #c371d2"/>
    </defs>
    <g clip-path="url(#p410da6e64f)">
     <use xlink:href="#m63240ee102" x="105.661123" y="79.378953" style="fill-opacity: 0; stroke: #c371d2"/>
    </g>
   </g>
   <g id="PathCollection_12">
    <defs>
     <path id="mc35395789c" d="M -0 3.535534 
L 3.535534 0 
L 0 -3.535534 
L -3.535534 -0 
z
" style="stroke: #ac8e18"/>
    </defs>
    <g clip-path="url(#p410da6e64f)">
     <use xlink:href="#mc35395789c" x="103.414023" y="84.13622" style="fill-opacity: 0; stroke: #ac8e18"/>
    </g>
   </g>
   <g id="PathCollection_13">
    <defs>
     <path id="m066a6c0271" d="M -0 3.535534 
L 3.535534 0 
L 0 -3.535534 
L -3.535534 -0 
z
" style="stroke: #00aaae"/>
    </defs>
    <g clip-path="url(#p410da6e64f)">
     <use xlink:href="#m066a6c0271" x="110.928784" y="74.247356" style="fill-opacity: 0; stroke: #00aaae"/>
    </g>
   </g>
   <g id="legend_1">
    <g id="patch_7">
     <path d="M 149.026292 109.706833 
L 208.665354 109.706833 
L 208.665354 7.334646 
L 149.026292 7.334646 
L 149.026292 109.706833 
z
" style="fill: none; opacity: 0"/>
    </g>
    <g id="line2d_31">
     <path d="M 156.226292 18.223239 
L 165.226292 18.223239 
L 174.226292 18.223239 
" style="fill: none"/>
     <defs>
      <path id="m34982e2e5f" d="M 0 3.6 
C 0.954731 3.6 1.870488 3.220681 2.545584 2.545584 
C 3.220681 1.870488 3.6 0.954731 3.6 0 
C 3.6 -0.954731 3.220681 -1.870488 2.545584 -2.545584 
C 1.870488 -3.220681 0.954731 -3.6 0 -3.6 
C -0.954731 -3.6 -1.870488 -3.220681 -2.545584 -2.545584 
C -3.220681 -1.870488 -3.6 -0.954731 -3.6 0 
C -3.6 0.954731 -3.220681 1.870488 -2.545584 2.545584 
C -1.870488 3.220681 -0.954731 3.6 0 3.6 
z
" style="stroke: #ffffff; stroke-width: inf"/>
     </defs>
     <g>
      <use xlink:href="#m34982e2e5f" x="165.226292" y="18.223239" style="fill: #ffffff; fill-opacity: 0; stroke: #ffffff; stroke-width: inf"/>
     </g>
    </g>
    <g id="text_15">
     <!-- $t_0$ -->
     <g transform="translate(181.426292 21.373239) scale(0.09 -0.09)">
      <defs>
       <path id="DejaVuSans-Oblique-74" d="M 2706 3500 
L 2619 3053 
L 1472 3053 
L 1100 1153 
Q 1081 1047 1072 975 
Q 1063 903 1063 863 
Q 1063 663 1183 572 
Q 1303 481 1569 481 
L 2150 481 
L 2053 0 
L 1503 0 
Q 991 0 739 200 
Q 488 400 488 806 
Q 488 878 497 964 
Q 506 1050 525 1153 
L 897 3053 
L 409 3053 
L 500 3500 
L 978 3500 
L 1172 4494 
L 1747 4494 
L 1556 3500 
L 2706 3500 
z
" transform="scale(0.015625)"/>
      </defs>
      <use xlink:href="#DejaVuSans-Oblique-74" transform="translate(0 0.78125)"/>
      <use xlink:href="#DejaVuSans-30" transform="translate(39.208984 -15.625) scale(0.7)"/>
     </g>
    </g>
    <g id="line2d_32">
     <path d="M 156.226292 31.433552 
L 165.226292 31.433552 
L 174.226292 31.433552 
" style="fill: none; stroke-dasharray: 4.1625,1.8; stroke-dashoffset: 0; stroke: #009afa; stroke-width: 1.125; stroke-linejoin: miter"/>
    </g>
    <g id="text_16">
     <!-- 0.1 -->
     <g transform="translate(181.426292 34.583552) scale(0.09 -0.09)">
      <use xlink:href="#DejaVuSans-30"/>
      <use xlink:href="#DejaVuSans-2e" x="63.623047"/>
      <use xlink:href="#DejaVuSans-31" x="95.410156"/>
     </g>
    </g>
    <g id="line2d_33">
     <path d="M 156.226292 44.643864 
L 165.226292 44.643864 
L 174.226292 44.643864 
" style="fill: none; stroke: #e36f47; stroke-width: 1.125; stroke-linejoin: miter"/>
    </g>
    <g id="text_17">
     <!-- 0.27 -->
     <g transform="translate(181.426292 47.793864) scale(0.09 -0.09)">
      <defs>
       <path id="DejaVuSans-37" d="M 525 4666 
L 3525 4666 
L 3525 4397 
L 1831 0 
L 1172 0 
L 2766 4134 
L 525 4134 
L 525 4666 
z
" transform="scale(0.015625)"/>
      </defs>
      <use xlink:href="#DejaVuSans-30"/>
      <use xlink:href="#DejaVuSans-2e" x="63.623047"/>
      <use xlink:href="#DejaVuSans-32" x="95.410156"/>
      <use xlink:href="#DejaVuSans-37" x="159.033203"/>
     </g>
    </g>
    <g id="line2d_34">
     <path d="M 156.226292 57.854177 
L 165.226292 57.854177 
L 174.226292 57.854177 
" style="fill: none; stroke: #3ea44e; stroke-width: 1.125; stroke-linejoin: miter"/>
    </g>
    <g id="text_18">
     <!-- 0.3 -->
     <g transform="translate(181.426292 61.004177) scale(0.09 -0.09)">
      <defs>
       <path id="DejaVuSans-33" d="M 2597 2516 
Q 3050 2419 3304 2112 
Q 3559 1806 3559 1356 
Q 3559 666 3084 287 
Q 2609 -91 1734 -91 
Q 1441 -91 1130 -33 
Q 819 25 488 141 
L 488 750 
Q 750 597 1062 519 
Q 1375 441 1716 441 
Q 2309 441 2620 675 
Q 2931 909 2931 1356 
Q 2931 1769 2642 2001 
Q 2353 2234 1838 2234 
L 1294 2234 
L 1294 2753 
L 1863 2753 
Q 2328 2753 2575 2939 
Q 2822 3125 2822 3475 
Q 2822 3834 2567 4026 
Q 2313 4219 1838 4219 
Q 1578 4219 1281 4162 
Q 984 4106 628 3988 
L 628 4550 
Q 988 4650 1302 4700 
Q 1616 4750 1894 4750 
Q 2613 4750 3031 4423 
Q 3450 4097 3450 3541 
Q 3450 3153 3228 2886 
Q 3006 2619 2597 2516 
z
" transform="scale(0.015625)"/>
      </defs>
      <use xlink:href="#DejaVuSans-30"/>
      <use xlink:href="#DejaVuSans-2e" x="63.623047"/>
      <use xlink:href="#DejaVuSans-33" x="95.410156"/>
     </g>
    </g>
    <g id="line2d_35">
     <path d="M 156.226292 71.064489 
L 165.226292 71.064489 
L 174.226292 71.064489 
" style="fill: none; stroke: #c371d2; stroke-width: 1.125; stroke-linejoin: miter"/>
    </g>
    <g id="text_19">
     <!-- 0.35 -->
     <g transform="translate(181.426292 74.214489) scale(0.09 -0.09)">
      <defs>
       <path id="DejaVuSans-35" d="M 691 4666 
L 3169 4666 
L 3169 4134 
L 1269 4134 
L 1269 2991 
Q 1406 3038 1543 3061 
Q 1681 3084 1819 3084 
Q 2600 3084 3056 2656 
Q 3513 2228 3513 1497 
Q 3513 744 3044 326 
Q 2575 -91 1722 -91 
Q 1428 -91 1123 -41 
Q 819 9 494 109 
L 494 744 
Q 775 591 1075 516 
Q 1375 441 1709 441 
Q 2250 441 2565 725 
Q 2881 1009 2881 1497 
Q 2881 1984 2565 2268 
Q 2250 2553 1709 2553 
Q 1456 2553 1204 2497 
Q 953 2441 691 2322 
L 691 4666 
z
" transform="scale(0.015625)"/>
      </defs>
      <use xlink:href="#DejaVuSans-30"/>
      <use xlink:href="#DejaVuSans-2e" x="63.623047"/>
      <use xlink:href="#DejaVuSans-33" x="95.410156"/>
      <use xlink:href="#DejaVuSans-35" x="159.033203"/>
     </g>
    </g>
    <g id="line2d_36">
     <path d="M 156.226292 84.274802 
L 165.226292 84.274802 
L 174.226292 84.274802 
" style="fill: none; stroke: #ac8e18; stroke-width: 1.125; stroke-linejoin: miter"/>
    </g>
    <g id="text_20">
     <!-- 0.4 -->
     <g transform="translate(181.426292 87.424802) scale(0.09 -0.09)">
      <use xlink:href="#DejaVuSans-30"/>
      <use xlink:href="#DejaVuSans-2e" x="63.623047"/>
      <use xlink:href="#DejaVuSans-34" x="95.410156"/>
     </g>
    </g>
    <g id="line2d_37">
     <path d="M 156.226292 97.485114 
L 165.226292 97.485114 
L 174.226292 97.485114 
" style="fill: none; stroke-dasharray: 1.125,1.85625; stroke-dashoffset: 0; stroke: #00aaae; stroke-width: 1.125; stroke-linejoin: miter"/>
    </g>
    <g id="text_21">
     <!-- 0.5 -->
     <g transform="translate(181.426292 100.635114) scale(0.09 -0.09)">
      <use xlink:href="#DejaVuSans-30"/>
      <use xlink:href="#DejaVuSans-2e" x="63.623047"/>
      <use xlink:href="#DejaVuSans-35" x="95.410156"/>
     </g>
    </g>
   </g>
  </g>
 </g>
 <defs>
  <clipPath id="p410da6e64f">
   <rect x="39.75431" y="2.834646" width="173.411045" height="145.230709"/>
  </clipPath>
 </defs>
</svg>
