<?xml version="1.0" encoding="utf-8" standalone="no"?>
<!DOCTYPE svg PUBLIC "-//W3C//DTD SVG 1.1//EN"
  "http://www.w3.org/Graphics/SVG/1.1/DTD/svg11.dtd">
<svg xmlns:xlink="http://www.w3.org/1999/xlink" width="216pt" height="180pt" viewBox="0 0 216 180" xmlns="http://www.w3.org/2000/svg" version="1.1">
 <metadata>
  <rdf:RDF xmlns:dc="http://purl.org/dc/elements/1.1/" xmlns:cc="http://creativecommons.org/ns#" xmlns:rdf="http://www.w3.org/1999/02/22-rdf-syntax-ns#">
   <cc:Work>
    <dc:type rdf:resource="http://purl.org/dc/dcmitype/StillImage"/>
    <dc:date>2023-05-18T19:23:30.306887</dc:date>
    <dc:format>image/svg+xml</dc:format>
    <dc:creator>
     <cc:Agent>
      <dc:title>Matplotlib v3.6.3, https://matplotlib.org/</dc:title>
     </cc:Agent>
    </dc:creator>
   </cc:Work>
  </rdf:RDF>
 </metadata>
 <defs>
  <style type="text/css">*{stroke-linejoin: round; stroke-linecap: butt}</style>
 </defs>
 <g id="figure_1">
  <g id="patch_1">
   <path d="M 0 180 
L 216 180 
L 216 0 
L 0 0 
z
" style="fill: #ffffff"/>
  </g>
  <g id="axes_1">
   <g id="patch_2">
    <path d="M 44.976384 148.065354 
L 213.165354 148.065354 
L 213.165354 2.834646 
L 44.976384 2.834646 
z
" style="fill: #ffffff"/>
   </g>
   <g id="PathCollection_1">
    <defs>
     <path id="m834b1a8590" d="M 0 0 
C 0 0 0 0 0 0 
C 0 0 0 0 0 0 
C 0 0 0 0 0 0 
C 0 0 0 0 0 0 
C 0 0 0 0 0 0 
C 0 0 0 0 0 0 
C 0 0 0 0 0 0 
C 0 0 0 0 0 0 
z
" style="stroke: #ffffff; stroke-width: 0.7"/>
    </defs>
    <g clip-path="url(#pd7617f5589)">
     <use xlink:href="#m834b1a8590" x="44.976384" y="148.065354" style="fill: #ffffff; fill-opacity: 0; stroke: #ffffff; stroke-width: 0.7"/>
    </g>
   </g>
   <g id="matplotlib.axis_1">
    <g id="xtick_1">
     <g id="line2d_1">
      <defs>
       <path id="m4e0125802d" d="M 0 0 
L 0 -2.5 
" style="stroke: #000000; stroke-width: 0.5"/>
      </defs>
      <g>
       <use xlink:href="#m4e0125802d" x="44.976384" y="148.065354" style="stroke: #000000; stroke-width: 0.5"/>
      </g>
     </g>
     <g id="line2d_2">
      <defs>
       <path id="m9cf9cc9d44" d="M 0 0 
L 0 2.5 
" style="stroke: #000000; stroke-width: 0.5"/>
      </defs>
      <g>
       <use xlink:href="#m9cf9cc9d44" x="44.976384" y="2.834646" style="stroke: #000000; stroke-width: 0.5"/>
      </g>
     </g>
     <g id="text_1">
      <!-- $0.0$ -->
      <g transform="translate(37.776384 158.403948) scale(0.09 -0.09)">
       <defs>
        <path id="DejaVuSans-30" d="M 2034 4250 
Q 1547 4250 1301 3770 
Q 1056 3291 1056 2328 
Q 1056 1369 1301 889 
Q 1547 409 2034 409 
Q 2525 409 2770 889 
Q 3016 1369 3016 2328 
Q 3016 3291 2770 3770 
Q 2525 4250 2034 4250 
z
M 2034 4750 
Q 2819 4750 3233 4129 
Q 3647 3509 3647 2328 
Q 3647 1150 3233 529 
Q 2819 -91 2034 -91 
Q 1250 -91 836 529 
Q 422 1150 422 2328 
Q 422 3509 836 4129 
Q 1250 4750 2034 4750 
z
" transform="scale(0.015625)"/>
        <path id="DejaVuSans-2e" d="M 684 794 
L 1344 794 
L 1344 0 
L 684 0 
L 684 794 
z
" transform="scale(0.015625)"/>
       </defs>
       <use xlink:href="#DejaVuSans-30" transform="translate(0 0.78125)"/>
       <use xlink:href="#DejaVuSans-2e" transform="translate(63.623047 0.78125)"/>
       <use xlink:href="#DejaVuSans-30" transform="translate(95.410156 0.78125)"/>
      </g>
     </g>
    </g>
    <g id="xtick_2">
     <g id="line2d_3">
      <g>
       <use xlink:href="#m4e0125802d" x="70.85161" y="148.065354" style="stroke: #000000; stroke-width: 0.5"/>
      </g>
     </g>
     <g id="line2d_4">
      <g>
       <use xlink:href="#m9cf9cc9d44" x="70.85161" y="2.834646" style="stroke: #000000; stroke-width: 0.5"/>
      </g>
     </g>
     <g id="text_2">
      <!-- $0.2$ -->
      <g transform="translate(63.92161 158.403948) scale(0.09 -0.09)">
       <defs>
        <path id="DejaVuSans-32" d="M 1228 531 
L 3431 531 
L 3431 0 
L 469 0 
L 469 531 
Q 828 903 1448 1529 
Q 2069 2156 2228 2338 
Q 2531 2678 2651 2914 
Q 2772 3150 2772 3378 
Q 2772 3750 2511 3984 
Q 2250 4219 1831 4219 
Q 1534 4219 1204 4116 
Q 875 4013 500 3803 
L 500 4441 
Q 881 4594 1212 4672 
Q 1544 4750 1819 4750 
Q 2544 4750 2975 4387 
Q 3406 4025 3406 3419 
Q 3406 3131 3298 2873 
Q 3191 2616 2906 2266 
Q 2828 2175 2409 1742 
Q 1991 1309 1228 531 
z
" transform="scale(0.015625)"/>
       </defs>
       <use xlink:href="#DejaVuSans-30" transform="translate(0 0.78125)"/>
       <use xlink:href="#DejaVuSans-2e" transform="translate(63.623047 0.78125)"/>
       <use xlink:href="#DejaVuSans-32" transform="translate(89.910156 0.78125)"/>
      </g>
     </g>
    </g>
    <g id="xtick_3">
     <g id="line2d_5">
      <g>
       <use xlink:href="#m4e0125802d" x="96.726836" y="148.065354" style="stroke: #000000; stroke-width: 0.5"/>
      </g>
     </g>
     <g id="line2d_6">
      <g>
       <use xlink:href="#m9cf9cc9d44" x="96.726836" y="2.834646" style="stroke: #000000; stroke-width: 0.5"/>
      </g>
     </g>
     <g id="text_3">
      <!-- $0.4$ -->
      <g transform="translate(89.526836 158.403948) scale(0.09 -0.09)">
       <defs>
        <path id="DejaVuSans-34" d="M 2419 4116 
L 825 1625 
L 2419 1625 
L 2419 4116 
z
M 2253 4666 
L 3047 4666 
L 3047 1625 
L 3713 1625 
L 3713 1100 
L 3047 1100 
L 3047 0 
L 2419 0 
L 2419 1100 
L 313 1100 
L 313 1709 
L 2253 4666 
z
" transform="scale(0.015625)"/>
       </defs>
       <use xlink:href="#DejaVuSans-30" transform="translate(0 0.78125)"/>
       <use xlink:href="#DejaVuSans-2e" transform="translate(63.623047 0.78125)"/>
       <use xlink:href="#DejaVuSans-34" transform="translate(95.410156 0.78125)"/>
      </g>
     </g>
    </g>
    <g id="xtick_4">
     <g id="line2d_7">
      <g>
       <use xlink:href="#m4e0125802d" x="122.602063" y="148.065354" style="stroke: #000000; stroke-width: 0.5"/>
      </g>
     </g>
     <g id="line2d_8">
      <g>
       <use xlink:href="#m9cf9cc9d44" x="122.602063" y="2.834646" style="stroke: #000000; stroke-width: 0.5"/>
      </g>
     </g>
     <g id="text_4">
      <!-- $0.6$ -->
      <g transform="translate(115.402063 158.403948) scale(0.09 -0.09)">
       <defs>
        <path id="DejaVuSans-36" d="M 2113 2584 
Q 1688 2584 1439 2293 
Q 1191 2003 1191 1497 
Q 1191 994 1439 701 
Q 1688 409 2113 409 
Q 2538 409 2786 701 
Q 3034 994 3034 1497 
Q 3034 2003 2786 2293 
Q 2538 2584 2113 2584 
z
M 3366 4563 
L 3366 3988 
Q 3128 4100 2886 4159 
Q 2644 4219 2406 4219 
Q 1781 4219 1451 3797 
Q 1122 3375 1075 2522 
Q 1259 2794 1537 2939 
Q 1816 3084 2150 3084 
Q 2853 3084 3261 2657 
Q 3669 2231 3669 1497 
Q 3669 778 3244 343 
Q 2819 -91 2113 -91 
Q 1303 -91 875 529 
Q 447 1150 447 2328 
Q 447 3434 972 4092 
Q 1497 4750 2381 4750 
Q 2619 4750 2861 4703 
Q 3103 4656 3366 4563 
z
" transform="scale(0.015625)"/>
       </defs>
       <use xlink:href="#DejaVuSans-30" transform="translate(0 0.78125)"/>
       <use xlink:href="#DejaVuSans-2e" transform="translate(63.623047 0.78125)"/>
       <use xlink:href="#DejaVuSans-36" transform="translate(95.410156 0.78125)"/>
      </g>
     </g>
    </g>
    <g id="xtick_5">
     <g id="line2d_9">
      <g>
       <use xlink:href="#m4e0125802d" x="148.477289" y="148.065354" style="stroke: #000000; stroke-width: 0.5"/>
      </g>
     </g>
     <g id="line2d_10">
      <g>
       <use xlink:href="#m9cf9cc9d44" x="148.477289" y="2.834646" style="stroke: #000000; stroke-width: 0.5"/>
      </g>
     </g>
     <g id="text_5">
      <!-- $0.8$ -->
      <g transform="translate(141.412289 158.403948) scale(0.09 -0.09)">
       <defs>
        <path id="DejaVuSans-38" d="M 2034 2216 
Q 1584 2216 1326 1975 
Q 1069 1734 1069 1313 
Q 1069 891 1326 650 
Q 1584 409 2034 409 
Q 2484 409 2743 651 
Q 3003 894 3003 1313 
Q 3003 1734 2745 1975 
Q 2488 2216 2034 2216 
z
M 1403 2484 
Q 997 2584 770 2862 
Q 544 3141 544 3541 
Q 544 4100 942 4425 
Q 1341 4750 2034 4750 
Q 2731 4750 3128 4425 
Q 3525 4100 3525 3541 
Q 3525 3141 3298 2862 
Q 3072 2584 2669 2484 
Q 3125 2378 3379 2068 
Q 3634 1759 3634 1313 
Q 3634 634 3220 271 
Q 2806 -91 2034 -91 
Q 1263 -91 848 271 
Q 434 634 434 1313 
Q 434 1759 690 2068 
Q 947 2378 1403 2484 
z
M 1172 3481 
Q 1172 3119 1398 2916 
Q 1625 2713 2034 2713 
Q 2441 2713 2670 2916 
Q 2900 3119 2900 3481 
Q 2900 3844 2670 4047 
Q 2441 4250 2034 4250 
Q 1625 4250 1398 4047 
Q 1172 3844 1172 3481 
z
" transform="scale(0.015625)"/>
       </defs>
       <use xlink:href="#DejaVuSans-30" transform="translate(0 0.78125)"/>
       <use xlink:href="#DejaVuSans-2e" transform="translate(63.623047 0.78125)"/>
       <use xlink:href="#DejaVuSans-38" transform="translate(92.785156 0.78125)"/>
      </g>
     </g>
    </g>
    <g id="xtick_6">
     <g id="line2d_11">
      <g>
       <use xlink:href="#m4e0125802d" x="174.352515" y="148.065354" style="stroke: #000000; stroke-width: 0.5"/>
      </g>
     </g>
     <g id="line2d_12">
      <g>
       <use xlink:href="#m9cf9cc9d44" x="174.352515" y="2.834646" style="stroke: #000000; stroke-width: 0.5"/>
      </g>
     </g>
     <g id="text_6">
      <!-- $1.0$ -->
      <g transform="translate(167.152515 158.403948) scale(0.09 -0.09)">
       <defs>
        <path id="DejaVuSans-31" d="M 794 531 
L 1825 531 
L 1825 4091 
L 703 3866 
L 703 4441 
L 1819 4666 
L 2450 4666 
L 2450 531 
L 3481 531 
L 3481 0 
L 794 0 
L 794 531 
z
" transform="scale(0.015625)"/>
       </defs>
       <use xlink:href="#DejaVuSans-31" transform="translate(0 0.78125)"/>
       <use xlink:href="#DejaVuSans-2e" transform="translate(63.623047 0.78125)"/>
       <use xlink:href="#DejaVuSans-30" transform="translate(95.410156 0.78125)"/>
      </g>
     </g>
    </g>
    <g id="xtick_7">
     <g id="line2d_13">
      <g>
       <use xlink:href="#m4e0125802d" x="200.227741" y="148.065354" style="stroke: #000000; stroke-width: 0.5"/>
      </g>
     </g>
     <g id="line2d_14">
      <g>
       <use xlink:href="#m9cf9cc9d44" x="200.227741" y="2.834646" style="stroke: #000000; stroke-width: 0.5"/>
      </g>
     </g>
     <g id="text_7">
      <!-- $1.2$ -->
      <g transform="translate(193.297741 158.403948) scale(0.09 -0.09)">
       <use xlink:href="#DejaVuSans-31" transform="translate(0 0.78125)"/>
       <use xlink:href="#DejaVuSans-2e" transform="translate(63.623047 0.78125)"/>
       <use xlink:href="#DejaVuSans-32" transform="translate(89.910156 0.78125)"/>
      </g>
     </g>
    </g>
    <g id="text_8">
     <!-- $k/N$ -->
     <g transform="translate(119.050869 173.393792) scale(0.12 -0.12)">
      <defs>
       <path id="DejaVuSans-Oblique-6b" d="M 1172 4863 
L 1747 4863 
L 1197 2028 
L 3169 3500 
L 3916 3500 
L 1716 1825 
L 3322 0 
L 2625 0 
L 1131 1709 
L 800 0 
L 225 0 
L 1172 4863 
z
" transform="scale(0.015625)"/>
       <path id="DejaVuSans-2f" d="M 1625 4666 
L 2156 4666 
L 531 -594 
L 0 -594 
L 1625 4666 
z
" transform="scale(0.015625)"/>
       <path id="DejaVuSans-Oblique-4e" d="M 1081 4666 
L 1931 4666 
L 3219 666 
L 4000 4666 
L 4616 4666 
L 3706 0 
L 2853 0 
L 1569 4025 
L 788 0 
L 172 0 
L 1081 4666 
z
" transform="scale(0.015625)"/>
      </defs>
      <use xlink:href="#DejaVuSans-Oblique-6b" transform="translate(0 0.015625)"/>
      <use xlink:href="#DejaVuSans-2f" transform="translate(57.910156 0.015625)"/>
      <use xlink:href="#DejaVuSans-Oblique-4e" transform="translate(91.601562 0.015625)"/>
     </g>
    </g>
   </g>
   <g id="matplotlib.axis_2">
    <g id="ytick_1">
     <g id="line2d_15">
      <defs>
       <path id="m2f49ec6731" d="M 0 0 
L 2.5 0 
" style="stroke: #000000; stroke-width: 0.5"/>
      </defs>
      <g>
       <use xlink:href="#m2f49ec6731" x="44.976384" y="148.065354" style="stroke: #000000; stroke-width: 0.5"/>
      </g>
     </g>
     <g id="line2d_16">
      <defs>
       <path id="m680a0c2b49" d="M 0 0 
L -2.5 0 
" style="stroke: #000000; stroke-width: 0.5"/>
      </defs>
      <g>
       <use xlink:href="#m680a0c2b49" x="213.165354" y="148.065354" style="stroke: #000000; stroke-width: 0.5"/>
      </g>
     </g>
     <g id="text_9">
      <!-- $0.00$ -->
      <g transform="translate(21.406384 151.484651) scale(0.09 -0.09)">
       <use xlink:href="#DejaVuSans-30" transform="translate(0 0.78125)"/>
       <use xlink:href="#DejaVuSans-2e" transform="translate(63.623047 0.78125)"/>
       <use xlink:href="#DejaVuSans-30" transform="translate(95.410156 0.78125)"/>
       <use xlink:href="#DejaVuSans-30" transform="translate(159.033203 0.78125)"/>
      </g>
     </g>
    </g>
    <g id="ytick_2">
     <g id="line2d_17">
      <g>
       <use xlink:href="#m2f49ec6731" x="44.976384" y="125.722168" style="stroke: #000000; stroke-width: 0.5"/>
      </g>
     </g>
     <g id="line2d_18">
      <g>
       <use xlink:href="#m680a0c2b49" x="213.165354" y="125.722168" style="stroke: #000000; stroke-width: 0.5"/>
      </g>
     </g>
     <g id="text_10">
      <!-- $0.02$ -->
      <g transform="translate(21.406384 129.141465) scale(0.09 -0.09)">
       <use xlink:href="#DejaVuSans-30" transform="translate(0 0.78125)"/>
       <use xlink:href="#DejaVuSans-2e" transform="translate(63.623047 0.78125)"/>
       <use xlink:href="#DejaVuSans-30" transform="translate(95.410156 0.78125)"/>
       <use xlink:href="#DejaVuSans-32" transform="translate(159.033203 0.78125)"/>
      </g>
     </g>
    </g>
    <g id="ytick_3">
     <g id="line2d_19">
      <g>
       <use xlink:href="#m2f49ec6731" x="44.976384" y="103.378982" style="stroke: #000000; stroke-width: 0.5"/>
      </g>
     </g>
     <g id="line2d_20">
      <g>
       <use xlink:href="#m680a0c2b49" x="213.165354" y="103.378982" style="stroke: #000000; stroke-width: 0.5"/>
      </g>
     </g>
     <g id="text_11">
      <!-- $0.04$ -->
      <g transform="translate(21.406384 106.798279) scale(0.09 -0.09)">
       <use xlink:href="#DejaVuSans-30" transform="translate(0 0.78125)"/>
       <use xlink:href="#DejaVuSans-2e" transform="translate(63.623047 0.78125)"/>
       <use xlink:href="#DejaVuSans-30" transform="translate(95.410156 0.78125)"/>
       <use xlink:href="#DejaVuSans-34" transform="translate(159.033203 0.78125)"/>
      </g>
     </g>
    </g>
    <g id="ytick_4">
     <g id="line2d_21">
      <g>
       <use xlink:href="#m2f49ec6731" x="44.976384" y="81.035796" style="stroke: #000000; stroke-width: 0.5"/>
      </g>
     </g>
     <g id="line2d_22">
      <g>
       <use xlink:href="#m680a0c2b49" x="213.165354" y="81.035796" style="stroke: #000000; stroke-width: 0.5"/>
      </g>
     </g>
     <g id="text_12">
      <!-- $0.06$ -->
      <g transform="translate(21.406384 84.455093) scale(0.09 -0.09)">
       <use xlink:href="#DejaVuSans-30" transform="translate(0 0.78125)"/>
       <use xlink:href="#DejaVuSans-2e" transform="translate(63.623047 0.78125)"/>
       <use xlink:href="#DejaVuSans-30" transform="translate(95.410156 0.78125)"/>
       <use xlink:href="#DejaVuSans-36" transform="translate(159.033203 0.78125)"/>
      </g>
     </g>
    </g>
    <g id="ytick_5">
     <g id="line2d_23">
      <g>
       <use xlink:href="#m2f49ec6731" x="44.976384" y="58.692611" style="stroke: #000000; stroke-width: 0.5"/>
      </g>
     </g>
     <g id="line2d_24">
      <g>
       <use xlink:href="#m680a0c2b49" x="213.165354" y="58.692611" style="stroke: #000000; stroke-width: 0.5"/>
      </g>
     </g>
     <g id="text_13">
      <!-- $0.08$ -->
      <g transform="translate(21.406384 62.111907) scale(0.09 -0.09)">
       <use xlink:href="#DejaVuSans-30" transform="translate(0 0.78125)"/>
       <use xlink:href="#DejaVuSans-2e" transform="translate(63.623047 0.78125)"/>
       <use xlink:href="#DejaVuSans-30" transform="translate(95.410156 0.78125)"/>
       <use xlink:href="#DejaVuSans-38" transform="translate(159.033203 0.78125)"/>
      </g>
     </g>
    </g>
    <g id="ytick_6">
     <g id="line2d_25">
      <g>
       <use xlink:href="#m2f49ec6731" x="44.976384" y="36.349425" style="stroke: #000000; stroke-width: 0.5"/>
      </g>
     </g>
     <g id="line2d_26">
      <g>
       <use xlink:href="#m680a0c2b49" x="213.165354" y="36.349425" style="stroke: #000000; stroke-width: 0.5"/>
      </g>
     </g>
     <g id="text_14">
      <!-- $0.10$ -->
      <g transform="translate(21.406384 39.768721) scale(0.09 -0.09)">
       <use xlink:href="#DejaVuSans-30" transform="translate(0 0.78125)"/>
       <use xlink:href="#DejaVuSans-2e" transform="translate(63.623047 0.78125)"/>
       <use xlink:href="#DejaVuSans-31" transform="translate(95.410156 0.78125)"/>
       <use xlink:href="#DejaVuSans-30" transform="translate(159.033203 0.78125)"/>
      </g>
     </g>
    </g>
    <g id="ytick_7">
     <g id="line2d_27">
      <g>
       <use xlink:href="#m2f49ec6731" x="44.976384" y="14.006239" style="stroke: #000000; stroke-width: 0.5"/>
      </g>
     </g>
     <g id="line2d_28">
      <g>
       <use xlink:href="#m680a0c2b49" x="213.165354" y="14.006239" style="stroke: #000000; stroke-width: 0.5"/>
      </g>
     </g>
     <g id="text_15">
      <!-- $0.12$ -->
      <g transform="translate(21.406384 17.425536) scale(0.09 -0.09)">
       <use xlink:href="#DejaVuSans-30" transform="translate(0 0.78125)"/>
       <use xlink:href="#DejaVuSans-2e" transform="translate(63.623047 0.78125)"/>
       <use xlink:href="#DejaVuSans-31" transform="translate(95.410156 0.78125)"/>
       <use xlink:href="#DejaVuSans-32" transform="translate(159.033203 0.78125)"/>
      </g>
     </g>
    </g>
    <g id="text_16">
     <!-- $\langle M/N \rangle$ -->
     <g transform="translate(14.910759 91.83) rotate(-90) scale(0.12 -0.12)">
      <defs>
       <path id="DejaVuSans-27e8" d="M 572 2006 
L 1453 4856 
L 1984 4856 
L 1103 2006 
L 1984 -844 
L 1453 -844 
L 572 2006 
z
" transform="scale(0.015625)"/>
       <path id="DejaVuSans-Oblique-4d" d="M 1081 4666 
L 2028 4666 
L 2572 1522 
L 4378 4666 
L 5350 4666 
L 4441 0 
L 3828 0 
L 4622 4091 
L 2791 897 
L 2175 897 
L 1581 4103 
L 788 0 
L 172 0 
L 1081 4666 
z
" transform="scale(0.015625)"/>
       <path id="DejaVuSans-27e9" d="M 1925 2006 
L 1044 -844 
L 513 -844 
L 1394 2006 
L 513 4856 
L 1044 4856 
L 1925 2006 
z
" transform="scale(0.015625)"/>
      </defs>
      <use xlink:href="#DejaVuSans-27e8" transform="translate(0 0.125)"/>
      <use xlink:href="#DejaVuSans-Oblique-4d" transform="translate(39.013672 0.125)"/>
      <use xlink:href="#DejaVuSans-2f" transform="translate(125.292969 0.125)"/>
      <use xlink:href="#DejaVuSans-Oblique-4e" transform="translate(158.984375 0.125)"/>
      <use xlink:href="#DejaVuSans-27e9" transform="translate(233.789062 0.125)"/>
     </g>
    </g>
   </g>
   <g id="line2d_29">
    <path d="M 44.98428 148.065354 
L 45.102728 147.992623 
L 174.352515 147.997168 
L 174.352515 147.997168 
" clip-path="url(#pd7617f5589)" style="fill: none; stroke-dasharray: 3.7,1.6; stroke-dashoffset: 0; stroke: #009afa"/>
   </g>
   <g id="patch_3">
    <path d="M 44.976384 148.065354 
L 44.976384 2.834646 
" style="fill: none; stroke: #000000; stroke-linejoin: miter; stroke-linecap: square"/>
   </g>
   <g id="patch_4">
    <path d="M 213.165354 148.065354 
L 213.165354 2.834646 
" style="fill: none; stroke: #000000; stroke-linejoin: miter; stroke-linecap: square"/>
   </g>
   <g id="patch_5">
    <path d="M 44.976384 148.065354 
L 213.165354 148.065354 
" style="fill: none; stroke: #000000; stroke-linejoin: miter; stroke-linecap: square"/>
   </g>
   <g id="patch_6">
    <path d="M 44.976384 2.834646 
L 213.165354 2.834646 
" style="fill: none; stroke: #000000; stroke-linejoin: miter; stroke-linecap: square"/>
   </g>
   <g id="line2d_30">
    <path d="M 44.98428 148.065354 
L 45.205382 147.095954 
L 46.524096 142.351323 
L 47.716467 138.814947 
L 48.987802 135.856448 
L 49.880106 134.301625 
L 51.017201 132.879402 
L 51.996366 132.13497 
L 53.567768 131.655282 
L 54.681173 131.656873 
L 56.394712 131.950572 
L 58.747867 132.55836 
L 90.160113 141.303918 
L 92.655405 141.934274 
L 103.852631 144.559753 
L 114.868238 146.539693 
L 118.611175 147.006676 
L 120.837986 147.228189 
L 129.192475 147.742244 
L 144.124742 147.974985 
L 174.352515 147.997168 
L 174.352515 147.997168 
" clip-path="url(#pd7617f5589)" style="fill: none; stroke: #e36f47"/>
   </g>
   <g id="line2d_31">
    <path d="M 44.98428 148.065354 
L 45.284347 146.434095 
L 46.855749 138.675939 
L 48.600874 131.079451 
L 50.188069 125.151338 
L 51.585748 120.650608 
L 53.038703 116.700502 
L 54.341624 113.768778 
L 55.56558 111.509571 
L 56.813226 109.688255 
L 57.492324 108.901616 
L 58.621523 107.915215 
L 59.608584 107.321406 
L 60.532474 107.009727 
L 61.195779 106.906585 
L 62.506597 106.971725 
L 63.71476 107.281426 
L 66.091605 108.477113 
L 67.544559 109.432762 
L 70.205677 111.413929 
L 79.033956 118.688851 
L 95.829795 132.083194 
L 105.029208 138.408945 
L 110.106653 141.348557 
L 113.904866 143.180578 
L 116.834465 144.366151 
L 120.687953 145.601772 
L 124.115031 146.40473 
L 128.544963 147.107887 
L 133.938267 147.586484 
L 146.49369 147.945165 
L 174.352515 147.997168 
L 174.352515 147.997168 
" clip-path="url(#pd7617f5589)" style="fill: none; stroke: #3ea44e"/>
   </g>
   <g id="line2d_32">
    <path d="M 44.98428 148.065354 
L 45.450173 144.993939 
L 47.858604 130.489006 
L 49.840623 120.113166 
L 51.309371 113.33166 
L 53.054496 106.236771 
L 55.186549 98.956553 
L 56.671089 94.73984 
L 58.052975 91.400363 
L 59.561205 88.40227 
L 61.606397 85.360993 
L 63.430487 83.544859 
L 64.425445 82.925594 
L 65.752055 82.439382 
L 66.541705 82.329126 
L 67.268182 82.332603 
L 68.065728 82.461679 
L 69.487096 82.989507 
L 70.632088 83.652411 
L 72.740451 85.400018 
L 73.735409 86.401784 
L 75.749015 88.738041 
L 78.710199 92.631393 
L 79.981535 94.426616 
L 83.045374 98.939415 
L 95.521832 117.484891 
L 98.625153 121.81802 
L 105.40824 130.422002 
L 110.043481 135.40667 
L 112.941494 138.079675 
L 116.384364 140.751702 
L 120.474748 143.256765 
L 125.086299 145.219271 
L 126.910389 145.778192 
L 129.074028 146.322225 
L 131.758835 146.834097 
L 134.688434 147.227417 
L 142.371721 147.757358 
L 151.121034 147.948484 
L 160.036174 147.991418 
L 174.352515 147.997168 
L 174.352515 147.997168 
" clip-path="url(#pd7617f5589)" style="fill: none; stroke: #c371d2"/>
   </g>
   <g id="line2d_33">
    <path d="M 44.98428 148.065354 
L 45.75024 142.417145 
L 47.724363 128.917705 
L 49.777451 116.420713 
L 51.467301 107.286722 
L 53.457217 97.851167 
L 55.036515 91.316971 
L 56.46578 86.133586 
L 57.816081 81.855324 
L 59.316414 77.727821 
L 60.950988 74.020981 
L 62.65663 70.981567 
L 63.87269 69.294555 
L 65.001889 68.086527 
L 65.436196 67.710844 
L 66.091605 67.230838 
L 66.88915 66.780106 
L 69.18703 66.310122 
L 70.805811 66.673985 
L 72.187697 67.387166 
L 74.596127 69.420972 
L 76.751869 71.99447 
L 79.349815 75.834705 
L 82.539998 81.374294 
L 85.201116 86.406216 
L 86.527727 88.999261 
L 89.180948 94.309177 
L 93.081815 102.09479 
L 94.518977 104.894621 
L 96.801063 109.269707 
L 100.386071 115.861792 
L 102.186471 119.004644 
L 104.48435 122.821559 
L 107.39026 127.286901 
L 111.614883 133.006001 
L 114.765584 136.561968 
L 117.979456 139.579153 
L 120.095716 141.224731 
L 124.186099 143.69586 
L 127.163077 144.986961 
L 128.639721 145.491583 
L 131.877283 146.354022 
L 135.320153 146.974265 
L 139.394743 147.425361 
L 151.097345 147.920414 
L 164.000214 147.995077 
L 174.352515 147.997168 
L 174.352515 147.997168 
" clip-path="url(#pd7617f5589)" style="fill: none; stroke: #ac8e18"/>
   </g>
   <g id="line2d_34">
    <path d="M 44.98428 148.065354 
L 47.179505 130.070503 
L 49.335248 114.245352 
L 51.167234 102.216775 
L 53.02291 91.313585 
L 54.66538 82.714104 
L 57.25543 71.101507 
L 59.324311 63.485472 
L 60.800955 58.909647 
L 63.10673 53.130293 
L 64.085895 51.179242 
L 65.444092 48.945582 
L 66.541705 47.492629 
L 67.386629 46.616303 
L 68.807998 45.556511 
L 70.047747 45.051207 
L 71.358565 44.914563 
L 72.140318 45.021683 
L 73.23793 45.419389 
L 74.698781 46.351401 
L 76.672904 48.291247 
L 78.575959 50.805423 
L 80.131568 53.281938 
L 81.442386 55.690881 
L 82.745307 58.298109 
L 87.341066 68.901395 
L 90.697075 77.563766 
L 99.738559 101.52771 
L 105.850444 115.929773 
L 108.669491 121.680876 
L 110.09086 124.368722 
L 114.094382 131.005105 
L 116.084298 133.810777 
L 117.6557 135.788216 
L 120.340507 138.650869 
L 122.6068 140.669606 
L 124.407201 142.003574 
L 127.376282 143.752772 
L 129.595196 144.752538 
L 132.193142 145.657889 
L 135.233292 146.435095 
L 137.791755 146.895942 
L 140.871387 147.288648 
L 143.737814 147.540209 
L 151.657996 147.884911 
L 162.413019 147.990532 
L 174.352515 147.997168 
L 174.352515 147.997168 
" clip-path="url(#pd7617f5589)" style="fill: none; stroke-dasharray: 1,1.65; stroke-dashoffset: 0; stroke: #00aaae"/>
   </g>
   <g id="PathCollection_2">
    <defs>
     <path id="m53aff19888" d="M -2 2 
L 2 -2 
M -2 -2 
L 2 2 
" style="stroke: #009afa; stroke-width: 0.7"/>
    </defs>
    <g clip-path="url(#pd7617f5589)">
     <use xlink:href="#m53aff19888" x="65.641199" y="147.993804" style="fill: #009afa; stroke: #009afa; stroke-width: 0.7"/>
    </g>
   </g>
   <g id="PathCollection_3">
    <defs>
     <path id="m94954a7cd7" d="M -2 2 
L 2 -2 
M -2 -2 
L 2 2 
" style="stroke: #e36f47; stroke-width: 0.7"/>
    </defs>
    <g clip-path="url(#pd7617f5589)">
     <use xlink:href="#m94954a7cd7" x="69.079961" y="135.529928" style="fill: #e36f47; stroke: #e36f47; stroke-width: 0.7"/>
    </g>
   </g>
   <g id="PathCollection_4">
    <defs>
     <path id="m88a636be8d" d="M -2 2 
L 2 -2 
M -2 -2 
L 2 2 
" style="stroke: #3ea44e; stroke-width: 0.7"/>
    </defs>
    <g clip-path="url(#pd7617f5589)">
     <use xlink:href="#m88a636be8d" x="75.433571" y="115.680235" style="fill: #3ea44e; stroke: #3ea44e; stroke-width: 0.7"/>
    </g>
   </g>
   <g id="PathCollection_5">
    <defs>
     <path id="m1eb3e00329" d="M -2 2 
L 2 -2 
M -2 -2 
L 2 2 
" style="stroke: #c371d2; stroke-width: 0.7"/>
    </defs>
    <g clip-path="url(#pd7617f5589)">
     <use xlink:href="#m1eb3e00329" x="83.913614" y="100.245313" style="fill: #c371d2; stroke: #c371d2; stroke-width: 0.7"/>
    </g>
   </g>
   <g id="PathCollection_6">
    <defs>
     <path id="mc26c1ff9d6" d="M -2 2 
L 2 -2 
M -2 -2 
L 2 2 
" style="stroke: #ac8e18; stroke-width: 0.7"/>
    </defs>
    <g clip-path="url(#pd7617f5589)">
     <use xlink:href="#mc26c1ff9d6" x="88.923107" y="93.784986" style="fill: #ac8e18; stroke: #ac8e18; stroke-width: 0.7"/>
    </g>
   </g>
   <g id="PathCollection_7">
    <defs>
     <path id="mc1a995d041" d="M -2 2 
L 2 -2 
M -2 -2 
L 2 2 
" style="stroke: #00aaae; stroke-width: 0.7"/>
    </defs>
    <g clip-path="url(#pd7617f5589)">
     <use xlink:href="#mc1a995d041" x="95.055915" y="89.261823" style="fill: #00aaae; stroke: #00aaae; stroke-width: 0.7"/>
    </g>
   </g>
   <g id="PathCollection_8">
    <defs>
     <path id="mc2675cf13f" d="M -0 3.535534 
L 3.535534 0 
L 0 -3.535534 
L -3.535534 -0 
z
" style="stroke: #009afa"/>
    </defs>
    <g clip-path="url(#pd7617f5589)">
     <use xlink:href="#mc2675cf13f" x="45.00797" y="147.992645" style="fill-opacity: 0; stroke: #009afa"/>
    </g>
   </g>
   <g id="PathCollection_9">
    <defs>
     <path id="m45c8d760f7" d="M -0 3.535534 
L 3.535534 0 
L 0 -3.535534 
L -3.535534 -0 
z
" style="stroke: #e36f47"/>
    </defs>
    <g clip-path="url(#pd7617f5589)">
     <use xlink:href="#m45c8d760f7" x="50.164379" y="133.873781" style="fill-opacity: 0; stroke: #e36f47"/>
    </g>
   </g>
   <g id="PathCollection_10">
    <defs>
     <path id="m127ee7edc7" d="M -0 3.535534 
L 3.535534 0 
L 0 -3.535534 
L -3.535534 -0 
z
" style="stroke: #3ea44e"/>
    </defs>
    <g clip-path="url(#pd7617f5589)">
     <use xlink:href="#m127ee7edc7" x="63.319936" y="107.1541" style="fill-opacity: 0; stroke: #3ea44e"/>
    </g>
   </g>
   <g id="PathCollection_11">
    <defs>
     <path id="m46cf0d1914" d="M -0 3.535534 
L 3.535534 0 
L 0 -3.535534 
L -3.535534 -0 
z
" style="stroke: #c371d2"/>
    </defs>
    <g clip-path="url(#pd7617f5589)">
     <use xlink:href="#m46cf0d1914" x="99.05946" y="122.404715" style="fill-opacity: 0; stroke: #c371d2"/>
    </g>
   </g>
   <g id="PathCollection_12">
    <defs>
     <path id="m4542f35387" d="M -0 3.535534 
L 3.535534 0 
L 0 -3.535534 
L -3.535534 -0 
z
" style="stroke: #ac8e18"/>
    </defs>
    <g clip-path="url(#pd7617f5589)">
     <use xlink:href="#m4542f35387" x="104.310628" y="122.540155" style="fill-opacity: 0; stroke: #ac8e18"/>
    </g>
   </g>
   <g id="PathCollection_13">
    <defs>
     <path id="m27d5c78475" d="M -0 3.535534 
L 3.535534 0 
L 0 -3.535534 
L -3.535534 -0 
z
" style="stroke: #00aaae"/>
    </defs>
    <g clip-path="url(#pd7617f5589)">
     <use xlink:href="#m27d5c78475" x="113.983831" y="130.844732" style="fill-opacity: 0; stroke: #00aaae"/>
    </g>
   </g>
   <g id="legend_1">
    <g id="patch_7">
     <path d="M 149.026292 109.706833 
L 208.665354 109.706833 
L 208.665354 7.334646 
L 149.026292 7.334646 
L 149.026292 109.706833 
z
" style="fill: none; opacity: 0"/>
    </g>
    <g id="line2d_35">
     <path d="M 156.226292 18.223239 
L 165.226292 18.223239 
L 174.226292 18.223239 
" style="fill: none"/>
     <defs>
      <path id="maac1754912" d="M 0 3.6 
C 0.954731 3.6 1.870488 3.220681 2.545584 2.545584 
C 3.220681 1.870488 3.6 0.954731 3.6 0 
C 3.6 -0.954731 3.220681 -1.870488 2.545584 -2.545584 
C 1.870488 -3.220681 0.954731 -3.6 0 -3.6 
C -0.954731 -3.6 -1.870488 -3.220681 -2.545584 -2.545584 
C -3.220681 -1.870488 -3.6 -0.954731 -3.6 0 
C -3.6 0.954731 -3.220681 1.870488 -2.545584 2.545584 
C -1.870488 3.220681 -0.954731 3.6 0 3.6 
z
" style="stroke: #ffffff; stroke-width: inf"/>
     </defs>
     <g>
      <use xlink:href="#maac1754912" x="165.226292" y="18.223239" style="fill: #ffffff; fill-opacity: 0; stroke: #ffffff; stroke-width: inf"/>
     </g>
    </g>
    <g id="text_17">
     <!-- $t_0$ -->
     <g transform="translate(181.426292 21.373239) scale(0.09 -0.09)">
      <defs>
       <path id="DejaVuSans-Oblique-74" d="M 2706 3500 
L 2619 3053 
L 1472 3053 
L 1100 1153 
Q 1081 1047 1072 975 
Q 1063 903 1063 863 
Q 1063 663 1183 572 
Q 1303 481 1569 481 
L 2150 481 
L 2053 0 
L 1503 0 
Q 991 0 739 200 
Q 488 400 488 806 
Q 488 878 497 964 
Q 506 1050 525 1153 
L 897 3053 
L 409 3053 
L 500 3500 
L 978 3500 
L 1172 4494 
L 1747 4494 
L 1556 3500 
L 2706 3500 
z
" transform="scale(0.015625)"/>
      </defs>
      <use xlink:href="#DejaVuSans-Oblique-74" transform="translate(0 0.78125)"/>
      <use xlink:href="#DejaVuSans-30" transform="translate(39.208984 -15.625) scale(0.7)"/>
     </g>
    </g>
    <g id="line2d_36">
     <path d="M 156.226292 31.433552 
L 165.226292 31.433552 
L 174.226292 31.433552 
" style="fill: none; stroke-dasharray: 4.1625,1.8; stroke-dashoffset: 0; stroke: #009afa; stroke-width: 1.125; stroke-linejoin: miter"/>
    </g>
    <g id="text_18">
     <!-- 0.1 -->
     <g transform="translate(181.426292 34.583552) scale(0.09 -0.09)">
      <use xlink:href="#DejaVuSans-30"/>
      <use xlink:href="#DejaVuSans-2e" x="63.623047"/>
      <use xlink:href="#DejaVuSans-31" x="95.410156"/>
     </g>
    </g>
    <g id="line2d_37">
     <path d="M 156.226292 44.643864 
L 165.226292 44.643864 
L 174.226292 44.643864 
" style="fill: none; stroke: #e36f47; stroke-width: 1.125; stroke-linejoin: miter"/>
    </g>
    <g id="text_19">
     <!-- 0.27 -->
     <g transform="translate(181.426292 47.793864) scale(0.09 -0.09)">
      <defs>
       <path id="DejaVuSans-37" d="M 525 4666 
L 3525 4666 
L 3525 4397 
L 1831 0 
L 1172 0 
L 2766 4134 
L 525 4134 
L 525 4666 
z
" transform="scale(0.015625)"/>
      </defs>
      <use xlink:href="#DejaVuSans-30"/>
      <use xlink:href="#DejaVuSans-2e" x="63.623047"/>
      <use xlink:href="#DejaVuSans-32" x="95.410156"/>
      <use xlink:href="#DejaVuSans-37" x="159.033203"/>
     </g>
    </g>
    <g id="line2d_38">
     <path d="M 156.226292 57.854177 
L 165.226292 57.854177 
L 174.226292 57.854177 
" style="fill: none; stroke: #3ea44e; stroke-width: 1.125; stroke-linejoin: miter"/>
    </g>
    <g id="text_20">
     <!-- 0.3 -->
     <g transform="translate(181.426292 61.004177) scale(0.09 -0.09)">
      <defs>
       <path id="DejaVuSans-33" d="M 2597 2516 
Q 3050 2419 3304 2112 
Q 3559 1806 3559 1356 
Q 3559 666 3084 287 
Q 2609 -91 1734 -91 
Q 1441 -91 1130 -33 
Q 819 25 488 141 
L 488 750 
Q 750 597 1062 519 
Q 1375 441 1716 441 
Q 2309 441 2620 675 
Q 2931 909 2931 1356 
Q 2931 1769 2642 2001 
Q 2353 2234 1838 2234 
L 1294 2234 
L 1294 2753 
L 1863 2753 
Q 2328 2753 2575 2939 
Q 2822 3125 2822 3475 
Q 2822 3834 2567 4026 
Q 2313 4219 1838 4219 
Q 1578 4219 1281 4162 
Q 984 4106 628 3988 
L 628 4550 
Q 988 4650 1302 4700 
Q 1616 4750 1894 4750 
Q 2613 4750 3031 4423 
Q 3450 4097 3450 3541 
Q 3450 3153 3228 2886 
Q 3006 2619 2597 2516 
z
" transform="scale(0.015625)"/>
      </defs>
      <use xlink:href="#DejaVuSans-30"/>
      <use xlink:href="#DejaVuSans-2e" x="63.623047"/>
      <use xlink:href="#DejaVuSans-33" x="95.410156"/>
     </g>
    </g>
    <g id="line2d_39">
     <path d="M 156.226292 71.064489 
L 165.226292 71.064489 
L 174.226292 71.064489 
" style="fill: none; stroke: #c371d2; stroke-width: 1.125; stroke-linejoin: miter"/>
    </g>
    <g id="text_21">
     <!-- 0.35 -->
     <g transform="translate(181.426292 74.214489) scale(0.09 -0.09)">
      <defs>
       <path id="DejaVuSans-35" d="M 691 4666 
L 3169 4666 
L 3169 4134 
L 1269 4134 
L 1269 2991 
Q 1406 3038 1543 3061 
Q 1681 3084 1819 3084 
Q 2600 3084 3056 2656 
Q 3513 2228 3513 1497 
Q 3513 744 3044 326 
Q 2575 -91 1722 -91 
Q 1428 -91 1123 -41 
Q 819 9 494 109 
L 494 744 
Q 775 591 1075 516 
Q 1375 441 1709 441 
Q 2250 441 2565 725 
Q 2881 1009 2881 1497 
Q 2881 1984 2565 2268 
Q 2250 2553 1709 2553 
Q 1456 2553 1204 2497 
Q 953 2441 691 2322 
L 691 4666 
z
" transform="scale(0.015625)"/>
      </defs>
      <use xlink:href="#DejaVuSans-30"/>
      <use xlink:href="#DejaVuSans-2e" x="63.623047"/>
      <use xlink:href="#DejaVuSans-33" x="95.410156"/>
      <use xlink:href="#DejaVuSans-35" x="159.033203"/>
     </g>
    </g>
    <g id="line2d_40">
     <path d="M 156.226292 84.274802 
L 165.226292 84.274802 
L 174.226292 84.274802 
" style="fill: none; stroke: #ac8e18; stroke-width: 1.125; stroke-linejoin: miter"/>
    </g>
    <g id="text_22">
     <!-- 0.4 -->
     <g transform="translate(181.426292 87.424802) scale(0.09 -0.09)">
      <use xlink:href="#DejaVuSans-30"/>
      <use xlink:href="#DejaVuSans-2e" x="63.623047"/>
      <use xlink:href="#DejaVuSans-34" x="95.410156"/>
     </g>
    </g>
    <g id="line2d_41">
     <path d="M 156.226292 97.485114 
L 165.226292 97.485114 
L 174.226292 97.485114 
" style="fill: none; stroke-dasharray: 1.125,1.85625; stroke-dashoffset: 0; stroke: #00aaae; stroke-width: 1.125; stroke-linejoin: miter"/>
    </g>
    <g id="text_23">
     <!-- 0.5 -->
     <g transform="translate(181.426292 100.635114) scale(0.09 -0.09)">
      <use xlink:href="#DejaVuSans-30"/>
      <use xlink:href="#DejaVuSans-2e" x="63.623047"/>
      <use xlink:href="#DejaVuSans-35" x="95.410156"/>
     </g>
    </g>
   </g>
  </g>
 </g>
 <defs>
  <clipPath id="pd7617f5589">
   <rect x="44.976384" y="2.834646" width="168.18897" height="145.230709"/>
  </clipPath>
 </defs>
</svg>
