<?xml version="1.0" encoding="utf-8" standalone="no"?>
<!DOCTYPE svg PUBLIC "-//W3C//DTD SVG 1.1//EN"
  "http://www.w3.org/Graphics/SVG/1.1/DTD/svg11.dtd">
<svg xmlns:xlink="http://www.w3.org/1999/xlink" width="216pt" height="180pt" viewBox="0 0 216 180" xmlns="http://www.w3.org/2000/svg" version="1.1">
 <metadata>
  <rdf:RDF xmlns:dc="http://purl.org/dc/elements/1.1/" xmlns:cc="http://creativecommons.org/ns#" xmlns:rdf="http://www.w3.org/1999/02/22-rdf-syntax-ns#">
   <cc:Work>
    <dc:type rdf:resource="http://purl.org/dc/dcmitype/StillImage"/>
    <dc:date>2023-05-18T19:23:28.401186</dc:date>
    <dc:format>image/svg+xml</dc:format>
    <dc:creator>
     <cc:Agent>
      <dc:title>Matplotlib v3.6.3, https://matplotlib.org/</dc:title>
     </cc:Agent>
    </dc:creator>
   </cc:Work>
  </rdf:RDF>
 </metadata>
 <defs>
  <style type="text/css">*{stroke-linejoin: round; stroke-linecap: butt}</style>
 </defs>
 <g id="figure_1">
  <g id="patch_1">
   <path d="M 0 180 
L 216 180 
L 216 0 
L 0 0 
z
" style="fill: #ffffff"/>
  </g>
  <g id="axes_1">
   <g id="patch_2">
    <path d="M 39.25031 148.065354 
L 213.165354 148.065354 
L 213.165354 20.354646 
L 39.25031 20.354646 
z
" style="fill: #ffffff"/>
   </g>
   <g id="PathCollection_1">
    <defs>
     <path id="m80c6f15a50" d="M 0 0 
C 0 0 0 0 0 0 
C 0 0 0 0 0 0 
C 0 0 0 0 0 0 
C 0 0 0 0 0 0 
C 0 0 0 0 0 0 
C 0 0 0 0 0 0 
C 0 0 0 0 0 0 
C 0 0 0 0 0 0 
z
" style="stroke: #ffffff; stroke-width: 0.7"/>
    </defs>
    <g clip-path="url(#p6f23e6bcce)">
     <use xlink:href="#m80c6f15a50" x="39.25031" y="148.065354" style="fill: #ffffff; fill-opacity: 0; stroke: #ffffff; stroke-width: 0.7"/>
    </g>
   </g>
   <g id="matplotlib.axis_1">
    <g id="xtick_1">
     <g id="line2d_1">
      <defs>
       <path id="m0b6e975606" d="M 0 0 
L 0 -2.5 
" style="stroke: #000000; stroke-width: 0.5"/>
      </defs>
      <g>
       <use xlink:href="#m0b6e975606" x="39.25031" y="148.065354" style="stroke: #000000; stroke-width: 0.5"/>
      </g>
     </g>
     <g id="line2d_2">
      <defs>
       <path id="ma33086066f" d="M 0 0 
L 0 2.5 
" style="stroke: #000000; stroke-width: 0.5"/>
      </defs>
      <g>
       <use xlink:href="#ma33086066f" x="39.25031" y="20.354646" style="stroke: #000000; stroke-width: 0.5"/>
      </g>
     </g>
     <g id="text_1">
      <!-- $0.0$ -->
      <g transform="translate(32.05031 158.403948) scale(0.09 -0.09)">
       <defs>
        <path id="DejaVuSans-30" d="M 2034 4250 
Q 1547 4250 1301 3770 
Q 1056 3291 1056 2328 
Q 1056 1369 1301 889 
Q 1547 409 2034 409 
Q 2525 409 2770 889 
Q 3016 1369 3016 2328 
Q 3016 3291 2770 3770 
Q 2525 4250 2034 4250 
z
M 2034 4750 
Q 2819 4750 3233 4129 
Q 3647 3509 3647 2328 
Q 3647 1150 3233 529 
Q 2819 -91 2034 -91 
Q 1250 -91 836 529 
Q 422 1150 422 2328 
Q 422 3509 836 4129 
Q 1250 4750 2034 4750 
z
" transform="scale(0.015625)"/>
        <path id="DejaVuSans-2e" d="M 684 794 
L 1344 794 
L 1344 0 
L 684 0 
L 684 794 
z
" transform="scale(0.015625)"/>
       </defs>
       <use xlink:href="#DejaVuSans-30" transform="translate(0 0.78125)"/>
       <use xlink:href="#DejaVuSans-2e" transform="translate(63.623047 0.78125)"/>
       <use xlink:href="#DejaVuSans-30" transform="translate(95.410156 0.78125)"/>
      </g>
     </g>
    </g>
    <g id="xtick_2">
     <g id="line2d_3">
      <g>
       <use xlink:href="#m0b6e975606" x="66.00647" y="148.065354" style="stroke: #000000; stroke-width: 0.5"/>
      </g>
     </g>
     <g id="line2d_4">
      <g>
       <use xlink:href="#ma33086066f" x="66.00647" y="20.354646" style="stroke: #000000; stroke-width: 0.5"/>
      </g>
     </g>
     <g id="text_2">
      <!-- $0.2$ -->
      <g transform="translate(59.07647 158.403948) scale(0.09 -0.09)">
       <defs>
        <path id="DejaVuSans-32" d="M 1228 531 
L 3431 531 
L 3431 0 
L 469 0 
L 469 531 
Q 828 903 1448 1529 
Q 2069 2156 2228 2338 
Q 2531 2678 2651 2914 
Q 2772 3150 2772 3378 
Q 2772 3750 2511 3984 
Q 2250 4219 1831 4219 
Q 1534 4219 1204 4116 
Q 875 4013 500 3803 
L 500 4441 
Q 881 4594 1212 4672 
Q 1544 4750 1819 4750 
Q 2544 4750 2975 4387 
Q 3406 4025 3406 3419 
Q 3406 3131 3298 2873 
Q 3191 2616 2906 2266 
Q 2828 2175 2409 1742 
Q 1991 1309 1228 531 
z
" transform="scale(0.015625)"/>
       </defs>
       <use xlink:href="#DejaVuSans-30" transform="translate(0 0.78125)"/>
       <use xlink:href="#DejaVuSans-2e" transform="translate(63.623047 0.78125)"/>
       <use xlink:href="#DejaVuSans-32" transform="translate(89.910156 0.78125)"/>
      </g>
     </g>
    </g>
    <g id="xtick_3">
     <g id="line2d_5">
      <g>
       <use xlink:href="#m0b6e975606" x="92.762631" y="148.065354" style="stroke: #000000; stroke-width: 0.5"/>
      </g>
     </g>
     <g id="line2d_6">
      <g>
       <use xlink:href="#ma33086066f" x="92.762631" y="20.354646" style="stroke: #000000; stroke-width: 0.5"/>
      </g>
     </g>
     <g id="text_3">
      <!-- $0.4$ -->
      <g transform="translate(85.562631 158.403948) scale(0.09 -0.09)">
       <defs>
        <path id="DejaVuSans-34" d="M 2419 4116 
L 825 1625 
L 2419 1625 
L 2419 4116 
z
M 2253 4666 
L 3047 4666 
L 3047 1625 
L 3713 1625 
L 3713 1100 
L 3047 1100 
L 3047 0 
L 2419 0 
L 2419 1100 
L 313 1100 
L 313 1709 
L 2253 4666 
z
" transform="scale(0.015625)"/>
       </defs>
       <use xlink:href="#DejaVuSans-30" transform="translate(0 0.78125)"/>
       <use xlink:href="#DejaVuSans-2e" transform="translate(63.623047 0.78125)"/>
       <use xlink:href="#DejaVuSans-34" transform="translate(95.410156 0.78125)"/>
      </g>
     </g>
    </g>
    <g id="xtick_4">
     <g id="line2d_7">
      <g>
       <use xlink:href="#m0b6e975606" x="119.518792" y="148.065354" style="stroke: #000000; stroke-width: 0.5"/>
      </g>
     </g>
     <g id="line2d_8">
      <g>
       <use xlink:href="#ma33086066f" x="119.518792" y="20.354646" style="stroke: #000000; stroke-width: 0.5"/>
      </g>
     </g>
     <g id="text_4">
      <!-- $0.6$ -->
      <g transform="translate(112.318792 158.403948) scale(0.09 -0.09)">
       <defs>
        <path id="DejaVuSans-36" d="M 2113 2584 
Q 1688 2584 1439 2293 
Q 1191 2003 1191 1497 
Q 1191 994 1439 701 
Q 1688 409 2113 409 
Q 2538 409 2786 701 
Q 3034 994 3034 1497 
Q 3034 2003 2786 2293 
Q 2538 2584 2113 2584 
z
M 3366 4563 
L 3366 3988 
Q 3128 4100 2886 4159 
Q 2644 4219 2406 4219 
Q 1781 4219 1451 3797 
Q 1122 3375 1075 2522 
Q 1259 2794 1537 2939 
Q 1816 3084 2150 3084 
Q 2853 3084 3261 2657 
Q 3669 2231 3669 1497 
Q 3669 778 3244 343 
Q 2819 -91 2113 -91 
Q 1303 -91 875 529 
Q 447 1150 447 2328 
Q 447 3434 972 4092 
Q 1497 4750 2381 4750 
Q 2619 4750 2861 4703 
Q 3103 4656 3366 4563 
z
" transform="scale(0.015625)"/>
       </defs>
       <use xlink:href="#DejaVuSans-30" transform="translate(0 0.78125)"/>
       <use xlink:href="#DejaVuSans-2e" transform="translate(63.623047 0.78125)"/>
       <use xlink:href="#DejaVuSans-36" transform="translate(95.410156 0.78125)"/>
      </g>
     </g>
    </g>
    <g id="xtick_5">
     <g id="line2d_9">
      <g>
       <use xlink:href="#m0b6e975606" x="146.274953" y="148.065354" style="stroke: #000000; stroke-width: 0.5"/>
      </g>
     </g>
     <g id="line2d_10">
      <g>
       <use xlink:href="#ma33086066f" x="146.274953" y="20.354646" style="stroke: #000000; stroke-width: 0.5"/>
      </g>
     </g>
     <g id="text_5">
      <!-- $0.8$ -->
      <g transform="translate(139.209953 158.403948) scale(0.09 -0.09)">
       <defs>
        <path id="DejaVuSans-38" d="M 2034 2216 
Q 1584 2216 1326 1975 
Q 1069 1734 1069 1313 
Q 1069 891 1326 650 
Q 1584 409 2034 409 
Q 2484 409 2743 651 
Q 3003 894 3003 1313 
Q 3003 1734 2745 1975 
Q 2488 2216 2034 2216 
z
M 1403 2484 
Q 997 2584 770 2862 
Q 544 3141 544 3541 
Q 544 4100 942 4425 
Q 1341 4750 2034 4750 
Q 2731 4750 3128 4425 
Q 3525 4100 3525 3541 
Q 3525 3141 3298 2862 
Q 3072 2584 2669 2484 
Q 3125 2378 3379 2068 
Q 3634 1759 3634 1313 
Q 3634 634 3220 271 
Q 2806 -91 2034 -91 
Q 1263 -91 848 271 
Q 434 634 434 1313 
Q 434 1759 690 2068 
Q 947 2378 1403 2484 
z
M 1172 3481 
Q 1172 3119 1398 2916 
Q 1625 2713 2034 2713 
Q 2441 2713 2670 2916 
Q 2900 3119 2900 3481 
Q 2900 3844 2670 4047 
Q 2441 4250 2034 4250 
Q 1625 4250 1398 4047 
Q 1172 3844 1172 3481 
z
" transform="scale(0.015625)"/>
       </defs>
       <use xlink:href="#DejaVuSans-30" transform="translate(0 0.78125)"/>
       <use xlink:href="#DejaVuSans-2e" transform="translate(63.623047 0.78125)"/>
       <use xlink:href="#DejaVuSans-38" transform="translate(92.785156 0.78125)"/>
      </g>
     </g>
    </g>
    <g id="xtick_6">
     <g id="line2d_11">
      <g>
       <use xlink:href="#m0b6e975606" x="173.031113" y="148.065354" style="stroke: #000000; stroke-width: 0.5"/>
      </g>
     </g>
     <g id="line2d_12">
      <g>
       <use xlink:href="#ma33086066f" x="173.031113" y="20.354646" style="stroke: #000000; stroke-width: 0.5"/>
      </g>
     </g>
     <g id="text_6">
      <!-- $1.0$ -->
      <g transform="translate(165.831113 158.403948) scale(0.09 -0.09)">
       <defs>
        <path id="DejaVuSans-31" d="M 794 531 
L 1825 531 
L 1825 4091 
L 703 3866 
L 703 4441 
L 1819 4666 
L 2450 4666 
L 2450 531 
L 3481 531 
L 3481 0 
L 794 0 
L 794 531 
z
" transform="scale(0.015625)"/>
       </defs>
       <use xlink:href="#DejaVuSans-31" transform="translate(0 0.78125)"/>
       <use xlink:href="#DejaVuSans-2e" transform="translate(63.623047 0.78125)"/>
       <use xlink:href="#DejaVuSans-30" transform="translate(95.410156 0.78125)"/>
      </g>
     </g>
    </g>
    <g id="xtick_7">
     <g id="line2d_13">
      <g>
       <use xlink:href="#m0b6e975606" x="199.787274" y="148.065354" style="stroke: #000000; stroke-width: 0.5"/>
      </g>
     </g>
     <g id="line2d_14">
      <g>
       <use xlink:href="#ma33086066f" x="199.787274" y="20.354646" style="stroke: #000000; stroke-width: 0.5"/>
      </g>
     </g>
     <g id="text_7">
      <!-- $1.2$ -->
      <g transform="translate(192.857274 158.403948) scale(0.09 -0.09)">
       <use xlink:href="#DejaVuSans-31" transform="translate(0 0.78125)"/>
       <use xlink:href="#DejaVuSans-2e" transform="translate(63.623047 0.78125)"/>
       <use xlink:href="#DejaVuSans-32" transform="translate(89.910156 0.78125)"/>
      </g>
     </g>
    </g>
    <g id="text_8">
     <!-- $k/N$ -->
     <g transform="translate(116.187832 173.393792) scale(0.12 -0.12)">
      <defs>
       <path id="DejaVuSans-Oblique-6b" d="M 1172 4863 
L 1747 4863 
L 1197 2028 
L 3169 3500 
L 3916 3500 
L 1716 1825 
L 3322 0 
L 2625 0 
L 1131 1709 
L 800 0 
L 225 0 
L 1172 4863 
z
" transform="scale(0.015625)"/>
       <path id="DejaVuSans-2f" d="M 1625 4666 
L 2156 4666 
L 531 -594 
L 0 -594 
L 1625 4666 
z
" transform="scale(0.015625)"/>
       <path id="DejaVuSans-Oblique-4e" d="M 1081 4666 
L 1931 4666 
L 3219 666 
L 4000 4666 
L 4616 4666 
L 3706 0 
L 2853 0 
L 1569 4025 
L 788 0 
L 172 0 
L 1081 4666 
z
" transform="scale(0.015625)"/>
      </defs>
      <use xlink:href="#DejaVuSans-Oblique-6b" transform="translate(0 0.015625)"/>
      <use xlink:href="#DejaVuSans-2f" transform="translate(57.910156 0.015625)"/>
      <use xlink:href="#DejaVuSans-Oblique-4e" transform="translate(91.601562 0.015625)"/>
     </g>
    </g>
   </g>
   <g id="matplotlib.axis_2">
    <g id="ytick_1">
     <g id="line2d_15">
      <defs>
       <path id="m1ab6bbcdfb" d="M 0 0 
L 2.5 0 
" style="stroke: #000000; stroke-width: 0.5"/>
      </defs>
      <g>
       <use xlink:href="#m1ab6bbcdfb" x="39.25031" y="148.065354" style="stroke: #000000; stroke-width: 0.5"/>
      </g>
     </g>
     <g id="line2d_16">
      <defs>
       <path id="mdc3662885e" d="M 0 0 
L -2.5 0 
" style="stroke: #000000; stroke-width: 0.5"/>
      </defs>
      <g>
       <use xlink:href="#mdc3662885e" x="213.165354" y="148.065354" style="stroke: #000000; stroke-width: 0.5"/>
      </g>
     </g>
     <g id="text_9">
      <!-- $0.0$ -->
      <g transform="translate(21.35031 151.484651) scale(0.09 -0.09)">
       <use xlink:href="#DejaVuSans-30" transform="translate(0 0.78125)"/>
       <use xlink:href="#DejaVuSans-2e" transform="translate(63.623047 0.78125)"/>
       <use xlink:href="#DejaVuSans-30" transform="translate(95.410156 0.78125)"/>
      </g>
     </g>
    </g>
    <g id="ytick_2">
     <g id="line2d_17">
      <g>
       <use xlink:href="#m1ab6bbcdfb" x="39.25031" y="116.138712" style="stroke: #000000; stroke-width: 0.5"/>
      </g>
     </g>
     <g id="line2d_18">
      <g>
       <use xlink:href="#mdc3662885e" x="213.165354" y="116.138712" style="stroke: #000000; stroke-width: 0.5"/>
      </g>
     </g>
     <g id="text_10">
      <!-- $0.1$ -->
      <g transform="translate(21.35031 119.558009) scale(0.09 -0.09)">
       <use xlink:href="#DejaVuSans-30" transform="translate(0 0.78125)"/>
       <use xlink:href="#DejaVuSans-2e" transform="translate(63.623047 0.78125)"/>
       <use xlink:href="#DejaVuSans-31" transform="translate(95.410156 0.78125)"/>
      </g>
     </g>
    </g>
    <g id="ytick_3">
     <g id="line2d_19">
      <g>
       <use xlink:href="#m1ab6bbcdfb" x="39.25031" y="84.212069" style="stroke: #000000; stroke-width: 0.5"/>
      </g>
     </g>
     <g id="line2d_20">
      <g>
       <use xlink:href="#mdc3662885e" x="213.165354" y="84.212069" style="stroke: #000000; stroke-width: 0.5"/>
      </g>
     </g>
     <g id="text_11">
      <!-- $0.2$ -->
      <g transform="translate(21.89031 87.631366) scale(0.09 -0.09)">
       <use xlink:href="#DejaVuSans-30" transform="translate(0 0.78125)"/>
       <use xlink:href="#DejaVuSans-2e" transform="translate(63.623047 0.78125)"/>
       <use xlink:href="#DejaVuSans-32" transform="translate(89.910156 0.78125)"/>
      </g>
     </g>
    </g>
    <g id="ytick_4">
     <g id="line2d_21">
      <g>
       <use xlink:href="#m1ab6bbcdfb" x="39.25031" y="52.285426" style="stroke: #000000; stroke-width: 0.5"/>
      </g>
     </g>
     <g id="line2d_22">
      <g>
       <use xlink:href="#mdc3662885e" x="213.165354" y="52.285426" style="stroke: #000000; stroke-width: 0.5"/>
      </g>
     </g>
     <g id="text_12">
      <!-- $0.3$ -->
      <g transform="translate(21.35031 55.704723) scale(0.09 -0.09)">
       <defs>
        <path id="DejaVuSans-33" d="M 2597 2516 
Q 3050 2419 3304 2112 
Q 3559 1806 3559 1356 
Q 3559 666 3084 287 
Q 2609 -91 1734 -91 
Q 1441 -91 1130 -33 
Q 819 25 488 141 
L 488 750 
Q 750 597 1062 519 
Q 1375 441 1716 441 
Q 2309 441 2620 675 
Q 2931 909 2931 1356 
Q 2931 1769 2642 2001 
Q 2353 2234 1838 2234 
L 1294 2234 
L 1294 2753 
L 1863 2753 
Q 2328 2753 2575 2939 
Q 2822 3125 2822 3475 
Q 2822 3834 2567 4026 
Q 2313 4219 1838 4219 
Q 1578 4219 1281 4162 
Q 984 4106 628 3988 
L 628 4550 
Q 988 4650 1302 4700 
Q 1616 4750 1894 4750 
Q 2613 4750 3031 4423 
Q 3450 4097 3450 3541 
Q 3450 3153 3228 2886 
Q 3006 2619 2597 2516 
z
" transform="scale(0.015625)"/>
       </defs>
       <use xlink:href="#DejaVuSans-30" transform="translate(0 0.78125)"/>
       <use xlink:href="#DejaVuSans-2e" transform="translate(63.623047 0.78125)"/>
       <use xlink:href="#DejaVuSans-33" transform="translate(95.410156 0.78125)"/>
      </g>
     </g>
    </g>
    <g id="ytick_5">
     <g id="line2d_23">
      <g>
       <use xlink:href="#m1ab6bbcdfb" x="39.25031" y="20.358784" style="stroke: #000000; stroke-width: 0.5"/>
      </g>
     </g>
     <g id="line2d_24">
      <g>
       <use xlink:href="#mdc3662885e" x="213.165354" y="20.358784" style="stroke: #000000; stroke-width: 0.5"/>
      </g>
     </g>
     <g id="text_13">
      <!-- $0.4$ -->
      <g transform="translate(21.35031 23.778081) scale(0.09 -0.09)">
       <use xlink:href="#DejaVuSans-30" transform="translate(0 0.78125)"/>
       <use xlink:href="#DejaVuSans-2e" transform="translate(63.623047 0.78125)"/>
       <use xlink:href="#DejaVuSans-34" transform="translate(95.410156 0.78125)"/>
      </g>
     </g>
    </g>
    <g id="text_14">
     <!-- $\langle σ \rangle$ -->
     <g transform="translate(14.854685 92.73) rotate(-90) scale(0.12 -0.12)">
      <defs>
       <path id="DejaVuSans-27e8" d="M 572 2006 
L 1453 4856 
L 1984 4856 
L 1103 2006 
L 1984 -844 
L 1453 -844 
L 572 2006 
z
" transform="scale(0.015625)"/>
       <path id="DejaVuSans-Oblique-3c3" d="M 2219 3044 
Q 1744 3044 1422 2700 
Q 1081 2341 969 1747 
Q 844 1119 1044 756 
Q 1241 397 1706 397 
Q 2166 397 2503 759 
Q 2844 1122 2966 1747 
Q 3075 2319 2881 2700 
Q 2700 3044 2219 3044 
z
M 2309 3503 
L 4219 3500 
L 4106 2925 
L 3463 2925 
Q 3706 2438 3575 1747 
Q 3406 888 2884 400 
Q 2359 -91 1609 -91 
Q 856 -91 525 400 
Q 194 888 363 1747 
Q 528 2609 1050 3097 
Q 1484 3503 2309 3503 
z
" transform="scale(0.015625)"/>
       <path id="DejaVuSans-27e9" d="M 1925 2006 
L 1044 -844 
L 513 -844 
L 1394 2006 
L 513 4856 
L 1044 4856 
L 1925 2006 
z
" transform="scale(0.015625)"/>
      </defs>
      <use xlink:href="#DejaVuSans-27e8" transform="translate(0 0.125)"/>
      <use xlink:href="#DejaVuSans-Oblique-3c3" transform="translate(39.013672 0.125)"/>
      <use xlink:href="#DejaVuSans-27e9" transform="translate(102.392578 0.125)"/>
     </g>
    </g>
   </g>
   <g id="line2d_25">
    <path d="M 39.258475 20.354912 
L 39.593254 20.354646 
L 39.723899 60.061483 
L 39.944363 65.915133 
L 40.254646 68.891764 
L 40.385291 69.612146 
L 40.752731 71.113027 
L 41.185493 72.210844 
L 42.32864 73.953812 
L 42.973701 74.516108 
L 43.822896 75.049121 
L 44.982373 75.637895 
L 48.321994 76.683197 
L 48.803748 76.80251 
L 49.603951 76.964705 
L 51.816756 77.312111 
L 52.135204 77.357089 
L 53.449823 77.510676 
L 54.413332 77.617276 
L 55.46666 77.746354 
L 56.201539 77.820232 
L 56.528153 77.854177 
L 57.44267 77.958689 
L 57.654969 77.964852 
L 58.716462 78.046854 
L 59.067571 78.087198 
L 59.933096 78.181982 
L 61.590659 78.294059 
L 61.909107 78.318178 
L 64.554674 78.517263 
L 64.8078 78.546521 
L 65.738648 78.608798 
L 65.975442 78.627797 
L 67.077762 78.711339 
L 67.445202 78.749356 
L 67.706493 78.760815 
L 68.033106 78.779854 
L 71.029783 78.954669 
L 71.9443 79.031546 
L 72.230087 79.028263 
L 73.038455 79.093681 
L 76.059628 79.263053 
L 77.023137 79.330982 
L 77.545718 79.376722 
L 80.101467 79.547262 
L 80.517899 79.578187 
L 81.816187 79.638051 
L 82.608224 79.717283 
L 82.869515 79.738059 
L 83.138971 79.773289 
L 85.727381 79.925763 
L 86.029498 79.954527 
L 86.388773 80.014263 
L 88.503594 80.1768 
L 89.409946 80.260511 
L 89.703898 80.274549 
L 90.250975 80.310446 
L 92.031017 80.483246 
L 92.357631 80.507628 
L 93.019023 80.58006 
L 93.900878 80.66589 
L 94.635758 80.782675 
L 95.860558 80.895531 
L 96.922051 81.001703 
L 97.199673 81.04016 
L 100.0902 81.415841 
L 100.343326 81.457551 
L 100.784254 81.507561 
L 103.266515 81.858428 
L 103.478813 81.90585 
L 104.287181 82.047403 
L 104.564802 82.109875 
L 105.560973 82.273939 
L 105.871256 82.338845 
L 107.243031 82.623895 
L 107.602306 82.710628 
L 108.353517 82.893869 
L 109.006743 83.046643 
L 110.256039 83.376517 
L 110.990919 83.582292 
L 112.713804 84.135265 
L 113.399692 84.376954 
L 114.289713 84.703654 
L 115.147073 85.046387 
L 116.273889 85.519889 
L 116.984273 85.849932 
L 120.71583 87.856271 
L 125.794666 91.332896 
L 128.456565 93.483248 
L 131.526729 96.216713 
L 134.915342 99.51804 
L 138.41827 103.186372 
L 143.064344 108.384161 
L 148.624935 115.004299 
L 155.042886 123.073361 
L 161.52616 131.611195 
L 167.944111 140.39589 
L 173.031113 147.574713 
L 173.031113 147.574713 
" clip-path="url(#p6f23e6bcce)" style="fill: none; stroke-dasharray: 3.7,1.6; stroke-dashoffset: 0; stroke: #009afa"/>
   </g>
   <g id="patch_3">
    <path d="M 39.25031 148.065354 
L 39.25031 20.354646 
" style="fill: none; stroke: #000000; stroke-linejoin: miter; stroke-linecap: square"/>
   </g>
   <g id="patch_4">
    <path d="M 213.165354 148.065354 
L 213.165354 20.354646 
" style="fill: none; stroke: #000000; stroke-linejoin: miter; stroke-linecap: square"/>
   </g>
   <g id="patch_5">
    <path d="M 39.25031 148.065354 
L 213.165354 148.065354 
" style="fill: none; stroke: #000000; stroke-linejoin: miter; stroke-linecap: square"/>
   </g>
   <g id="patch_6">
    <path d="M 39.25031 20.354646 
L 213.165354 20.354646 
" style="fill: none; stroke: #000000; stroke-linejoin: miter; stroke-linecap: square"/>
   </g>
   <g id="line2d_26">
    <path d="M 39.258475 74.623624 
L 39.838214 74.293296 
L 41.748901 73.338767 
L 44.05969 72.750658 
L 44.435296 72.701996 
L 44.79457 72.692585 
L 46.835903 73.037525 
L 47.570783 73.335176 
L 47.815743 73.397603 
L 49.146692 73.876624 
L 49.301834 73.928582 
L 49.857076 74.163848 
L 50.102036 74.245111 
L 50.355162 74.32438 
L 50.616452 74.387837 
L 51.147199 74.540599 
L 51.383993 74.643266 
L 53.817262 75.21148 
L 53.956073 75.230076 
L 54.176537 75.276317 
L 54.323513 75.325814 
L 55.001236 75.387244 
L 55.131881 75.418777 
L 55.140046 75.433425 
L 55.58914 75.50884 
L 55.8341 75.540127 
L 56.307689 75.577727 
L 56.528153 75.573299 
L 57.507993 75.694273 
L 57.679465 75.718294 
L 59.345192 75.836335 
L 59.52483 75.855698 
L 59.810616 75.903518 
L 59.998419 75.944869 
L 60.227048 75.941563 
L 60.439347 75.948041 
L 60.618984 75.950713 
L 61.345699 75.952682 
L 61.664147 75.975637 
L 65.142578 76.202626 
L 65.265058 76.203138 
L 66.734818 76.288794 
L 66.979778 76.343626 
L 67.134919 76.362783 
L 67.812642 76.415852 
L 68.00861 76.429456 
L 68.996615 76.402397 
L 69.168087 76.392733 
L 69.315063 76.435363 
L 69.323228 76.428292 
L 70.22958 76.430639 
L 70.539863 76.438171 
L 70.678674 76.45906 
L 71.707505 76.478542 
L 71.927969 76.488956 
L 72.221921 76.515783 
L 72.426055 76.537137 
L 72.597527 76.57658 
L 72.997628 76.540286 
L 73.299745 76.570116 
L 73.814161 76.638888 
L 73.961137 76.64685 
L 74.140774 76.636528 
L 74.565372 76.636131 
L 76.476059 76.765845 
L 76.598539 76.755773 
L 76.965979 76.730089 
L 77.153782 76.74507 
L 77.333419 76.753509 
L 77.602875 76.798212 
L 79.546224 76.765619 
L 79.725862 76.783273 
L 79.987152 76.808577 
L 80.142294 76.798713 
L 80.436246 76.790261 
L 80.599552 76.789602 
L 82.044816 76.888358 
L 82.526571 76.918532 
L 82.975664 76.917356 
L 83.326773 76.912535 
L 83.481915 76.900335 
L 83.767701 76.924816 
L 84.020826 76.895765 
L 84.265786 76.941307 
L 84.821029 76.983669 
L 84.943509 76.980731 
L 85.457925 76.95099 
L 85.629397 76.98867 
L 85.849861 77.02664 
L 86.045829 77.030722 
L 86.192805 77.044209 
L 86.878693 77.053186 
L 87.442101 77.032634 
L 90.577588 77.145209 
L 90.708234 77.150162 
L 90.904202 77.176646 
L 90.912367 77.164468 
L 91.124665 77.17855 
L 91.369625 77.192571 
L 91.671743 77.232528 
L 91.802388 77.240816 
L 91.916703 77.248364 
L 91.924868 77.254619 
L 93.084345 77.273382 
L 93.206825 77.294415 
L 93.44362 77.32452 
L 93.639588 77.303996 
L 93.851886 77.31843 
L 94.496948 77.375672 
L 94.627593 77.356373 
L 96.170841 77.433312 
L 96.301486 77.435399 
L 96.481123 77.441704 
L 97.264995 77.455243 
L 97.420137 77.459146 
L 97.648766 77.489875 
L 97.852899 77.515197 
L 98.065198 77.51392 
L 98.310158 77.521506 
L 98.579614 77.487765 
L 100.024878 77.543314 
L 100.261672 77.537717 
L 102.303005 77.714058 
L 102.564296 77.704533 
L 102.841917 77.728978 
L 103.013389 77.726657 
L 103.691112 77.771592 
L 104.213693 77.836741 
L 104.401496 77.840463 
L 106.050893 78.038951 
L 106.222365 78.060773 
L 106.924583 78.209855 
L 107.063394 78.21748 
L 107.569645 78.256484 
L 108.214706 78.317453 
L 108.500493 78.344997 
L 108.720956 78.397437 
L 110.647975 78.696691 
L 110.843943 78.746224 
L 111.227713 78.830486 
L 111.456343 78.900702 
L 112.174892 79.089313 
L 115.032758 79.842562 
L 115.563505 80.029152 
L 116.06159 80.215713 
L 121.924299 82.852644 
L 122.185589 83.003496 
L 125.043456 84.742784 
L 127.893157 86.744708 
L 131.257273 89.455387 
L 134.948004 92.843564 
L 138.124318 96.081844 
L 141.872205 100.261698 
L 145.43229 104.56863 
L 149.408807 109.740655 
L 153.597623 115.578591 
L 157.876257 121.932786 
L 162.489669 129.213505 
L 167.290885 137.244226 
L 171.994116 145.547887 
L 173.031113 147.43629 
L 173.031113 147.43629 
" clip-path="url(#p6f23e6bcce)" style="fill: none; stroke: #e36f47"/>
   </g>
   <g id="text_15">
    <!-- LLS -->
    <g transform="translate(113.088691 14.354646) scale(0.15 -0.15)">
     <defs>
      <path id="DejaVuSans-4c" d="M 628 4666 
L 1259 4666 
L 1259 531 
L 3531 531 
L 3531 0 
L 628 0 
L 628 4666 
z
" transform="scale(0.015625)"/>
      <path id="DejaVuSans-53" d="M 3425 4513 
L 3425 3897 
Q 3066 4069 2747 4153 
Q 2428 4238 2131 4238 
Q 1616 4238 1336 4038 
Q 1056 3838 1056 3469 
Q 1056 3159 1242 3001 
Q 1428 2844 1947 2747 
L 2328 2669 
Q 3034 2534 3370 2195 
Q 3706 1856 3706 1288 
Q 3706 609 3251 259 
Q 2797 -91 1919 -91 
Q 1588 -91 1214 -16 
Q 841 59 441 206 
L 441 856 
Q 825 641 1194 531 
Q 1563 422 1919 422 
Q 2459 422 2753 634 
Q 3047 847 3047 1241 
Q 3047 1584 2836 1778 
Q 2625 1972 2144 2069 
L 1759 2144 
Q 1053 2284 737 2584 
Q 422 2884 422 3419 
Q 422 4038 858 4394 
Q 1294 4750 2059 4750 
Q 2388 4750 2728 4690 
Q 3069 4631 3425 4513 
z
" transform="scale(0.015625)"/>
     </defs>
     <use xlink:href="#DejaVuSans-4c"/>
     <use xlink:href="#DejaVuSans-4c" x="55.712891"/>
     <use xlink:href="#DejaVuSans-53" x="111.425781"/>
    </g>
   </g>
   <g id="line2d_27">
    <path d="M 39.258475 84.200455 
L 40.417952 83.193547 
L 43.545274 80.670941 
L 47.578949 77.893476 
L 51.17986 75.952443 
L 54.617465 74.761829 
L 57.091561 74.397516 
L 57.981582 74.320869 
L 58.30003 74.323076 
L 58.847107 74.348371 
L 59.500334 74.388241 
L 63.019592 74.713366 
L 63.297213 74.740368 
L 63.525843 74.740029 
L 63.917778 74.779809 
L 64.081085 74.826081 
L 64.481186 74.864511 
L 65.92645 74.952301 
L 66.106087 74.94767 
L 66.473527 74.999885 
L 66.791975 75.034255 
L 67.061431 75.076808 
L 67.665666 75.118801 
L 67.796311 75.124136 
L 68.114759 75.122807 
L 68.294397 75.114669 
L 69.151756 75.167304 
L 69.290567 75.188775 
L 69.73966 75.210157 
L 70.074439 75.236018 
L 70.254076 75.256881 
L 70.572524 75.228772 
L 71.503372 75.300783 
L 72.458716 75.35394 
L 72.671015 75.347327 
L 73.201761 75.3443 
L 73.446721 75.342803 
L 73.683516 75.37617 
L 73.936641 75.395431 
L 74.238758 75.396025 
L 75.161441 75.468803 
L 75.945313 75.475093 
L 76.533217 75.514559 
L 76.802673 75.519694 
L 77.382411 75.532661 
L 77.896827 75.463297 
L 78.492897 75.482243 
L 78.729691 75.461503 
L 79.129792 75.569234 
L 79.562555 75.571578 
L 79.929995 75.596612 
L 80.093302 75.628774 
L 80.338262 75.639962 
L 81.554896 75.641346 
L 81.865179 75.612837 
L 82.02032 75.637751 
L 88.740388 75.769844 
L 88.887364 75.786014 
L 89.181316 75.847516 
L 89.605914 75.798463 
L 89.75289 75.779077 
L 94.007028 75.957654 
L 94.145838 75.951484 
L 94.488782 75.926902 
L 94.717412 75.954631 
L 95.607433 75.977525 
L 95.852393 75.959449 
L 96.146345 75.957689 
L 96.317817 75.940967 
L 96.52195 75.955738 
L 96.750579 75.959514 
L 97.183342 75.973148 
L 97.338483 75.976587 
L 97.722254 76.004602 
L 97.918222 76.021792 
L 98.097859 76.038497 
L 98.432638 76.021564 
L 99.608446 76.072977 
L 100.416814 76.124091 
L 100.629112 76.124448 
L 101.9274 76.256025 
L 102.090707 76.249199 
L 102.254013 76.285054 
L 102.523469 76.323221 
L 102.686776 76.324971 
L 102.988893 76.336031 
L 103.201192 76.34294 
L 103.364499 76.353759 
L 103.527805 76.357886 
L 103.870749 76.371971 
L 104.956738 76.539292 
L 105.193533 76.588088 
L 107.741117 76.867341 
L 107.986077 76.896395 
L 109.757954 77.251061 
L 110.158055 77.344159 
L 111.015415 77.531798 
L 111.203217 77.587777 
L 111.374689 77.645356 
L 113.538503 78.199495 
L 114.10191 78.361726 
L 114.5755 78.496419 
L 116.608667 79.215547 
L 117.04143 79.393465 
L 117.400705 79.546775 
L 118.249899 79.89007 
L 119.025606 80.243193 
L 120.683168 81.047459 
L 123.214421 82.442908 
L 129.068964 86.461248 
L 131.722697 88.654019 
L 134.596894 91.285166 
L 137.756878 94.468183 
L 141.284301 98.368041 
L 145.628258 103.643893 
L 149.261831 108.434942 
L 153.393489 114.280305 
L 157.680289 120.772826 
L 161.8936 127.567391 
L 166.327375 135.144871 
L 170.916292 143.437619 
L 173.031113 147.411863 
L 173.031113 147.411863 
" clip-path="url(#p6f23e6bcce)" style="fill: none; stroke: #3ea44e"/>
   </g>
   <g id="line2d_28">
    <path d="M 39.258475 100.161841 
L 41.855051 96.919373 
L 44.18217 94.17975 
L 47.513626 90.544177 
L 50.926735 87.187 
L 53.833593 84.63146 
L 56.046398 82.880484 
L 59.435011 80.526665 
L 62.080579 78.976988 
L 64.971106 77.576697 
L 66.473527 76.977064 
L 67.722823 76.564557 
L 70.082604 75.952103 
L 70.613351 75.81413 
L 75.871825 75.105967 
L 89.589583 74.499407 
L 89.785551 74.502118 
L 90.234644 74.483574 
L 90.438778 74.463437 
L 90.806218 74.443278 
L 91.206319 74.438168 
L 91.492105 74.460019 
L 92.267812 74.455939 
L 92.602591 74.445051 
L 92.937369 74.450693 
L 93.206825 74.45033 
L 93.745737 74.432711 
L 94.292814 74.435194 
L 94.480617 74.439766 
L 95.983038 74.398898 
L 96.628099 74.462739 
L 96.856729 74.459163 
L 97.362979 74.485756 
L 97.763081 74.477647 
L 98.065198 74.50851 
L 98.473465 74.486694 
L 99.72276 74.569806 
L 99.984051 74.575383 
L 100.94756 74.614236 
L 101.176189 74.620816 
L 102.082541 74.734125 
L 102.303005 74.744262 
L 103.299176 74.807229 
L 103.560467 74.824287 
L 103.88708 74.838647 
L 104.662786 74.923405 
L 104.891416 74.951713 
L 105.86309 75.047026 
L 107.863597 75.3766 
L 109.121058 75.583776 
L 109.700796 75.682924 
L 110.558156 75.852128 
L 111.489004 76.072272 
L 112.509671 76.336066 
L 113.897777 76.711068 
L 114.159068 76.794543 
L 114.779633 76.971593 
L 118.258065 78.223359 
L 119.082763 78.571757 
L 120.389216 79.16581 
L 122.430549 80.197192 
L 125.198597 81.819081 
L 127.550213 83.398589 
L 130.310095 85.488315 
L 133.208788 87.968455 
L 136.156473 90.781757 
L 139.553251 94.374532 
L 141.978355 97.161732 
L 145.06485 100.96612 
L 148.379975 105.36425 
L 152.242177 110.881141 
L 156.161537 116.89645 
L 160.154384 123.447869 
L 164.408522 130.885833 
L 168.581007 138.629667 
L 172.990287 147.288701 
L 173.031113 147.37115 
L 173.031113 147.37115 
" clip-path="url(#p6f23e6bcce)" style="fill: none; stroke: #c371d2"/>
   </g>
   <g id="line2d_29">
    <path d="M 39.258475 116.123226 
L 42.614427 110.724526 
L 45.684592 106.088178 
L 49.767258 100.387326 
L 53.123209 96.125502 
L 55.801438 93.008611 
L 58.022409 90.606653 
L 60.880275 87.787995 
L 63.509512 85.450112 
L 67.502359 82.395859 
L 70.1071 80.718962 
L 73.283415 79.001471 
L 78.256102 77.03996 
L 82.910341 75.894383 
L 83.49008 75.791989 
L 84.951674 75.548614 
L 95.925881 74.22806 
L 96.962878 74.163102 
L 97.436467 74.12428 
L 98.383646 74.099417 
L 99.771752 74.093211 
L 100.45764 74.06659 
L 100.661774 74.062888 
L 100.988387 74.075516 
L 101.911069 74.075362 
L 102.425485 74.081353 
L 108.116722 74.441881 
L 108.876098 74.526116 
L 109.79878 74.648989 
L 111.725799 74.968302 
L 112.060577 75.040937 
L 114.46935 75.578967 
L 116.992438 76.300786 
L 119.793147 77.323077 
L 122.463211 78.528547 
L 126.031461 80.532064 
L 128.276927 82.028272 
L 131.028644 84.118829 
L 134.066148 86.749257 
L 136.842361 89.446365 
L 139.259299 92.017429 
L 142.304968 95.540678 
L 145.628258 99.739444 
L 148.959714 104.308564 
L 152.846412 110.080516 
L 156.569803 116.044097 
L 160.415675 122.644054 
L 164.506506 130.144693 
L 168.703487 138.345117 
L 172.835145 146.911997 
L 173.031113 147.330437 
L 173.031113 147.330437 
" clip-path="url(#p6f23e6bcce)" style="fill: none; stroke: #ac8e18"/>
   </g>
   <g id="line2d_30">
    <path d="M 39.258475 148.045997 
L 43.390133 138.49366 
L 48.46897 127.601911 
L 51.196191 122.150329 
L 54.527646 115.891977 
L 58.455171 109.059413 
L 60.782291 105.299618 
L 65.158909 98.831165 
L 67.714658 95.419057 
L 70.417383 92.121711 
L 73.389564 88.851675 
L 75.782006 86.502297 
L 78.174449 84.404389 
L 80.65671 82.48564 
L 83.416592 80.634831 
L 85.32728 79.519219 
L 87.858533 78.230245 
L 90.25914 77.210868 
L 93.100676 76.214272 
L 95.762574 75.412221 
L 97.395641 74.987303 
L 101.094536 74.143212 
L 105.062888 73.514867 
L 110.345858 73.153624 
L 113.081244 73.236006 
L 115.792134 73.524981 
L 118.176411 73.978343 
L 120.805648 74.710463 
L 123.124603 75.577594 
L 126.26009 77.110327 
L 129.109791 78.868945 
L 132.024815 81.039382 
L 135.152137 83.770109 
L 137.781374 86.383143 
L 140.606579 89.50806 
L 143.072509 92.499531 
L 146.526445 97.088575 
L 149.931388 102.069035 
L 153.222017 107.30089 
L 156.782102 113.417868 
L 160.129888 119.6032 
L 163.747131 126.748579 
L 167.258223 134.137952 
L 171.193914 142.947136 
L 173.031113 147.249012 
L 173.031113 147.249012 
" clip-path="url(#p6f23e6bcce)" style="fill: none; stroke-dasharray: 1,1.65; stroke-dashoffset: 0; stroke: #00aaae"/>
   </g>
   <g id="PathCollection_2">
    <defs>
     <path id="m01ce7c0443" d="M -2 2 
L 2 -2 
M -2 -2 
L 2 2 
" style="stroke: #009afa; stroke-width: 0.7"/>
    </defs>
    <g clip-path="url(#p6f23e6bcce)">
     <use xlink:href="#m01ce7c0443" x="60.618668" y="78.234886" style="fill: #009afa; stroke: #009afa; stroke-width: 0.7"/>
    </g>
   </g>
   <g id="PathCollection_3">
    <defs>
     <path id="m3156d96c5b" d="M -2 2 
L 2 -2 
M -2 -2 
L 2 2 
" style="stroke: #e36f47; stroke-width: 0.7"/>
    </defs>
    <g clip-path="url(#p6f23e6bcce)">
     <use xlink:href="#m3156d96c5b" x="64.174505" y="76.099256" style="fill: #e36f47; stroke: #e36f47; stroke-width: 0.7"/>
    </g>
   </g>
   <g id="PathCollection_4">
    <defs>
     <path id="m6106fedf15" d="M -2 2 
L 2 -2 
M -2 -2 
L 2 2 
" style="stroke: #3ea44e; stroke-width: 0.7"/>
    </defs>
    <g clip-path="url(#p6f23e6bcce)">
     <use xlink:href="#m6106fedf15" x="70.744426" y="75.234252" style="fill: #3ea44e; stroke: #3ea44e; stroke-width: 0.7"/>
    </g>
   </g>
   <g id="PathCollection_5">
    <defs>
     <path id="m0700d19249" d="M -2 2 
L 2 -2 
M -2 -2 
L 2 2 
" style="stroke: #c371d2; stroke-width: 0.7"/>
    </defs>
    <g clip-path="url(#p6f23e6bcce)">
     <use xlink:href="#m0700d19249" x="79.513177" y="74.880699" style="fill: #c371d2; stroke: #c371d2; stroke-width: 0.7"/>
    </g>
   </g>
   <g id="PathCollection_6">
    <defs>
     <path id="m294839b6f0" d="M -2 2 
L 2 -2 
M -2 -2 
L 2 2 
" style="stroke: #ac8e18; stroke-width: 0.7"/>
    </defs>
    <g clip-path="url(#p6f23e6bcce)">
     <use xlink:href="#m294839b6f0" x="84.69322" y="75.581093" style="fill: #ac8e18; stroke: #ac8e18; stroke-width: 0.7"/>
    </g>
   </g>
   <g id="PathCollection_7">
    <defs>
     <path id="m5f31a3e45b" d="M -2 2 
L 2 -2 
M -2 -2 
L 2 2 
" style="stroke: #00aaae; stroke-width: 0.7"/>
    </defs>
    <g clip-path="url(#p6f23e6bcce)">
     <use xlink:href="#m5f31a3e45b" x="91.034822" y="76.919655" style="fill: #00aaae; stroke: #00aaae; stroke-width: 0.7"/>
    </g>
   </g>
   <g id="PathCollection_8">
    <defs>
     <path id="m0a8ae079af" d="M -0 3.535534 
L 3.535534 0 
L 0 -3.535534 
L -3.535534 -0 
z
" style="stroke: #009afa"/>
    </defs>
    <g clip-path="url(#p6f23e6bcce)">
     <use xlink:href="#m0a8ae079af" x="39.282971" y="20.354646" style="fill-opacity: 0; stroke: #009afa"/>
    </g>
   </g>
   <g id="PathCollection_9">
    <defs>
     <path id="m212c4d9065" d="M -0 3.535534 
L 3.535534 0 
L 0 -3.535534 
L -3.535534 -0 
z
" style="stroke: #e36f47"/>
    </defs>
    <g clip-path="url(#p6f23e6bcce)">
     <use xlink:href="#m212c4d9065" x="44.614933" y="72.684384" style="fill-opacity: 0; stroke: #e36f47"/>
    </g>
   </g>
   <g id="PathCollection_10">
    <defs>
     <path id="md589e1ba42" d="M -0 3.535534 
L 3.535534 0 
L 0 -3.535534 
L -3.535534 -0 
z
" style="stroke: #3ea44e"/>
    </defs>
    <g clip-path="url(#p6f23e6bcce)">
     <use xlink:href="#md589e1ba42" x="58.218377" y="74.305756" style="fill-opacity: 0; stroke: #3ea44e"/>
    </g>
   </g>
   <g id="PathCollection_11">
    <defs>
     <path id="m9cabdb1ab5" d="M -0 3.535534 
L 3.535534 0 
L 0 -3.535534 
L -3.535534 -0 
z
" style="stroke: #c371d2"/>
    </defs>
    <g clip-path="url(#p6f23e6bcce)">
     <use xlink:href="#m9cabdb1ab5" x="95.17467" y="74.379712" style="fill-opacity: 0; stroke: #c371d2"/>
    </g>
   </g>
   <g id="PathCollection_12">
    <defs>
     <path id="m2ad3a2f000" d="M -0 3.535534 
L 3.535534 0 
L 0 -3.535534 
L -3.535534 -0 
z
" style="stroke: #ac8e18"/>
    </defs>
    <g clip-path="url(#p6f23e6bcce)">
     <use xlink:href="#m2ad3a2f000" x="100.604616" y="74.059168" style="fill-opacity: 0; stroke: #ac8e18"/>
    </g>
   </g>
   <g id="PathCollection_13">
    <defs>
     <path id="m5e4072a5cb" d="M -0 3.535534 
L 3.535534 0 
L 0 -3.535534 
L -3.535534 -0 
z
" style="stroke: #00aaae"/>
    </defs>
    <g clip-path="url(#p6f23e6bcce)">
     <use xlink:href="#m5e4072a5cb" x="110.607148" y="73.152024" style="fill-opacity: 0; stroke: #00aaae"/>
    </g>
   </g>
   <g id="legend_1">
    <g id="patch_7">
     <path d="M 149.026292 127.226833 
L 208.665354 127.226833 
L 208.665354 24.854646 
L 149.026292 24.854646 
L 149.026292 127.226833 
z
" style="fill: none; opacity: 0"/>
    </g>
    <g id="line2d_31">
     <path d="M 156.226292 35.743239 
L 165.226292 35.743239 
L 174.226292 35.743239 
" style="fill: none"/>
     <defs>
      <path id="m4fc0eb5392" d="M 0 3.6 
C 0.954731 3.6 1.870488 3.220681 2.545584 2.545584 
C 3.220681 1.870488 3.6 0.954731 3.6 0 
C 3.6 -0.954731 3.220681 -1.870488 2.545584 -2.545584 
C 1.870488 -3.220681 0.954731 -3.6 0 -3.6 
C -0.954731 -3.6 -1.870488 -3.220681 -2.545584 -2.545584 
C -3.220681 -1.870488 -3.6 -0.954731 -3.6 0 
C -3.6 0.954731 -3.220681 1.870488 -2.545584 2.545584 
C -1.870488 3.220681 -0.954731 3.6 0 3.6 
z
" style="stroke: #ffffff; stroke-width: inf"/>
     </defs>
     <g>
      <use xlink:href="#m4fc0eb5392" x="165.226292" y="35.743239" style="fill: #ffffff; fill-opacity: 0; stroke: #ffffff; stroke-width: inf"/>
     </g>
    </g>
    <g id="text_16">
     <!-- $t_0$ -->
     <g transform="translate(181.426292 38.893239) scale(0.09 -0.09)">
      <defs>
       <path id="DejaVuSans-Oblique-74" d="M 2706 3500 
L 2619 3053 
L 1472 3053 
L 1100 1153 
Q 1081 1047 1072 975 
Q 1063 903 1063 863 
Q 1063 663 1183 572 
Q 1303 481 1569 481 
L 2150 481 
L 2053 0 
L 1503 0 
Q 991 0 739 200 
Q 488 400 488 806 
Q 488 878 497 964 
Q 506 1050 525 1153 
L 897 3053 
L 409 3053 
L 500 3500 
L 978 3500 
L 1172 4494 
L 1747 4494 
L 1556 3500 
L 2706 3500 
z
" transform="scale(0.015625)"/>
      </defs>
      <use xlink:href="#DejaVuSans-Oblique-74" transform="translate(0 0.78125)"/>
      <use xlink:href="#DejaVuSans-30" transform="translate(39.208984 -15.625) scale(0.7)"/>
     </g>
    </g>
    <g id="line2d_32">
     <path d="M 156.226292 48.953552 
L 165.226292 48.953552 
L 174.226292 48.953552 
" style="fill: none; stroke-dasharray: 4.1625,1.8; stroke-dashoffset: 0; stroke: #009afa; stroke-width: 1.125; stroke-linejoin: miter"/>
    </g>
    <g id="text_17">
     <!-- 0.1 -->
     <g transform="translate(181.426292 52.103552) scale(0.09 -0.09)">
      <use xlink:href="#DejaVuSans-30"/>
      <use xlink:href="#DejaVuSans-2e" x="63.623047"/>
      <use xlink:href="#DejaVuSans-31" x="95.410156"/>
     </g>
    </g>
    <g id="line2d_33">
     <path d="M 156.226292 62.163864 
L 165.226292 62.163864 
L 174.226292 62.163864 
" style="fill: none; stroke: #e36f47; stroke-width: 1.125; stroke-linejoin: miter"/>
    </g>
    <g id="text_18">
     <!-- 0.27 -->
     <g transform="translate(181.426292 65.313864) scale(0.09 -0.09)">
      <defs>
       <path id="DejaVuSans-37" d="M 525 4666 
L 3525 4666 
L 3525 4397 
L 1831 0 
L 1172 0 
L 2766 4134 
L 525 4134 
L 525 4666 
z
" transform="scale(0.015625)"/>
      </defs>
      <use xlink:href="#DejaVuSans-30"/>
      <use xlink:href="#DejaVuSans-2e" x="63.623047"/>
      <use xlink:href="#DejaVuSans-32" x="95.410156"/>
      <use xlink:href="#DejaVuSans-37" x="159.033203"/>
     </g>
    </g>
    <g id="line2d_34">
     <path d="M 156.226292 75.374177 
L 165.226292 75.374177 
L 174.226292 75.374177 
" style="fill: none; stroke: #3ea44e; stroke-width: 1.125; stroke-linejoin: miter"/>
    </g>
    <g id="text_19">
     <!-- 0.3 -->
     <g transform="translate(181.426292 78.524177) scale(0.09 -0.09)">
      <use xlink:href="#DejaVuSans-30"/>
      <use xlink:href="#DejaVuSans-2e" x="63.623047"/>
      <use xlink:href="#DejaVuSans-33" x="95.410156"/>
     </g>
    </g>
    <g id="line2d_35">
     <path d="M 156.226292 88.584489 
L 165.226292 88.584489 
L 174.226292 88.584489 
" style="fill: none; stroke: #c371d2; stroke-width: 1.125; stroke-linejoin: miter"/>
    </g>
    <g id="text_20">
     <!-- 0.35 -->
     <g transform="translate(181.426292 91.734489) scale(0.09 -0.09)">
      <defs>
       <path id="DejaVuSans-35" d="M 691 4666 
L 3169 4666 
L 3169 4134 
L 1269 4134 
L 1269 2991 
Q 1406 3038 1543 3061 
Q 1681 3084 1819 3084 
Q 2600 3084 3056 2656 
Q 3513 2228 3513 1497 
Q 3513 744 3044 326 
Q 2575 -91 1722 -91 
Q 1428 -91 1123 -41 
Q 819 9 494 109 
L 494 744 
Q 775 591 1075 516 
Q 1375 441 1709 441 
Q 2250 441 2565 725 
Q 2881 1009 2881 1497 
Q 2881 1984 2565 2268 
Q 2250 2553 1709 2553 
Q 1456 2553 1204 2497 
Q 953 2441 691 2322 
L 691 4666 
z
" transform="scale(0.015625)"/>
      </defs>
      <use xlink:href="#DejaVuSans-30"/>
      <use xlink:href="#DejaVuSans-2e" x="63.623047"/>
      <use xlink:href="#DejaVuSans-33" x="95.410156"/>
      <use xlink:href="#DejaVuSans-35" x="159.033203"/>
     </g>
    </g>
    <g id="line2d_36">
     <path d="M 156.226292 101.794802 
L 165.226292 101.794802 
L 174.226292 101.794802 
" style="fill: none; stroke: #ac8e18; stroke-width: 1.125; stroke-linejoin: miter"/>
    </g>
    <g id="text_21">
     <!-- 0.4 -->
     <g transform="translate(181.426292 104.944802) scale(0.09 -0.09)">
      <use xlink:href="#DejaVuSans-30"/>
      <use xlink:href="#DejaVuSans-2e" x="63.623047"/>
      <use xlink:href="#DejaVuSans-34" x="95.410156"/>
     </g>
    </g>
    <g id="line2d_37">
     <path d="M 156.226292 115.005114 
L 165.226292 115.005114 
L 174.226292 115.005114 
" style="fill: none; stroke-dasharray: 1.125,1.85625; stroke-dashoffset: 0; stroke: #00aaae; stroke-width: 1.125; stroke-linejoin: miter"/>
    </g>
    <g id="text_22">
     <!-- 0.5 -->
     <g transform="translate(181.426292 118.155114) scale(0.09 -0.09)">
      <use xlink:href="#DejaVuSans-30"/>
      <use xlink:href="#DejaVuSans-2e" x="63.623047"/>
      <use xlink:href="#DejaVuSans-35" x="95.410156"/>
     </g>
    </g>
   </g>
  </g>
 </g>
 <defs>
  <clipPath id="p6f23e6bcce">
   <rect x="39.25031" y="20.354646" width="173.915045" height="127.710709"/>
  </clipPath>
 </defs>
</svg>
