<?xml version="1.0" encoding="utf-8" standalone="no"?>
<!DOCTYPE svg PUBLIC "-//W3C//DTD SVG 1.1//EN"
  "http://www.w3.org/Graphics/SVG/1.1/DTD/svg11.dtd">
<svg xmlns:xlink="http://www.w3.org/1999/xlink" width="216pt" height="180pt" viewBox="0 0 216 180" xmlns="http://www.w3.org/2000/svg" version="1.1">
 <metadata>
  <rdf:RDF xmlns:dc="http://purl.org/dc/elements/1.1/" xmlns:cc="http://creativecommons.org/ns#" xmlns:rdf="http://www.w3.org/1999/02/22-rdf-syntax-ns#">
   <cc:Work>
    <dc:type rdf:resource="http://purl.org/dc/dcmitype/StillImage"/>
    <dc:date>2023-05-18T18:53:06.688212</dc:date>
    <dc:format>image/svg+xml</dc:format>
    <dc:creator>
     <cc:Agent>
      <dc:title>Matplotlib v3.6.3, https://matplotlib.org/</dc:title>
     </cc:Agent>
    </dc:creator>
   </cc:Work>
  </rdf:RDF>
 </metadata>
 <defs>
  <style type="text/css">*{stroke-linejoin: round; stroke-linecap: butt}</style>
 </defs>
 <g id="figure_1">
  <g id="patch_1">
   <path d="M 0 180 
L 216 180 
L 216 0 
L 0 0 
z
" style="fill: #ffffff"/>
  </g>
  <g id="axes_1">
   <g id="patch_2">
    <path d="M 39.25031 164.305354 
L 213.165354 164.305354 
L 213.165354 20.354646 
L 39.25031 20.354646 
z
" style="fill: #ffffff"/>
   </g>
   <g id="PathCollection_1">
    <defs>
     <path id="m7a267f7c56" d="M 0 0 
C 0 0 0 0 0 0 
C 0 0 0 0 0 0 
C 0 0 0 0 0 0 
C 0 0 0 0 0 0 
C 0 0 0 0 0 0 
C 0 0 0 0 0 0 
C 0 0 0 0 0 0 
C 0 0 0 0 0 0 
z
" style="stroke: #ffffff; stroke-width: 0.7"/>
    </defs>
    <g clip-path="url(#paa64d97931)">
     <use xlink:href="#m7a267f7c56" x="39.25031" y="164.305354" style="fill: #ffffff; fill-opacity: 0; stroke: #ffffff; stroke-width: 0.7"/>
    </g>
   </g>
   <g id="matplotlib.axis_1">
    <g id="xtick_1">
     <g id="line2d_1">
      <defs>
       <path id="m7dbff7e952" d="M 0 0 
L 0 -2.5 
" style="stroke: #000000; stroke-width: 0.5"/>
      </defs>
      <g>
       <use xlink:href="#m7dbff7e952" x="39.25031" y="164.305354" style="stroke: #000000; stroke-width: 0.5"/>
      </g>
     </g>
     <g id="line2d_2">
      <defs>
       <path id="mf7ed3e80bd" d="M 0 0 
L 0 2.5 
" style="stroke: #000000; stroke-width: 0.5"/>
      </defs>
      <g>
       <use xlink:href="#mf7ed3e80bd" x="39.25031" y="20.354646" style="stroke: #000000; stroke-width: 0.5"/>
      </g>
     </g>
     <g id="text_1">
      <!-- $0.0$ -->
      <g transform="translate(32.05031 174.643948) scale(0.09 -0.09)">
       <defs>
        <path id="DejaVuSans-30" d="M 2034 4250 
Q 1547 4250 1301 3770 
Q 1056 3291 1056 2328 
Q 1056 1369 1301 889 
Q 1547 409 2034 409 
Q 2525 409 2770 889 
Q 3016 1369 3016 2328 
Q 3016 3291 2770 3770 
Q 2525 4250 2034 4250 
z
M 2034 4750 
Q 2819 4750 3233 4129 
Q 3647 3509 3647 2328 
Q 3647 1150 3233 529 
Q 2819 -91 2034 -91 
Q 1250 -91 836 529 
Q 422 1150 422 2328 
Q 422 3509 836 4129 
Q 1250 4750 2034 4750 
z
" transform="scale(0.015625)"/>
        <path id="DejaVuSans-2e" d="M 684 794 
L 1344 794 
L 1344 0 
L 684 0 
L 684 794 
z
" transform="scale(0.015625)"/>
       </defs>
       <use xlink:href="#DejaVuSans-30" transform="translate(0 0.78125)"/>
       <use xlink:href="#DejaVuSans-2e" transform="translate(63.623047 0.78125)"/>
       <use xlink:href="#DejaVuSans-30" transform="translate(95.410156 0.78125)"/>
      </g>
     </g>
    </g>
    <g id="xtick_2">
     <g id="line2d_3">
      <g>
       <use xlink:href="#m7dbff7e952" x="66.00647" y="164.305354" style="stroke: #000000; stroke-width: 0.5"/>
      </g>
     </g>
     <g id="line2d_4">
      <g>
       <use xlink:href="#mf7ed3e80bd" x="66.00647" y="20.354646" style="stroke: #000000; stroke-width: 0.5"/>
      </g>
     </g>
     <g id="text_2">
      <!-- $0.2$ -->
      <g transform="translate(59.07647 174.643948) scale(0.09 -0.09)">
       <defs>
        <path id="DejaVuSans-32" d="M 1228 531 
L 3431 531 
L 3431 0 
L 469 0 
L 469 531 
Q 828 903 1448 1529 
Q 2069 2156 2228 2338 
Q 2531 2678 2651 2914 
Q 2772 3150 2772 3378 
Q 2772 3750 2511 3984 
Q 2250 4219 1831 4219 
Q 1534 4219 1204 4116 
Q 875 4013 500 3803 
L 500 4441 
Q 881 4594 1212 4672 
Q 1544 4750 1819 4750 
Q 2544 4750 2975 4387 
Q 3406 4025 3406 3419 
Q 3406 3131 3298 2873 
Q 3191 2616 2906 2266 
Q 2828 2175 2409 1742 
Q 1991 1309 1228 531 
z
" transform="scale(0.015625)"/>
       </defs>
       <use xlink:href="#DejaVuSans-30" transform="translate(0 0.78125)"/>
       <use xlink:href="#DejaVuSans-2e" transform="translate(63.623047 0.78125)"/>
       <use xlink:href="#DejaVuSans-32" transform="translate(89.910156 0.78125)"/>
      </g>
     </g>
    </g>
    <g id="xtick_3">
     <g id="line2d_5">
      <g>
       <use xlink:href="#m7dbff7e952" x="92.762631" y="164.305354" style="stroke: #000000; stroke-width: 0.5"/>
      </g>
     </g>
     <g id="line2d_6">
      <g>
       <use xlink:href="#mf7ed3e80bd" x="92.762631" y="20.354646" style="stroke: #000000; stroke-width: 0.5"/>
      </g>
     </g>
     <g id="text_3">
      <!-- $0.4$ -->
      <g transform="translate(85.562631 174.643948) scale(0.09 -0.09)">
       <defs>
        <path id="DejaVuSans-34" d="M 2419 4116 
L 825 1625 
L 2419 1625 
L 2419 4116 
z
M 2253 4666 
L 3047 4666 
L 3047 1625 
L 3713 1625 
L 3713 1100 
L 3047 1100 
L 3047 0 
L 2419 0 
L 2419 1100 
L 313 1100 
L 313 1709 
L 2253 4666 
z
" transform="scale(0.015625)"/>
       </defs>
       <use xlink:href="#DejaVuSans-30" transform="translate(0 0.78125)"/>
       <use xlink:href="#DejaVuSans-2e" transform="translate(63.623047 0.78125)"/>
       <use xlink:href="#DejaVuSans-34" transform="translate(95.410156 0.78125)"/>
      </g>
     </g>
    </g>
    <g id="xtick_4">
     <g id="line2d_7">
      <g>
       <use xlink:href="#m7dbff7e952" x="119.518792" y="164.305354" style="stroke: #000000; stroke-width: 0.5"/>
      </g>
     </g>
     <g id="line2d_8">
      <g>
       <use xlink:href="#mf7ed3e80bd" x="119.518792" y="20.354646" style="stroke: #000000; stroke-width: 0.5"/>
      </g>
     </g>
     <g id="text_4">
      <!-- $0.6$ -->
      <g transform="translate(112.318792 174.643948) scale(0.09 -0.09)">
       <defs>
        <path id="DejaVuSans-36" d="M 2113 2584 
Q 1688 2584 1439 2293 
Q 1191 2003 1191 1497 
Q 1191 994 1439 701 
Q 1688 409 2113 409 
Q 2538 409 2786 701 
Q 3034 994 3034 1497 
Q 3034 2003 2786 2293 
Q 2538 2584 2113 2584 
z
M 3366 4563 
L 3366 3988 
Q 3128 4100 2886 4159 
Q 2644 4219 2406 4219 
Q 1781 4219 1451 3797 
Q 1122 3375 1075 2522 
Q 1259 2794 1537 2939 
Q 1816 3084 2150 3084 
Q 2853 3084 3261 2657 
Q 3669 2231 3669 1497 
Q 3669 778 3244 343 
Q 2819 -91 2113 -91 
Q 1303 -91 875 529 
Q 447 1150 447 2328 
Q 447 3434 972 4092 
Q 1497 4750 2381 4750 
Q 2619 4750 2861 4703 
Q 3103 4656 3366 4563 
z
" transform="scale(0.015625)"/>
       </defs>
       <use xlink:href="#DejaVuSans-30" transform="translate(0 0.78125)"/>
       <use xlink:href="#DejaVuSans-2e" transform="translate(63.623047 0.78125)"/>
       <use xlink:href="#DejaVuSans-36" transform="translate(95.410156 0.78125)"/>
      </g>
     </g>
    </g>
    <g id="xtick_5">
     <g id="line2d_9">
      <g>
       <use xlink:href="#m7dbff7e952" x="146.274953" y="164.305354" style="stroke: #000000; stroke-width: 0.5"/>
      </g>
     </g>
     <g id="line2d_10">
      <g>
       <use xlink:href="#mf7ed3e80bd" x="146.274953" y="20.354646" style="stroke: #000000; stroke-width: 0.5"/>
      </g>
     </g>
     <g id="text_5">
      <!-- $0.8$ -->
      <g transform="translate(139.209953 174.643948) scale(0.09 -0.09)">
       <defs>
        <path id="DejaVuSans-38" d="M 2034 2216 
Q 1584 2216 1326 1975 
Q 1069 1734 1069 1313 
Q 1069 891 1326 650 
Q 1584 409 2034 409 
Q 2484 409 2743 651 
Q 3003 894 3003 1313 
Q 3003 1734 2745 1975 
Q 2488 2216 2034 2216 
z
M 1403 2484 
Q 997 2584 770 2862 
Q 544 3141 544 3541 
Q 544 4100 942 4425 
Q 1341 4750 2034 4750 
Q 2731 4750 3128 4425 
Q 3525 4100 3525 3541 
Q 3525 3141 3298 2862 
Q 3072 2584 2669 2484 
Q 3125 2378 3379 2068 
Q 3634 1759 3634 1313 
Q 3634 634 3220 271 
Q 2806 -91 2034 -91 
Q 1263 -91 848 271 
Q 434 634 434 1313 
Q 434 1759 690 2068 
Q 947 2378 1403 2484 
z
M 1172 3481 
Q 1172 3119 1398 2916 
Q 1625 2713 2034 2713 
Q 2441 2713 2670 2916 
Q 2900 3119 2900 3481 
Q 2900 3844 2670 4047 
Q 2441 4250 2034 4250 
Q 1625 4250 1398 4047 
Q 1172 3844 1172 3481 
z
" transform="scale(0.015625)"/>
       </defs>
       <use xlink:href="#DejaVuSans-30" transform="translate(0 0.78125)"/>
       <use xlink:href="#DejaVuSans-2e" transform="translate(63.623047 0.78125)"/>
       <use xlink:href="#DejaVuSans-38" transform="translate(92.785156 0.78125)"/>
      </g>
     </g>
    </g>
    <g id="xtick_6">
     <g id="line2d_11">
      <g>
       <use xlink:href="#m7dbff7e952" x="173.031113" y="164.305354" style="stroke: #000000; stroke-width: 0.5"/>
      </g>
     </g>
     <g id="line2d_12">
      <g>
       <use xlink:href="#mf7ed3e80bd" x="173.031113" y="20.354646" style="stroke: #000000; stroke-width: 0.5"/>
      </g>
     </g>
     <g id="text_6">
      <!-- $1.0$ -->
      <g transform="translate(165.831113 174.643948) scale(0.09 -0.09)">
       <defs>
        <path id="DejaVuSans-31" d="M 794 531 
L 1825 531 
L 1825 4091 
L 703 3866 
L 703 4441 
L 1819 4666 
L 2450 4666 
L 2450 531 
L 3481 531 
L 3481 0 
L 794 0 
L 794 531 
z
" transform="scale(0.015625)"/>
       </defs>
       <use xlink:href="#DejaVuSans-31" transform="translate(0 0.78125)"/>
       <use xlink:href="#DejaVuSans-2e" transform="translate(63.623047 0.78125)"/>
       <use xlink:href="#DejaVuSans-30" transform="translate(95.410156 0.78125)"/>
      </g>
     </g>
    </g>
    <g id="xtick_7">
     <g id="line2d_13">
      <g>
       <use xlink:href="#m7dbff7e952" x="199.787274" y="164.305354" style="stroke: #000000; stroke-width: 0.5"/>
      </g>
     </g>
     <g id="line2d_14">
      <g>
       <use xlink:href="#mf7ed3e80bd" x="199.787274" y="20.354646" style="stroke: #000000; stroke-width: 0.5"/>
      </g>
     </g>
     <g id="text_7">
      <!-- $1.2$ -->
      <g transform="translate(192.857274 174.643948) scale(0.09 -0.09)">
       <use xlink:href="#DejaVuSans-31" transform="translate(0 0.78125)"/>
       <use xlink:href="#DejaVuSans-2e" transform="translate(63.623047 0.78125)"/>
       <use xlink:href="#DejaVuSans-32" transform="translate(89.910156 0.78125)"/>
      </g>
     </g>
    </g>
   </g>
   <g id="matplotlib.axis_2">
    <g id="ytick_1">
     <g id="line2d_15">
      <defs>
       <path id="m9b86e287fb" d="M 0 0 
L 2.5 0 
" style="stroke: #000000; stroke-width: 0.5"/>
      </defs>
      <g>
       <use xlink:href="#m9b86e287fb" x="39.25031" y="164.305354" style="stroke: #000000; stroke-width: 0.5"/>
      </g>
     </g>
     <g id="line2d_16">
      <defs>
       <path id="m26fc73f3dc" d="M 0 0 
L -2.5 0 
" style="stroke: #000000; stroke-width: 0.5"/>
      </defs>
      <g>
       <use xlink:href="#m26fc73f3dc" x="213.165354" y="164.305354" style="stroke: #000000; stroke-width: 0.5"/>
      </g>
     </g>
     <g id="text_8">
      <!-- $0.0$ -->
      <g transform="translate(21.35031 167.724651) scale(0.09 -0.09)">
       <use xlink:href="#DejaVuSans-30" transform="translate(0 0.78125)"/>
       <use xlink:href="#DejaVuSans-2e" transform="translate(63.623047 0.78125)"/>
       <use xlink:href="#DejaVuSans-30" transform="translate(95.410156 0.78125)"/>
      </g>
     </g>
    </g>
    <g id="ytick_2">
     <g id="line2d_17">
      <g>
       <use xlink:href="#m9b86e287fb" x="39.25031" y="128.318843" style="stroke: #000000; stroke-width: 0.5"/>
      </g>
     </g>
     <g id="line2d_18">
      <g>
       <use xlink:href="#m26fc73f3dc" x="213.165354" y="128.318843" style="stroke: #000000; stroke-width: 0.5"/>
      </g>
     </g>
     <g id="text_9">
      <!-- $0.1$ -->
      <g transform="translate(21.35031 131.73814) scale(0.09 -0.09)">
       <use xlink:href="#DejaVuSans-30" transform="translate(0 0.78125)"/>
       <use xlink:href="#DejaVuSans-2e" transform="translate(63.623047 0.78125)"/>
       <use xlink:href="#DejaVuSans-31" transform="translate(95.410156 0.78125)"/>
      </g>
     </g>
    </g>
    <g id="ytick_3">
     <g id="line2d_19">
      <g>
       <use xlink:href="#m9b86e287fb" x="39.25031" y="92.332332" style="stroke: #000000; stroke-width: 0.5"/>
      </g>
     </g>
     <g id="line2d_20">
      <g>
       <use xlink:href="#m26fc73f3dc" x="213.165354" y="92.332332" style="stroke: #000000; stroke-width: 0.5"/>
      </g>
     </g>
     <g id="text_10">
      <!-- $0.2$ -->
      <g transform="translate(21.89031 95.751629) scale(0.09 -0.09)">
       <use xlink:href="#DejaVuSans-30" transform="translate(0 0.78125)"/>
       <use xlink:href="#DejaVuSans-2e" transform="translate(63.623047 0.78125)"/>
       <use xlink:href="#DejaVuSans-32" transform="translate(89.910156 0.78125)"/>
      </g>
     </g>
    </g>
    <g id="ytick_4">
     <g id="line2d_21">
      <g>
       <use xlink:href="#m9b86e287fb" x="39.25031" y="56.345821" style="stroke: #000000; stroke-width: 0.5"/>
      </g>
     </g>
     <g id="line2d_22">
      <g>
       <use xlink:href="#m26fc73f3dc" x="213.165354" y="56.345821" style="stroke: #000000; stroke-width: 0.5"/>
      </g>
     </g>
     <g id="text_11">
      <!-- $0.3$ -->
      <g transform="translate(21.35031 59.765118) scale(0.09 -0.09)">
       <defs>
        <path id="DejaVuSans-33" d="M 2597 2516 
Q 3050 2419 3304 2112 
Q 3559 1806 3559 1356 
Q 3559 666 3084 287 
Q 2609 -91 1734 -91 
Q 1441 -91 1130 -33 
Q 819 25 488 141 
L 488 750 
Q 750 597 1062 519 
Q 1375 441 1716 441 
Q 2309 441 2620 675 
Q 2931 909 2931 1356 
Q 2931 1769 2642 2001 
Q 2353 2234 1838 2234 
L 1294 2234 
L 1294 2753 
L 1863 2753 
Q 2328 2753 2575 2939 
Q 2822 3125 2822 3475 
Q 2822 3834 2567 4026 
Q 2313 4219 1838 4219 
Q 1578 4219 1281 4162 
Q 984 4106 628 3988 
L 628 4550 
Q 988 4650 1302 4700 
Q 1616 4750 1894 4750 
Q 2613 4750 3031 4423 
Q 3450 4097 3450 3541 
Q 3450 3153 3228 2886 
Q 3006 2619 2597 2516 
z
" transform="scale(0.015625)"/>
       </defs>
       <use xlink:href="#DejaVuSans-30" transform="translate(0 0.78125)"/>
       <use xlink:href="#DejaVuSans-2e" transform="translate(63.623047 0.78125)"/>
       <use xlink:href="#DejaVuSans-33" transform="translate(95.410156 0.78125)"/>
      </g>
     </g>
    </g>
    <g id="ytick_5">
     <g id="line2d_23">
      <g>
       <use xlink:href="#m9b86e287fb" x="39.25031" y="20.35931" style="stroke: #000000; stroke-width: 0.5"/>
      </g>
     </g>
     <g id="line2d_24">
      <g>
       <use xlink:href="#m26fc73f3dc" x="213.165354" y="20.35931" style="stroke: #000000; stroke-width: 0.5"/>
      </g>
     </g>
     <g id="text_12">
      <!-- $0.4$ -->
      <g transform="translate(21.35031 23.778607) scale(0.09 -0.09)">
       <use xlink:href="#DejaVuSans-30" transform="translate(0 0.78125)"/>
       <use xlink:href="#DejaVuSans-2e" transform="translate(63.623047 0.78125)"/>
       <use xlink:href="#DejaVuSans-34" transform="translate(95.410156 0.78125)"/>
      </g>
     </g>
    </g>
    <g id="text_13">
     <!-- $\langle σ \rangle$ -->
     <g transform="translate(14.854685 100.85) rotate(-90) scale(0.12 -0.12)">
      <defs>
       <path id="DejaVuSans-27e8" d="M 572 2006 
L 1453 4856 
L 1984 4856 
L 1103 2006 
L 1984 -844 
L 1453 -844 
L 572 2006 
z
" transform="scale(0.015625)"/>
       <path id="DejaVuSans-Oblique-3c3" d="M 2219 3044 
Q 1744 3044 1422 2700 
Q 1081 2341 969 1747 
Q 844 1119 1044 756 
Q 1241 397 1706 397 
Q 2166 397 2503 759 
Q 2844 1122 2966 1747 
Q 3075 2319 2881 2700 
Q 2700 3044 2219 3044 
z
M 2309 3503 
L 4219 3500 
L 4106 2925 
L 3463 2925 
Q 3706 2438 3575 1747 
Q 3406 888 2884 400 
Q 2359 -91 1609 -91 
Q 856 -91 525 400 
Q 194 888 363 1747 
Q 528 2609 1050 3097 
Q 1484 3503 2309 3503 
z
" transform="scale(0.015625)"/>
       <path id="DejaVuSans-27e9" d="M 1925 2006 
L 1044 -844 
L 513 -844 
L 1394 2006 
L 513 4856 
L 1044 4856 
L 1925 2006 
z
" transform="scale(0.015625)"/>
      </defs>
      <use xlink:href="#DejaVuSans-27e8" transform="translate(0 0.125)"/>
      <use xlink:href="#DejaVuSans-Oblique-3c3" transform="translate(39.013672 0.125)"/>
      <use xlink:href="#DejaVuSans-27e9" transform="translate(102.392578 0.125)"/>
     </g>
    </g>
   </g>
   <g id="line2d_25">
    <path d="M 39.258475 20.354946 
L 39.928032 20.354646 
L 40.058678 65.10925 
L 40.279142 71.680542 
L 40.589424 74.967123 
L 41.193659 77.799959 
L 41.618256 78.833707 
L 42.859387 80.720842 
L 43.708581 81.450456 
L 45.684592 82.571241 
L 46.313322 82.823306 
L 47.538122 83.246084 
L 50.68994 84.017361 
L 51.490143 84.129248 
L 52.510809 84.297274 
L 63.583 85.477646 
L 64.603666 85.558481 
L 65.746813 85.670305 
L 66.318386 85.710337 
L 67.461533 85.809393 
L 67.943287 85.854096 
L 74.802166 86.335261 
L 77.798843 86.562219 
L 78.20711 86.597681 
L 78.754187 86.626549 
L 80.036144 86.714291 
L 80.860843 86.788007 
L 81.40792 86.813779 
L 82.926672 86.956652 
L 85.025162 87.121458 
L 85.441594 87.157303 
L 85.988672 87.204178 
L 91.198153 87.698527 
L 91.835049 87.77842 
L 92.986361 87.905692 
L 93.557935 87.979085 
L 99.714595 88.82016 
L 100.539294 88.958027 
L 101.127198 89.036772 
L 104.00956 89.547424 
L 104.907746 89.746211 
L 108.916924 90.750698 
L 110.092732 91.102245 
L 114.150902 92.615665 
L 115.490017 93.217213 
L 118.723488 94.945716 
L 121.450709 96.701844 
L 124.210592 98.758909 
L 127.476725 101.554661 
L 131.012314 104.979975 
L 134.384596 108.604213 
L 138.222302 113.07593 
L 143.464445 119.663562 
L 148.110519 125.873532 
L 153.760929 133.800752 
L 160.015574 142.978586 
L 166.678485 153.158763 
L 173.031113 163.213371 
L 173.031113 163.213371 
" clip-path="url(#paa64d97931)" style="fill: none; stroke-dasharray: 3.7,1.6; stroke-dashoffset: 0; stroke: #009afa"/>
   </g>
   <g id="patch_3">
    <path d="M 39.25031 164.305354 
L 39.25031 20.354646 
" style="fill: none; stroke: #000000; stroke-linejoin: miter; stroke-linecap: square"/>
   </g>
   <g id="patch_4">
    <path d="M 213.165354 164.305354 
L 213.165354 20.354646 
" style="fill: none; stroke: #000000; stroke-linejoin: miter; stroke-linecap: square"/>
   </g>
   <g id="patch_5">
    <path d="M 39.25031 164.305354 
L 213.165354 164.305354 
" style="fill: none; stroke: #000000; stroke-linejoin: miter; stroke-linecap: square"/>
   </g>
   <g id="patch_6">
    <path d="M 39.25031 20.354646 
L 213.165354 20.354646 
" style="fill: none; stroke: #000000; stroke-linejoin: miter; stroke-linecap: square"/>
   </g>
   <g id="line2d_26">
    <path d="M 39.258475 81.524597 
L 39.87904 81.104526 
L 41.487611 80.166262 
L 42.647088 79.62081 
L 44.77824 79.068371 
L 46.133685 79.056199 
L 46.966549 79.227564 
L 47.284997 79.322238 
L 47.636106 79.460522 
L 48.942559 79.890264 
L 49.603951 80.132636 
L 50.461311 80.41761 
L 50.755263 80.507296 
L 51.759599 80.827882 
L 51.988228 80.896973 
L 52.584297 81.069798 
L 53.180367 81.214703 
L 53.564137 81.290886 
L 54.021396 81.404554 
L 54.250025 81.423889 
L 54.462324 81.460297 
L 55.001236 81.561585 
L 55.287022 81.59171 
L 64.081085 82.334308 
L 64.415864 82.347508 
L 64.897618 82.38107 
L 65.126248 82.403231 
L 65.289554 82.423187 
L 81.309936 83.168748 
L 81.579392 83.179102 
L 82.159131 83.225068 
L 82.518405 83.272068 
L 82.967499 83.287529 
L 83.432923 83.25258 
L 84.061653 83.293488 
L 84.249456 83.301657 
L 85.310949 83.338258 
L 86.56841 83.420009 
L 87.278794 83.454954 
L 94.921545 83.84981 
L 95.117513 83.867167 
L 96.717918 83.993022 
L 96.938382 84.013497 
L 97.199673 84.010399 
L 97.697758 84.025128 
L 97.975379 84.073687 
L 98.212174 84.089434 
L 98.685763 84.064302 
L 100.669939 84.20642 
L 100.988387 84.278922 
L 101.494637 84.340676 
L 102.090707 84.38374 
L 102.286675 84.39614 
L 102.556131 84.419424 
L 103.976898 84.551956 
L 106.59797 84.958041 
L 108.026903 85.221572 
L 108.92509 85.396773 
L 109.251703 85.478552 
L 109.888599 85.60859 
L 110.623479 85.771206 
L 111.137895 85.911818 
L 111.464508 86.025287 
L 114.885782 87.120305 
L 118.796976 88.834921 
L 119.580848 89.24254 
L 122.161093 90.731001 
L 124.52904 92.310137 
L 127.248095 94.3741 
L 129.395578 96.19932 
L 132.939332 99.58172 
L 136.352441 103.252546 
L 139.406275 106.862975 
L 142.549928 110.87434 
L 146.232493 115.937947 
L 150.160018 121.741878 
L 154.291676 128.27193 
L 158.578475 135.485129 
L 162.832613 143.071247 
L 167.470522 151.807669 
L 172.239076 161.28449 
L 173.031113 162.90659 
L 173.031113 162.90659 
" clip-path="url(#paa64d97931)" style="fill: none; stroke: #e36f47"/>
   </g>
   <g id="text_14">
    <!-- LLS -->
    <g transform="translate(113.088691 14.354646) scale(0.15 -0.15)">
     <defs>
      <path id="DejaVuSans-4c" d="M 628 4666 
L 1259 4666 
L 1259 531 
L 3531 531 
L 3531 0 
L 628 0 
L 628 4666 
z
" transform="scale(0.015625)"/>
      <path id="DejaVuSans-53" d="M 3425 4513 
L 3425 3897 
Q 3066 4069 2747 4153 
Q 2428 4238 2131 4238 
Q 1616 4238 1336 4038 
Q 1056 3838 1056 3469 
Q 1056 3159 1242 3001 
Q 1428 2844 1947 2747 
L 2328 2669 
Q 3034 2534 3370 2195 
Q 3706 1856 3706 1288 
Q 3706 609 3251 259 
Q 2797 -91 1919 -91 
Q 1588 -91 1214 -16 
Q 841 59 441 206 
L 441 856 
Q 825 641 1194 531 
Q 1563 422 1919 422 
Q 2459 422 2753 634 
Q 3047 847 3047 1241 
Q 3047 1584 2836 1778 
Q 2625 1972 2144 2069 
L 1759 2144 
Q 1053 2284 737 2584 
Q 422 2884 422 3419 
Q 422 4038 858 4394 
Q 1294 4750 2059 4750 
Q 2388 4750 2728 4690 
Q 3069 4631 3425 4513 
z
" transform="scale(0.015625)"/>
     </defs>
     <use xlink:href="#DejaVuSans-4c"/>
     <use xlink:href="#DejaVuSans-4c" x="55.712891"/>
     <use xlink:href="#DejaVuSans-53" x="111.425781"/>
    </g>
   </g>
   <g id="line2d_27">
    <path d="M 39.258475 92.319241 
L 40.35263 91.248798 
L 42.810395 88.978371 
L 46.182677 86.233184 
L 48.509797 84.609089 
L 51.718772 82.767666 
L 53.809097 81.853118 
L 56.201539 81.15853 
L 57.483497 80.946943 
L 58.920595 80.842368 
L 59.230878 80.837906 
L 59.89227 80.855382 
L 61.606989 80.928623 
L 61.892776 80.964979 
L 62.946104 81.02207 
L 63.297213 81.051054 
L 68.400546 81.421945 
L 68.670002 81.412912 
L 71.674844 81.577663 
L 72.181095 81.609064 
L 73.92031 81.654545 
L 74.304081 81.674571 
L 74.65519 81.687637 
L 74.916481 81.695237 
L 75.430897 81.722551 
L 75.798337 81.732364 
L 79.162454 81.796359 
L 79.587051 81.856004 
L 81.130299 81.921765 
L 81.489573 81.93313 
L 83.00016 81.927067 
L 83.522741 81.952042 
L 84.314778 81.933761 
L 87.997343 82.074853 
L 88.332122 82.080618 
L 88.822042 82.116321 
L 89.01801 82.122907 
L 89.295631 82.122361 
L 89.916196 82.132875 
L 90.553092 82.155058 
L 90.773556 82.173386 
L 91.108335 82.182897 
L 91.524767 82.223074 
L 91.696239 82.239128 
L 92.259647 82.266621 
L 92.520937 82.287502 
L 92.83122 82.279303 
L 93.182329 82.287801 
L 94.251988 82.363545 
L 94.603097 82.383467 
L 99.396147 82.622673 
L 99.632942 82.640999 
L 100.155523 82.679215 
L 100.490302 82.720787 
L 103.135869 83.005001 
L 103.813592 83.072337 
L 111.407351 84.672386 
L 111.929932 84.823485 
L 112.917937 85.143905 
L 115.955441 86.250115 
L 117.792641 87.062631 
L 119.817643 88.086613 
L 123.010288 89.979615 
L 125.64769 91.814897 
L 128.09729 93.745779 
L 130.946991 96.273701 
L 133.853849 99.157689 
L 137.291454 102.952571 
L 140.590248 106.964904 
L 144.493277 112.159669 
L 148.976044 118.687099 
L 153.115868 125.218127 
L 157.157707 132.039724 
L 161.232208 139.349718 
L 165.559834 147.573082 
L 169.952783 156.392693 
L 173.031113 162.852452 
L 173.031113 162.852452 
" clip-path="url(#paa64d97931)" style="fill: none; stroke: #3ea44e"/>
   </g>
   <g id="line2d_28">
    <path d="M 39.258475 110.310315 
L 41.773397 106.767685 
L 46.109189 101.146595 
L 51.155364 95.44883 
L 54.086718 92.571332 
L 56.528153 90.430525 
L 59.369688 88.243857 
L 62.497011 86.225452 
L 65.322216 84.733349 
L 68.37605 83.481154 
L 71.601356 82.532597 
L 73.348737 82.17937 
L 75.798337 81.820145 
L 76.418902 81.760914 
L 80.67304 81.419182 
L 81.40792 81.368076 
L 89.532426 81.017594 
L 90.275471 80.981698 
L 90.945028 80.963438 
L 91.965695 80.965727 
L 92.553599 80.98043 
L 92.757732 80.979982 
L 94.619428 80.963032 
L 95.452292 80.962267 
L 104.834258 81.705449 
L 107.357346 82.110225 
L 108.084061 82.248708 
L 109.627308 82.569236 
L 112.011585 83.170524 
L 112.623985 83.348904 
L 114.387697 83.903374 
L 117.474193 85.085767 
L 121.026112 86.8055 
L 123.990128 88.5823 
L 127.011301 90.728633 
L 130.097796 93.280733 
L 132.490239 95.514375 
L 135.617561 98.764589 
L 138.581577 102.179493 
L 141.717064 106.136992 
L 145.391464 111.205037 
L 149.10669 116.783635 
L 152.707601 122.611023 
L 156.447323 129.085422 
L 160.42384 136.432734 
L 164.677978 144.808561 
L 168.90762 153.652225 
L 173.031113 162.762223 
L 173.031113 162.762223 
" clip-path="url(#paa64d97931)" style="fill: none; stroke: #c371d2"/>
   </g>
   <g id="line2d_29">
    <path d="M 39.258475 128.301389 
L 42.557269 122.317068 
L 45.954048 116.544519 
L 50.053044 110.140183 
L 55.287022 102.898898 
L 58.618478 98.8534 
L 61.900941 95.301536 
L 65.281389 92.120819 
L 67.322722 90.436168 
L 68.980284 89.198979 
L 71.103271 87.778301 
L 73.789665 86.244918 
L 75.98614 85.190119 
L 78.656203 84.122362 
L 81.269109 83.280381 
L 84.71488 82.457781 
L 89.352788 81.659728 
L 96.072857 80.933089 
L 101.690605 80.804693 
L 104.017725 80.889197 
L 106.96541 81.115274 
L 107.928919 81.220997 
L 111.301201 81.75168 
L 113.791628 82.318464 
L 116.788305 83.220571 
L 119.00111 84.074182 
L 121.320064 85.141294 
L 123.606357 86.392014 
L 125.900816 87.859834 
L 128.595375 89.857974 
L 131.273604 92.14458 
L 134.25395 95.040648 
L 136.907683 97.923173 
L 140.198312 101.888386 
L 143.676744 106.535412 
L 146.730578 110.984378 
L 149.710924 115.656142 
L 153.475143 122.003958 
L 156.920913 128.242748 
L 160.42384 135.000363 
L 164.416688 143.202751 
L 168.303386 151.689398 
L 172.410548 161.189315 
L 173.031113 162.671993 
L 173.031113 162.671993 
" clip-path="url(#paa64d97931)" style="fill: none; stroke: #ac8e18"/>
   </g>
   <g id="line2d_30">
    <path d="M 39.258475 164.283536 
L 43.357472 153.598769 
L 49.848911 138.087895 
L 52.274015 132.75833 
L 55.164542 126.742716 
L 57.891763 121.401422 
L 60.423016 116.740853 
L 65.477357 108.314876 
L 67.992279 104.567699 
L 70.686839 100.89282 
L 73.928476 96.94204 
L 78.256102 92.477845 
L 80.240278 90.739074 
L 83.00016 88.62257 
L 86.552079 86.37009 
L 89.254804 84.968526 
L 94.774569 82.702167 
L 97.681427 81.788115 
L 104.62196 80.28294 
L 107.667629 79.952222 
L 110.16622 79.837697 
L 113.10574 79.924985 
L 115.69415 80.214193 
L 118.225403 80.723242 
L 120.519862 81.400738 
L 122.944965 82.361124 
L 124.66785 83.20931 
L 127.101119 84.650914 
L 129.019972 85.988578 
L 131.183786 87.718347 
L 133.412921 89.739471 
L 135.82986 92.200386 
L 138.246798 94.933604 
L 141.259805 98.722575 
L 143.815554 102.258533 
L 146.648925 106.51313 
L 149.629271 111.371388 
L 153.271009 117.826493 
L 156.455489 123.93146 
L 159.737952 130.670509 
L 163.396021 138.709468 
L 167.086751 147.375213 
L 170.8673 156.824024 
L 173.031113 162.491533 
L 173.031113 162.491533 
" clip-path="url(#paa64d97931)" style="fill: none; stroke-dasharray: 1,1.65; stroke-dashoffset: 0; stroke: #00aaae"/>
   </g>
   <g id="PathCollection_2">
    <defs>
     <path id="m696f9399f7" d="M -2 2 
L 2 -2 
M -2 -2 
L 2 2 
" style="stroke: #009afa; stroke-width: 0.7"/>
    </defs>
    <g clip-path="url(#paa64d97931)">
     <use xlink:href="#m696f9399f7" x="60.618668" y="85.245748" style="fill: #009afa; stroke: #009afa; stroke-width: 0.7"/>
    </g>
   </g>
   <g id="PathCollection_3">
    <defs>
     <path id="m2c5e602546" d="M -2 2 
L 2 -2 
M -2 -2 
L 2 2 
" style="stroke: #e36f47; stroke-width: 0.7"/>
    </defs>
    <g clip-path="url(#paa64d97931)">
     <use xlink:href="#m2c5e602546" x="64.174505" y="82.324329" style="fill: #e36f47; stroke: #e36f47; stroke-width: 0.7"/>
    </g>
   </g>
   <g id="PathCollection_4">
    <defs>
     <path id="m1457020a2b" d="M -2 2 
L 2 -2 
M -2 -2 
L 2 2 
" style="stroke: #3ea44e; stroke-width: 0.7"/>
    </defs>
    <g clip-path="url(#paa64d97931)">
     <use xlink:href="#m1457020a2b" x="70.744426" y="81.522676" style="fill: #3ea44e; stroke: #3ea44e; stroke-width: 0.7"/>
    </g>
   </g>
   <g id="PathCollection_5">
    <defs>
     <path id="m1c8a9a338d" d="M -2 2 
L 2 -2 
M -2 -2 
L 2 2 
" style="stroke: #c371d2; stroke-width: 0.7"/>
    </defs>
    <g clip-path="url(#paa64d97931)">
     <use xlink:href="#m1c8a9a338d" x="79.513177" y="81.495088" style="fill: #c371d2; stroke: #c371d2; stroke-width: 0.7"/>
    </g>
   </g>
   <g id="PathCollection_6">
    <defs>
     <path id="m588cd73438" d="M -2 2 
L 2 -2 
M -2 -2 
L 2 2 
" style="stroke: #ac8e18; stroke-width: 0.7"/>
    </defs>
    <g clip-path="url(#paa64d97931)">
     <use xlink:href="#m588cd73438" x="84.69322" y="82.463324" style="fill: #ac8e18; stroke: #ac8e18; stroke-width: 0.7"/>
    </g>
   </g>
   <g id="PathCollection_7">
    <defs>
     <path id="mb5388739bd" d="M -2 2 
L 2 -2 
M -2 -2 
L 2 2 
" style="stroke: #00aaae; stroke-width: 0.7"/>
    </defs>
    <g clip-path="url(#paa64d97931)">
     <use xlink:href="#mb5388739bd" x="91.034822" y="84.165687" style="fill: #00aaae; stroke: #00aaae; stroke-width: 0.7"/>
    </g>
   </g>
   <g id="PathCollection_8">
    <defs>
     <path id="m2796918eae" d="M -0 3.535534 
L 3.535534 0 
L 0 -3.535534 
L -3.535534 -0 
z
" style="stroke: #009afa"/>
    </defs>
    <g clip-path="url(#paa64d97931)">
     <use xlink:href="#m2796918eae" x="39.250312" y="20.354646" style="fill-opacity: 0; stroke: #009afa"/>
    </g>
   </g>
   <g id="PathCollection_9">
    <defs>
     <path id="m92c04faeea" d="M -0 3.535534 
L 3.535534 0 
L 0 -3.535534 
L -3.535534 -0 
z
" style="stroke: #e36f47"/>
    </defs>
    <g clip-path="url(#paa64d97931)">
     <use xlink:href="#m92c04faeea" x="39.250696" y="79.01409" style="fill-opacity: 0; stroke: #e36f47"/>
    </g>
   </g>
   <g id="PathCollection_10">
    <defs>
     <path id="m3b27924e18" d="M -0 3.535534 
L 3.535534 0 
L 0 -3.535534 
L -3.535534 -0 
z
" style="stroke: #3ea44e"/>
    </defs>
    <g clip-path="url(#paa64d97931)">
     <use xlink:href="#m3b27924e18" x="39.251544" y="80.831533" style="fill-opacity: 0; stroke: #3ea44e"/>
    </g>
   </g>
   <g id="PathCollection_11">
    <defs>
     <path id="m165c3e005d" d="M -0 3.535534 
L 3.535534 0 
L 0 -3.535534 
L -3.535534 -0 
z
" style="stroke: #c371d2"/>
    </defs>
    <g clip-path="url(#paa64d97931)">
     <use xlink:href="#m165c3e005d" x="39.253662" y="80.953234" style="fill-opacity: 0; stroke: #c371d2"/>
    </g>
   </g>
   <g id="PathCollection_12">
    <defs>
     <path id="m5eaf64cf61" d="M -0 3.535534 
L 3.535534 0 
L 0 -3.535534 
L -3.535534 -0 
z
" style="stroke: #ac8e18"/>
    </defs>
    <g clip-path="url(#paa64d97931)">
     <use xlink:href="#m5eaf64cf61" x="39.25406" y="80.795781" style="fill-opacity: 0; stroke: #ac8e18"/>
    </g>
   </g>
   <g id="PathCollection_13">
    <defs>
     <path id="m4f7ed864fa" d="M -0 3.535534 
L 3.535534 0 
L 0 -3.535534 
L -3.535534 -0 
z
" style="stroke: #00aaae"/>
    </defs>
    <g clip-path="url(#paa64d97931)">
     <use xlink:href="#m4f7ed864fa" x="39.254667" y="79.833938" style="fill-opacity: 0; stroke: #00aaae"/>
    </g>
   </g>
   <g id="legend_1">
    <g id="patch_7">
     <path d="M 149.026292 127.226833 
L 208.665354 127.226833 
L 208.665354 24.854646 
L 149.026292 24.854646 
L 149.026292 127.226833 
z
" style="fill: none; opacity: 0"/>
    </g>
    <g id="line2d_31">
     <path d="M 156.226292 35.743239 
L 165.226292 35.743239 
L 174.226292 35.743239 
" style="fill: none"/>
     <defs>
      <path id="mf607bf3865" d="M 0 3.6 
C 0.954731 3.6 1.870488 3.220681 2.545584 2.545584 
C 3.220681 1.870488 3.6 0.954731 3.6 0 
C 3.6 -0.954731 3.220681 -1.870488 2.545584 -2.545584 
C 1.870488 -3.220681 0.954731 -3.6 0 -3.6 
C -0.954731 -3.6 -1.870488 -3.220681 -2.545584 -2.545584 
C -3.220681 -1.870488 -3.6 -0.954731 -3.6 0 
C -3.6 0.954731 -3.220681 1.870488 -2.545584 2.545584 
C -1.870488 3.220681 -0.954731 3.6 0 3.6 
z
" style="stroke: #ffffff; stroke-width: inf"/>
     </defs>
     <g>
      <use xlink:href="#mf607bf3865" x="165.226292" y="35.743239" style="fill: #ffffff; fill-opacity: 0; stroke: #ffffff; stroke-width: inf"/>
     </g>
    </g>
    <g id="text_15">
     <!-- $t_0$ -->
     <g transform="translate(181.426292 38.893239) scale(0.09 -0.09)">
      <defs>
       <path id="DejaVuSans-Oblique-74" d="M 2706 3500 
L 2619 3053 
L 1472 3053 
L 1100 1153 
Q 1081 1047 1072 975 
Q 1063 903 1063 863 
Q 1063 663 1183 572 
Q 1303 481 1569 481 
L 2150 481 
L 2053 0 
L 1503 0 
Q 991 0 739 200 
Q 488 400 488 806 
Q 488 878 497 964 
Q 506 1050 525 1153 
L 897 3053 
L 409 3053 
L 500 3500 
L 978 3500 
L 1172 4494 
L 1747 4494 
L 1556 3500 
L 2706 3500 
z
" transform="scale(0.015625)"/>
      </defs>
      <use xlink:href="#DejaVuSans-Oblique-74" transform="translate(0 0.78125)"/>
      <use xlink:href="#DejaVuSans-30" transform="translate(39.208984 -15.625) scale(0.7)"/>
     </g>
    </g>
    <g id="line2d_32">
     <path d="M 156.226292 48.953552 
L 165.226292 48.953552 
L 174.226292 48.953552 
" style="fill: none; stroke-dasharray: 4.1625,1.8; stroke-dashoffset: 0; stroke: #009afa; stroke-width: 1.125; stroke-linejoin: miter"/>
    </g>
    <g id="text_16">
     <!-- 0.1 -->
     <g transform="translate(181.426292 52.103552) scale(0.09 -0.09)">
      <use xlink:href="#DejaVuSans-30"/>
      <use xlink:href="#DejaVuSans-2e" x="63.623047"/>
      <use xlink:href="#DejaVuSans-31" x="95.410156"/>
     </g>
    </g>
    <g id="line2d_33">
     <path d="M 156.226292 62.163864 
L 165.226292 62.163864 
L 174.226292 62.163864 
" style="fill: none; stroke: #e36f47; stroke-width: 1.125; stroke-linejoin: miter"/>
    </g>
    <g id="text_17">
     <!-- 0.27 -->
     <g transform="translate(181.426292 65.313864) scale(0.09 -0.09)">
      <defs>
       <path id="DejaVuSans-37" d="M 525 4666 
L 3525 4666 
L 3525 4397 
L 1831 0 
L 1172 0 
L 2766 4134 
L 525 4134 
L 525 4666 
z
" transform="scale(0.015625)"/>
      </defs>
      <use xlink:href="#DejaVuSans-30"/>
      <use xlink:href="#DejaVuSans-2e" x="63.623047"/>
      <use xlink:href="#DejaVuSans-32" x="95.410156"/>
      <use xlink:href="#DejaVuSans-37" x="159.033203"/>
     </g>
    </g>
    <g id="line2d_34">
     <path d="M 156.226292 75.374177 
L 165.226292 75.374177 
L 174.226292 75.374177 
" style="fill: none; stroke: #3ea44e; stroke-width: 1.125; stroke-linejoin: miter"/>
    </g>
    <g id="text_18">
     <!-- 0.3 -->
     <g transform="translate(181.426292 78.524177) scale(0.09 -0.09)">
      <use xlink:href="#DejaVuSans-30"/>
      <use xlink:href="#DejaVuSans-2e" x="63.623047"/>
      <use xlink:href="#DejaVuSans-33" x="95.410156"/>
     </g>
    </g>
    <g id="line2d_35">
     <path d="M 156.226292 88.584489 
L 165.226292 88.584489 
L 174.226292 88.584489 
" style="fill: none; stroke: #c371d2; stroke-width: 1.125; stroke-linejoin: miter"/>
    </g>
    <g id="text_19">
     <!-- 0.35 -->
     <g transform="translate(181.426292 91.734489) scale(0.09 -0.09)">
      <defs>
       <path id="DejaVuSans-35" d="M 691 4666 
L 3169 4666 
L 3169 4134 
L 1269 4134 
L 1269 2991 
Q 1406 3038 1543 3061 
Q 1681 3084 1819 3084 
Q 2600 3084 3056 2656 
Q 3513 2228 3513 1497 
Q 3513 744 3044 326 
Q 2575 -91 1722 -91 
Q 1428 -91 1123 -41 
Q 819 9 494 109 
L 494 744 
Q 775 591 1075 516 
Q 1375 441 1709 441 
Q 2250 441 2565 725 
Q 2881 1009 2881 1497 
Q 2881 1984 2565 2268 
Q 2250 2553 1709 2553 
Q 1456 2553 1204 2497 
Q 953 2441 691 2322 
L 691 4666 
z
" transform="scale(0.015625)"/>
      </defs>
      <use xlink:href="#DejaVuSans-30"/>
      <use xlink:href="#DejaVuSans-2e" x="63.623047"/>
      <use xlink:href="#DejaVuSans-33" x="95.410156"/>
      <use xlink:href="#DejaVuSans-35" x="159.033203"/>
     </g>
    </g>
    <g id="line2d_36">
     <path d="M 156.226292 101.794802 
L 165.226292 101.794802 
L 174.226292 101.794802 
" style="fill: none; stroke: #ac8e18; stroke-width: 1.125; stroke-linejoin: miter"/>
    </g>
    <g id="text_20">
     <!-- 0.4 -->
     <g transform="translate(181.426292 104.944802) scale(0.09 -0.09)">
      <use xlink:href="#DejaVuSans-30"/>
      <use xlink:href="#DejaVuSans-2e" x="63.623047"/>
      <use xlink:href="#DejaVuSans-34" x="95.410156"/>
     </g>
    </g>
    <g id="line2d_37">
     <path d="M 156.226292 115.005114 
L 165.226292 115.005114 
L 174.226292 115.005114 
" style="fill: none; stroke-dasharray: 1.125,1.85625; stroke-dashoffset: 0; stroke: #00aaae; stroke-width: 1.125; stroke-linejoin: miter"/>
    </g>
    <g id="text_21">
     <!-- 0.5 -->
     <g transform="translate(181.426292 118.155114) scale(0.09 -0.09)">
      <use xlink:href="#DejaVuSans-30"/>
      <use xlink:href="#DejaVuSans-2e" x="63.623047"/>
      <use xlink:href="#DejaVuSans-35" x="95.410156"/>
     </g>
    </g>
   </g>
  </g>
 </g>
 <defs>
  <clipPath id="paa64d97931">
   <rect x="39.25031" y="20.354646" width="173.915045" height="143.950709"/>
  </clipPath>
 </defs>
</svg>
