<?xml version="1.0" encoding="utf-8" standalone="no"?>
<!DOCTYPE svg PUBLIC "-//W3C//DTD SVG 1.1//EN"
  "http://www.w3.org/Graphics/SVG/1.1/DTD/svg11.dtd">
<svg xmlns:xlink="http://www.w3.org/1999/xlink" width="504pt" height="216pt" viewBox="0 0 504 216" xmlns="http://www.w3.org/2000/svg" version="1.1">
 <metadata>
  <rdf:RDF xmlns:dc="http://purl.org/dc/elements/1.1/" xmlns:cc="http://creativecommons.org/ns#" xmlns:rdf="http://www.w3.org/1999/02/22-rdf-syntax-ns#">
   <cc:Work>
    <dc:type rdf:resource="http://purl.org/dc/dcmitype/StillImage"/>
    <dc:date>2023-02-10T15:05:58.135338</dc:date>
    <dc:format>image/svg+xml</dc:format>
    <dc:creator>
     <cc:Agent>
      <dc:title>Matplotlib v3.6.3, https://matplotlib.org/</dc:title>
     </cc:Agent>
    </dc:creator>
   </cc:Work>
  </rdf:RDF>
 </metadata>
 <defs>
  <style type="text/css">*{stroke-linejoin: round; stroke-linecap: butt}</style>
 </defs>
 <g id="figure_1">
  <g id="patch_1">
   <path d="M 0 216 
L 504 216 
L 504 0 
L 0 0 
z
" style="fill: #ffffff"/>
  </g>
  <g id="axes_1">
   <g id="patch_2">
    <path d="M 55.892797 180.033354 
L 239.918886 180.033354 
L 239.918886 7.730646 
L 55.892797 7.730646 
z
" style="fill: #ffffff"/>
   </g>
   <g id="line2d_1">
    <path d="M 55.892797 83.80134 
L 60.688882 87.551026 
L 65.146312 89.247882 
L 69.930467 84.786712 
L 74.168107 85.857454 
L 78.318399 83.315641 
L 82.722361 85.215056 
L 85.834046 81.752043 
L 89.48954 81.635881 
L 92.792607 78.924063 
L 94.980598 73.057816 
L 98.066991 71.68308 
L 100.141161 65.386437 
L 102.300548 59.751085 
L 103.996196 51.695778 
L 105.32436 38.54139 
L 108.65951 26.401851 
L 111.591999 16.144541 
L 116.110746 11.674529 
L 121.686043 10.22653 
L 127.109184 11.354115 
L 153.414781 7.730646 
L 178.31362 9.177497 
L 200.704698 8.68737 
L 221.150236 8.618677 
L 239.918886 8.618677 
" clip-path="url(#p4d149aa651)" style="fill: none; stroke: #009afa"/>
   </g>
   <g id="PathCollection_1">
    <defs>
     <path id="mfa791d4c96" d="M -2.5 2.5 
L 2.5 -2.5 
M -2.5 -2.5 
L 2.5 2.5 
" style="stroke: #009afa"/>
    </defs>
    <g clip-path="url(#p4d149aa651)">
     <use xlink:href="#mfa791d4c96" x="55.892797" y="83.80134" style="fill: #009afa; stroke: #009afa"/>
     <use xlink:href="#mfa791d4c96" x="60.688882" y="87.551026" style="fill: #009afa; stroke: #009afa"/>
     <use xlink:href="#mfa791d4c96" x="65.146312" y="89.247882" style="fill: #009afa; stroke: #009afa"/>
     <use xlink:href="#mfa791d4c96" x="69.930467" y="84.786712" style="fill: #009afa; stroke: #009afa"/>
     <use xlink:href="#mfa791d4c96" x="74.168107" y="85.857454" style="fill: #009afa; stroke: #009afa"/>
     <use xlink:href="#mfa791d4c96" x="78.318399" y="83.315641" style="fill: #009afa; stroke: #009afa"/>
     <use xlink:href="#mfa791d4c96" x="82.722361" y="85.215056" style="fill: #009afa; stroke: #009afa"/>
     <use xlink:href="#mfa791d4c96" x="85.834046" y="81.752043" style="fill: #009afa; stroke: #009afa"/>
     <use xlink:href="#mfa791d4c96" x="89.48954" y="81.635881" style="fill: #009afa; stroke: #009afa"/>
     <use xlink:href="#mfa791d4c96" x="92.792607" y="78.924063" style="fill: #009afa; stroke: #009afa"/>
     <use xlink:href="#mfa791d4c96" x="94.980598" y="73.057816" style="fill: #009afa; stroke: #009afa"/>
     <use xlink:href="#mfa791d4c96" x="98.066991" y="71.68308" style="fill: #009afa; stroke: #009afa"/>
     <use xlink:href="#mfa791d4c96" x="100.141161" y="65.386437" style="fill: #009afa; stroke: #009afa"/>
     <use xlink:href="#mfa791d4c96" x="102.300548" y="59.751085" style="fill: #009afa; stroke: #009afa"/>
     <use xlink:href="#mfa791d4c96" x="103.996196" y="51.695778" style="fill: #009afa; stroke: #009afa"/>
     <use xlink:href="#mfa791d4c96" x="105.32436" y="38.54139" style="fill: #009afa; stroke: #009afa"/>
     <use xlink:href="#mfa791d4c96" x="108.65951" y="26.401851" style="fill: #009afa; stroke: #009afa"/>
     <use xlink:href="#mfa791d4c96" x="111.591999" y="16.144541" style="fill: #009afa; stroke: #009afa"/>
     <use xlink:href="#mfa791d4c96" x="116.110746" y="11.674529" style="fill: #009afa; stroke: #009afa"/>
     <use xlink:href="#mfa791d4c96" x="121.686043" y="10.22653" style="fill: #009afa; stroke: #009afa"/>
     <use xlink:href="#mfa791d4c96" x="127.109184" y="11.354115" style="fill: #009afa; stroke: #009afa"/>
     <use xlink:href="#mfa791d4c96" x="153.414781" y="7.730646" style="fill: #009afa; stroke: #009afa"/>
     <use xlink:href="#mfa791d4c96" x="178.31362" y="9.177497" style="fill: #009afa; stroke: #009afa"/>
     <use xlink:href="#mfa791d4c96" x="200.704698" y="8.68737" style="fill: #009afa; stroke: #009afa"/>
     <use xlink:href="#mfa791d4c96" x="221.150236" y="8.618677" style="fill: #009afa; stroke: #009afa"/>
     <use xlink:href="#mfa791d4c96" x="239.918886" y="8.618677" style="fill: #009afa; stroke: #009afa"/>
    </g>
   </g>
   <g id="matplotlib.axis_1">
    <g id="xtick_1">
     <g id="line2d_2">
      <defs>
       <path id="m146f6e6602" d="M 0 0 
L 0 -2.5 
" style="stroke: #000000; stroke-width: 0.5"/>
      </defs>
      <g>
       <use xlink:href="#m146f6e6602" x="132.547708" y="180.033354" style="stroke: #000000; stroke-width: 0.5"/>
      </g>
     </g>
     <g id="line2d_3">
      <defs>
       <path id="m71202ede71" d="M 0 0 
L 0 2.5 
" style="stroke: #000000; stroke-width: 0.5"/>
      </defs>
      <g>
       <use xlink:href="#m71202ede71" x="132.547708" y="7.730646" style="stroke: #000000; stroke-width: 0.5"/>
      </g>
     </g>
     <g id="text_1">
      <!-- $10^{-0.2}$ -->
      <g transform="translate(119.137708 190.371948) scale(0.09 -0.09)">
       <defs>
        <path id="DejaVuSans-31" d="M 794 531 
L 1825 531 
L 1825 4091 
L 703 3866 
L 703 4441 
L 1819 4666 
L 2450 4666 
L 2450 531 
L 3481 531 
L 3481 0 
L 794 0 
L 794 531 
z
" transform="scale(0.015625)"/>
        <path id="DejaVuSans-30" d="M 2034 4250 
Q 1547 4250 1301 3770 
Q 1056 3291 1056 2328 
Q 1056 1369 1301 889 
Q 1547 409 2034 409 
Q 2525 409 2770 889 
Q 3016 1369 3016 2328 
Q 3016 3291 2770 3770 
Q 2525 4250 2034 4250 
z
M 2034 4750 
Q 2819 4750 3233 4129 
Q 3647 3509 3647 2328 
Q 3647 1150 3233 529 
Q 2819 -91 2034 -91 
Q 1250 -91 836 529 
Q 422 1150 422 2328 
Q 422 3509 836 4129 
Q 1250 4750 2034 4750 
z
" transform="scale(0.015625)"/>
        <path id="DejaVuSans-2212" d="M 678 2272 
L 4684 2272 
L 4684 1741 
L 678 1741 
L 678 2272 
z
" transform="scale(0.015625)"/>
        <path id="DejaVuSans-2e" d="M 684 794 
L 1344 794 
L 1344 0 
L 684 0 
L 684 794 
z
" transform="scale(0.015625)"/>
        <path id="DejaVuSans-32" d="M 1228 531 
L 3431 531 
L 3431 0 
L 469 0 
L 469 531 
Q 828 903 1448 1529 
Q 2069 2156 2228 2338 
Q 2531 2678 2651 2914 
Q 2772 3150 2772 3378 
Q 2772 3750 2511 3984 
Q 2250 4219 1831 4219 
Q 1534 4219 1204 4116 
Q 875 4013 500 3803 
L 500 4441 
Q 881 4594 1212 4672 
Q 1544 4750 1819 4750 
Q 2544 4750 2975 4387 
Q 3406 4025 3406 3419 
Q 3406 3131 3298 2873 
Q 3191 2616 2906 2266 
Q 2828 2175 2409 1742 
Q 1991 1309 1228 531 
z
" transform="scale(0.015625)"/>
       </defs>
       <use xlink:href="#DejaVuSans-31" transform="translate(0 0.765625)"/>
       <use xlink:href="#DejaVuSans-30" transform="translate(63.623047 0.765625)"/>
       <use xlink:href="#DejaVuSans-2212" transform="translate(128.203125 39.046875) scale(0.7)"/>
       <use xlink:href="#DejaVuSans-30" transform="translate(186.855469 39.046875) scale(0.7)"/>
       <use xlink:href="#DejaVuSans-2e" transform="translate(231.391602 39.046875) scale(0.7)"/>
       <use xlink:href="#DejaVuSans-32" transform="translate(249.792578 39.046875) scale(0.7)"/>
      </g>
     </g>
    </g>
    <g id="xtick_2">
     <g id="line2d_4">
      <g>
       <use xlink:href="#m146f6e6602" x="239.918886" y="180.033354" style="stroke: #000000; stroke-width: 0.5"/>
      </g>
     </g>
     <g id="line2d_5">
      <g>
       <use xlink:href="#m71202ede71" x="239.918886" y="7.730646" style="stroke: #000000; stroke-width: 0.5"/>
      </g>
     </g>
     <g id="text_2">
      <!-- $10^{0.0}$ -->
      <g transform="translate(228.983886 190.371948) scale(0.09 -0.09)">
       <use xlink:href="#DejaVuSans-31" transform="translate(0 0.765625)"/>
       <use xlink:href="#DejaVuSans-30" transform="translate(63.623047 0.765625)"/>
       <use xlink:href="#DejaVuSans-30" transform="translate(128.203125 39.046875) scale(0.7)"/>
       <use xlink:href="#DejaVuSans-2e" transform="translate(172.739258 39.046875) scale(0.7)"/>
       <use xlink:href="#DejaVuSans-30" transform="translate(194.990234 39.046875) scale(0.7)"/>
      </g>
     </g>
    </g>
    <g id="text_3">
     <!-- log$(σ)$ -->
     <g transform="translate(130.265842 205.363667) scale(0.12 -0.12)">
      <defs>
       <path id="DejaVuSans-6c" d="M 603 4863 
L 1178 4863 
L 1178 0 
L 603 0 
L 603 4863 
z
" transform="scale(0.015625)"/>
       <path id="DejaVuSans-6f" d="M 1959 3097 
Q 1497 3097 1228 2736 
Q 959 2375 959 1747 
Q 959 1119 1226 758 
Q 1494 397 1959 397 
Q 2419 397 2687 759 
Q 2956 1122 2956 1747 
Q 2956 2369 2687 2733 
Q 2419 3097 1959 3097 
z
M 1959 3584 
Q 2709 3584 3137 3096 
Q 3566 2609 3566 1747 
Q 3566 888 3137 398 
Q 2709 -91 1959 -91 
Q 1206 -91 779 398 
Q 353 888 353 1747 
Q 353 2609 779 3096 
Q 1206 3584 1959 3584 
z
" transform="scale(0.015625)"/>
       <path id="DejaVuSans-67" d="M 2906 1791 
Q 2906 2416 2648 2759 
Q 2391 3103 1925 3103 
Q 1463 3103 1205 2759 
Q 947 2416 947 1791 
Q 947 1169 1205 825 
Q 1463 481 1925 481 
Q 2391 481 2648 825 
Q 2906 1169 2906 1791 
z
M 3481 434 
Q 3481 -459 3084 -895 
Q 2688 -1331 1869 -1331 
Q 1566 -1331 1297 -1286 
Q 1028 -1241 775 -1147 
L 775 -588 
Q 1028 -725 1275 -790 
Q 1522 -856 1778 -856 
Q 2344 -856 2625 -561 
Q 2906 -266 2906 331 
L 2906 616 
Q 2728 306 2450 153 
Q 2172 0 1784 0 
Q 1141 0 747 490 
Q 353 981 353 1791 
Q 353 2603 747 3093 
Q 1141 3584 1784 3584 
Q 2172 3584 2450 3431 
Q 2728 3278 2906 2969 
L 2906 3500 
L 3481 3500 
L 3481 434 
z
" transform="scale(0.015625)"/>
       <path id="DejaVuSans-28" d="M 1984 4856 
Q 1566 4138 1362 3434 
Q 1159 2731 1159 2009 
Q 1159 1288 1364 580 
Q 1569 -128 1984 -844 
L 1484 -844 
Q 1016 -109 783 600 
Q 550 1309 550 2009 
Q 550 2706 781 3412 
Q 1013 4119 1484 4856 
L 1984 4856 
z
" transform="scale(0.015625)"/>
       <path id="DejaVuSans-Oblique-3c3" d="M 2219 3044 
Q 1744 3044 1422 2700 
Q 1081 2341 969 1747 
Q 844 1119 1044 756 
Q 1241 397 1706 397 
Q 2166 397 2503 759 
Q 2844 1122 2966 1747 
Q 3075 2319 2881 2700 
Q 2700 3044 2219 3044 
z
M 2309 3503 
L 4219 3500 
L 4106 2925 
L 3463 2925 
Q 3706 2438 3575 1747 
Q 3406 888 2884 400 
Q 2359 -91 1609 -91 
Q 856 -91 525 400 
Q 194 888 363 1747 
Q 528 2609 1050 3097 
Q 1484 3503 2309 3503 
z
" transform="scale(0.015625)"/>
       <path id="DejaVuSans-29" d="M 513 4856 
L 1013 4856 
Q 1481 4119 1714 3412 
Q 1947 2706 1947 2009 
Q 1947 1309 1714 600 
Q 1481 -109 1013 -844 
L 513 -844 
Q 928 -128 1133 580 
Q 1338 1288 1338 2009 
Q 1338 2731 1133 3434 
Q 928 4138 513 4856 
z
" transform="scale(0.015625)"/>
      </defs>
      <use xlink:href="#DejaVuSans-6c" transform="translate(0 0.015625)"/>
      <use xlink:href="#DejaVuSans-6f" transform="translate(27.783203 0.015625)"/>
      <use xlink:href="#DejaVuSans-67" transform="translate(88.964844 0.015625)"/>
      <use xlink:href="#DejaVuSans-28" transform="translate(152.441406 0.015625)"/>
      <use xlink:href="#DejaVuSans-Oblique-3c3" transform="translate(191.455078 0.015625)"/>
      <use xlink:href="#DejaVuSans-29" transform="translate(254.833984 0.015625)"/>
     </g>
    </g>
   </g>
   <g id="matplotlib.axis_2">
    <g id="ytick_1">
     <g id="line2d_6">
      <defs>
       <path id="m608352fabd" d="M 0 0 
L 2.5 0 
" style="stroke: #000000; stroke-width: 0.5"/>
      </defs>
      <g>
       <use xlink:href="#m608352fabd" x="55.892797" y="153.089039" style="stroke: #000000; stroke-width: 0.5"/>
      </g>
     </g>
     <g id="line2d_7">
      <defs>
       <path id="m6275b1a543" d="M 0 0 
L -2.5 0 
" style="stroke: #000000; stroke-width: 0.5"/>
      </defs>
      <g>
       <use xlink:href="#m6275b1a543" x="239.918886" y="153.089039" style="stroke: #000000; stroke-width: 0.5"/>
      </g>
     </g>
     <g id="text_4">
      <!-- $10^{-0.09}$ -->
      <g transform="translate(21.252797 156.508335) scale(0.09 -0.09)">
       <defs>
        <path id="DejaVuSans-39" d="M 703 97 
L 703 672 
Q 941 559 1184 500 
Q 1428 441 1663 441 
Q 2288 441 2617 861 
Q 2947 1281 2994 2138 
Q 2813 1869 2534 1725 
Q 2256 1581 1919 1581 
Q 1219 1581 811 2004 
Q 403 2428 403 3163 
Q 403 3881 828 4315 
Q 1253 4750 1959 4750 
Q 2769 4750 3195 4129 
Q 3622 3509 3622 2328 
Q 3622 1225 3098 567 
Q 2575 -91 1691 -91 
Q 1453 -91 1209 -44 
Q 966 3 703 97 
z
M 1959 2075 
Q 2384 2075 2632 2365 
Q 2881 2656 2881 3163 
Q 2881 3666 2632 3958 
Q 2384 4250 1959 4250 
Q 1534 4250 1286 3958 
Q 1038 3666 1038 3163 
Q 1038 2656 1286 2365 
Q 1534 2075 1959 2075 
z
" transform="scale(0.015625)"/>
       </defs>
       <use xlink:href="#DejaVuSans-31" transform="translate(0 0.765625)"/>
       <use xlink:href="#DejaVuSans-30" transform="translate(63.623047 0.765625)"/>
       <use xlink:href="#DejaVuSans-2212" transform="translate(128.203125 39.046875) scale(0.7)"/>
       <use xlink:href="#DejaVuSans-30" transform="translate(186.855469 39.046875) scale(0.7)"/>
       <use xlink:href="#DejaVuSans-2e" transform="translate(231.391602 39.046875) scale(0.7)"/>
       <use xlink:href="#DejaVuSans-30" transform="translate(253.642578 39.046875) scale(0.7)"/>
       <use xlink:href="#DejaVuSans-39" transform="translate(298.178711 39.046875) scale(0.7)"/>
      </g>
     </g>
    </g>
    <g id="ytick_2">
     <g id="line2d_8">
      <g>
       <use xlink:href="#m608352fabd" x="55.892797" y="104.636241" style="stroke: #000000; stroke-width: 0.5"/>
      </g>
     </g>
     <g id="line2d_9">
      <g>
       <use xlink:href="#m6275b1a543" x="239.918886" y="104.636241" style="stroke: #000000; stroke-width: 0.5"/>
      </g>
     </g>
     <g id="text_5">
      <!-- $10^{-0.06}$ -->
      <g transform="translate(21.252797 108.055538) scale(0.09 -0.09)">
       <defs>
        <path id="DejaVuSans-36" d="M 2113 2584 
Q 1688 2584 1439 2293 
Q 1191 2003 1191 1497 
Q 1191 994 1439 701 
Q 1688 409 2113 409 
Q 2538 409 2786 701 
Q 3034 994 3034 1497 
Q 3034 2003 2786 2293 
Q 2538 2584 2113 2584 
z
M 3366 4563 
L 3366 3988 
Q 3128 4100 2886 4159 
Q 2644 4219 2406 4219 
Q 1781 4219 1451 3797 
Q 1122 3375 1075 2522 
Q 1259 2794 1537 2939 
Q 1816 3084 2150 3084 
Q 2853 3084 3261 2657 
Q 3669 2231 3669 1497 
Q 3669 778 3244 343 
Q 2819 -91 2113 -91 
Q 1303 -91 875 529 
Q 447 1150 447 2328 
Q 447 3434 972 4092 
Q 1497 4750 2381 4750 
Q 2619 4750 2861 4703 
Q 3103 4656 3366 4563 
z
" transform="scale(0.015625)"/>
       </defs>
       <use xlink:href="#DejaVuSans-31" transform="translate(0 0.765625)"/>
       <use xlink:href="#DejaVuSans-30" transform="translate(63.623047 0.765625)"/>
       <use xlink:href="#DejaVuSans-2212" transform="translate(128.203125 39.046875) scale(0.7)"/>
       <use xlink:href="#DejaVuSans-30" transform="translate(186.855469 39.046875) scale(0.7)"/>
       <use xlink:href="#DejaVuSans-2e" transform="translate(231.391602 39.046875) scale(0.7)"/>
       <use xlink:href="#DejaVuSans-30" transform="translate(253.642578 39.046875) scale(0.7)"/>
       <use xlink:href="#DejaVuSans-36" transform="translate(298.178711 39.046875) scale(0.7)"/>
      </g>
     </g>
    </g>
    <g id="ytick_3">
     <g id="line2d_10">
      <g>
       <use xlink:href="#m608352fabd" x="55.892797" y="56.183443" style="stroke: #000000; stroke-width: 0.5"/>
      </g>
     </g>
     <g id="line2d_11">
      <g>
       <use xlink:href="#m6275b1a543" x="239.918886" y="56.183443" style="stroke: #000000; stroke-width: 0.5"/>
      </g>
     </g>
     <g id="text_6">
      <!-- $10^{-0.03}$ -->
      <g transform="translate(21.252797 59.60274) scale(0.09 -0.09)">
       <defs>
        <path id="DejaVuSans-33" d="M 2597 2516 
Q 3050 2419 3304 2112 
Q 3559 1806 3559 1356 
Q 3559 666 3084 287 
Q 2609 -91 1734 -91 
Q 1441 -91 1130 -33 
Q 819 25 488 141 
L 488 750 
Q 750 597 1062 519 
Q 1375 441 1716 441 
Q 2309 441 2620 675 
Q 2931 909 2931 1356 
Q 2931 1769 2642 2001 
Q 2353 2234 1838 2234 
L 1294 2234 
L 1294 2753 
L 1863 2753 
Q 2328 2753 2575 2939 
Q 2822 3125 2822 3475 
Q 2822 3834 2567 4026 
Q 2313 4219 1838 4219 
Q 1578 4219 1281 4162 
Q 984 4106 628 3988 
L 628 4550 
Q 988 4650 1302 4700 
Q 1616 4750 1894 4750 
Q 2613 4750 3031 4423 
Q 3450 4097 3450 3541 
Q 3450 3153 3228 2886 
Q 3006 2619 2597 2516 
z
" transform="scale(0.015625)"/>
       </defs>
       <use xlink:href="#DejaVuSans-31" transform="translate(0 0.765625)"/>
       <use xlink:href="#DejaVuSans-30" transform="translate(63.623047 0.765625)"/>
       <use xlink:href="#DejaVuSans-2212" transform="translate(128.203125 39.046875) scale(0.7)"/>
       <use xlink:href="#DejaVuSans-30" transform="translate(186.855469 39.046875) scale(0.7)"/>
       <use xlink:href="#DejaVuSans-2e" transform="translate(231.391602 39.046875) scale(0.7)"/>
       <use xlink:href="#DejaVuSans-30" transform="translate(253.642578 39.046875) scale(0.7)"/>
       <use xlink:href="#DejaVuSans-33" transform="translate(298.178711 39.046875) scale(0.7)"/>
      </g>
     </g>
    </g>
    <g id="ytick_4">
     <g id="line2d_12">
      <g>
       <use xlink:href="#m608352fabd" x="55.892797" y="7.730646" style="stroke: #000000; stroke-width: 0.5"/>
      </g>
     </g>
     <g id="line2d_13">
      <g>
       <use xlink:href="#m6275b1a543" x="239.918886" y="7.730646" style="stroke: #000000; stroke-width: 0.5"/>
      </g>
     </g>
     <g id="text_7">
      <!-- $10^{0.00}$ -->
      <g transform="translate(26.562797 11.149943) scale(0.09 -0.09)">
       <use xlink:href="#DejaVuSans-31" transform="translate(0 0.765625)"/>
       <use xlink:href="#DejaVuSans-30" transform="translate(63.623047 0.765625)"/>
       <use xlink:href="#DejaVuSans-30" transform="translate(128.203125 39.046875) scale(0.7)"/>
       <use xlink:href="#DejaVuSans-2e" transform="translate(172.739258 39.046875) scale(0.7)"/>
       <use xlink:href="#DejaVuSans-30" transform="translate(194.990234 39.046875) scale(0.7)"/>
       <use xlink:href="#DejaVuSans-30" transform="translate(239.526367 39.046875) scale(0.7)"/>
      </g>
     </g>
    </g>
    <g id="text_8">
     <!-- log$(s_{\mathrm{max}}/N)$ -->
     <g transform="translate(14.732797 126.702) rotate(-90) scale(0.12 -0.12)">
      <defs>
       <path id="DejaVuSans-Oblique-73" d="M 3200 3397 
L 3091 2853 
Q 2863 2978 2609 3040 
Q 2356 3103 2088 3103 
Q 1634 3103 1373 2948 
Q 1113 2794 1113 2528 
Q 1113 2219 1719 2053 
Q 1766 2041 1788 2034 
L 1972 1978 
Q 2547 1819 2739 1644 
Q 2931 1469 2931 1166 
Q 2931 609 2489 259 
Q 2047 -91 1331 -91 
Q 1053 -91 747 -37 
Q 441 16 72 128 
L 184 722 
Q 500 559 806 475 
Q 1113 391 1394 391 
Q 1816 391 2080 572 
Q 2344 753 2344 1031 
Q 2344 1331 1650 1516 
L 1591 1531 
L 1394 1581 
Q 956 1697 753 1886 
Q 550 2075 550 2369 
Q 550 2928 970 3256 
Q 1391 3584 2113 3584 
Q 2397 3584 2667 3537 
Q 2938 3491 3200 3397 
z
" transform="scale(0.015625)"/>
       <path id="DejaVuSans-6d" d="M 3328 2828 
Q 3544 3216 3844 3400 
Q 4144 3584 4550 3584 
Q 5097 3584 5394 3201 
Q 5691 2819 5691 2113 
L 5691 0 
L 5113 0 
L 5113 2094 
Q 5113 2597 4934 2840 
Q 4756 3084 4391 3084 
Q 3944 3084 3684 2787 
Q 3425 2491 3425 1978 
L 3425 0 
L 2847 0 
L 2847 2094 
Q 2847 2600 2669 2842 
Q 2491 3084 2119 3084 
Q 1678 3084 1418 2786 
Q 1159 2488 1159 1978 
L 1159 0 
L 581 0 
L 581 3500 
L 1159 3500 
L 1159 2956 
Q 1356 3278 1631 3431 
Q 1906 3584 2284 3584 
Q 2666 3584 2933 3390 
Q 3200 3197 3328 2828 
z
" transform="scale(0.015625)"/>
       <path id="DejaVuSans-61" d="M 2194 1759 
Q 1497 1759 1228 1600 
Q 959 1441 959 1056 
Q 959 750 1161 570 
Q 1363 391 1709 391 
Q 2188 391 2477 730 
Q 2766 1069 2766 1631 
L 2766 1759 
L 2194 1759 
z
M 3341 1997 
L 3341 0 
L 2766 0 
L 2766 531 
Q 2569 213 2275 61 
Q 1981 -91 1556 -91 
Q 1019 -91 701 211 
Q 384 513 384 1019 
Q 384 1609 779 1909 
Q 1175 2209 1959 2209 
L 2766 2209 
L 2766 2266 
Q 2766 2663 2505 2880 
Q 2244 3097 1772 3097 
Q 1472 3097 1187 3025 
Q 903 2953 641 2809 
L 641 3341 
Q 956 3463 1253 3523 
Q 1550 3584 1831 3584 
Q 2591 3584 2966 3190 
Q 3341 2797 3341 1997 
z
" transform="scale(0.015625)"/>
       <path id="DejaVuSans-78" d="M 3513 3500 
L 2247 1797 
L 3578 0 
L 2900 0 
L 1881 1375 
L 863 0 
L 184 0 
L 1544 1831 
L 300 3500 
L 978 3500 
L 1906 2253 
L 2834 3500 
L 3513 3500 
z
" transform="scale(0.015625)"/>
       <path id="DejaVuSans-2f" d="M 1625 4666 
L 2156 4666 
L 531 -594 
L 0 -594 
L 1625 4666 
z
" transform="scale(0.015625)"/>
       <path id="DejaVuSans-Oblique-4e" d="M 1081 4666 
L 1931 4666 
L 3219 666 
L 4000 4666 
L 4616 4666 
L 3706 0 
L 2853 0 
L 1569 4025 
L 788 0 
L 172 0 
L 1081 4666 
z
" transform="scale(0.015625)"/>
      </defs>
      <use xlink:href="#DejaVuSans-6c" transform="translate(0 0.015625)"/>
      <use xlink:href="#DejaVuSans-6f" transform="translate(27.783203 0.015625)"/>
      <use xlink:href="#DejaVuSans-67" transform="translate(88.964844 0.015625)"/>
      <use xlink:href="#DejaVuSans-28" transform="translate(152.441406 0.015625)"/>
      <use xlink:href="#DejaVuSans-Oblique-73" transform="translate(191.455078 0.015625)"/>
      <use xlink:href="#DejaVuSans-6d" transform="translate(243.554688 -16.390625) scale(0.7)"/>
      <use xlink:href="#DejaVuSans-61" transform="translate(311.743164 -16.390625) scale(0.7)"/>
      <use xlink:href="#DejaVuSans-78" transform="translate(354.638672 -16.390625) scale(0.7)"/>
      <use xlink:href="#DejaVuSans-2f" transform="translate(398.798828 0.015625)"/>
      <use xlink:href="#DejaVuSans-Oblique-4e" transform="translate(432.490234 0.015625)"/>
      <use xlink:href="#DejaVuSans-29" transform="translate(507.294922 0.015625)"/>
     </g>
    </g>
   </g>
   <g id="line2d_14">
    <path d="M 67.909761 125.47477 
L 72.846706 129.613461 
L 76.36244 133.987771 
L 80.351727 133.823678 
L 83.910486 132.840516 
L 87.218358 130.51055 
L 91.277305 127.314614 
L 93.612305 126.151391 
L 96.042457 119.651766 
L 98.481804 117.771005 
L 100.889204 105.18326 
L 101.65938 95.557618 
L 102.56461 81.618248 
L 103.678057 63.002244 
L 104.964352 48.17185 
L 104.02319 33.277625 
L 107.584537 19.747258 
L 111.874954 12.854349 
L 116.551046 10.363367 
L 122.31054 11.832785 
L 126.485589 11.37553 
L 154.056103 7.730646 
L 178.99023 11.967708 
L 201.269721 9.836427 
L 221.408575 9.817492 
L 239.918886 9.817492 
" clip-path="url(#p4d149aa651)" style="fill: none; stroke: #e36f47"/>
   </g>
   <g id="PathCollection_2">
    <defs>
     <path id="m40ab6f0c81" d="M -2.5 0 
L 2.5 0 
M 0 2.5 
L 0 -2.5 
" style="stroke: #e36f47"/>
    </defs>
    <g clip-path="url(#p4d149aa651)">
     <use xlink:href="#m40ab6f0c81" x="67.909761" y="125.47477" style="fill: #e36f47; stroke: #e36f47"/>
     <use xlink:href="#m40ab6f0c81" x="72.846706" y="129.613461" style="fill: #e36f47; stroke: #e36f47"/>
     <use xlink:href="#m40ab6f0c81" x="76.36244" y="133.987771" style="fill: #e36f47; stroke: #e36f47"/>
     <use xlink:href="#m40ab6f0c81" x="80.351727" y="133.823678" style="fill: #e36f47; stroke: #e36f47"/>
     <use xlink:href="#m40ab6f0c81" x="83.910486" y="132.840516" style="fill: #e36f47; stroke: #e36f47"/>
     <use xlink:href="#m40ab6f0c81" x="87.218358" y="130.51055" style="fill: #e36f47; stroke: #e36f47"/>
     <use xlink:href="#m40ab6f0c81" x="91.277305" y="127.314614" style="fill: #e36f47; stroke: #e36f47"/>
     <use xlink:href="#m40ab6f0c81" x="93.612305" y="126.151391" style="fill: #e36f47; stroke: #e36f47"/>
     <use xlink:href="#m40ab6f0c81" x="96.042457" y="119.651766" style="fill: #e36f47; stroke: #e36f47"/>
     <use xlink:href="#m40ab6f0c81" x="98.481804" y="117.771005" style="fill: #e36f47; stroke: #e36f47"/>
     <use xlink:href="#m40ab6f0c81" x="100.889204" y="105.18326" style="fill: #e36f47; stroke: #e36f47"/>
     <use xlink:href="#m40ab6f0c81" x="101.65938" y="95.557618" style="fill: #e36f47; stroke: #e36f47"/>
     <use xlink:href="#m40ab6f0c81" x="102.56461" y="81.618248" style="fill: #e36f47; stroke: #e36f47"/>
     <use xlink:href="#m40ab6f0c81" x="103.678057" y="63.002244" style="fill: #e36f47; stroke: #e36f47"/>
     <use xlink:href="#m40ab6f0c81" x="104.964352" y="48.17185" style="fill: #e36f47; stroke: #e36f47"/>
     <use xlink:href="#m40ab6f0c81" x="104.02319" y="33.277625" style="fill: #e36f47; stroke: #e36f47"/>
     <use xlink:href="#m40ab6f0c81" x="107.584537" y="19.747258" style="fill: #e36f47; stroke: #e36f47"/>
     <use xlink:href="#m40ab6f0c81" x="111.874954" y="12.854349" style="fill: #e36f47; stroke: #e36f47"/>
     <use xlink:href="#m40ab6f0c81" x="116.551046" y="10.363367" style="fill: #e36f47; stroke: #e36f47"/>
     <use xlink:href="#m40ab6f0c81" x="122.31054" y="11.832785" style="fill: #e36f47; stroke: #e36f47"/>
     <use xlink:href="#m40ab6f0c81" x="126.485589" y="11.37553" style="fill: #e36f47; stroke: #e36f47"/>
     <use xlink:href="#m40ab6f0c81" x="154.056103" y="7.730646" style="fill: #e36f47; stroke: #e36f47"/>
     <use xlink:href="#m40ab6f0c81" x="178.99023" y="11.967708" style="fill: #e36f47; stroke: #e36f47"/>
     <use xlink:href="#m40ab6f0c81" x="201.269721" y="9.836427" style="fill: #e36f47; stroke: #e36f47"/>
     <use xlink:href="#m40ab6f0c81" x="221.408575" y="9.817492" style="fill: #e36f47; stroke: #e36f47"/>
     <use xlink:href="#m40ab6f0c81" x="239.918886" y="9.817492" style="fill: #e36f47; stroke: #e36f47"/>
    </g>
   </g>
   <g id="patch_3">
    <path d="M 55.892797 180.033354 
L 55.892797 7.730646 
" style="fill: none; stroke: #000000; stroke-linejoin: miter; stroke-linecap: square"/>
   </g>
   <g id="patch_4">
    <path d="M 239.918886 180.033354 
L 239.918886 7.730646 
" style="fill: none; stroke: #000000; stroke-linejoin: miter; stroke-linecap: square"/>
   </g>
   <g id="patch_5">
    <path d="M 55.892797 180.033354 
L 239.918886 180.033354 
" style="fill: none; stroke: #000000; stroke-linejoin: miter; stroke-linecap: square"/>
   </g>
   <g id="patch_6">
    <path d="M 55.892797 7.730646 
L 239.918886 7.730646 
" style="fill: none; stroke: #000000; stroke-linejoin: miter; stroke-linecap: square"/>
   </g>
   <g id="line2d_15">
    <path d="M 76.472893 175.045485 
L 80.253009 178.420174 
L 84.777639 179.949166 
L 87.487635 180.033354 
L 90.398703 179.377066 
L 95.387321 178.229497 
L 97.779213 175.314063 
L 99.09341 168.156023 
L 101.835866 164.469495 
L 103.821016 146.940581 
L 103.615569 133.079251 
L 103.691732 113.323958 
L 103.282572 84.864057 
L 105.368265 68.574359 
L 103.651233 42.919637 
L 103.73348 25.998675 
L 105.499013 15.460533 
L 110.136548 8.141833 
L 116.576243 9.870491 
L 121.108621 7.730646 
L 128.825404 10.035564 
L 155.138292 8.044066 
L 179.113811 8.3717 
L 201.10146 8.86491 
L 221.345307 9.125867 
L 239.918886 9.125867 
" clip-path="url(#p4d149aa651)" style="fill: none; stroke: #3ea44e"/>
   </g>
   <g id="PathCollection_3">
    <defs>
     <path id="m6fe32009ab" d="M -2.5 2.5 
L 2.5 -2.5 
M -2.5 -2.5 
L 2.5 2.5 
" style="stroke: #3ea44e"/>
    </defs>
    <g clip-path="url(#p4d149aa651)">
     <use xlink:href="#m6fe32009ab" x="76.472893" y="175.045485" style="fill: #3ea44e; stroke: #3ea44e"/>
     <use xlink:href="#m6fe32009ab" x="80.253009" y="178.420174" style="fill: #3ea44e; stroke: #3ea44e"/>
     <use xlink:href="#m6fe32009ab" x="84.777639" y="179.949166" style="fill: #3ea44e; stroke: #3ea44e"/>
     <use xlink:href="#m6fe32009ab" x="87.487635" y="180.033354" style="fill: #3ea44e; stroke: #3ea44e"/>
     <use xlink:href="#m6fe32009ab" x="90.398703" y="179.377066" style="fill: #3ea44e; stroke: #3ea44e"/>
     <use xlink:href="#m6fe32009ab" x="95.387321" y="178.229497" style="fill: #3ea44e; stroke: #3ea44e"/>
     <use xlink:href="#m6fe32009ab" x="97.779213" y="175.314063" style="fill: #3ea44e; stroke: #3ea44e"/>
     <use xlink:href="#m6fe32009ab" x="99.09341" y="168.156023" style="fill: #3ea44e; stroke: #3ea44e"/>
     <use xlink:href="#m6fe32009ab" x="101.835866" y="164.469495" style="fill: #3ea44e; stroke: #3ea44e"/>
     <use xlink:href="#m6fe32009ab" x="103.821016" y="146.940581" style="fill: #3ea44e; stroke: #3ea44e"/>
     <use xlink:href="#m6fe32009ab" x="103.615569" y="133.079251" style="fill: #3ea44e; stroke: #3ea44e"/>
     <use xlink:href="#m6fe32009ab" x="103.691732" y="113.323958" style="fill: #3ea44e; stroke: #3ea44e"/>
     <use xlink:href="#m6fe32009ab" x="103.282572" y="84.864057" style="fill: #3ea44e; stroke: #3ea44e"/>
     <use xlink:href="#m6fe32009ab" x="105.368265" y="68.574359" style="fill: #3ea44e; stroke: #3ea44e"/>
     <use xlink:href="#m6fe32009ab" x="103.651233" y="42.919637" style="fill: #3ea44e; stroke: #3ea44e"/>
     <use xlink:href="#m6fe32009ab" x="103.73348" y="25.998675" style="fill: #3ea44e; stroke: #3ea44e"/>
     <use xlink:href="#m6fe32009ab" x="105.499013" y="15.460533" style="fill: #3ea44e; stroke: #3ea44e"/>
     <use xlink:href="#m6fe32009ab" x="110.136548" y="8.141833" style="fill: #3ea44e; stroke: #3ea44e"/>
     <use xlink:href="#m6fe32009ab" x="116.576243" y="9.870491" style="fill: #3ea44e; stroke: #3ea44e"/>
     <use xlink:href="#m6fe32009ab" x="121.108621" y="7.730646" style="fill: #3ea44e; stroke: #3ea44e"/>
     <use xlink:href="#m6fe32009ab" x="128.825404" y="10.035564" style="fill: #3ea44e; stroke: #3ea44e"/>
     <use xlink:href="#m6fe32009ab" x="155.138292" y="8.044066" style="fill: #3ea44e; stroke: #3ea44e"/>
     <use xlink:href="#m6fe32009ab" x="179.113811" y="8.3717" style="fill: #3ea44e; stroke: #3ea44e"/>
     <use xlink:href="#m6fe32009ab" x="201.10146" y="8.86491" style="fill: #3ea44e; stroke: #3ea44e"/>
     <use xlink:href="#m6fe32009ab" x="221.345307" y="9.125867" style="fill: #3ea44e; stroke: #3ea44e"/>
     <use xlink:href="#m6fe32009ab" x="239.918886" y="9.125867" style="fill: #3ea44e; stroke: #3ea44e"/>
    </g>
   </g>
   <g id="text_9">
    <!-- $ t_0 = $0.16 -->
    <g transform="translate(101.835866 161.557932) scale(0.14 -0.14)">
     <defs>
      <path id="DejaVuSans-Oblique-74" d="M 2706 3500 
L 2619 3053 
L 1472 3053 
L 1100 1153 
Q 1081 1047 1072 975 
Q 1063 903 1063 863 
Q 1063 663 1183 572 
Q 1303 481 1569 481 
L 2150 481 
L 2053 0 
L 1503 0 
Q 991 0 739 200 
Q 488 400 488 806 
Q 488 878 497 964 
Q 506 1050 525 1153 
L 897 3053 
L 409 3053 
L 500 3500 
L 978 3500 
L 1172 4494 
L 1747 4494 
L 1556 3500 
L 2706 3500 
z
" transform="scale(0.015625)"/>
      <path id="DejaVuSans-3d" d="M 678 2906 
L 4684 2906 
L 4684 2381 
L 678 2381 
L 678 2906 
z
M 678 1631 
L 4684 1631 
L 4684 1100 
L 678 1100 
L 678 1631 
z
" transform="scale(0.015625)"/>
     </defs>
     <use xlink:href="#DejaVuSans-Oblique-74" transform="translate(0 0.78125)"/>
     <use xlink:href="#DejaVuSans-30" transform="translate(39.208984 -15.625) scale(0.7)"/>
     <use xlink:href="#DejaVuSans-3d" transform="translate(105.961914 0.78125)"/>
     <use xlink:href="#DejaVuSans-30" transform="translate(209.233398 0.78125)"/>
     <use xlink:href="#DejaVuSans-2e" transform="translate(272.856445 0.78125)"/>
     <use xlink:href="#DejaVuSans-31" transform="translate(304.643555 0.78125)"/>
     <use xlink:href="#DejaVuSans-36" transform="translate(368.266602 0.78125)"/>
    </g>
   </g>
   <g id="text_10">
    <!-- $ t_0 = $0.2 -->
    <g transform="translate(103.615569 130.167688) scale(0.14 -0.14)">
     <use xlink:href="#DejaVuSans-Oblique-74" transform="translate(0 0.78125)"/>
     <use xlink:href="#DejaVuSans-30" transform="translate(39.208984 -15.625) scale(0.7)"/>
     <use xlink:href="#DejaVuSans-3d" transform="translate(105.961914 0.78125)"/>
     <use xlink:href="#DejaVuSans-30" transform="translate(209.233398 0.78125)"/>
     <use xlink:href="#DejaVuSans-2e" transform="translate(272.856445 0.78125)"/>
     <use xlink:href="#DejaVuSans-32" transform="translate(299.143555 0.78125)"/>
    </g>
   </g>
   <g id="text_11">
    <!-- $ t_0 = $0.3 -->
    <g transform="translate(103.73348 23.087112) scale(0.14 -0.14)">
     <use xlink:href="#DejaVuSans-Oblique-74" transform="translate(0 0.78125)"/>
     <use xlink:href="#DejaVuSans-30" transform="translate(39.208984 -15.625) scale(0.7)"/>
     <use xlink:href="#DejaVuSans-3d" transform="translate(105.961914 0.78125)"/>
     <use xlink:href="#DejaVuSans-30" transform="translate(209.233398 0.78125)"/>
     <use xlink:href="#DejaVuSans-2e" transform="translate(272.856445 0.78125)"/>
     <use xlink:href="#DejaVuSans-33" transform="translate(304.643555 0.78125)"/>
    </g>
   </g>
   <g id="legend_1">
    <g id="patch_7">
     <path d="M 147.480449 61.761583 
L 235.418886 61.761583 
L 235.418886 12.230646 
L 147.480449 12.230646 
L 147.480449 61.761583 
z
" style="fill: none; opacity: 0"/>
    </g>
    <g id="line2d_16">
     <path d="M 154.680449 23.119239 
L 163.680449 23.119239 
L 172.680449 23.119239 
" style="fill: none; stroke: #009afa; stroke-width: 1.125; stroke-linejoin: miter"/>
     <defs>
      <path id="m061fa284cf" d="M -3.6 3.6 
L 3.6 -3.6 
M -3.6 -3.6 
L 3.6 3.6 
" style="stroke: #009afa; stroke-width: 1.44"/>
     </defs>
     <g>
      <use xlink:href="#m061fa284cf" x="163.680449" y="23.119239" style="fill: #009afa; stroke: #009afa; stroke-width: 1.44"/>
     </g>
    </g>
    <g id="text_12">
     <!-- L=32 LLS -->
     <g transform="translate(179.880449 26.269239) scale(0.09 -0.09)">
      <defs>
       <path id="DejaVuSans-4c" d="M 628 4666 
L 1259 4666 
L 1259 531 
L 3531 531 
L 3531 0 
L 628 0 
L 628 4666 
z
" transform="scale(0.015625)"/>
       <path id="DejaVuSans-20" transform="scale(0.015625)"/>
       <path id="DejaVuSans-53" d="M 3425 4513 
L 3425 3897 
Q 3066 4069 2747 4153 
Q 2428 4238 2131 4238 
Q 1616 4238 1336 4038 
Q 1056 3838 1056 3469 
Q 1056 3159 1242 3001 
Q 1428 2844 1947 2747 
L 2328 2669 
Q 3034 2534 3370 2195 
Q 3706 1856 3706 1288 
Q 3706 609 3251 259 
Q 2797 -91 1919 -91 
Q 1588 -91 1214 -16 
Q 841 59 441 206 
L 441 856 
Q 825 641 1194 531 
Q 1563 422 1919 422 
Q 2459 422 2753 634 
Q 3047 847 3047 1241 
Q 3047 1584 2836 1778 
Q 2625 1972 2144 2069 
L 1759 2144 
Q 1053 2284 737 2584 
Q 422 2884 422 3419 
Q 422 4038 858 4394 
Q 1294 4750 2059 4750 
Q 2388 4750 2728 4690 
Q 3069 4631 3425 4513 
z
" transform="scale(0.015625)"/>
      </defs>
      <use xlink:href="#DejaVuSans-4c"/>
      <use xlink:href="#DejaVuSans-3d" x="55.712891"/>
      <use xlink:href="#DejaVuSans-33" x="139.501953"/>
      <use xlink:href="#DejaVuSans-32" x="203.125"/>
      <use xlink:href="#DejaVuSans-20" x="266.748047"/>
      <use xlink:href="#DejaVuSans-4c" x="298.535156"/>
      <use xlink:href="#DejaVuSans-4c" x="354.248047"/>
      <use xlink:href="#DejaVuSans-53" x="409.960938"/>
     </g>
    </g>
    <g id="line2d_17">
     <path d="M 154.680449 36.329552 
L 163.680449 36.329552 
L 172.680449 36.329552 
" style="fill: none; stroke: #e36f47; stroke-width: 1.125; stroke-linejoin: miter"/>
     <defs>
      <path id="mfec5762317" d="M -3.6 0 
L 3.6 0 
M 0 3.6 
L 0 -3.6 
" style="stroke: #e36f47; stroke-width: 1.44"/>
     </defs>
     <g>
      <use xlink:href="#mfec5762317" x="163.680449" y="36.329552" style="fill: #e36f47; stroke: #e36f47; stroke-width: 1.44"/>
     </g>
    </g>
    <g id="text_13">
     <!-- L=64 LLS -->
     <g transform="translate(179.880449 39.479552) scale(0.09 -0.09)">
      <defs>
       <path id="DejaVuSans-34" d="M 2419 4116 
L 825 1625 
L 2419 1625 
L 2419 4116 
z
M 2253 4666 
L 3047 4666 
L 3047 1625 
L 3713 1625 
L 3713 1100 
L 3047 1100 
L 3047 0 
L 2419 0 
L 2419 1100 
L 313 1100 
L 313 1709 
L 2253 4666 
z
" transform="scale(0.015625)"/>
      </defs>
      <use xlink:href="#DejaVuSans-4c"/>
      <use xlink:href="#DejaVuSans-3d" x="55.712891"/>
      <use xlink:href="#DejaVuSans-36" x="139.501953"/>
      <use xlink:href="#DejaVuSans-34" x="203.125"/>
      <use xlink:href="#DejaVuSans-20" x="266.748047"/>
      <use xlink:href="#DejaVuSans-4c" x="298.535156"/>
      <use xlink:href="#DejaVuSans-4c" x="354.248047"/>
      <use xlink:href="#DejaVuSans-53" x="409.960938"/>
     </g>
    </g>
    <g id="line2d_18">
     <path d="M 154.680449 49.539864 
L 163.680449 49.539864 
L 172.680449 49.539864 
" style="fill: none; stroke: #3ea44e; stroke-width: 1.125; stroke-linejoin: miter"/>
     <defs>
      <path id="mb6d4c51c81" d="M -3.6 3.6 
L 3.6 -3.6 
M -3.6 -3.6 
L 3.6 3.6 
" style="stroke: #3ea44e; stroke-width: 1.44"/>
     </defs>
     <g>
      <use xlink:href="#mb6d4c51c81" x="163.680449" y="49.539864" style="fill: #3ea44e; stroke: #3ea44e; stroke-width: 1.44"/>
     </g>
    </g>
    <g id="text_14">
     <!-- L=128 LLS -->
     <g transform="translate(179.880449 52.689864) scale(0.09 -0.09)">
      <defs>
       <path id="DejaVuSans-38" d="M 2034 2216 
Q 1584 2216 1326 1975 
Q 1069 1734 1069 1313 
Q 1069 891 1326 650 
Q 1584 409 2034 409 
Q 2484 409 2743 651 
Q 3003 894 3003 1313 
Q 3003 1734 2745 1975 
Q 2488 2216 2034 2216 
z
M 1403 2484 
Q 997 2584 770 2862 
Q 544 3141 544 3541 
Q 544 4100 942 4425 
Q 1341 4750 2034 4750 
Q 2731 4750 3128 4425 
Q 3525 4100 3525 3541 
Q 3525 3141 3298 2862 
Q 3072 2584 2669 2484 
Q 3125 2378 3379 2068 
Q 3634 1759 3634 1313 
Q 3634 634 3220 271 
Q 2806 -91 2034 -91 
Q 1263 -91 848 271 
Q 434 634 434 1313 
Q 434 1759 690 2068 
Q 947 2378 1403 2484 
z
M 1172 3481 
Q 1172 3119 1398 2916 
Q 1625 2713 2034 2713 
Q 2441 2713 2670 2916 
Q 2900 3119 2900 3481 
Q 2900 3844 2670 4047 
Q 2441 4250 2034 4250 
Q 1625 4250 1398 4047 
Q 1172 3844 1172 3481 
z
" transform="scale(0.015625)"/>
      </defs>
      <use xlink:href="#DejaVuSans-4c"/>
      <use xlink:href="#DejaVuSans-3d" x="55.712891"/>
      <use xlink:href="#DejaVuSans-31" x="139.501953"/>
      <use xlink:href="#DejaVuSans-32" x="203.125"/>
      <use xlink:href="#DejaVuSans-38" x="266.748047"/>
      <use xlink:href="#DejaVuSans-20" x="330.371094"/>
      <use xlink:href="#DejaVuSans-4c" x="362.158203"/>
      <use xlink:href="#DejaVuSans-4c" x="417.871094"/>
      <use xlink:href="#DejaVuSans-53" x="473.583984"/>
     </g>
    </g>
   </g>
  </g>
  <g id="axes_2">
   <g id="patch_8">
    <path d="M 305.843671 180.033354 
L 489.86976 180.033354 
L 489.86976 7.730646 
L 305.843671 7.730646 
z
" style="fill: #ffffff"/>
   </g>
   <g id="line2d_19">
    <path d="M 489.86976 156.45375 
L 489.565923 153.010337 
L 488.637995 150.405895 
L 487.289358 146.788093 
L 486.016589 142.934218 
L 484.122891 139.171352 
L 481.661275 133.932447 
L 479.240951 129.870783 
L 475.904673 125.372653 
L 473.128676 120.890626 
L 469.73262 116.944087 
L 466.521249 112.600439 
L 463.202941 107.96082 
L 460.133081 103.35998 
L 456.963665 98.533589 
L 454.195807 93.907995 
L 450.620459 88.913878 
L 448.03302 84.375673 
L 445.652605 80.123473 
L 443.177631 76.741964 
L 441.210651 72.924284 
L 437.290971 61.018126 
L 435.23051 49.751802 
L 429.890675 35.802839 
L 417.016106 15.349687 
L 415.431767 7.730646 
" clip-path="url(#p7193cfe136)" style="fill: none; stroke: #009afa"/>
   </g>
   <g id="PathCollection_4">
    <g clip-path="url(#p7193cfe136)">
     <use xlink:href="#mfa791d4c96" x="489.86976" y="156.45375" style="fill: #009afa; stroke: #009afa"/>
     <use xlink:href="#mfa791d4c96" x="489.565923" y="153.010337" style="fill: #009afa; stroke: #009afa"/>
     <use xlink:href="#mfa791d4c96" x="488.637995" y="150.405895" style="fill: #009afa; stroke: #009afa"/>
     <use xlink:href="#mfa791d4c96" x="487.289358" y="146.788093" style="fill: #009afa; stroke: #009afa"/>
     <use xlink:href="#mfa791d4c96" x="486.016589" y="142.934218" style="fill: #009afa; stroke: #009afa"/>
     <use xlink:href="#mfa791d4c96" x="484.122891" y="139.171352" style="fill: #009afa; stroke: #009afa"/>
     <use xlink:href="#mfa791d4c96" x="481.661275" y="133.932447" style="fill: #009afa; stroke: #009afa"/>
     <use xlink:href="#mfa791d4c96" x="479.240951" y="129.870783" style="fill: #009afa; stroke: #009afa"/>
     <use xlink:href="#mfa791d4c96" x="475.904673" y="125.372653" style="fill: #009afa; stroke: #009afa"/>
     <use xlink:href="#mfa791d4c96" x="473.128676" y="120.890626" style="fill: #009afa; stroke: #009afa"/>
     <use xlink:href="#mfa791d4c96" x="469.73262" y="116.944087" style="fill: #009afa; stroke: #009afa"/>
     <use xlink:href="#mfa791d4c96" x="466.521249" y="112.600439" style="fill: #009afa; stroke: #009afa"/>
     <use xlink:href="#mfa791d4c96" x="463.202941" y="107.96082" style="fill: #009afa; stroke: #009afa"/>
     <use xlink:href="#mfa791d4c96" x="460.133081" y="103.35998" style="fill: #009afa; stroke: #009afa"/>
     <use xlink:href="#mfa791d4c96" x="456.963665" y="98.533589" style="fill: #009afa; stroke: #009afa"/>
     <use xlink:href="#mfa791d4c96" x="454.195807" y="93.907995" style="fill: #009afa; stroke: #009afa"/>
     <use xlink:href="#mfa791d4c96" x="450.620459" y="88.913878" style="fill: #009afa; stroke: #009afa"/>
     <use xlink:href="#mfa791d4c96" x="448.03302" y="84.375673" style="fill: #009afa; stroke: #009afa"/>
     <use xlink:href="#mfa791d4c96" x="445.652605" y="80.123473" style="fill: #009afa; stroke: #009afa"/>
     <use xlink:href="#mfa791d4c96" x="443.177631" y="76.741964" style="fill: #009afa; stroke: #009afa"/>
     <use xlink:href="#mfa791d4c96" x="441.210651" y="72.924284" style="fill: #009afa; stroke: #009afa"/>
     <use xlink:href="#mfa791d4c96" x="437.290971" y="61.018126" style="fill: #009afa; stroke: #009afa"/>
     <use xlink:href="#mfa791d4c96" x="435.23051" y="49.751802" style="fill: #009afa; stroke: #009afa"/>
     <use xlink:href="#mfa791d4c96" x="429.890675" y="35.802839" style="fill: #009afa; stroke: #009afa"/>
     <use xlink:href="#mfa791d4c96" x="417.016106" y="15.349687" style="fill: #009afa; stroke: #009afa"/>
     <use xlink:href="#mfa791d4c96" x="415.431767" y="7.730646" style="fill: #009afa; stroke: #009afa"/>
    </g>
   </g>
   <g id="matplotlib.axis_3">
    <g id="xtick_3">
     <g id="line2d_20">
      <g>
       <use xlink:href="#m146f6e6602" x="374.550029" y="180.033354" style="stroke: #000000; stroke-width: 0.5"/>
      </g>
     </g>
     <g id="line2d_21">
      <g>
       <use xlink:href="#m71202ede71" x="374.550029" y="7.730646" style="stroke: #000000; stroke-width: 0.5"/>
      </g>
     </g>
     <g id="text_15">
      <!-- $10^{-0.5}$ -->
      <g transform="translate(361.005029 190.371948) scale(0.09 -0.09)">
       <defs>
        <path id="DejaVuSans-35" d="M 691 4666 
L 3169 4666 
L 3169 4134 
L 1269 4134 
L 1269 2991 
Q 1406 3038 1543 3061 
Q 1681 3084 1819 3084 
Q 2600 3084 3056 2656 
Q 3513 2228 3513 1497 
Q 3513 744 3044 326 
Q 2575 -91 1722 -91 
Q 1428 -91 1123 -41 
Q 819 9 494 109 
L 494 744 
Q 775 591 1075 516 
Q 1375 441 1709 441 
Q 2250 441 2565 725 
Q 2881 1009 2881 1497 
Q 2881 1984 2565 2268 
Q 2250 2553 1709 2553 
Q 1456 2553 1204 2497 
Q 953 2441 691 2322 
L 691 4666 
z
" transform="scale(0.015625)"/>
       </defs>
       <use xlink:href="#DejaVuSans-31" transform="translate(0 0.765625)"/>
       <use xlink:href="#DejaVuSans-30" transform="translate(63.623047 0.765625)"/>
       <use xlink:href="#DejaVuSans-2212" transform="translate(128.203125 39.046875) scale(0.7)"/>
       <use xlink:href="#DejaVuSans-30" transform="translate(186.855469 39.046875) scale(0.7)"/>
       <use xlink:href="#DejaVuSans-2e" transform="translate(231.391602 39.046875) scale(0.7)"/>
       <use xlink:href="#DejaVuSans-35" transform="translate(253.642578 39.046875) scale(0.7)"/>
      </g>
     </g>
    </g>
    <g id="xtick_4">
     <g id="line2d_22">
      <g>
       <use xlink:href="#m146f6e6602" x="489.86976" y="180.033354" style="stroke: #000000; stroke-width: 0.5"/>
      </g>
     </g>
     <g id="line2d_23">
      <g>
       <use xlink:href="#m71202ede71" x="489.86976" y="7.730646" style="stroke: #000000; stroke-width: 0.5"/>
      </g>
     </g>
     <g id="text_16">
      <!-- $10^{0.0}$ -->
      <g transform="translate(478.93476 190.371948) scale(0.09 -0.09)">
       <use xlink:href="#DejaVuSans-31" transform="translate(0 0.765625)"/>
       <use xlink:href="#DejaVuSans-30" transform="translate(63.623047 0.765625)"/>
       <use xlink:href="#DejaVuSans-30" transform="translate(128.203125 39.046875) scale(0.7)"/>
       <use xlink:href="#DejaVuSans-2e" transform="translate(172.739258 39.046875) scale(0.7)"/>
       <use xlink:href="#DejaVuSans-30" transform="translate(194.990234 39.046875) scale(0.7)"/>
      </g>
     </g>
    </g>
    <g id="text_17">
     <!-- log$(σ)$ -->
     <g transform="translate(380.216716 205.363667) scale(0.12 -0.12)">
      <use xlink:href="#DejaVuSans-6c" transform="translate(0 0.015625)"/>
      <use xlink:href="#DejaVuSans-6f" transform="translate(27.783203 0.015625)"/>
      <use xlink:href="#DejaVuSans-67" transform="translate(88.964844 0.015625)"/>
      <use xlink:href="#DejaVuSans-28" transform="translate(152.441406 0.015625)"/>
      <use xlink:href="#DejaVuSans-Oblique-3c3" transform="translate(191.455078 0.015625)"/>
      <use xlink:href="#DejaVuSans-29" transform="translate(254.833984 0.015625)"/>
     </g>
    </g>
   </g>
   <g id="matplotlib.axis_4">
    <g id="ytick_5">
     <g id="line2d_24">
      <g>
       <use xlink:href="#m608352fabd" x="305.843671" y="102.201838" style="stroke: #000000; stroke-width: 0.5"/>
      </g>
     </g>
     <g id="line2d_25">
      <g>
       <use xlink:href="#m6275b1a543" x="489.86976" y="102.201838" style="stroke: #000000; stroke-width: 0.5"/>
      </g>
     </g>
     <g id="text_18">
      <!-- $10^{-0.3}$ -->
      <g transform="translate(275.253671 105.621135) scale(0.09 -0.09)">
       <use xlink:href="#DejaVuSans-31" transform="translate(0 0.765625)"/>
       <use xlink:href="#DejaVuSans-30" transform="translate(63.623047 0.765625)"/>
       <use xlink:href="#DejaVuSans-2212" transform="translate(128.203125 39.046875) scale(0.7)"/>
       <use xlink:href="#DejaVuSans-30" transform="translate(186.855469 39.046875) scale(0.7)"/>
       <use xlink:href="#DejaVuSans-2e" transform="translate(231.391602 39.046875) scale(0.7)"/>
       <use xlink:href="#DejaVuSans-33" transform="translate(253.642578 39.046875) scale(0.7)"/>
      </g>
     </g>
    </g>
    <g id="ytick_6">
     <g id="line2d_26">
      <g>
       <use xlink:href="#m608352fabd" x="305.843671" y="7.730646" style="stroke: #000000; stroke-width: 0.5"/>
      </g>
     </g>
     <g id="line2d_27">
      <g>
       <use xlink:href="#m6275b1a543" x="489.86976" y="7.730646" style="stroke: #000000; stroke-width: 0.5"/>
      </g>
     </g>
     <g id="text_19">
      <!-- $10^{0.0}$ -->
      <g transform="translate(280.473671 11.149943) scale(0.09 -0.09)">
       <use xlink:href="#DejaVuSans-31" transform="translate(0 0.765625)"/>
       <use xlink:href="#DejaVuSans-30" transform="translate(63.623047 0.765625)"/>
       <use xlink:href="#DejaVuSans-30" transform="translate(128.203125 39.046875) scale(0.7)"/>
       <use xlink:href="#DejaVuSans-2e" transform="translate(172.739258 39.046875) scale(0.7)"/>
       <use xlink:href="#DejaVuSans-30" transform="translate(194.990234 39.046875) scale(0.7)"/>
      </g>
     </g>
    </g>
    <g id="text_20">
     <!-- log$(s_{\mathrm{max}}/N)$ -->
     <g transform="translate(268.733671 126.702) rotate(-90) scale(0.12 -0.12)">
      <use xlink:href="#DejaVuSans-6c" transform="translate(0 0.015625)"/>
      <use xlink:href="#DejaVuSans-6f" transform="translate(27.783203 0.015625)"/>
      <use xlink:href="#DejaVuSans-67" transform="translate(88.964844 0.015625)"/>
      <use xlink:href="#DejaVuSans-28" transform="translate(152.441406 0.015625)"/>
      <use xlink:href="#DejaVuSans-Oblique-73" transform="translate(191.455078 0.015625)"/>
      <use xlink:href="#DejaVuSans-6d" transform="translate(243.554688 -16.390625) scale(0.7)"/>
      <use xlink:href="#DejaVuSans-61" transform="translate(311.743164 -16.390625) scale(0.7)"/>
      <use xlink:href="#DejaVuSans-78" transform="translate(354.638672 -16.390625) scale(0.7)"/>
      <use xlink:href="#DejaVuSans-2f" transform="translate(398.798828 0.015625)"/>
      <use xlink:href="#DejaVuSans-Oblique-4e" transform="translate(432.490234 0.015625)"/>
      <use xlink:href="#DejaVuSans-29" transform="translate(507.294922 0.015625)"/>
     </g>
    </g>
   </g>
   <g id="line2d_28">
    <path d="M 489.86976 170.258043 
L 487.404865 165.837911 
L 483.867453 161.19512 
L 480.437016 155.600323 
L 475.715497 151.144519 
L 470.276648 145.869417 
L 464.556683 140.717637 
L 458.972642 135.428128 
L 453.108991 130.721667 
L 448.089005 125.293689 
L 443.831026 120.971818 
L 438.066201 115.501382 
L 432.687527 110.204388 
L 427.067828 104.940279 
L 421.01351 99.810685 
L 415.441141 94.235125 
L 410.30941 89.617294 
L 407.404847 85.950154 
L 403.590183 82.192376 
L 402.156128 80.175173 
L 401.015575 77.959397 
L 398.447043 67.992198 
L 393.879089 56.960191 
L 384.443139 42.265787 
L 368.036083 20.885615 
L 360.107903 7.730646 
" clip-path="url(#p7193cfe136)" style="fill: none; stroke: #e36f47"/>
   </g>
   <g id="PathCollection_5">
    <g clip-path="url(#p7193cfe136)">
     <use xlink:href="#m40ab6f0c81" x="489.86976" y="170.258043" style="fill: #e36f47; stroke: #e36f47"/>
     <use xlink:href="#m40ab6f0c81" x="487.404865" y="165.837911" style="fill: #e36f47; stroke: #e36f47"/>
     <use xlink:href="#m40ab6f0c81" x="483.867453" y="161.19512" style="fill: #e36f47; stroke: #e36f47"/>
     <use xlink:href="#m40ab6f0c81" x="480.437016" y="155.600323" style="fill: #e36f47; stroke: #e36f47"/>
     <use xlink:href="#m40ab6f0c81" x="475.715497" y="151.144519" style="fill: #e36f47; stroke: #e36f47"/>
     <use xlink:href="#m40ab6f0c81" x="470.276648" y="145.869417" style="fill: #e36f47; stroke: #e36f47"/>
     <use xlink:href="#m40ab6f0c81" x="464.556683" y="140.717637" style="fill: #e36f47; stroke: #e36f47"/>
     <use xlink:href="#m40ab6f0c81" x="458.972642" y="135.428128" style="fill: #e36f47; stroke: #e36f47"/>
     <use xlink:href="#m40ab6f0c81" x="453.108991" y="130.721667" style="fill: #e36f47; stroke: #e36f47"/>
     <use xlink:href="#m40ab6f0c81" x="448.089005" y="125.293689" style="fill: #e36f47; stroke: #e36f47"/>
     <use xlink:href="#m40ab6f0c81" x="443.831026" y="120.971818" style="fill: #e36f47; stroke: #e36f47"/>
     <use xlink:href="#m40ab6f0c81" x="438.066201" y="115.501382" style="fill: #e36f47; stroke: #e36f47"/>
     <use xlink:href="#m40ab6f0c81" x="432.687527" y="110.204388" style="fill: #e36f47; stroke: #e36f47"/>
     <use xlink:href="#m40ab6f0c81" x="427.067828" y="104.940279" style="fill: #e36f47; stroke: #e36f47"/>
     <use xlink:href="#m40ab6f0c81" x="421.01351" y="99.810685" style="fill: #e36f47; stroke: #e36f47"/>
     <use xlink:href="#m40ab6f0c81" x="415.441141" y="94.235125" style="fill: #e36f47; stroke: #e36f47"/>
     <use xlink:href="#m40ab6f0c81" x="410.30941" y="89.617294" style="fill: #e36f47; stroke: #e36f47"/>
     <use xlink:href="#m40ab6f0c81" x="407.404847" y="85.950154" style="fill: #e36f47; stroke: #e36f47"/>
     <use xlink:href="#m40ab6f0c81" x="403.590183" y="82.192376" style="fill: #e36f47; stroke: #e36f47"/>
     <use xlink:href="#m40ab6f0c81" x="402.156128" y="80.175173" style="fill: #e36f47; stroke: #e36f47"/>
     <use xlink:href="#m40ab6f0c81" x="401.015575" y="77.959397" style="fill: #e36f47; stroke: #e36f47"/>
     <use xlink:href="#m40ab6f0c81" x="398.447043" y="67.992198" style="fill: #e36f47; stroke: #e36f47"/>
     <use xlink:href="#m40ab6f0c81" x="393.879089" y="56.960191" style="fill: #e36f47; stroke: #e36f47"/>
     <use xlink:href="#m40ab6f0c81" x="384.443139" y="42.265787" style="fill: #e36f47; stroke: #e36f47"/>
     <use xlink:href="#m40ab6f0c81" x="368.036083" y="20.885615" style="fill: #e36f47; stroke: #e36f47"/>
     <use xlink:href="#m40ab6f0c81" x="360.107903" y="7.730646" style="fill: #e36f47; stroke: #e36f47"/>
    </g>
   </g>
   <g id="patch_9">
    <path d="M 305.843671 180.033354 
L 305.843671 7.730646 
" style="fill: none; stroke: #000000; stroke-linejoin: miter; stroke-linecap: square"/>
   </g>
   <g id="patch_10">
    <path d="M 489.86976 180.033354 
L 489.86976 7.730646 
" style="fill: none; stroke: #000000; stroke-linejoin: miter; stroke-linecap: square"/>
   </g>
   <g id="patch_11">
    <path d="M 305.843671 180.033354 
L 489.86976 180.033354 
" style="fill: none; stroke: #000000; stroke-linejoin: miter; stroke-linecap: square"/>
   </g>
   <g id="patch_12">
    <path d="M 305.843671 7.730646 
L 489.86976 7.730646 
" style="fill: none; stroke: #000000; stroke-linejoin: miter; stroke-linecap: square"/>
   </g>
   <g id="line2d_29">
    <path d="M 489.86976 180.033354 
L 485.614144 174.383912 
L 478.408307 167.574402 
L 472.352478 162.331742 
L 463.1474 157.140542 
L 455.727628 150.68459 
L 449.051609 146.139837 
L 443.31476 141.899391 
L 437.367344 137.451756 
L 429.236849 131.475446 
L 421.481829 126.382977 
L 413.546622 121.859855 
L 404.96246 116.405221 
L 396.411062 110.813493 
L 388.641424 104.854089 
L 382.652671 101.241871 
L 376.7103 97.446922 
L 372.942202 94.789828 
L 372.702605 92.076572 
L 372.313085 89.785522 
L 371.731114 88.570825 
L 367.407586 79.585883 
L 357.923548 66.923799 
L 343.039535 50.967221 
L 321.665353 28.449521 
L 305.843671 7.730646 
" clip-path="url(#p7193cfe136)" style="fill: none; stroke: #3ea44e"/>
   </g>
   <g id="PathCollection_6">
    <g clip-path="url(#p7193cfe136)">
     <use xlink:href="#m6fe32009ab" x="489.86976" y="180.033354" style="fill: #3ea44e; stroke: #3ea44e"/>
     <use xlink:href="#m6fe32009ab" x="485.614144" y="174.383912" style="fill: #3ea44e; stroke: #3ea44e"/>
     <use xlink:href="#m6fe32009ab" x="478.408307" y="167.574402" style="fill: #3ea44e; stroke: #3ea44e"/>
     <use xlink:href="#m6fe32009ab" x="472.352478" y="162.331742" style="fill: #3ea44e; stroke: #3ea44e"/>
     <use xlink:href="#m6fe32009ab" x="463.1474" y="157.140542" style="fill: #3ea44e; stroke: #3ea44e"/>
     <use xlink:href="#m6fe32009ab" x="455.727628" y="150.68459" style="fill: #3ea44e; stroke: #3ea44e"/>
     <use xlink:href="#m6fe32009ab" x="449.051609" y="146.139837" style="fill: #3ea44e; stroke: #3ea44e"/>
     <use xlink:href="#m6fe32009ab" x="443.31476" y="141.899391" style="fill: #3ea44e; stroke: #3ea44e"/>
     <use xlink:href="#m6fe32009ab" x="437.367344" y="137.451756" style="fill: #3ea44e; stroke: #3ea44e"/>
     <use xlink:href="#m6fe32009ab" x="429.236849" y="131.475446" style="fill: #3ea44e; stroke: #3ea44e"/>
     <use xlink:href="#m6fe32009ab" x="421.481829" y="126.382977" style="fill: #3ea44e; stroke: #3ea44e"/>
     <use xlink:href="#m6fe32009ab" x="413.546622" y="121.859855" style="fill: #3ea44e; stroke: #3ea44e"/>
     <use xlink:href="#m6fe32009ab" x="404.96246" y="116.405221" style="fill: #3ea44e; stroke: #3ea44e"/>
     <use xlink:href="#m6fe32009ab" x="396.411062" y="110.813493" style="fill: #3ea44e; stroke: #3ea44e"/>
     <use xlink:href="#m6fe32009ab" x="388.641424" y="104.854089" style="fill: #3ea44e; stroke: #3ea44e"/>
     <use xlink:href="#m6fe32009ab" x="382.652671" y="101.241871" style="fill: #3ea44e; stroke: #3ea44e"/>
     <use xlink:href="#m6fe32009ab" x="376.7103" y="97.446922" style="fill: #3ea44e; stroke: #3ea44e"/>
     <use xlink:href="#m6fe32009ab" x="372.942202" y="94.789828" style="fill: #3ea44e; stroke: #3ea44e"/>
     <use xlink:href="#m6fe32009ab" x="372.702605" y="92.076572" style="fill: #3ea44e; stroke: #3ea44e"/>
     <use xlink:href="#m6fe32009ab" x="372.313085" y="89.785522" style="fill: #3ea44e; stroke: #3ea44e"/>
     <use xlink:href="#m6fe32009ab" x="371.731114" y="88.570825" style="fill: #3ea44e; stroke: #3ea44e"/>
     <use xlink:href="#m6fe32009ab" x="367.407586" y="79.585883" style="fill: #3ea44e; stroke: #3ea44e"/>
     <use xlink:href="#m6fe32009ab" x="357.923548" y="66.923799" style="fill: #3ea44e; stroke: #3ea44e"/>
     <use xlink:href="#m6fe32009ab" x="343.039535" y="50.967221" style="fill: #3ea44e; stroke: #3ea44e"/>
     <use xlink:href="#m6fe32009ab" x="321.665353" y="28.449521" style="fill: #3ea44e; stroke: #3ea44e"/>
     <use xlink:href="#m6fe32009ab" x="305.843671" y="7.730646" style="fill: #3ea44e; stroke: #3ea44e"/>
    </g>
   </g>
   <g id="text_21">
    <!-- $ t_0 = $0.1 -->
    <g transform="translate(404.067628 161.322402) scale(0.14 -0.14)">
     <use xlink:href="#DejaVuSans-Oblique-74" transform="translate(0 0.78125)"/>
     <use xlink:href="#DejaVuSans-30" transform="translate(39.208984 -15.625) scale(0.7)"/>
     <use xlink:href="#DejaVuSans-3d" transform="translate(105.961914 0.78125)"/>
     <use xlink:href="#DejaVuSans-30" transform="translate(209.233398 0.78125)"/>
     <use xlink:href="#DejaVuSans-2e" transform="translate(272.856445 0.78125)"/>
     <use xlink:href="#DejaVuSans-31" transform="translate(304.643555 0.78125)"/>
    </g>
   </g>
   <g id="text_22">
    <!-- $ t_0 = $0.3 -->
    <g transform="translate(330.992671 111.879683) scale(0.14 -0.14)">
     <use xlink:href="#DejaVuSans-Oblique-74" transform="translate(0 0.78125)"/>
     <use xlink:href="#DejaVuSans-30" transform="translate(39.208984 -15.625) scale(0.7)"/>
     <use xlink:href="#DejaVuSans-3d" transform="translate(105.961914 0.78125)"/>
     <use xlink:href="#DejaVuSans-30" transform="translate(209.233398 0.78125)"/>
     <use xlink:href="#DejaVuSans-2e" transform="translate(272.856445 0.78125)"/>
     <use xlink:href="#DejaVuSans-33" transform="translate(304.643555 0.78125)"/>
    </g>
   </g>
   <g id="text_23">
    <!-- $ t_0 = $0.5 -->
    <g transform="translate(315.747586 90.223696) scale(0.14 -0.14)">
     <use xlink:href="#DejaVuSans-Oblique-74" transform="translate(0 0.78125)"/>
     <use xlink:href="#DejaVuSans-30" transform="translate(39.208984 -15.625) scale(0.7)"/>
     <use xlink:href="#DejaVuSans-3d" transform="translate(105.961914 0.78125)"/>
     <use xlink:href="#DejaVuSans-30" transform="translate(209.233398 0.78125)"/>
     <use xlink:href="#DejaVuSans-2e" transform="translate(272.856445 0.78125)"/>
     <use xlink:href="#DejaVuSans-35" transform="translate(304.643555 0.78125)"/>
    </g>
   </g>
   <g id="legend_2">
    <g id="patch_13">
     <path d="M 310.343671 175.533354 
L 399.551952 175.533354 
L 399.551952 126.002417 
L 310.343671 126.002417 
L 310.343671 175.533354 
z
" style="fill: none; opacity: 0"/>
    </g>
    <g id="line2d_30">
     <path d="M 317.543671 136.891011 
L 326.543671 136.891011 
L 335.543671 136.891011 
" style="fill: none; stroke: #009afa; stroke-width: 1.125; stroke-linejoin: miter"/>
     <g>
      <use xlink:href="#m061fa284cf" x="326.543671" y="136.891011" style="fill: #009afa; stroke: #009afa; stroke-width: 1.44"/>
     </g>
    </g>
    <g id="text_24">
     <!-- L=32 CLS -->
     <g transform="translate(342.743671 140.041011) scale(0.09 -0.09)">
      <defs>
       <path id="DejaVuSans-43" d="M 4122 4306 
L 4122 3641 
Q 3803 3938 3442 4084 
Q 3081 4231 2675 4231 
Q 1875 4231 1450 3742 
Q 1025 3253 1025 2328 
Q 1025 1406 1450 917 
Q 1875 428 2675 428 
Q 3081 428 3442 575 
Q 3803 722 4122 1019 
L 4122 359 
Q 3791 134 3420 21 
Q 3050 -91 2638 -91 
Q 1578 -91 968 557 
Q 359 1206 359 2328 
Q 359 3453 968 4101 
Q 1578 4750 2638 4750 
Q 3056 4750 3426 4639 
Q 3797 4528 4122 4306 
z
" transform="scale(0.015625)"/>
      </defs>
      <use xlink:href="#DejaVuSans-4c"/>
      <use xlink:href="#DejaVuSans-3d" x="55.712891"/>
      <use xlink:href="#DejaVuSans-33" x="139.501953"/>
      <use xlink:href="#DejaVuSans-32" x="203.125"/>
      <use xlink:href="#DejaVuSans-20" x="266.748047"/>
      <use xlink:href="#DejaVuSans-43" x="298.535156"/>
      <use xlink:href="#DejaVuSans-4c" x="368.359375"/>
      <use xlink:href="#DejaVuSans-53" x="424.072266"/>
     </g>
    </g>
    <g id="line2d_31">
     <path d="M 317.543671 150.101323 
L 326.543671 150.101323 
L 335.543671 150.101323 
" style="fill: none; stroke: #e36f47; stroke-width: 1.125; stroke-linejoin: miter"/>
     <g>
      <use xlink:href="#mfec5762317" x="326.543671" y="150.101323" style="fill: #e36f47; stroke: #e36f47; stroke-width: 1.44"/>
     </g>
    </g>
    <g id="text_25">
     <!-- L=64 CLS -->
     <g transform="translate(342.743671 153.251323) scale(0.09 -0.09)">
      <use xlink:href="#DejaVuSans-4c"/>
      <use xlink:href="#DejaVuSans-3d" x="55.712891"/>
      <use xlink:href="#DejaVuSans-36" x="139.501953"/>
      <use xlink:href="#DejaVuSans-34" x="203.125"/>
      <use xlink:href="#DejaVuSans-20" x="266.748047"/>
      <use xlink:href="#DejaVuSans-43" x="298.535156"/>
      <use xlink:href="#DejaVuSans-4c" x="368.359375"/>
      <use xlink:href="#DejaVuSans-53" x="424.072266"/>
     </g>
    </g>
    <g id="line2d_32">
     <path d="M 317.543671 163.311636 
L 326.543671 163.311636 
L 335.543671 163.311636 
" style="fill: none; stroke: #3ea44e; stroke-width: 1.125; stroke-linejoin: miter"/>
     <g>
      <use xlink:href="#mb6d4c51c81" x="326.543671" y="163.311636" style="fill: #3ea44e; stroke: #3ea44e; stroke-width: 1.44"/>
     </g>
    </g>
    <g id="text_26">
     <!-- L=128 CLS -->
     <g transform="translate(342.743671 166.461636) scale(0.09 -0.09)">
      <use xlink:href="#DejaVuSans-4c"/>
      <use xlink:href="#DejaVuSans-3d" x="55.712891"/>
      <use xlink:href="#DejaVuSans-31" x="139.501953"/>
      <use xlink:href="#DejaVuSans-32" x="203.125"/>
      <use xlink:href="#DejaVuSans-38" x="266.748047"/>
      <use xlink:href="#DejaVuSans-20" x="330.371094"/>
      <use xlink:href="#DejaVuSans-43" x="362.158203"/>
      <use xlink:href="#DejaVuSans-4c" x="431.982422"/>
      <use xlink:href="#DejaVuSans-53" x="487.695312"/>
     </g>
    </g>
   </g>
  </g>
 </g>
 <defs>
  <clipPath id="p4d149aa651">
   <rect x="55.892797" y="7.730646" width="184.026089" height="172.302709"/>
  </clipPath>
  <clipPath id="p7193cfe136">
   <rect x="305.843671" y="7.730646" width="184.026089" height="172.302709"/>
  </clipPath>
 </defs>
</svg>
