<?xml version="1.0" encoding="utf-8" standalone="no"?>
<!DOCTYPE svg PUBLIC "-//W3C//DTD SVG 1.1//EN"
  "http://www.w3.org/Graphics/SVG/1.1/DTD/svg11.dtd">
<svg xmlns:xlink="http://www.w3.org/1999/xlink" width="504pt" height="216pt" viewBox="0 0 504 216" xmlns="http://www.w3.org/2000/svg" version="1.1">
 <metadata>
  <rdf:RDF xmlns:dc="http://purl.org/dc/elements/1.1/" xmlns:cc="http://creativecommons.org/ns#" xmlns:rdf="http://www.w3.org/1999/02/22-rdf-syntax-ns#">
   <cc:Work>
    <dc:type rdf:resource="http://purl.org/dc/dcmitype/StillImage"/>
    <dc:date>2023-02-08T10:36:31.319514</dc:date>
    <dc:format>image/svg+xml</dc:format>
    <dc:creator>
     <cc:Agent>
      <dc:title>Matplotlib v3.6.3, https://matplotlib.org/</dc:title>
     </cc:Agent>
    </dc:creator>
   </cc:Work>
  </rdf:RDF>
 </metadata>
 <defs>
  <style type="text/css">*{stroke-linejoin: round; stroke-linecap: butt}</style>
 </defs>
 <g id="figure_1">
  <g id="patch_1">
   <path d="M 0 216 
L 504 216 
L 504 0 
L 0 0 
z
" style="fill: #ffffff"/>
  </g>
  <g id="axes_1">
   <g id="patch_2">
    <path d="M 55.892797 180.033354 
L 249.165354 180.033354 
L 249.165354 2.834646 
L 55.892797 2.834646 
z
" style="fill: #ffffff"/>
   </g>
   <g id="PathCollection_1">
    <defs>
     <path id="m2f3d53520b" d="M -2.5 2.5 
L 2.5 -2.5 
M -2.5 -2.5 
L 2.5 2.5 
" style="stroke: #009afa"/>
    </defs>
    <g clip-path="url(#pc024cc413f)">
     <use xlink:href="#m2f3d53520b" x="55.892797" y="174.903754" style="fill: #009afa; stroke: #009afa"/>
     <use xlink:href="#m2f3d53520b" x="60.36273" y="178.374336" style="fill: #009afa; stroke: #009afa"/>
     <use xlink:href="#m2f3d53520b" x="65.71304" y="179.946774" style="fill: #009afa; stroke: #009afa"/>
     <use xlink:href="#m2f3d53520b" x="68.917572" y="180.033354" style="fill: #009afa; stroke: #009afa"/>
     <use xlink:href="#m2f3d53520b" x="72.359869" y="179.358417" style="fill: #009afa; stroke: #009afa"/>
     <use xlink:href="#m2f3d53520b" x="78.258838" y="178.178241" style="fill: #009afa; stroke: #009afa"/>
     <use xlink:href="#m2f3d53520b" x="81.087216" y="175.179964" style="fill: #009afa; stroke: #009afa"/>
     <use xlink:href="#m2f3d53520b" x="82.641236" y="167.818527" style="fill: #009afa; stroke: #009afa"/>
     <use xlink:href="#m2f3d53520b" x="85.884151" y="164.027246" style="fill: #009afa; stroke: #009afa"/>
     <use xlink:href="#m2f3d53520b" x="88.231562" y="146.000246" style="fill: #009afa; stroke: #009afa"/>
     <use xlink:href="#m2f3d53520b" x="87.988624" y="131.745045" style="fill: #009afa; stroke: #009afa"/>
     <use xlink:href="#m2f3d53520b" x="88.078686" y="111.428404" style="fill: #009afa; stroke: #009afa"/>
     <use xlink:href="#m2f3d53520b" x="87.59486" y="82.159811" style="fill: #009afa; stroke: #009afa"/>
     <use xlink:href="#m2f3d53520b" x="90.061163" y="65.40724" style="fill: #009afa; stroke: #009afa"/>
     <use xlink:href="#m2f3d53520b" x="88.030796" y="39.023536" style="fill: #009afa; stroke: #009afa"/>
     <use xlink:href="#m2f3d53520b" x="88.128052" y="21.621763" style="fill: #009afa; stroke: #009afa"/>
     <use xlink:href="#m2f3d53520b" x="90.21577" y="10.784178" style="fill: #009afa; stroke: #009afa"/>
     <use xlink:href="#m2f3d53520b" x="95.699589" y="3.257517" style="fill: #009afa; stroke: #009afa"/>
     <use xlink:href="#m2f3d53520b" x="103.314436" y="5.035295" style="fill: #009afa; stroke: #009afa"/>
     <use xlink:href="#m2f3d53520b" x="108.673909" y="2.834646" style="fill: #009afa; stroke: #009afa"/>
     <use xlink:href="#m2f3d53520b" x="117.798895" y="5.205059" style="fill: #009afa; stroke: #009afa"/>
     <use xlink:href="#m2f3d53520b" x="148.91351" y="3.156972" style="fill: #009afa; stroke: #009afa"/>
     <use xlink:href="#m2f3d53520b" x="177.26422" y="3.493916" style="fill: #009afa; stroke: #009afa"/>
     <use xlink:href="#m2f3d53520b" x="203.264301" y="4.00114" style="fill: #009afa; stroke: #009afa"/>
     <use xlink:href="#m2f3d53520b" x="227.202362" y="4.269513" style="fill: #009afa; stroke: #009afa"/>
     <use xlink:href="#m2f3d53520b" x="249.165354" y="4.269513" style="fill: #009afa; stroke: #009afa"/>
    </g>
   </g>
   <g id="matplotlib.axis_1">
    <g id="xtick_1">
     <g id="line2d_1">
      <defs>
       <path id="m8f293cdc52" d="M 0 0 
L 0 -2.5 
" style="stroke: #000000; stroke-width: 0.5"/>
      </defs>
      <g>
       <use xlink:href="#m8f293cdc52" x="66.0792" y="180.033354" style="stroke: #000000; stroke-width: 0.5"/>
      </g>
     </g>
     <g id="line2d_2">
      <defs>
       <path id="m7a082a19fa" d="M 0 0 
L 0 2.5 
" style="stroke: #000000; stroke-width: 0.5"/>
      </defs>
      <g>
       <use xlink:href="#m7a082a19fa" x="66.0792" y="2.834646" style="stroke: #000000; stroke-width: 0.5"/>
      </g>
     </g>
     <g id="text_1">
      <!-- $10^{-4.9}$ -->
      <g transform="translate(52.5342 190.371948) scale(0.09 -0.09)">
       <defs>
        <path id="DejaVuSans-31" d="M 794 531 
L 1825 531 
L 1825 4091 
L 703 3866 
L 703 4441 
L 1819 4666 
L 2450 4666 
L 2450 531 
L 3481 531 
L 3481 0 
L 794 0 
L 794 531 
z
" transform="scale(0.015625)"/>
        <path id="DejaVuSans-30" d="M 2034 4250 
Q 1547 4250 1301 3770 
Q 1056 3291 1056 2328 
Q 1056 1369 1301 889 
Q 1547 409 2034 409 
Q 2525 409 2770 889 
Q 3016 1369 3016 2328 
Q 3016 3291 2770 3770 
Q 2525 4250 2034 4250 
z
M 2034 4750 
Q 2819 4750 3233 4129 
Q 3647 3509 3647 2328 
Q 3647 1150 3233 529 
Q 2819 -91 2034 -91 
Q 1250 -91 836 529 
Q 422 1150 422 2328 
Q 422 3509 836 4129 
Q 1250 4750 2034 4750 
z
" transform="scale(0.015625)"/>
        <path id="DejaVuSans-2212" d="M 678 2272 
L 4684 2272 
L 4684 1741 
L 678 1741 
L 678 2272 
z
" transform="scale(0.015625)"/>
        <path id="DejaVuSans-34" d="M 2419 4116 
L 825 1625 
L 2419 1625 
L 2419 4116 
z
M 2253 4666 
L 3047 4666 
L 3047 1625 
L 3713 1625 
L 3713 1100 
L 3047 1100 
L 3047 0 
L 2419 0 
L 2419 1100 
L 313 1100 
L 313 1709 
L 2253 4666 
z
" transform="scale(0.015625)"/>
        <path id="DejaVuSans-2e" d="M 684 794 
L 1344 794 
L 1344 0 
L 684 0 
L 684 794 
z
" transform="scale(0.015625)"/>
        <path id="DejaVuSans-39" d="M 703 97 
L 703 672 
Q 941 559 1184 500 
Q 1428 441 1663 441 
Q 2288 441 2617 861 
Q 2947 1281 2994 2138 
Q 2813 1869 2534 1725 
Q 2256 1581 1919 1581 
Q 1219 1581 811 2004 
Q 403 2428 403 3163 
Q 403 3881 828 4315 
Q 1253 4750 1959 4750 
Q 2769 4750 3195 4129 
Q 3622 3509 3622 2328 
Q 3622 1225 3098 567 
Q 2575 -91 1691 -91 
Q 1453 -91 1209 -44 
Q 966 3 703 97 
z
M 1959 2075 
Q 2384 2075 2632 2365 
Q 2881 2656 2881 3163 
Q 2881 3666 2632 3958 
Q 2384 4250 1959 4250 
Q 1534 4250 1286 3958 
Q 1038 3666 1038 3163 
Q 1038 2656 1286 2365 
Q 1534 2075 1959 2075 
z
" transform="scale(0.015625)"/>
       </defs>
       <use xlink:href="#DejaVuSans-31" transform="translate(0 0.765625)"/>
       <use xlink:href="#DejaVuSans-30" transform="translate(63.623047 0.765625)"/>
       <use xlink:href="#DejaVuSans-2212" transform="translate(128.203125 39.046875) scale(0.7)"/>
       <use xlink:href="#DejaVuSans-34" transform="translate(186.855469 39.046875) scale(0.7)"/>
       <use xlink:href="#DejaVuSans-2e" transform="translate(231.391602 39.046875) scale(0.7)"/>
       <use xlink:href="#DejaVuSans-39" transform="translate(253.642578 39.046875) scale(0.7)"/>
      </g>
     </g>
    </g>
    <g id="xtick_2">
     <g id="line2d_3">
      <g>
       <use xlink:href="#m8f293cdc52" x="129.561644" y="180.033354" style="stroke: #000000; stroke-width: 0.5"/>
      </g>
     </g>
     <g id="line2d_4">
      <g>
       <use xlink:href="#m7a082a19fa" x="129.561644" y="2.834646" style="stroke: #000000; stroke-width: 0.5"/>
      </g>
     </g>
     <g id="text_2">
      <!-- $10^{-4.8}$ -->
      <g transform="translate(116.061644 190.371948) scale(0.09 -0.09)">
       <defs>
        <path id="DejaVuSans-38" d="M 2034 2216 
Q 1584 2216 1326 1975 
Q 1069 1734 1069 1313 
Q 1069 891 1326 650 
Q 1584 409 2034 409 
Q 2484 409 2743 651 
Q 3003 894 3003 1313 
Q 3003 1734 2745 1975 
Q 2488 2216 2034 2216 
z
M 1403 2484 
Q 997 2584 770 2862 
Q 544 3141 544 3541 
Q 544 4100 942 4425 
Q 1341 4750 2034 4750 
Q 2731 4750 3128 4425 
Q 3525 4100 3525 3541 
Q 3525 3141 3298 2862 
Q 3072 2584 2669 2484 
Q 3125 2378 3379 2068 
Q 3634 1759 3634 1313 
Q 3634 634 3220 271 
Q 2806 -91 2034 -91 
Q 1263 -91 848 271 
Q 434 634 434 1313 
Q 434 1759 690 2068 
Q 947 2378 1403 2484 
z
M 1172 3481 
Q 1172 3119 1398 2916 
Q 1625 2713 2034 2713 
Q 2441 2713 2670 2916 
Q 2900 3119 2900 3481 
Q 2900 3844 2670 4047 
Q 2441 4250 2034 4250 
Q 1625 4250 1398 4047 
Q 1172 3844 1172 3481 
z
" transform="scale(0.015625)"/>
       </defs>
       <use xlink:href="#DejaVuSans-31" transform="translate(0 0.765625)"/>
       <use xlink:href="#DejaVuSans-30" transform="translate(63.623047 0.765625)"/>
       <use xlink:href="#DejaVuSans-2212" transform="translate(128.203125 39.046875) scale(0.7)"/>
       <use xlink:href="#DejaVuSans-34" transform="translate(186.855469 39.046875) scale(0.7)"/>
       <use xlink:href="#DejaVuSans-2e" transform="translate(231.391602 39.046875) scale(0.7)"/>
       <use xlink:href="#DejaVuSans-38" transform="translate(251.805078 39.046875) scale(0.7)"/>
      </g>
     </g>
    </g>
    <g id="xtick_3">
     <g id="line2d_5">
      <g>
       <use xlink:href="#m8f293cdc52" x="193.044087" y="180.033354" style="stroke: #000000; stroke-width: 0.5"/>
      </g>
     </g>
     <g id="line2d_6">
      <g>
       <use xlink:href="#m7a082a19fa" x="193.044087" y="2.834646" style="stroke: #000000; stroke-width: 0.5"/>
      </g>
     </g>
     <g id="text_3">
      <!-- $10^{-4.7}$ -->
      <g transform="translate(179.724087 190.371948) scale(0.09 -0.09)">
       <defs>
        <path id="DejaVuSans-37" d="M 525 4666 
L 3525 4666 
L 3525 4397 
L 1831 0 
L 1172 0 
L 2766 4134 
L 525 4134 
L 525 4666 
z
" transform="scale(0.015625)"/>
       </defs>
       <use xlink:href="#DejaVuSans-31" transform="translate(0 0.684375)"/>
       <use xlink:href="#DejaVuSans-30" transform="translate(63.623047 0.684375)"/>
       <use xlink:href="#DejaVuSans-2212" transform="translate(128.203125 38.965625) scale(0.7)"/>
       <use xlink:href="#DejaVuSans-34" transform="translate(186.855469 38.965625) scale(0.7)"/>
       <use xlink:href="#DejaVuSans-2e" transform="translate(231.391602 38.965625) scale(0.7)"/>
       <use xlink:href="#DejaVuSans-37" transform="translate(248.217578 38.965625) scale(0.7)"/>
      </g>
     </g>
    </g>
    <g id="text_4">
     <!-- log$(σ)$ -->
     <g transform="translate(134.889076 205.363667) scale(0.12 -0.12)">
      <defs>
       <path id="DejaVuSans-6c" d="M 603 4863 
L 1178 4863 
L 1178 0 
L 603 0 
L 603 4863 
z
" transform="scale(0.015625)"/>
       <path id="DejaVuSans-6f" d="M 1959 3097 
Q 1497 3097 1228 2736 
Q 959 2375 959 1747 
Q 959 1119 1226 758 
Q 1494 397 1959 397 
Q 2419 397 2687 759 
Q 2956 1122 2956 1747 
Q 2956 2369 2687 2733 
Q 2419 3097 1959 3097 
z
M 1959 3584 
Q 2709 3584 3137 3096 
Q 3566 2609 3566 1747 
Q 3566 888 3137 398 
Q 2709 -91 1959 -91 
Q 1206 -91 779 398 
Q 353 888 353 1747 
Q 353 2609 779 3096 
Q 1206 3584 1959 3584 
z
" transform="scale(0.015625)"/>
       <path id="DejaVuSans-67" d="M 2906 1791 
Q 2906 2416 2648 2759 
Q 2391 3103 1925 3103 
Q 1463 3103 1205 2759 
Q 947 2416 947 1791 
Q 947 1169 1205 825 
Q 1463 481 1925 481 
Q 2391 481 2648 825 
Q 2906 1169 2906 1791 
z
M 3481 434 
Q 3481 -459 3084 -895 
Q 2688 -1331 1869 -1331 
Q 1566 -1331 1297 -1286 
Q 1028 -1241 775 -1147 
L 775 -588 
Q 1028 -725 1275 -790 
Q 1522 -856 1778 -856 
Q 2344 -856 2625 -561 
Q 2906 -266 2906 331 
L 2906 616 
Q 2728 306 2450 153 
Q 2172 0 1784 0 
Q 1141 0 747 490 
Q 353 981 353 1791 
Q 353 2603 747 3093 
Q 1141 3584 1784 3584 
Q 2172 3584 2450 3431 
Q 2728 3278 2906 2969 
L 2906 3500 
L 3481 3500 
L 3481 434 
z
" transform="scale(0.015625)"/>
       <path id="DejaVuSans-28" d="M 1984 4856 
Q 1566 4138 1362 3434 
Q 1159 2731 1159 2009 
Q 1159 1288 1364 580 
Q 1569 -128 1984 -844 
L 1484 -844 
Q 1016 -109 783 600 
Q 550 1309 550 2009 
Q 550 2706 781 3412 
Q 1013 4119 1484 4856 
L 1984 4856 
z
" transform="scale(0.015625)"/>
       <path id="DejaVuSans-Oblique-3c3" d="M 2219 3044 
Q 1744 3044 1422 2700 
Q 1081 2341 969 1747 
Q 844 1119 1044 756 
Q 1241 397 1706 397 
Q 2166 397 2503 759 
Q 2844 1122 2966 1747 
Q 3075 2319 2881 2700 
Q 2700 3044 2219 3044 
z
M 2309 3503 
L 4219 3500 
L 4106 2925 
L 3463 2925 
Q 3706 2438 3575 1747 
Q 3406 888 2884 400 
Q 2359 -91 1609 -91 
Q 856 -91 525 400 
Q 194 888 363 1747 
Q 528 2609 1050 3097 
Q 1484 3503 2309 3503 
z
" transform="scale(0.015625)"/>
       <path id="DejaVuSans-29" d="M 513 4856 
L 1013 4856 
Q 1481 4119 1714 3412 
Q 1947 2706 1947 2009 
Q 1947 1309 1714 600 
Q 1481 -109 1013 -844 
L 513 -844 
Q 928 -128 1133 580 
Q 1338 1288 1338 2009 
Q 1338 2731 1133 3434 
Q 928 4138 513 4856 
z
" transform="scale(0.015625)"/>
      </defs>
      <use xlink:href="#DejaVuSans-6c" transform="translate(0 0.015625)"/>
      <use xlink:href="#DejaVuSans-6f" transform="translate(27.783203 0.015625)"/>
      <use xlink:href="#DejaVuSans-67" transform="translate(88.964844 0.015625)"/>
      <use xlink:href="#DejaVuSans-28" transform="translate(152.441406 0.015625)"/>
      <use xlink:href="#DejaVuSans-Oblique-3c3" transform="translate(191.455078 0.015625)"/>
      <use xlink:href="#DejaVuSans-29" transform="translate(254.833984 0.015625)"/>
     </g>
    </g>
   </g>
   <g id="matplotlib.axis_2">
    <g id="ytick_1">
     <g id="line2d_7">
      <defs>
       <path id="m1dcfa168dc" d="M 0 0 
L 2.5 0 
" style="stroke: #000000; stroke-width: 0.5"/>
      </defs>
      <g>
       <use xlink:href="#m1dcfa168dc" x="55.892797" y="177.36546" style="stroke: #000000; stroke-width: 0.5"/>
      </g>
     </g>
     <g id="line2d_8">
      <defs>
       <path id="m72458162e4" d="M 0 0 
L -2.5 0 
" style="stroke: #000000; stroke-width: 0.5"/>
      </defs>
      <g>
       <use xlink:href="#m72458162e4" x="249.165354" y="177.36546" style="stroke: #000000; stroke-width: 0.5"/>
      </g>
     </g>
     <g id="text_5">
      <!-- $10^{-0.90}$ -->
      <g transform="translate(21.252797 180.784757) scale(0.09 -0.09)">
       <use xlink:href="#DejaVuSans-31" transform="translate(0 0.765625)"/>
       <use xlink:href="#DejaVuSans-30" transform="translate(63.623047 0.765625)"/>
       <use xlink:href="#DejaVuSans-2212" transform="translate(128.203125 39.046875) scale(0.7)"/>
       <use xlink:href="#DejaVuSans-30" transform="translate(186.855469 39.046875) scale(0.7)"/>
       <use xlink:href="#DejaVuSans-2e" transform="translate(231.391602 39.046875) scale(0.7)"/>
       <use xlink:href="#DejaVuSans-39" transform="translate(253.642578 39.046875) scale(0.7)"/>
       <use xlink:href="#DejaVuSans-30" transform="translate(298.178711 39.046875) scale(0.7)"/>
      </g>
     </g>
    </g>
    <g id="ytick_2">
     <g id="line2d_9">
      <g>
       <use xlink:href="#m1dcfa168dc" x="55.892797" y="127.535871" style="stroke: #000000; stroke-width: 0.5"/>
      </g>
     </g>
     <g id="line2d_10">
      <g>
       <use xlink:href="#m72458162e4" x="249.165354" y="127.535871" style="stroke: #000000; stroke-width: 0.5"/>
      </g>
     </g>
     <g id="text_6">
      <!-- $10^{-0.87}$ -->
      <g transform="translate(21.432797 130.955168) scale(0.09 -0.09)">
       <use xlink:href="#DejaVuSans-31" transform="translate(0 0.765625)"/>
       <use xlink:href="#DejaVuSans-30" transform="translate(63.623047 0.765625)"/>
       <use xlink:href="#DejaVuSans-2212" transform="translate(128.203125 39.046875) scale(0.7)"/>
       <use xlink:href="#DejaVuSans-30" transform="translate(186.855469 39.046875) scale(0.7)"/>
       <use xlink:href="#DejaVuSans-2e" transform="translate(231.391602 39.046875) scale(0.7)"/>
       <use xlink:href="#DejaVuSans-38" transform="translate(251.805078 39.046875) scale(0.7)"/>
       <use xlink:href="#DejaVuSans-37" transform="translate(296.341211 39.046875) scale(0.7)"/>
      </g>
     </g>
    </g>
    <g id="ytick_3">
     <g id="line2d_11">
      <g>
       <use xlink:href="#m1dcfa168dc" x="55.892797" y="77.706282" style="stroke: #000000; stroke-width: 0.5"/>
      </g>
     </g>
     <g id="line2d_12">
      <g>
       <use xlink:href="#m72458162e4" x="249.165354" y="77.706282" style="stroke: #000000; stroke-width: 0.5"/>
      </g>
     </g>
     <g id="text_7">
      <!-- $10^{-0.84}$ -->
      <g transform="translate(21.432797 81.125578) scale(0.09 -0.09)">
       <use xlink:href="#DejaVuSans-31" transform="translate(0 0.765625)"/>
       <use xlink:href="#DejaVuSans-30" transform="translate(63.623047 0.765625)"/>
       <use xlink:href="#DejaVuSans-2212" transform="translate(128.203125 39.046875) scale(0.7)"/>
       <use xlink:href="#DejaVuSans-30" transform="translate(186.855469 39.046875) scale(0.7)"/>
       <use xlink:href="#DejaVuSans-2e" transform="translate(231.391602 39.046875) scale(0.7)"/>
       <use xlink:href="#DejaVuSans-38" transform="translate(251.805078 39.046875) scale(0.7)"/>
       <use xlink:href="#DejaVuSans-34" transform="translate(296.341211 39.046875) scale(0.7)"/>
      </g>
     </g>
    </g>
    <g id="ytick_4">
     <g id="line2d_13">
      <g>
       <use xlink:href="#m1dcfa168dc" x="55.892797" y="27.876692" style="stroke: #000000; stroke-width: 0.5"/>
      </g>
     </g>
     <g id="line2d_14">
      <g>
       <use xlink:href="#m72458162e4" x="249.165354" y="27.876692" style="stroke: #000000; stroke-width: 0.5"/>
      </g>
     </g>
     <g id="text_8">
      <!-- $10^{-0.81}$ -->
      <g transform="translate(21.432797 31.295989) scale(0.09 -0.09)">
       <use xlink:href="#DejaVuSans-31" transform="translate(0 0.765625)"/>
       <use xlink:href="#DejaVuSans-30" transform="translate(63.623047 0.765625)"/>
       <use xlink:href="#DejaVuSans-2212" transform="translate(128.203125 39.046875) scale(0.7)"/>
       <use xlink:href="#DejaVuSans-30" transform="translate(186.855469 39.046875) scale(0.7)"/>
       <use xlink:href="#DejaVuSans-2e" transform="translate(231.391602 39.046875) scale(0.7)"/>
       <use xlink:href="#DejaVuSans-38" transform="translate(251.805078 39.046875) scale(0.7)"/>
       <use xlink:href="#DejaVuSans-31" transform="translate(296.341211 39.046875) scale(0.7)"/>
      </g>
     </g>
    </g>
    <g id="text_9">
     <!-- log$(s_{\mathrm{max}}/N)$ -->
     <g transform="translate(14.732797 124.254) rotate(-90) scale(0.12 -0.12)">
      <defs>
       <path id="DejaVuSans-Oblique-73" d="M 3200 3397 
L 3091 2853 
Q 2863 2978 2609 3040 
Q 2356 3103 2088 3103 
Q 1634 3103 1373 2948 
Q 1113 2794 1113 2528 
Q 1113 2219 1719 2053 
Q 1766 2041 1788 2034 
L 1972 1978 
Q 2547 1819 2739 1644 
Q 2931 1469 2931 1166 
Q 2931 609 2489 259 
Q 2047 -91 1331 -91 
Q 1053 -91 747 -37 
Q 441 16 72 128 
L 184 722 
Q 500 559 806 475 
Q 1113 391 1394 391 
Q 1816 391 2080 572 
Q 2344 753 2344 1031 
Q 2344 1331 1650 1516 
L 1591 1531 
L 1394 1581 
Q 956 1697 753 1886 
Q 550 2075 550 2369 
Q 550 2928 970 3256 
Q 1391 3584 2113 3584 
Q 2397 3584 2667 3537 
Q 2938 3491 3200 3397 
z
" transform="scale(0.015625)"/>
       <path id="DejaVuSans-6d" d="M 3328 2828 
Q 3544 3216 3844 3400 
Q 4144 3584 4550 3584 
Q 5097 3584 5394 3201 
Q 5691 2819 5691 2113 
L 5691 0 
L 5113 0 
L 5113 2094 
Q 5113 2597 4934 2840 
Q 4756 3084 4391 3084 
Q 3944 3084 3684 2787 
Q 3425 2491 3425 1978 
L 3425 0 
L 2847 0 
L 2847 2094 
Q 2847 2600 2669 2842 
Q 2491 3084 2119 3084 
Q 1678 3084 1418 2786 
Q 1159 2488 1159 1978 
L 1159 0 
L 581 0 
L 581 3500 
L 1159 3500 
L 1159 2956 
Q 1356 3278 1631 3431 
Q 1906 3584 2284 3584 
Q 2666 3584 2933 3390 
Q 3200 3197 3328 2828 
z
" transform="scale(0.015625)"/>
       <path id="DejaVuSans-61" d="M 2194 1759 
Q 1497 1759 1228 1600 
Q 959 1441 959 1056 
Q 959 750 1161 570 
Q 1363 391 1709 391 
Q 2188 391 2477 730 
Q 2766 1069 2766 1631 
L 2766 1759 
L 2194 1759 
z
M 3341 1997 
L 3341 0 
L 2766 0 
L 2766 531 
Q 2569 213 2275 61 
Q 1981 -91 1556 -91 
Q 1019 -91 701 211 
Q 384 513 384 1019 
Q 384 1609 779 1909 
Q 1175 2209 1959 2209 
L 2766 2209 
L 2766 2266 
Q 2766 2663 2505 2880 
Q 2244 3097 1772 3097 
Q 1472 3097 1187 3025 
Q 903 2953 641 2809 
L 641 3341 
Q 956 3463 1253 3523 
Q 1550 3584 1831 3584 
Q 2591 3584 2966 3190 
Q 3341 2797 3341 1997 
z
" transform="scale(0.015625)"/>
       <path id="DejaVuSans-78" d="M 3513 3500 
L 2247 1797 
L 3578 0 
L 2900 0 
L 1881 1375 
L 863 0 
L 184 0 
L 1544 1831 
L 300 3500 
L 978 3500 
L 1906 2253 
L 2834 3500 
L 3513 3500 
z
" transform="scale(0.015625)"/>
       <path id="DejaVuSans-2f" d="M 1625 4666 
L 2156 4666 
L 531 -594 
L 0 -594 
L 1625 4666 
z
" transform="scale(0.015625)"/>
       <path id="DejaVuSans-Oblique-4e" d="M 1081 4666 
L 1931 4666 
L 3219 666 
L 4000 4666 
L 4616 4666 
L 3706 0 
L 2853 0 
L 1569 4025 
L 788 0 
L 172 0 
L 1081 4666 
z
" transform="scale(0.015625)"/>
      </defs>
      <use xlink:href="#DejaVuSans-6c" transform="translate(0 0.015625)"/>
      <use xlink:href="#DejaVuSans-6f" transform="translate(27.783203 0.015625)"/>
      <use xlink:href="#DejaVuSans-67" transform="translate(88.964844 0.015625)"/>
      <use xlink:href="#DejaVuSans-28" transform="translate(152.441406 0.015625)"/>
      <use xlink:href="#DejaVuSans-Oblique-73" transform="translate(191.455078 0.015625)"/>
      <use xlink:href="#DejaVuSans-6d" transform="translate(243.554688 -16.390625) scale(0.7)"/>
      <use xlink:href="#DejaVuSans-61" transform="translate(311.743164 -16.390625) scale(0.7)"/>
      <use xlink:href="#DejaVuSans-78" transform="translate(354.638672 -16.390625) scale(0.7)"/>
      <use xlink:href="#DejaVuSans-2f" transform="translate(398.798828 0.015625)"/>
      <use xlink:href="#DejaVuSans-Oblique-4e" transform="translate(432.490234 0.015625)"/>
      <use xlink:href="#DejaVuSans-29" transform="translate(507.294922 0.015625)"/>
     </g>
    </g>
   </g>
   <g id="patch_3">
    <path d="M 55.892797 180.033354 
L 55.892797 2.834646 
" style="fill: none; stroke: #000000; stroke-linejoin: miter; stroke-linecap: square"/>
   </g>
   <g id="patch_4">
    <path d="M 249.165354 180.033354 
L 249.165354 2.834646 
" style="fill: none; stroke: #000000; stroke-linejoin: miter; stroke-linecap: square"/>
   </g>
   <g id="patch_5">
    <path d="M 55.892797 180.033354 
L 249.165354 180.033354 
" style="fill: none; stroke: #000000; stroke-linejoin: miter; stroke-linecap: square"/>
   </g>
   <g id="patch_6">
    <path d="M 55.892797 2.834646 
L 249.165354 2.834646 
" style="fill: none; stroke: #000000; stroke-linejoin: miter; stroke-linecap: square"/>
   </g>
   <g id="text_10">
    <!-- $ t_0 = $0.1 -->
    <g transform="translate(78.258838 175.266678) scale(0.14 -0.14)">
     <defs>
      <path id="DejaVuSans-Oblique-74" d="M 2706 3500 
L 2619 3053 
L 1472 3053 
L 1100 1153 
Q 1081 1047 1072 975 
Q 1063 903 1063 863 
Q 1063 663 1183 572 
Q 1303 481 1569 481 
L 2150 481 
L 2053 0 
L 1503 0 
Q 991 0 739 200 
Q 488 400 488 806 
Q 488 878 497 964 
Q 506 1050 525 1153 
L 897 3053 
L 409 3053 
L 500 3500 
L 978 3500 
L 1172 4494 
L 1747 4494 
L 1556 3500 
L 2706 3500 
z
" transform="scale(0.015625)"/>
      <path id="DejaVuSans-3d" d="M 678 2906 
L 4684 2906 
L 4684 2381 
L 678 2381 
L 678 2906 
z
M 678 1631 
L 4684 1631 
L 4684 1100 
L 678 1100 
L 678 1631 
z
" transform="scale(0.015625)"/>
     </defs>
     <use xlink:href="#DejaVuSans-Oblique-74" transform="translate(0 0.78125)"/>
     <use xlink:href="#DejaVuSans-30" transform="translate(39.208984 -15.625) scale(0.7)"/>
     <use xlink:href="#DejaVuSans-3d" transform="translate(105.961914 0.78125)"/>
     <use xlink:href="#DejaVuSans-30" transform="translate(209.233398 0.78125)"/>
     <use xlink:href="#DejaVuSans-2e" transform="translate(272.856445 0.78125)"/>
     <use xlink:href="#DejaVuSans-31" transform="translate(304.643555 0.78125)"/>
    </g>
   </g>
   <g id="text_11">
    <!-- $ t_0 = $0.2 -->
    <g transform="translate(87.988624 128.833482) scale(0.14 -0.14)">
     <defs>
      <path id="DejaVuSans-32" d="M 1228 531 
L 3431 531 
L 3431 0 
L 469 0 
L 469 531 
Q 828 903 1448 1529 
Q 2069 2156 2228 2338 
Q 2531 2678 2651 2914 
Q 2772 3150 2772 3378 
Q 2772 3750 2511 3984 
Q 2250 4219 1831 4219 
Q 1534 4219 1204 4116 
Q 875 4013 500 3803 
L 500 4441 
Q 881 4594 1212 4672 
Q 1544 4750 1819 4750 
Q 2544 4750 2975 4387 
Q 3406 4025 3406 3419 
Q 3406 3131 3298 2873 
Q 3191 2616 2906 2266 
Q 2828 2175 2409 1742 
Q 1991 1309 1228 531 
z
" transform="scale(0.015625)"/>
     </defs>
     <use xlink:href="#DejaVuSans-Oblique-74" transform="translate(0 0.78125)"/>
     <use xlink:href="#DejaVuSans-30" transform="translate(39.208984 -15.625) scale(0.7)"/>
     <use xlink:href="#DejaVuSans-3d" transform="translate(105.961914 0.78125)"/>
     <use xlink:href="#DejaVuSans-30" transform="translate(209.233398 0.78125)"/>
     <use xlink:href="#DejaVuSans-2e" transform="translate(272.856445 0.78125)"/>
     <use xlink:href="#DejaVuSans-32" transform="translate(299.143555 0.78125)"/>
    </g>
   </g>
   <g id="text_12">
    <!-- $ t_0 = $0.3 -->
    <g transform="translate(88.128052 18.7102) scale(0.14 -0.14)">
     <defs>
      <path id="DejaVuSans-33" d="M 2597 2516 
Q 3050 2419 3304 2112 
Q 3559 1806 3559 1356 
Q 3559 666 3084 287 
Q 2609 -91 1734 -91 
Q 1441 -91 1130 -33 
Q 819 25 488 141 
L 488 750 
Q 750 597 1062 519 
Q 1375 441 1716 441 
Q 2309 441 2620 675 
Q 2931 909 2931 1356 
Q 2931 1769 2642 2001 
Q 2353 2234 1838 2234 
L 1294 2234 
L 1294 2753 
L 1863 2753 
Q 2328 2753 2575 2939 
Q 2822 3125 2822 3475 
Q 2822 3834 2567 4026 
Q 2313 4219 1838 4219 
Q 1578 4219 1281 4162 
Q 984 4106 628 3988 
L 628 4550 
Q 988 4650 1302 4700 
Q 1616 4750 1894 4750 
Q 2613 4750 3031 4423 
Q 3450 4097 3450 3541 
Q 3450 3153 3228 2886 
Q 3006 2619 2597 2516 
z
" transform="scale(0.015625)"/>
     </defs>
     <use xlink:href="#DejaVuSans-Oblique-74" transform="translate(0 0.78125)"/>
     <use xlink:href="#DejaVuSans-30" transform="translate(39.208984 -15.625) scale(0.7)"/>
     <use xlink:href="#DejaVuSans-3d" transform="translate(105.961914 0.78125)"/>
     <use xlink:href="#DejaVuSans-30" transform="translate(209.233398 0.78125)"/>
     <use xlink:href="#DejaVuSans-2e" transform="translate(272.856445 0.78125)"/>
     <use xlink:href="#DejaVuSans-33" transform="translate(304.643555 0.78125)"/>
    </g>
   </g>
   <g id="legend_1">
    <g id="patch_7">
     <path d="M 189.322386 30.444958 
L 244.665354 30.444958 
L 244.665354 7.334646 
L 189.322386 7.334646 
L 189.322386 30.444958 
z
" style="fill: none; opacity: 0"/>
    </g>
    <g id="line2d_15">
     <path d="M 196.522386 18.223239 
L 205.522386 18.223239 
L 214.522386 18.223239 
" style="fill: none"/>
     <defs>
      <path id="m8e36fc4cf8" d="M -3.6 3.6 
L 3.6 -3.6 
M -3.6 -3.6 
L 3.6 3.6 
" style="stroke: #009afa; stroke-width: 1.44"/>
     </defs>
     <g>
      <use xlink:href="#m8e36fc4cf8" x="205.522386" y="18.223239" style="fill: #009afa; stroke: #009afa; stroke-width: 1.44"/>
     </g>
    </g>
    <g id="text_13">
     <!-- LLS -->
     <g transform="translate(221.722386 21.373239) scale(0.09 -0.09)">
      <defs>
       <path id="DejaVuSans-4c" d="M 628 4666 
L 1259 4666 
L 1259 531 
L 3531 531 
L 3531 0 
L 628 0 
L 628 4666 
z
" transform="scale(0.015625)"/>
       <path id="DejaVuSans-53" d="M 3425 4513 
L 3425 3897 
Q 3066 4069 2747 4153 
Q 2428 4238 2131 4238 
Q 1616 4238 1336 4038 
Q 1056 3838 1056 3469 
Q 1056 3159 1242 3001 
Q 1428 2844 1947 2747 
L 2328 2669 
Q 3034 2534 3370 2195 
Q 3706 1856 3706 1288 
Q 3706 609 3251 259 
Q 2797 -91 1919 -91 
Q 1588 -91 1214 -16 
Q 841 59 441 206 
L 441 856 
Q 825 641 1194 531 
Q 1563 422 1919 422 
Q 2459 422 2753 634 
Q 3047 847 3047 1241 
Q 3047 1584 2836 1778 
Q 2625 1972 2144 2069 
L 1759 2144 
Q 1053 2284 737 2584 
Q 422 2884 422 3419 
Q 422 4038 858 4394 
Q 1294 4750 2059 4750 
Q 2388 4750 2728 4690 
Q 3069 4631 3425 4513 
z
" transform="scale(0.015625)"/>
      </defs>
      <use xlink:href="#DejaVuSans-4c"/>
      <use xlink:href="#DejaVuSans-4c" x="55.712891"/>
      <use xlink:href="#DejaVuSans-53" x="111.425781"/>
     </g>
    </g>
   </g>
  </g>
  <g id="axes_2">
   <g id="patch_8">
    <path d="M 307.892797 180.033354 
L 501.165354 180.033354 
L 501.165354 2.834646 
L 307.892797 2.834646 
z
" style="fill: #ffffff"/>
   </g>
   <g id="PathCollection_2">
    <g clip-path="url(#p747e92e9f3)">
     <use xlink:href="#m2f3d53520b" x="501.165354" y="180.033354" style="fill: #009afa; stroke: #009afa"/>
     <use xlink:href="#m2f3d53520b" x="496.695913" y="174.223383" style="fill: #009afa; stroke: #009afa"/>
     <use xlink:href="#m2f3d53520b" x="489.128016" y="167.220379" style="fill: #009afa; stroke: #009afa"/>
     <use xlink:href="#m2f3d53520b" x="482.767909" y="161.828749" style="fill: #009afa; stroke: #009afa"/>
     <use xlink:href="#m2f3d53520b" x="473.100317" y="156.49004" style="fill: #009afa; stroke: #009afa"/>
     <use xlink:href="#m2f3d53520b" x="465.307736" y="149.850641" style="fill: #009afa; stroke: #009afa"/>
     <use xlink:href="#m2f3d53520b" x="458.296278" y="145.176749" style="fill: #009afa; stroke: #009afa"/>
     <use xlink:href="#m2f3d53520b" x="452.271178" y="140.81581" style="fill: #009afa; stroke: #009afa"/>
     <use xlink:href="#m2f3d53520b" x="446.024932" y="136.241795" style="fill: #009afa; stroke: #009afa"/>
     <use xlink:href="#m2f3d53520b" x="437.485917" y="130.095667" style="fill: #009afa; stroke: #009afa"/>
     <use xlink:href="#m2f3d53520b" x="429.341243" y="124.858496" style="fill: #009afa; stroke: #009afa"/>
     <use xlink:href="#m2f3d53520b" x="421.007327" y="120.206848" style="fill: #009afa; stroke: #009afa"/>
     <use xlink:href="#m2f3d53520b" x="411.991851" y="114.597221" style="fill: #009afa; stroke: #009afa"/>
     <use xlink:href="#m2f3d53520b" x="403.010784" y="108.846603" style="fill: #009afa; stroke: #009afa"/>
     <use xlink:href="#m2f3d53520b" x="394.850758" y="102.717862" style="fill: #009afa; stroke: #009afa"/>
     <use xlink:href="#m2f3d53520b" x="388.561097" y="99.003002" style="fill: #009afa; stroke: #009afa"/>
     <use xlink:href="#m2f3d53520b" x="382.320149" y="95.100219" style="fill: #009afa; stroke: #009afa"/>
     <use xlink:href="#m2f3d53520b" x="378.362722" y="92.367624" style="fill: #009afa; stroke: #009afa"/>
     <use xlink:href="#m2f3d53520b" x="378.111086" y="89.577271" style="fill: #009afa; stroke: #009afa"/>
     <use xlink:href="#m2f3d53520b" x="377.701994" y="87.22112" style="fill: #009afa; stroke: #009afa"/>
     <use xlink:href="#m2f3d53520b" x="377.090782" y="85.971908" style="fill: #009afa; stroke: #009afa"/>
     <use xlink:href="#m2f3d53520b" x="372.550016" y="76.731657" style="fill: #009afa; stroke: #009afa"/>
     <use xlink:href="#m2f3d53520b" x="362.589449" y="63.709779" style="fill: #009afa; stroke: #009afa"/>
     <use xlink:href="#m2f3d53520b" x="346.957583" y="47.299793" style="fill: #009afa; stroke: #009afa"/>
     <use xlink:href="#m2f3d53520b" x="324.509446" y="24.14225" style="fill: #009afa; stroke: #009afa"/>
     <use xlink:href="#m2f3d53520b" x="307.892797" y="2.834646" style="fill: #009afa; stroke: #009afa"/>
    </g>
   </g>
   <g id="matplotlib.axis_3">
    <g id="xtick_4">
     <g id="line2d_16">
      <g>
       <use xlink:href="#m8f293cdc52" x="357.63933" y="180.033354" style="stroke: #000000; stroke-width: 0.5"/>
      </g>
     </g>
     <g id="line2d_17">
      <g>
       <use xlink:href="#m7a082a19fa" x="357.63933" y="2.834646" style="stroke: #000000; stroke-width: 0.5"/>
      </g>
     </g>
     <g id="text_14">
      <!-- $10^{-5.7}$ -->
      <g transform="translate(344.31933 190.371948) scale(0.09 -0.09)">
       <defs>
        <path id="DejaVuSans-35" d="M 691 4666 
L 3169 4666 
L 3169 4134 
L 1269 4134 
L 1269 2991 
Q 1406 3038 1543 3061 
Q 1681 3084 1819 3084 
Q 2600 3084 3056 2656 
Q 3513 2228 3513 1497 
Q 3513 744 3044 326 
Q 2575 -91 1722 -91 
Q 1428 -91 1123 -41 
Q 819 9 494 109 
L 494 744 
Q 775 591 1075 516 
Q 1375 441 1709 441 
Q 2250 441 2565 725 
Q 2881 1009 2881 1497 
Q 2881 1984 2565 2268 
Q 2250 2553 1709 2553 
Q 1456 2553 1204 2497 
Q 953 2441 691 2322 
L 691 4666 
z
" transform="scale(0.015625)"/>
       </defs>
       <use xlink:href="#DejaVuSans-31" transform="translate(0 0.684375)"/>
       <use xlink:href="#DejaVuSans-30" transform="translate(63.623047 0.684375)"/>
       <use xlink:href="#DejaVuSans-2212" transform="translate(128.203125 38.965625) scale(0.7)"/>
       <use xlink:href="#DejaVuSans-35" transform="translate(186.855469 38.965625) scale(0.7)"/>
       <use xlink:href="#DejaVuSans-2e" transform="translate(231.391602 38.965625) scale(0.7)"/>
       <use xlink:href="#DejaVuSans-37" transform="translate(248.217578 38.965625) scale(0.7)"/>
      </g>
     </g>
    </g>
    <g id="xtick_5">
     <g id="line2d_18">
      <g>
       <use xlink:href="#m8f293cdc52" x="430.307741" y="180.033354" style="stroke: #000000; stroke-width: 0.5"/>
      </g>
     </g>
     <g id="line2d_19">
      <g>
       <use xlink:href="#m7a082a19fa" x="430.307741" y="2.834646" style="stroke: #000000; stroke-width: 0.5"/>
      </g>
     </g>
     <g id="text_15">
      <!-- $10^{-5.4}$ -->
      <g transform="translate(416.762741 190.371948) scale(0.09 -0.09)">
       <use xlink:href="#DejaVuSans-31" transform="translate(0 0.684375)"/>
       <use xlink:href="#DejaVuSans-30" transform="translate(63.623047 0.684375)"/>
       <use xlink:href="#DejaVuSans-2212" transform="translate(128.203125 38.965625) scale(0.7)"/>
       <use xlink:href="#DejaVuSans-35" transform="translate(186.855469 38.965625) scale(0.7)"/>
       <use xlink:href="#DejaVuSans-2e" transform="translate(231.391602 38.965625) scale(0.7)"/>
       <use xlink:href="#DejaVuSans-34" transform="translate(253.642578 38.965625) scale(0.7)"/>
      </g>
     </g>
    </g>
    <g id="text_16">
     <!-- log$(σ)$ -->
     <g transform="translate(386.889076 205.363667) scale(0.12 -0.12)">
      <use xlink:href="#DejaVuSans-6c" transform="translate(0 0.015625)"/>
      <use xlink:href="#DejaVuSans-6f" transform="translate(27.783203 0.015625)"/>
      <use xlink:href="#DejaVuSans-67" transform="translate(88.964844 0.015625)"/>
      <use xlink:href="#DejaVuSans-28" transform="translate(152.441406 0.015625)"/>
      <use xlink:href="#DejaVuSans-Oblique-3c3" transform="translate(191.455078 0.015625)"/>
      <use xlink:href="#DejaVuSans-29" transform="translate(254.833984 0.015625)"/>
     </g>
    </g>
   </g>
   <g id="matplotlib.axis_4">
    <g id="ytick_5">
     <g id="line2d_20">
      <g>
       <use xlink:href="#m1dcfa168dc" x="307.892797" y="108.418224" style="stroke: #000000; stroke-width: 0.5"/>
      </g>
     </g>
     <g id="line2d_21">
      <g>
       <use xlink:href="#m72458162e4" x="501.165354" y="108.418224" style="stroke: #000000; stroke-width: 0.5"/>
      </g>
     </g>
     <g id="text_17">
      <!-- $10^{-0.50}$ -->
      <g transform="translate(273.252797 111.837521) scale(0.09 -0.09)">
       <use xlink:href="#DejaVuSans-31" transform="translate(0 0.765625)"/>
       <use xlink:href="#DejaVuSans-30" transform="translate(63.623047 0.765625)"/>
       <use xlink:href="#DejaVuSans-2212" transform="translate(128.203125 39.046875) scale(0.7)"/>
       <use xlink:href="#DejaVuSans-30" transform="translate(186.855469 39.046875) scale(0.7)"/>
       <use xlink:href="#DejaVuSans-2e" transform="translate(231.391602 39.046875) scale(0.7)"/>
       <use xlink:href="#DejaVuSans-35" transform="translate(253.642578 39.046875) scale(0.7)"/>
       <use xlink:href="#DejaVuSans-30" transform="translate(298.178711 39.046875) scale(0.7)"/>
      </g>
     </g>
    </g>
    <g id="ytick_6">
     <g id="line2d_22">
      <g>
       <use xlink:href="#m1dcfa168dc" x="307.892797" y="27.455222" style="stroke: #000000; stroke-width: 0.5"/>
      </g>
     </g>
     <g id="line2d_23">
      <g>
       <use xlink:href="#m72458162e4" x="501.165354" y="27.455222" style="stroke: #000000; stroke-width: 0.5"/>
      </g>
     </g>
     <g id="text_18">
      <!-- $10^{-0.25}$ -->
      <g transform="translate(273.612797 30.874519) scale(0.09 -0.09)">
       <use xlink:href="#DejaVuSans-31" transform="translate(0 0.765625)"/>
       <use xlink:href="#DejaVuSans-30" transform="translate(63.623047 0.765625)"/>
       <use xlink:href="#DejaVuSans-2212" transform="translate(128.203125 39.046875) scale(0.7)"/>
       <use xlink:href="#DejaVuSans-30" transform="translate(186.855469 39.046875) scale(0.7)"/>
       <use xlink:href="#DejaVuSans-2e" transform="translate(231.391602 39.046875) scale(0.7)"/>
       <use xlink:href="#DejaVuSans-32" transform="translate(249.792578 39.046875) scale(0.7)"/>
       <use xlink:href="#DejaVuSans-35" transform="translate(294.328711 39.046875) scale(0.7)"/>
      </g>
     </g>
    </g>
    <g id="text_19">
     <!-- log$(s_{\mathrm{max}}/N)$ -->
     <g transform="translate(266.732797 124.254) rotate(-90) scale(0.12 -0.12)">
      <use xlink:href="#DejaVuSans-6c" transform="translate(0 0.015625)"/>
      <use xlink:href="#DejaVuSans-6f" transform="translate(27.783203 0.015625)"/>
      <use xlink:href="#DejaVuSans-67" transform="translate(88.964844 0.015625)"/>
      <use xlink:href="#DejaVuSans-28" transform="translate(152.441406 0.015625)"/>
      <use xlink:href="#DejaVuSans-Oblique-73" transform="translate(191.455078 0.015625)"/>
      <use xlink:href="#DejaVuSans-6d" transform="translate(243.554688 -16.390625) scale(0.7)"/>
      <use xlink:href="#DejaVuSans-61" transform="translate(311.743164 -16.390625) scale(0.7)"/>
      <use xlink:href="#DejaVuSans-78" transform="translate(354.638672 -16.390625) scale(0.7)"/>
      <use xlink:href="#DejaVuSans-2f" transform="translate(398.798828 0.015625)"/>
      <use xlink:href="#DejaVuSans-Oblique-4e" transform="translate(432.490234 0.015625)"/>
      <use xlink:href="#DejaVuSans-29" transform="translate(507.294922 0.015625)"/>
     </g>
    </g>
   </g>
   <g id="patch_9">
    <path d="M 307.892797 180.033354 
L 307.892797 2.834646 
" style="fill: none; stroke: #000000; stroke-linejoin: miter; stroke-linecap: square"/>
   </g>
   <g id="patch_10">
    <path d="M 501.165354 180.033354 
L 501.165354 2.834646 
" style="fill: none; stroke: #000000; stroke-linejoin: miter; stroke-linecap: square"/>
   </g>
   <g id="patch_11">
    <path d="M 307.892797 180.033354 
L 501.165354 180.033354 
" style="fill: none; stroke: #000000; stroke-linejoin: miter; stroke-linecap: square"/>
   </g>
   <g id="patch_12">
    <path d="M 307.892797 2.834646 
L 501.165354 2.834646 
" style="fill: none; stroke: #000000; stroke-linejoin: miter; stroke-linecap: square"/>
   </g>
   <g id="text_20">
    <!-- $ t_0 = $0.2 -->
    <g transform="translate(429.341243 121.946934) scale(0.14 -0.14)">
     <use xlink:href="#DejaVuSans-Oblique-74" transform="translate(0 0.78125)"/>
     <use xlink:href="#DejaVuSans-30" transform="translate(39.208984 -15.625) scale(0.7)"/>
     <use xlink:href="#DejaVuSans-3d" transform="translate(105.961914 0.78125)"/>
     <use xlink:href="#DejaVuSans-30" transform="translate(209.233398 0.78125)"/>
     <use xlink:href="#DejaVuSans-2e" transform="translate(272.856445 0.78125)"/>
     <use xlink:href="#DejaVuSans-32" transform="translate(299.143555 0.78125)"/>
    </g>
   </g>
   <g id="text_21">
    <!-- $ t_0 = $0.3 -->
    <g transform="translate(388.561097 96.09144) scale(0.14 -0.14)">
     <use xlink:href="#DejaVuSans-Oblique-74" transform="translate(0 0.78125)"/>
     <use xlink:href="#DejaVuSans-30" transform="translate(39.208984 -15.625) scale(0.7)"/>
     <use xlink:href="#DejaVuSans-3d" transform="translate(105.961914 0.78125)"/>
     <use xlink:href="#DejaVuSans-30" transform="translate(209.233398 0.78125)"/>
     <use xlink:href="#DejaVuSans-2e" transform="translate(272.856445 0.78125)"/>
     <use xlink:href="#DejaVuSans-33" transform="translate(304.643555 0.78125)"/>
    </g>
   </g>
   <g id="text_22">
    <!-- $ t_0 = $0.4 -->
    <g transform="translate(377.090782 83.060345) scale(0.14 -0.14)">
     <use xlink:href="#DejaVuSans-Oblique-74" transform="translate(0 0.78125)"/>
     <use xlink:href="#DejaVuSans-30" transform="translate(39.208984 -15.625) scale(0.7)"/>
     <use xlink:href="#DejaVuSans-3d" transform="translate(105.961914 0.78125)"/>
     <use xlink:href="#DejaVuSans-30" transform="translate(209.233398 0.78125)"/>
     <use xlink:href="#DejaVuSans-2e" transform="translate(272.856445 0.78125)"/>
     <use xlink:href="#DejaVuSans-34" transform="translate(304.643555 0.78125)"/>
    </g>
   </g>
   <g id="legend_2">
    <g id="patch_13">
     <path d="M 440.052542 30.444958 
L 496.665354 30.444958 
L 496.665354 7.334646 
L 440.052542 7.334646 
L 440.052542 30.444958 
z
" style="fill: none; opacity: 0"/>
    </g>
    <g id="line2d_24">
     <path d="M 447.252542 18.223239 
L 456.252542 18.223239 
L 465.252542 18.223239 
" style="fill: none"/>
     <g>
      <use xlink:href="#m8e36fc4cf8" x="456.252542" y="18.223239" style="fill: #009afa; stroke: #009afa; stroke-width: 1.44"/>
     </g>
    </g>
    <g id="text_23">
     <!-- CLS -->
     <g transform="translate(472.452542 21.373239) scale(0.09 -0.09)">
      <defs>
       <path id="DejaVuSans-43" d="M 4122 4306 
L 4122 3641 
Q 3803 3938 3442 4084 
Q 3081 4231 2675 4231 
Q 1875 4231 1450 3742 
Q 1025 3253 1025 2328 
Q 1025 1406 1450 917 
Q 1875 428 2675 428 
Q 3081 428 3442 575 
Q 3803 722 4122 1019 
L 4122 359 
Q 3791 134 3420 21 
Q 3050 -91 2638 -91 
Q 1578 -91 968 557 
Q 359 1206 359 2328 
Q 359 3453 968 4101 
Q 1578 4750 2638 4750 
Q 3056 4750 3426 4639 
Q 3797 4528 4122 4306 
z
" transform="scale(0.015625)"/>
      </defs>
      <use xlink:href="#DejaVuSans-43"/>
      <use xlink:href="#DejaVuSans-4c" x="69.824219"/>
      <use xlink:href="#DejaVuSans-53" x="125.537109"/>
     </g>
    </g>
   </g>
  </g>
 </g>
 <defs>
  <clipPath id="pc024cc413f">
   <rect x="55.892797" y="2.834646" width="193.272557" height="177.198709"/>
  </clipPath>
  <clipPath id="p747e92e9f3">
   <rect x="307.892797" y="2.834646" width="193.272557" height="177.198709"/>
  </clipPath>
 </defs>
</svg>
